<?xml version="1.0" encoding="UTF-8" standalone="no"?>
<!-- Created with Inkscape (http://www.inkscape.org/) -->

<svg
   version="1.1"
   id="svg2"
   width="1120.6267"
   height="466.65332"
   viewBox="0 0 1120.6267 466.65332"
   sodipodi:docname="UseCaseForSystemAdministrator.eps"
   xmlns:inkscape="http://www.inkscape.org/namespaces/inkscape"
   xmlns:sodipodi="http://sodipodi.sourceforge.net/DTD/sodipodi-0.dtd"
   xmlns="http://www.w3.org/2000/svg"
   xmlns:svg="http://www.w3.org/2000/svg">
  <defs
     id="defs6" />
  <sodipodi:namedview
     id="namedview4"
     pagecolor="#ffffff"
     bordercolor="#000000"
     borderopacity="0.25"
     inkscape:showpageshadow="2"
     inkscape:pageopacity="0.0"
     inkscape:pagecheckerboard="0"
     inkscape:deskcolor="#d1d1d1" />
  <g
     id="g8"
     inkscape:groupmode="layer"
     inkscape:label="ink_ext_XXXXXX"
     transform="matrix(1.3333333,0,0,-1.3333333,0,466.65333)">
    <g
       id="g10"
       transform="scale(0.1)">
      <path
         d="m -6234.95,-1904.19 h 16477.8 v 5952.8 h -16477.8 z"
         style="fill:none;stroke:#b1b0b0;stroke-width:20;stroke-linecap:round;stroke-linejoin:round;stroke-miterlimit:10;stroke-dasharray:none;stroke-opacity:1"
         id="path12" />
      <path
         d="m 3167.75,145.262 h 5014.3 v 3268.1 h -5014.3 z"
         style="fill:#ffffff;fill-opacity:1;fill-rule:evenodd;stroke:none"
         id="path14" />
      <path
         d="m 3167.75,145.262 h 5014.3 v 3268.1 h -5014.3 z"
         style="fill:none;stroke:#f9b90a;stroke-width:20;stroke-linecap:round;stroke-linejoin:round;stroke-miterlimit:10;stroke-dasharray:none;stroke-opacity:1"
         id="path16" />
      <path
         d="m 3323.65,3288.46 c 0,-1.39 -0.1,-2.59 -0.3,-3.59 -0.2,-0.91 -0.5,-1.71 -0.8,-2.3 -0.3,-0.61 -0.7,-1 -1.2,-1.3 -0.5,-0.2 -1,-0.4 -1.5,-0.4 h -11 l -3.3,-25 h 9.4 c 1.1,0 2,-0.6 2.7,-1.71 0.7,-1.2 1,-3.09 1,-5.79 0,-1.41 -0.1,-2.6 -0.3,-3.6 -0.2,-1 -0.4,-1.81 -0.7,-2.4 -0.4,-0.6 -0.8,-1 -1.3,-1.21 -0.4,-0.29 -0.9,-0.39 -1.4,-0.39 h -11.6 l -3.5,-27.5 c -0.1,-0.61 -0.3,-1 -0.6,-1.4 -0.3,-0.41 -0.8,-0.71 -1.5,-1 -0.8,-0.3 -1.8,-0.5 -3,-0.6 -1.3,-0.2 -2.9,-0.2 -4.8,-0.2 -2.1,0 -3.7,0 -5,0.2 -1.2,0.1 -2.2,0.3 -2.8,0.6 -0.7,0.29 -1.1,0.59 -1.3,1 -0.3,0.4 -0.3,0.79 -0.3,1.4 l 3.7,27.5 h -21.7 l -3.5,-27.5 c -0.1,-0.5 -0.3,-1 -0.6,-1.4 -0.3,-0.41 -0.8,-0.71 -1.5,-1 -0.7,-0.3 -1.7,-0.5 -2.9,-0.6 -1.3,-0.2 -2.9,-0.2 -5,-0.2 -2,0 -3.6,0 -4.8,0.2 -1.2,0.1 -2.2,0.3 -2.9,0.6 -0.7,0.29 -1.1,0.59 -1.3,1 -0.3,0.4 -0.3,0.79 -0.2,1.4 l 3.5,27.5 h -9.2 c -1.1,0 -2,0.5 -2.6,1.6 -0.7,1.09 -1.1,3.09 -1.1,5.79 0,1.41 0.1,2.61 0.3,3.61 0.2,1 0.5,1.8 0.8,2.39 0.3,0.61 0.7,1 1.2,1.3 0.4,0.31 0.9,0.41 1.5,0.41 h 11.2 l 3.3,25 h -9.7 c -1.1,0 -2,0.59 -2.7,1.7 -0.7,1.09 -1,3 -1,5.8 0,2.79 0.3,4.79 1,5.9 0.8,1.1 1.7,1.69 2.8,1.69 h 11.6 l 3.4,25.61 c 0,0.59 0.2,1 0.5,1.39 0.3,0.41 0.9,0.7 1.7,1 0.7,0.31 1.8,0.5 3.1,0.7 1.2,0.11 2.9,0.21 4.9,0.21 2,0 3.6,-0.1 4.8,-0.21 1.2,-0.2 2.2,-0.39 2.8,-0.7 0.7,-0.3 1.1,-0.59 1.2,-1 0.2,-0.39 0.3,-0.8 0.3,-1.3 l -3.6,-25.7 h 21.7 l 3.2,25.61 c 0.1,0.5 0.3,0.89 0.6,1.3 0.3,0.5 0.9,0.79 1.6,1.09 0.8,0.31 1.8,0.5 3.1,0.7 1.3,0.11 2.9,0.21 5,0.21 2,0 3.6,-0.1 4.8,-0.21 1.2,-0.2 2.2,-0.39 2.8,-0.7 0.7,-0.3 1.1,-0.59 1.2,-1 0.2,-0.39 0.2,-0.8 0.2,-1.3 l -3.4,-25.7 h 9.3 c 1.1,0 2,-0.59 2.6,-1.8 0.7,-1.09 1.1,-3 1.1,-5.7 z m -55.7,-7.59 -3.3,-25 h 21.5 l 3.4,25 z"
         style="fill:#231f20;fill-opacity:1;fill-rule:nonzero;stroke:none"
         id="path18" />
      <path
         d="m 3471.75,3216.46 c -0.4,-1.39 -1,-2.5 -1.6,-3.39 -0.7,-0.8 -1.7,-1.5 -3.1,-1.91 -1.3,-0.39 -3.1,-0.7 -5.2,-0.89 -2.1,-0.11 -4.8,-0.2 -8.1,-0.2 -3.7,0 -6.6,0.09 -8.9,0.2 -2.2,0.19 -3.9,0.5 -5.2,0.89 -1.3,0.41 -2.3,1.11 -2.8,1.91 -0.6,0.89 -1.1,2 -1.4,3.39 l -20,72.11 h -0.2 l -18.9,-72.11 c -0.4,-1.3 -0.8,-2.39 -1.4,-3.3 -0.6,-0.79 -1.5,-1.5 -2.8,-2 -1.2,-0.39 -2.9,-0.7 -5.1,-0.89 -2.1,-0.11 -5,-0.2 -8.5,-0.2 -3.8,0 -6.8,0.09 -9,0.2 -2.2,0.19 -4,0.5 -5.2,0.89 -1.3,0.41 -2.3,1.11 -2.8,1.91 -0.6,0.89 -1.1,2 -1.5,3.39 l -28.4,99.2 c -0.6,2.11 -0.9,3.8 -1,5 -0.1,1.21 0.3,2.11 1.1,2.8 0.8,0.61 2.1,1 4,1.2 1.8,0.11 4.4,0.21 7.7,0.21 3,0 5.4,-0.1 7.2,-0.21 1.7,0 3.1,-0.2 4,-0.59 0.9,-0.3 1.5,-0.8 1.8,-1.41 0.3,-0.59 0.6,-1.5 0.8,-2.59 l 21.9,-87.11 h 0.1 l 22.9,86.5 c 0.2,1.11 0.6,2 1,2.7 0.4,0.71 1.1,1.3 2.1,1.71 1,0.29 2.4,0.59 4.1,0.79 1.7,0.11 4.1,0.21 7,0.21 3.1,0 5.5,-0.1 7.4,-0.21 1.8,-0.09 3.2,-0.39 4.2,-0.7 1,-0.39 1.7,-1 2.2,-1.69 0.4,-0.7 0.8,-1.61 1.1,-2.81 l 23.5,-86.5 h 0.2 l 22,86.91 c 0.2,0.9 0.4,1.7 0.8,2.4 0.3,0.69 0.9,1.19 1.8,1.6 0.9,0.29 2.2,0.59 3.9,0.79 1.6,0.11 4,0.21 7,0.21 2.9,0 5.1,-0.1 6.6,-0.21 1.6,-0.2 2.8,-0.59 3.5,-1.2 0.7,-0.69 1,-1.59 0.9,-2.89 -0.1,-1.2 -0.4,-3 -1,-5.11 z m 126.5,38.61 c 0,-2.7 -0.7,-4.7 -2,-6 -1.3,-1.3 -3.1,-1.91 -5.4,-1.91 h -52.5 c 0,-3.39 0.4,-6.39 1.3,-9.09 0.8,-2.7 2.2,-5.11 4.1,-7 1.9,-1.91 4.4,-3.3 7.4,-4.3 3,-1 6.6,-1.5 10.8,-1.5 4.2,0 7.9,0.3 11.2,0.8 3.2,0.59 6,1.2 8.3,1.89 2.4,0.7 4.3,1.31 5.9,1.81 1.5,0.6 2.8,0.89 3.7,0.89 0.6,0 1.1,-0.09 1.5,-0.29 0.4,-0.3 0.7,-0.6 1,-1.1 0.2,-0.61 0.4,-1.31 0.5,-2.31 0.1,-1 0.1,-2.19 0.1,-3.59 0,-1.3 0,-2.41 -0.1,-3.3 0,-0.91 -0.1,-1.7 -0.2,-2.41 -0.2,-0.59 -0.4,-1.09 -0.6,-1.59 -0.3,-0.41 -0.6,-0.91 -1,-1.3 -0.5,-0.4 -1.6,-0.9 -3.5,-1.61 -1.8,-0.7 -4.2,-1.39 -7.1,-2.09 -2.9,-0.7 -6.2,-1.3 -10,-1.8 -3.7,-0.5 -7.7,-0.7 -12,-0.7 -7.6,0 -14.4,0.89 -20.1,2.59 -5.8,1.8 -10.6,4.5 -14.5,8 -3.9,3.61 -6.7,8.11 -8.6,13.61 -1.9,5.39 -2.9,11.8 -2.9,19.1 0,7 1,13.29 3,18.9 2,5.6 4.9,10.3 8.7,14.19 3.8,3.91 8.4,6.91 13.9,8.91 5.4,2.09 11.6,3.09 18.4,3.09 7.2,0 13.4,-1 18.5,-2.89 5.1,-1.91 9.3,-4.61 12.6,-8 3.3,-3.5 5.7,-7.5 7.3,-12.2 1.5,-4.71 2.3,-9.8 2.3,-15.3 z m -23.6,6.3 c 0.2,6.2 -1.2,11.09 -4.1,14.7 -2.9,3.5 -7.5,5.3 -13.6,5.3 -3.1,0 -5.8,-0.6 -8.1,-1.6 -2.2,-1.11 -4.1,-2.5 -5.7,-4.31 -1.5,-1.8 -2.6,-3.89 -3.4,-6.3 -0.8,-2.39 -1.3,-5 -1.4,-7.79 z m 130.4,-7.5 c 0,-7 -0.9,-13.3 -2.6,-18.8 -1.6,-5.61 -4.1,-10.41 -7.2,-14.3 -3.2,-3.9 -7.1,-6.9 -11.7,-9 -4.6,-2.11 -9.8,-3.2 -15.7,-3.2 -2.9,0 -5.6,0.2 -8.1,0.7 -2.5,0.5 -4.9,1.3 -7.2,2.5 -2.3,1.1 -4.5,2.5 -6.8,4.19 -2.2,1.7 -4.5,3.7 -6.8,6.11 v -8.5 c 0,-0.61 -0.2,-1.2 -0.5,-1.61 -0.4,-0.5 -0.9,-0.8 -1.7,-1.09 -0.9,-0.3 -1.9,-0.5 -3.3,-0.6 -1.3,-0.2 -3,-0.2 -4.9,-0.2 -2,0 -3.7,0 -5,0.2 -1.3,0.1 -2.4,0.3 -3.2,0.6 -0.8,0.29 -1.4,0.59 -1.7,1.09 -0.3,0.41 -0.5,1 -0.5,1.61 v 115.59 c 0,0.61 0.2,1.11 0.6,1.61 0.4,0.39 1.1,0.8 2,1.19 0.9,0.31 2.2,0.5 3.7,0.7 1.6,0.21 3.5,0.3 5.9,0.3 2.4,0 4.4,-0.09 5.9,-0.3 1.6,-0.2 2.8,-0.39 3.7,-0.7 1,-0.39 1.6,-0.8 2,-1.19 0.4,-0.5 0.6,-1 0.6,-1.61 v -43.29 c 2.2,1.9 4.4,3.59 6.6,5.09 2.2,1.41 4.4,2.5 6.5,3.41 2.2,0.9 4.5,1.59 6.8,2 2.3,0.4 4.8,0.59 7.4,0.59 6.3,0 11.8,-1.09 16.2,-3.5 4.5,-2.3 8.1,-5.39 10.9,-9.3 2.8,-3.89 4.8,-8.5 6.1,-13.79 1.3,-5.21 2,-10.71 2,-16.5 z m -25.3,-1.6 c 0,3.3 -0.3,6.5 -0.8,9.6 -0.5,3.2 -1.5,5.9 -2.9,8.29 -1.3,2.41 -3.1,4.3 -5.2,5.8 -2.2,1.41 -4.9,2.11 -8.2,2.11 -1.6,0 -3.2,-0.2 -4.7,-0.61 -1.6,-0.39 -3.2,-1.09 -4.8,-2.09 -1.7,-1 -3.3,-2.3 -5.1,-3.91 -1.7,-1.59 -3.6,-3.5 -5.5,-5.89 v -26 c 3.4,-4 6.7,-7 9.8,-9.11 3.1,-2.09 6.4,-3.09 9.8,-3.09 3.2,0 5.9,0.7 8.1,2.2 2.1,1.5 4,3.39 5.4,5.7 1.5,2.39 2.5,5 3.2,8 0.6,3 0.9,6 0.9,9 z m 148,-33.11 c 0.7,-2.09 1.2,-3.7 1.4,-5 0.2,-1.2 0,-2.09 -0.8,-2.7 -0.7,-0.69 -1.9,-1 -3.7,-1.19 -1.8,-0.11 -4.3,-0.2 -7.5,-0.2 -3.3,0 -5.8,0 -7.7,0.09 -1.8,0.11 -3.2,0.3 -4.2,0.61 -0.9,0.19 -1.6,0.6 -2,1 -0.4,0.5 -0.7,1.1 -1,1.89 l -8.4,22.8 h -47 l -7.9,-22.19 c -0.2,-0.81 -0.6,-1.5 -1,-2.11 -0.4,-0.5 -1.1,-1 -2,-1.29 -1,-0.3 -2.3,-0.5 -4,-0.6 -1.7,-0.2 -3.9,-0.2 -6.7,-0.2 -3,0 -5.3,0.09 -7,0.3 -1.6,0.09 -2.8,0.59 -3.5,1.2 -0.6,0.7 -0.8,1.7 -0.6,2.89 0.2,1.2 0.6,2.91 1.4,4.91 l 38.6,100.9 c 0.4,1 0.8,1.8 1.3,2.39 0.6,0.61 1.4,1.11 2.5,1.41 1.1,0.39 2.7,0.59 4.7,0.59 2,0.11 4.6,0.21 7.9,0.21 3.8,0 6.9,-0.1 9.1,-0.21 2.3,0 4,-0.2 5.3,-0.59 1.2,-0.3 2.1,-0.8 2.7,-1.41 0.5,-0.7 1,-1.5 1.4,-2.7 z m -57.5,83.41 h -0.1 l -17.6,-48.3 h 35.4 z m 160.4,-48.7 c 0,-6.91 -0.9,-13.21 -2.5,-18.8 -1.7,-5.61 -4.1,-10.41 -7.2,-14.3 -3.2,-3.9 -7.1,-6.9 -11.8,-9 -4.7,-2.11 -10.1,-3.2 -16.2,-3.2 -2.5,0 -4.8,0.2 -6.9,0.7 -2.1,0.39 -4.1,1.1 -6.1,2 -1.9,0.89 -3.9,2 -5.8,3.39 -1.9,1.3 -3.9,2.91 -6,4.71 v -36.91 c 0,-0.59 -0.2,-1.09 -0.6,-1.59 -0.4,-0.5 -1,-0.91 -2,-1.21 -0.9,-0.29 -2.1,-0.5 -3.7,-0.7 -1.5,-0.19 -3.5,-0.3 -5.9,-0.3 -2.4,0 -4.3,0.11 -5.9,0.3 -1.5,0.2 -2.8,0.41 -3.7,0.7 -0.9,0.3 -1.6,0.71 -2,1.21 -0.4,0.5 -0.6,1 -0.6,1.59 v 109.5 c 0,0.61 0.2,1.11 0.5,1.5 0.3,0.5 0.9,0.81 1.7,1.11 0.8,0.3 1.9,0.59 3.2,0.7 1.3,0.1 3,0.19 5,0.19 1.9,0 3.5,-0.09 4.9,-0.19 1.3,-0.11 2.3,-0.4 3.2,-0.7 0.8,-0.3 1.3,-0.61 1.6,-1.11 0.4,-0.39 0.5,-0.89 0.5,-1.5 v -9.19 c 2.5,2.3 5,4.39 7.4,6.19 2.4,1.81 4.9,3.31 7.4,4.5 2.5,1.2 5.1,2.11 7.8,2.61 2.7,0.59 5.5,0.89 8.6,0.89 6.3,0 11.7,-1.09 16.1,-3.39 4.5,-2.2 8.1,-5.3 10.9,-9.2 2.8,-4 4.8,-8.5 6.1,-13.8 1.3,-5.2 2,-10.7 2,-16.7 z m -25.4,-1.5 c 0,3.29 -0.2,6.5 -0.8,9.59 -0.5,3.11 -1.5,5.81 -2.8,8.2 -1.3,2.41 -3.1,4.3 -5.2,5.8 -2.2,1.41 -4.9,2.11 -8.1,2.11 -1.6,0 -3.2,-0.2 -4.8,-0.61 -1.6,-0.5 -3.2,-1.19 -4.8,-2.19 -1.7,-1 -3.3,-2.31 -5.1,-3.9 -1.7,-1.5 -3.6,-3.5 -5.5,-5.8 v -25.91 c 3.4,-3.89 6.7,-6.89 9.8,-9.09 3.1,-2.11 6.3,-3.2 9.6,-3.2 3.2,0 5.9,0.7 8.1,2.2 2.2,1.5 4.1,3.39 5.5,5.8 1.4,2.29 2.4,5 3.1,8 0.7,3 1,6 1,9 z m 132.2,1.5 c 0,-6.91 -0.9,-13.21 -2.5,-18.8 -1.7,-5.61 -4.1,-10.41 -7.2,-14.3 -3.2,-3.9 -7.1,-6.9 -11.8,-9 -4.7,-2.11 -10.1,-3.2 -16.2,-3.2 -2.5,0 -4.8,0.2 -6.9,0.7 -2.1,0.39 -4.1,1.1 -6.1,2 -1.9,0.89 -3.9,2 -5.8,3.39 -1.9,1.3 -3.9,2.91 -6,4.71 v -36.91 c 0,-0.59 -0.2,-1.09 -0.6,-1.59 -0.4,-0.5 -1,-0.91 -2,-1.21 -0.9,-0.29 -2.1,-0.5 -3.7,-0.7 -1.5,-0.19 -3.5,-0.3 -5.9,-0.3 -2.4,0 -4.3,0.11 -5.9,0.3 -1.5,0.2 -2.8,0.41 -3.7,0.7 -0.9,0.3 -1.6,0.71 -2,1.21 -0.4,0.5 -0.6,1 -0.6,1.59 v 109.5 c 0,0.61 0.2,1.11 0.5,1.5 0.3,0.5 0.9,0.81 1.7,1.11 0.8,0.3 1.9,0.59 3.2,0.7 1.3,0.1 3,0.19 5,0.19 1.9,0 3.5,-0.09 4.9,-0.19 1.3,-0.11 2.3,-0.4 3.2,-0.7 0.8,-0.3 1.3,-0.61 1.6,-1.11 0.4,-0.39 0.5,-0.89 0.5,-1.5 v -9.19 c 2.5,2.3 5,4.39 7.4,6.19 2.4,1.81 4.9,3.31 7.4,4.5 2.5,1.2 5.1,2.11 7.8,2.61 2.7,0.59 5.5,0.89 8.6,0.89 6.3,0 11.7,-1.09 16.1,-3.39 4.5,-2.2 8.1,-5.3 10.9,-9.2 2.8,-4 4.8,-8.5 6.1,-13.8 1.3,-5.2 2,-10.7 2,-16.7 z m -25.4,-1.5 c 0,3.29 -0.2,6.5 -0.8,9.59 -0.5,3.11 -1.5,5.81 -2.8,8.2 -1.3,2.41 -3.1,4.3 -5.2,5.8 -2.2,1.41 -4.9,2.11 -8.1,2.11 -1.6,0 -3.2,-0.2 -4.8,-0.61 -1.6,-0.5 -3.2,-1.19 -4.8,-2.19 -1.7,-1 -3.3,-2.31 -5.1,-3.9 -1.7,-1.5 -3.6,-3.5 -5.5,-5.8 v -25.91 c 3.4,-3.89 6.7,-6.89 9.8,-9.09 3.1,-2.11 6.3,-3.2 9.6,-3.2 3.2,0 5.9,0.7 8.1,2.2 2.2,1.5 4.1,3.39 5.5,5.8 1.4,2.29 2.4,5 3.1,8 0.7,3 1,6 1,9"
         style="fill:#231f20;fill-opacity:1;fill-rule:nonzero;stroke:none"
         id="path20" />
      <path
         d="m 4140.05,3288.46 c 0,-1.39 -0.1,-2.59 -0.3,-3.59 -0.2,-0.91 -0.4,-1.71 -0.8,-2.3 -0.3,-0.61 -0.7,-1 -1.2,-1.3 -0.5,-0.2 -1,-0.4 -1.5,-0.4 h -11 l -3.3,-25 h 9.5 c 1.1,0 2,-0.6 2.7,-1.71 0.6,-1.2 1,-3.09 1,-5.79 0,-1.41 -0.1,-2.6 -0.3,-3.6 -0.2,-1 -0.5,-1.81 -0.8,-2.4 -0.3,-0.6 -0.7,-1 -1.2,-1.21 -0.5,-0.29 -1,-0.39 -1.5,-0.39 h -11.5 l -3.6,-27.5 c 0,-0.61 -0.2,-1 -0.5,-1.4 -0.3,-0.41 -0.8,-0.71 -1.6,-1 -0.7,-0.3 -1.7,-0.5 -3,-0.6 -1.2,-0.2 -2.8,-0.2 -4.7,-0.2 -2.1,0 -3.8,0 -5,0.2 -1.3,0.1 -2.2,0.3 -2.9,0.6 -0.6,0.29 -1.1,0.59 -1.3,1 -0.2,0.4 -0.3,0.79 -0.2,1.4 l 3.7,27.5 h -21.7 l -3.6,-27.5 c 0,-0.5 -0.2,-1 -0.5,-1.4 -0.3,-0.41 -0.8,-0.71 -1.5,-1 -0.7,-0.3 -1.7,-0.5 -3,-0.6 -1.2,-0.2 -2.9,-0.2 -4.9,-0.2 -2,0 -3.6,0 -4.9,0.2 -1.2,0.1 -2.1,0.3 -2.8,0.6 -0.7,0.29 -1.2,0.59 -1.4,1 -0.2,0.4 -0.3,0.79 -0.1,1.4 l 3.5,27.5 h -9.2 c -1.1,0 -2,0.5 -2.7,1.6 -0.7,1.09 -1,3.09 -1,5.79 0,1.41 0.1,2.61 0.3,3.61 0.2,1 0.4,1.8 0.8,2.39 0.3,0.61 0.7,1 1.1,1.3 0.5,0.31 1,0.41 1.6,0.41 h 11.2 l 3.3,25 h -9.8 c -1.1,0 -2,0.59 -2.7,1.7 -0.6,1.09 -1,3 -1,5.8 0,2.79 0.4,4.79 1.1,5.9 0.7,1.1 1.6,1.69 2.7,1.69 h 11.6 l 3.5,25.61 c 0,0.59 0.1,1 0.5,1.39 0.3,0.41 0.8,0.7 1.6,1 0.8,0.31 1.8,0.5 3.1,0.7 1.3,0.11 2.9,0.21 4.9,0.21 2,0 3.6,-0.1 4.9,-0.21 1.2,-0.2 2.1,-0.39 2.8,-0.7 0.6,-0.3 1,-0.59 1.2,-1 0.1,-0.39 0.2,-0.8 0.2,-1.3 l -3.6,-25.7 h 21.7 l 3.3,25.61 c 0.1,0.5 0.3,0.89 0.6,1.3 0.3,0.5 0.8,0.79 1.6,1.09 0.7,0.31 1.7,0.5 3,0.7 1.3,0.11 3,0.21 5,0.21 2,0 3.7,-0.1 4.9,-0.21 1.2,-0.2 2.1,-0.39 2.8,-0.7 0.6,-0.3 1,-0.59 1.2,-1 0.1,-0.39 0.2,-0.8 0.1,-1.3 l -3.4,-25.7 h 9.3 c 1.1,0 2,-0.59 2.7,-1.8 0.7,-1.09 1,-3 1,-5.7 z m -55.7,-7.59 -3.3,-25 h 21.6 l 3.4,25 z"
         style="fill:#231f20;fill-opacity:1;fill-rule:nonzero;stroke:none"
         id="path22" />
      <path
         d="m 3167.75,145.262 h 5014.3 v 3268.1 h -5014.3 z"
         style="fill:#ffffff;fill-opacity:1;fill-rule:evenodd;stroke:none"
         id="path24" />
      <path
         d="m 3167.75,145.262 h 5014.3 v 3268.1 h -5014.3 z"
         style="fill:none;stroke:#f9b90a;stroke-width:20;stroke-linecap:round;stroke-linejoin:round;stroke-miterlimit:10;stroke-dasharray:none;stroke-opacity:1"
         id="path26" />
      <path
         d="m 3323.65,3288.46 c 0,-1.39 -0.1,-2.59 -0.3,-3.59 -0.2,-0.91 -0.5,-1.71 -0.8,-2.3 -0.3,-0.61 -0.7,-1 -1.2,-1.3 -0.5,-0.2 -1,-0.4 -1.5,-0.4 h -11 l -3.3,-25 h 9.4 c 1.1,0 2,-0.6 2.7,-1.71 0.7,-1.2 1,-3.09 1,-5.79 0,-1.41 -0.1,-2.6 -0.3,-3.6 -0.2,-1 -0.4,-1.81 -0.7,-2.4 -0.4,-0.6 -0.8,-1 -1.3,-1.21 -0.4,-0.29 -0.9,-0.39 -1.4,-0.39 h -11.6 l -3.5,-27.5 c -0.1,-0.61 -0.3,-1 -0.6,-1.4 -0.3,-0.41 -0.8,-0.71 -1.5,-1 -0.8,-0.3 -1.8,-0.5 -3,-0.6 -1.3,-0.2 -2.9,-0.2 -4.8,-0.2 -2.1,0 -3.7,0 -5,0.2 -1.2,0.1 -2.2,0.3 -2.8,0.6 -0.7,0.29 -1.1,0.59 -1.3,1 -0.3,0.4 -0.3,0.79 -0.3,1.4 l 3.7,27.5 h -21.7 l -3.5,-27.5 c -0.1,-0.5 -0.3,-1 -0.6,-1.4 -0.3,-0.41 -0.8,-0.71 -1.5,-1 -0.7,-0.3 -1.7,-0.5 -2.9,-0.6 -1.3,-0.2 -2.9,-0.2 -5,-0.2 -2,0 -3.6,0 -4.8,0.2 -1.2,0.1 -2.2,0.3 -2.9,0.6 -0.7,0.29 -1.1,0.59 -1.3,1 -0.3,0.4 -0.3,0.79 -0.2,1.4 l 3.5,27.5 h -9.2 c -1.1,0 -2,0.5 -2.6,1.6 -0.7,1.09 -1.1,3.09 -1.1,5.79 0,1.41 0.1,2.61 0.3,3.61 0.2,1 0.5,1.8 0.8,2.39 0.3,0.61 0.7,1 1.2,1.3 0.4,0.31 0.9,0.41 1.5,0.41 h 11.2 l 3.3,25 h -9.7 c -1.1,0 -2,0.59 -2.7,1.7 -0.7,1.09 -1,3 -1,5.8 0,2.79 0.3,4.79 1,5.9 0.8,1.1 1.7,1.69 2.8,1.69 h 11.6 l 3.4,25.61 c 0,0.59 0.2,1 0.5,1.39 0.3,0.41 0.9,0.7 1.7,1 0.7,0.31 1.8,0.5 3.1,0.7 1.2,0.11 2.9,0.21 4.9,0.21 2,0 3.6,-0.1 4.8,-0.21 1.2,-0.2 2.2,-0.39 2.8,-0.7 0.7,-0.3 1.1,-0.59 1.2,-1 0.2,-0.39 0.3,-0.8 0.3,-1.3 l -3.6,-25.7 h 21.7 l 3.2,25.61 c 0.1,0.5 0.3,0.89 0.6,1.3 0.3,0.5 0.9,0.79 1.6,1.09 0.8,0.31 1.8,0.5 3.1,0.7 1.3,0.11 2.9,0.21 5,0.21 2,0 3.6,-0.1 4.8,-0.21 1.2,-0.2 2.2,-0.39 2.8,-0.7 0.7,-0.3 1.1,-0.59 1.2,-1 0.2,-0.39 0.2,-0.8 0.2,-1.3 l -3.4,-25.7 h 9.3 c 1.1,0 2,-0.59 2.6,-1.8 0.7,-1.09 1.1,-3 1.1,-5.7 z m -55.7,-7.59 -3.3,-25 h 21.5 l 3.4,25 z"
         style="fill:#231f20;fill-opacity:1;fill-rule:nonzero;stroke:none"
         id="path28" />
      <path
         d="m 3471.75,3216.46 c -0.4,-1.39 -1,-2.5 -1.6,-3.39 -0.7,-0.8 -1.7,-1.5 -3.1,-1.91 -1.3,-0.39 -3.1,-0.7 -5.2,-0.89 -2.1,-0.11 -4.8,-0.2 -8.1,-0.2 -3.7,0 -6.6,0.09 -8.9,0.2 -2.2,0.19 -3.9,0.5 -5.2,0.89 -1.3,0.41 -2.3,1.11 -2.8,1.91 -0.6,0.89 -1.1,2 -1.4,3.39 l -20,72.11 h -0.2 l -18.9,-72.11 c -0.4,-1.3 -0.8,-2.39 -1.4,-3.3 -0.6,-0.79 -1.5,-1.5 -2.8,-2 -1.2,-0.39 -2.9,-0.7 -5.1,-0.89 -2.1,-0.11 -5,-0.2 -8.5,-0.2 -3.8,0 -6.8,0.09 -9,0.2 -2.2,0.19 -4,0.5 -5.2,0.89 -1.3,0.41 -2.3,1.11 -2.8,1.91 -0.6,0.89 -1.1,2 -1.5,3.39 l -28.4,99.2 c -0.6,2.11 -0.9,3.8 -1,5 -0.1,1.21 0.3,2.11 1.1,2.8 0.8,0.61 2.1,1 4,1.2 1.8,0.11 4.4,0.21 7.7,0.21 3,0 5.4,-0.1 7.2,-0.21 1.7,0 3.1,-0.2 4,-0.59 0.9,-0.3 1.5,-0.8 1.8,-1.41 0.3,-0.59 0.6,-1.5 0.8,-2.59 l 21.9,-87.11 h 0.1 l 22.9,86.5 c 0.2,1.11 0.6,2 1,2.7 0.4,0.71 1.1,1.3 2.1,1.71 1,0.29 2.4,0.59 4.1,0.79 1.7,0.11 4.1,0.21 7,0.21 3.1,0 5.5,-0.1 7.4,-0.21 1.8,-0.09 3.2,-0.39 4.2,-0.7 1,-0.39 1.7,-1 2.2,-1.69 0.4,-0.7 0.8,-1.61 1.1,-2.81 l 23.5,-86.5 h 0.2 l 22,86.91 c 0.2,0.9 0.4,1.7 0.8,2.4 0.3,0.69 0.9,1.19 1.8,1.6 0.9,0.29 2.2,0.59 3.9,0.79 1.6,0.11 4,0.21 7,0.21 2.9,0 5.1,-0.1 6.6,-0.21 1.6,-0.2 2.8,-0.59 3.5,-1.2 0.7,-0.69 1,-1.59 0.9,-2.89 -0.1,-1.2 -0.4,-3 -1,-5.11 z m 126.5,38.61 c 0,-2.7 -0.7,-4.7 -2,-6 -1.3,-1.3 -3.1,-1.91 -5.4,-1.91 h -52.5 c 0,-3.39 0.4,-6.39 1.3,-9.09 0.8,-2.7 2.2,-5.11 4.1,-7 1.9,-1.91 4.4,-3.3 7.4,-4.3 3,-1 6.6,-1.5 10.8,-1.5 4.2,0 7.9,0.3 11.2,0.8 3.2,0.59 6,1.2 8.3,1.89 2.4,0.7 4.3,1.31 5.9,1.81 1.5,0.6 2.8,0.89 3.7,0.89 0.6,0 1.1,-0.09 1.5,-0.29 0.4,-0.3 0.7,-0.6 1,-1.1 0.2,-0.61 0.4,-1.31 0.5,-2.31 0.1,-1 0.1,-2.19 0.1,-3.59 0,-1.3 0,-2.41 -0.1,-3.3 0,-0.91 -0.1,-1.7 -0.2,-2.41 -0.2,-0.59 -0.4,-1.09 -0.6,-1.59 -0.3,-0.41 -0.6,-0.91 -1,-1.3 -0.5,-0.4 -1.6,-0.9 -3.5,-1.61 -1.8,-0.7 -4.2,-1.39 -7.1,-2.09 -2.9,-0.7 -6.2,-1.3 -10,-1.8 -3.7,-0.5 -7.7,-0.7 -12,-0.7 -7.6,0 -14.4,0.89 -20.1,2.59 -5.8,1.8 -10.6,4.5 -14.5,8 -3.9,3.61 -6.7,8.11 -8.6,13.61 -1.9,5.39 -2.9,11.8 -2.9,19.1 0,7 1,13.29 3,18.9 2,5.6 4.9,10.3 8.7,14.19 3.8,3.91 8.4,6.91 13.9,8.91 5.4,2.09 11.6,3.09 18.4,3.09 7.2,0 13.4,-1 18.5,-2.89 5.1,-1.91 9.3,-4.61 12.6,-8 3.3,-3.5 5.7,-7.5 7.3,-12.2 1.5,-4.71 2.3,-9.8 2.3,-15.3 z m -23.6,6.3 c 0.2,6.2 -1.2,11.09 -4.1,14.7 -2.9,3.5 -7.5,5.3 -13.6,5.3 -3.1,0 -5.8,-0.6 -8.1,-1.6 -2.2,-1.11 -4.1,-2.5 -5.7,-4.31 -1.5,-1.8 -2.6,-3.89 -3.4,-6.3 -0.8,-2.39 -1.3,-5 -1.4,-7.79 z m 130.4,-7.5 c 0,-7 -0.9,-13.3 -2.6,-18.8 -1.6,-5.61 -4.1,-10.41 -7.2,-14.3 -3.2,-3.9 -7.1,-6.9 -11.7,-9 -4.6,-2.11 -9.8,-3.2 -15.7,-3.2 -2.9,0 -5.6,0.2 -8.1,0.7 -2.5,0.5 -4.9,1.3 -7.2,2.5 -2.3,1.1 -4.5,2.5 -6.8,4.19 -2.2,1.7 -4.5,3.7 -6.8,6.11 v -8.5 c 0,-0.61 -0.2,-1.2 -0.5,-1.61 -0.4,-0.5 -0.9,-0.8 -1.7,-1.09 -0.9,-0.3 -1.9,-0.5 -3.3,-0.6 -1.3,-0.2 -3,-0.2 -4.9,-0.2 -2,0 -3.7,0 -5,0.2 -1.3,0.1 -2.4,0.3 -3.2,0.6 -0.8,0.29 -1.4,0.59 -1.7,1.09 -0.3,0.41 -0.5,1 -0.5,1.61 v 115.59 c 0,0.61 0.2,1.11 0.6,1.61 0.4,0.39 1.1,0.8 2,1.19 0.9,0.31 2.2,0.5 3.7,0.7 1.6,0.21 3.5,0.3 5.9,0.3 2.4,0 4.4,-0.09 5.9,-0.3 1.6,-0.2 2.8,-0.39 3.7,-0.7 1,-0.39 1.6,-0.8 2,-1.19 0.4,-0.5 0.6,-1 0.6,-1.61 v -43.29 c 2.2,1.9 4.4,3.59 6.6,5.09 2.2,1.41 4.4,2.5 6.5,3.41 2.2,0.9 4.5,1.59 6.8,2 2.3,0.4 4.8,0.59 7.4,0.59 6.3,0 11.8,-1.09 16.2,-3.5 4.5,-2.3 8.1,-5.39 10.9,-9.3 2.8,-3.89 4.8,-8.5 6.1,-13.79 1.3,-5.21 2,-10.71 2,-16.5 z m -25.3,-1.6 c 0,3.3 -0.3,6.5 -0.8,9.6 -0.5,3.2 -1.5,5.9 -2.9,8.29 -1.3,2.41 -3.1,4.3 -5.2,5.8 -2.2,1.41 -4.9,2.11 -8.2,2.11 -1.6,0 -3.2,-0.2 -4.7,-0.61 -1.6,-0.39 -3.2,-1.09 -4.8,-2.09 -1.7,-1 -3.3,-2.3 -5.1,-3.91 -1.7,-1.59 -3.6,-3.5 -5.5,-5.89 v -26 c 3.4,-4 6.7,-7 9.8,-9.11 3.1,-2.09 6.4,-3.09 9.8,-3.09 3.2,0 5.9,0.7 8.1,2.2 2.1,1.5 4,3.39 5.4,5.7 1.5,2.39 2.5,5 3.2,8 0.6,3 0.9,6 0.9,9 z m 148,-33.11 c 0.7,-2.09 1.2,-3.7 1.4,-5 0.2,-1.2 0,-2.09 -0.8,-2.7 -0.7,-0.69 -1.9,-1 -3.7,-1.19 -1.8,-0.11 -4.3,-0.2 -7.5,-0.2 -3.3,0 -5.8,0 -7.7,0.09 -1.8,0.11 -3.2,0.3 -4.2,0.61 -0.9,0.19 -1.6,0.6 -2,1 -0.4,0.5 -0.7,1.1 -1,1.89 l -8.4,22.8 h -47 l -7.9,-22.19 c -0.2,-0.81 -0.6,-1.5 -1,-2.11 -0.4,-0.5 -1.1,-1 -2,-1.29 -1,-0.3 -2.3,-0.5 -4,-0.6 -1.7,-0.2 -3.9,-0.2 -6.7,-0.2 -3,0 -5.3,0.09 -7,0.3 -1.6,0.09 -2.8,0.59 -3.5,1.2 -0.6,0.7 -0.8,1.7 -0.6,2.89 0.2,1.2 0.6,2.91 1.4,4.91 l 38.6,100.9 c 0.4,1 0.8,1.8 1.3,2.39 0.6,0.61 1.4,1.11 2.5,1.41 1.1,0.39 2.7,0.59 4.7,0.59 2,0.11 4.6,0.21 7.9,0.21 3.8,0 6.9,-0.1 9.1,-0.21 2.3,0 4,-0.2 5.3,-0.59 1.2,-0.3 2.1,-0.8 2.7,-1.41 0.5,-0.7 1,-1.5 1.4,-2.7 z m -57.5,83.41 h -0.1 l -17.6,-48.3 h 35.4 z m 160.4,-48.7 c 0,-6.91 -0.9,-13.21 -2.5,-18.8 -1.7,-5.61 -4.1,-10.41 -7.2,-14.3 -3.2,-3.9 -7.1,-6.9 -11.8,-9 -4.7,-2.11 -10.1,-3.2 -16.2,-3.2 -2.5,0 -4.8,0.2 -6.9,0.7 -2.1,0.39 -4.1,1.1 -6.1,2 -1.9,0.89 -3.9,2 -5.8,3.39 -1.9,1.3 -3.9,2.91 -6,4.71 v -36.91 c 0,-0.59 -0.2,-1.09 -0.6,-1.59 -0.4,-0.5 -1,-0.91 -2,-1.21 -0.9,-0.29 -2.1,-0.5 -3.7,-0.7 -1.5,-0.19 -3.5,-0.3 -5.9,-0.3 -2.4,0 -4.3,0.11 -5.9,0.3 -1.5,0.2 -2.8,0.41 -3.7,0.7 -0.9,0.3 -1.6,0.71 -2,1.21 -0.4,0.5 -0.6,1 -0.6,1.59 v 109.5 c 0,0.61 0.2,1.11 0.5,1.5 0.3,0.5 0.9,0.81 1.7,1.11 0.8,0.3 1.9,0.59 3.2,0.7 1.3,0.1 3,0.19 5,0.19 1.9,0 3.5,-0.09 4.9,-0.19 1.3,-0.11 2.3,-0.4 3.2,-0.7 0.8,-0.3 1.3,-0.61 1.6,-1.11 0.4,-0.39 0.5,-0.89 0.5,-1.5 v -9.19 c 2.5,2.3 5,4.39 7.4,6.19 2.4,1.81 4.9,3.31 7.4,4.5 2.5,1.2 5.1,2.11 7.8,2.61 2.7,0.59 5.5,0.89 8.6,0.89 6.3,0 11.7,-1.09 16.1,-3.39 4.5,-2.2 8.1,-5.3 10.9,-9.2 2.8,-4 4.8,-8.5 6.1,-13.8 1.3,-5.2 2,-10.7 2,-16.7 z m -25.4,-1.5 c 0,3.29 -0.2,6.5 -0.8,9.59 -0.5,3.11 -1.5,5.81 -2.8,8.2 -1.3,2.41 -3.1,4.3 -5.2,5.8 -2.2,1.41 -4.9,2.11 -8.1,2.11 -1.6,0 -3.2,-0.2 -4.8,-0.61 -1.6,-0.5 -3.2,-1.19 -4.8,-2.19 -1.7,-1 -3.3,-2.31 -5.1,-3.9 -1.7,-1.5 -3.6,-3.5 -5.5,-5.8 v -25.91 c 3.4,-3.89 6.7,-6.89 9.8,-9.09 3.1,-2.11 6.3,-3.2 9.6,-3.2 3.2,0 5.9,0.7 8.1,2.2 2.2,1.5 4.1,3.39 5.5,5.8 1.4,2.29 2.4,5 3.1,8 0.7,3 1,6 1,9 z m 132.2,1.5 c 0,-6.91 -0.9,-13.21 -2.5,-18.8 -1.7,-5.61 -4.1,-10.41 -7.2,-14.3 -3.2,-3.9 -7.1,-6.9 -11.8,-9 -4.7,-2.11 -10.1,-3.2 -16.2,-3.2 -2.5,0 -4.8,0.2 -6.9,0.7 -2.1,0.39 -4.1,1.1 -6.1,2 -1.9,0.89 -3.9,2 -5.8,3.39 -1.9,1.3 -3.9,2.91 -6,4.71 v -36.91 c 0,-0.59 -0.2,-1.09 -0.6,-1.59 -0.4,-0.5 -1,-0.91 -2,-1.21 -0.9,-0.29 -2.1,-0.5 -3.7,-0.7 -1.5,-0.19 -3.5,-0.3 -5.9,-0.3 -2.4,0 -4.3,0.11 -5.9,0.3 -1.5,0.2 -2.8,0.41 -3.7,0.7 -0.9,0.3 -1.6,0.71 -2,1.21 -0.4,0.5 -0.6,1 -0.6,1.59 v 109.5 c 0,0.61 0.2,1.11 0.5,1.5 0.3,0.5 0.9,0.81 1.7,1.11 0.8,0.3 1.9,0.59 3.2,0.7 1.3,0.1 3,0.19 5,0.19 1.9,0 3.5,-0.09 4.9,-0.19 1.3,-0.11 2.3,-0.4 3.2,-0.7 0.8,-0.3 1.3,-0.61 1.6,-1.11 0.4,-0.39 0.5,-0.89 0.5,-1.5 v -9.19 c 2.5,2.3 5,4.39 7.4,6.19 2.4,1.81 4.9,3.31 7.4,4.5 2.5,1.2 5.1,2.11 7.8,2.61 2.7,0.59 5.5,0.89 8.6,0.89 6.3,0 11.7,-1.09 16.1,-3.39 4.5,-2.2 8.1,-5.3 10.9,-9.2 2.8,-4 4.8,-8.5 6.1,-13.8 1.3,-5.2 2,-10.7 2,-16.7 z m -25.4,-1.5 c 0,3.29 -0.2,6.5 -0.8,9.59 -0.5,3.11 -1.5,5.81 -2.8,8.2 -1.3,2.41 -3.1,4.3 -5.2,5.8 -2.2,1.41 -4.9,2.11 -8.1,2.11 -1.6,0 -3.2,-0.2 -4.8,-0.61 -1.6,-0.5 -3.2,-1.19 -4.8,-2.19 -1.7,-1 -3.3,-2.31 -5.1,-3.9 -1.7,-1.5 -3.6,-3.5 -5.5,-5.8 v -25.91 c 3.4,-3.89 6.7,-6.89 9.8,-9.09 3.1,-2.11 6.3,-3.2 9.6,-3.2 3.2,0 5.9,0.7 8.1,2.2 2.2,1.5 4.1,3.39 5.5,5.8 1.4,2.29 2.4,5 3.1,8 0.7,3 1,6 1,9"
         style="fill:#231f20;fill-opacity:1;fill-rule:nonzero;stroke:none"
         id="path30" />
      <path
         d="m 4140.05,3288.46 c 0,-1.39 -0.1,-2.59 -0.3,-3.59 -0.2,-0.91 -0.4,-1.71 -0.8,-2.3 -0.3,-0.61 -0.7,-1 -1.2,-1.3 -0.5,-0.2 -1,-0.4 -1.5,-0.4 h -11 l -3.3,-25 h 9.5 c 1.1,0 2,-0.6 2.7,-1.71 0.6,-1.2 1,-3.09 1,-5.79 0,-1.41 -0.1,-2.6 -0.3,-3.6 -0.2,-1 -0.5,-1.81 -0.8,-2.4 -0.3,-0.6 -0.7,-1 -1.2,-1.21 -0.5,-0.29 -1,-0.39 -1.5,-0.39 h -11.5 l -3.6,-27.5 c 0,-0.61 -0.2,-1 -0.5,-1.4 -0.3,-0.41 -0.8,-0.71 -1.6,-1 -0.7,-0.3 -1.7,-0.5 -3,-0.6 -1.2,-0.2 -2.8,-0.2 -4.7,-0.2 -2.1,0 -3.8,0 -5,0.2 -1.3,0.1 -2.2,0.3 -2.9,0.6 -0.6,0.29 -1.1,0.59 -1.3,1 -0.2,0.4 -0.3,0.79 -0.2,1.4 l 3.7,27.5 h -21.7 l -3.6,-27.5 c 0,-0.5 -0.2,-1 -0.5,-1.4 -0.3,-0.41 -0.8,-0.71 -1.5,-1 -0.7,-0.3 -1.7,-0.5 -3,-0.6 -1.2,-0.2 -2.9,-0.2 -4.9,-0.2 -2,0 -3.6,0 -4.9,0.2 -1.2,0.1 -2.1,0.3 -2.8,0.6 -0.7,0.29 -1.2,0.59 -1.4,1 -0.2,0.4 -0.3,0.79 -0.1,1.4 l 3.5,27.5 h -9.2 c -1.1,0 -2,0.5 -2.7,1.6 -0.7,1.09 -1,3.09 -1,5.79 0,1.41 0.1,2.61 0.3,3.61 0.2,1 0.4,1.8 0.8,2.39 0.3,0.61 0.7,1 1.1,1.3 0.5,0.31 1,0.41 1.6,0.41 h 11.2 l 3.3,25 h -9.8 c -1.1,0 -2,0.59 -2.7,1.7 -0.6,1.09 -1,3 -1,5.8 0,2.79 0.4,4.79 1.1,5.9 0.7,1.1 1.6,1.69 2.7,1.69 h 11.6 l 3.5,25.61 c 0,0.59 0.1,1 0.5,1.39 0.3,0.41 0.8,0.7 1.6,1 0.8,0.31 1.8,0.5 3.1,0.7 1.3,0.11 2.9,0.21 4.9,0.21 2,0 3.6,-0.1 4.9,-0.21 1.2,-0.2 2.1,-0.39 2.8,-0.7 0.6,-0.3 1,-0.59 1.2,-1 0.1,-0.39 0.2,-0.8 0.2,-1.3 l -3.6,-25.7 h 21.7 l 3.3,25.61 c 0.1,0.5 0.3,0.89 0.6,1.3 0.3,0.5 0.8,0.79 1.6,1.09 0.7,0.31 1.7,0.5 3,0.7 1.3,0.11 3,0.21 5,0.21 2,0 3.7,-0.1 4.9,-0.21 1.2,-0.2 2.1,-0.39 2.8,-0.7 0.6,-0.3 1,-0.59 1.2,-1 0.1,-0.39 0.2,-0.8 0.1,-1.3 l -3.4,-25.7 h 9.3 c 1.1,0 2,-0.59 2.7,-1.8 0.7,-1.09 1,-3 1,-5.7 z m -55.7,-7.59 -3.3,-25 h 21.6 l 3.4,25 z"
         style="fill:#231f20;fill-opacity:1;fill-rule:nonzero;stroke:none"
         id="path32" />
      <path
         d="m 7769.75,740.559 c 0,93.902 -913.2,170 -2039.8,170 -1126.6,0 -2039.8,-76.098 -2039.8,-170 0,-94 913.2,-170.098 2039.8,-170.098 1126.6,0 2039.8,76.098 2039.8,170.098"
         style="fill:#ffffff;fill-opacity:1;fill-rule:evenodd;stroke:none"
         id="path34" />
      <path
         d="m 7769.75,740.559 c 0,93.902 -913.2,170 -2039.8,170 -1126.6,0 -2039.8,-76.098 -2039.8,-170 0,-94 913.2,-170.098 2039.8,-170.098 1126.6,0 2039.8,76.098 2039.8,170.098 z"
         style="fill:none;stroke:#b1b0b0;stroke-width:20;stroke-linecap:round;stroke-linejoin:round;stroke-miterlimit:10;stroke-dasharray:none;stroke-opacity:1"
         id="path36" />
      <g
         id="g38"
         transform="scale(10)">
        <text
           xml:space="preserve"
           transform="matrix(1,0,0,-1,401.135,68.566)"
           style="font-variant:normal;font-weight:normal;font-size:18px;font-family:Calibri;-inkscape-font-specification:Calibri;writing-mode:lr-tb;fill:#727071;fill-opacity:1;fill-rule:nonzero;stroke:none"
           id="text42"><tspan
             x="0 10.422 19.872 34.199947 38.375805 47.825806 51.965675 59.003677 65.033676 71.261719 79.88372 85.913719 95.399719 101.71776 105.78576 118.65575 127.27776 136.72775 142.75775 149.72398 153.79198 159.91211 169.39812 173.46611 181.51218 185.68803 194.56203 207.50391 211.5719 217.60191 227.05191 235.94383 240.01184 249.46184 253.6017 260.63971 266.66971 276.1557 282.49167 286.57758 294.24567 302.75967 306.93567 311.00369 320.45367 329.02176 335.12384"
             y="0"
             sodipodi:role="line"
             id="tspan40">Administrator wants to view the historical data</tspan></text>
      </g>
      <path
         d="m 7769.75,2761.46 c 0,93.91 -913.2,170 -2039.8,170 -1126.6,0 -2039.8,-76.09 -2039.8,-170 0,-94 913.2,-170.09 2039.8,-170.09 1126.6,0 2039.8,76.09 2039.8,170.09"
         style="fill:#ffffff;fill-opacity:1;fill-rule:evenodd;stroke:none"
         id="path44" />
      <path
         d="m 7769.75,2761.46 c 0,93.91 -913.2,170 -2039.8,170 -1126.6,0 -2039.8,-76.09 -2039.8,-170 0,-94 913.2,-170.09 2039.8,-170.09 1126.6,0 2039.8,76.09 2039.8,170.09 z"
         style="fill:none;stroke:#b1b0b0;stroke-width:20;stroke-linecap:round;stroke-linejoin:round;stroke-miterlimit:10;stroke-dasharray:none;stroke-opacity:1"
         id="path46" />
      <g
         id="g48"
         transform="scale(10)">
        <text
           xml:space="preserve"
           transform="matrix(1,0,0,-1,393.865,270.716)"
           style="font-variant:normal;font-weight:normal;font-size:18px;font-family:Calibri;-inkscape-font-specification:Calibri;writing-mode:lr-tb;fill:#727071;fill-opacity:1;fill-rule:nonzero;stroke:none"
           id="text52"><tspan
             x="0 10.422 19.872 34.199947 38.375805 47.825806 51.965675 59.003677 65.033676 71.261719 79.88372 85.913719 95.399719 101.71776 105.78576 118.65575 127.27776 136.72775 142.75775 149.72398 153.79198 159.91211 169.39812 173.46611 181.51218 185.68803 194.56203 207.50391 211.5719 217.60191 227.05191 235.94383 240.01184 244.20576 248.29167 255.32968 261.35968 265.42767 274.91367 280.40369 284.50751 293.38153 304.52359 313.39758 321.5336 325.67346 333.28745 342.30536 349.27158"
             y="0"
             sodipodi:role="line"
             id="tspan50">Administrator wants to view the list of #Devices#</tspan></text>
      </g>
      <path
         d="M 1050.05,1704.26 3695.45,752.859"
         style="fill:none;stroke:#b1b0b0;stroke-width:22.5;stroke-linecap:round;stroke-linejoin:round;stroke-miterlimit:10;stroke-dasharray:none;stroke-opacity:1"
         id="path54" />
      <path
         d="m 3634.45,724.16 61,28.699 -28.7,61"
         style="fill:none;stroke:#b1b0b0;stroke-width:22.5;stroke-linecap:round;stroke-linejoin:round;stroke-miterlimit:10;stroke-dasharray:none;stroke-opacity:1"
         id="path56" />
      <path
         d="m 1050.05,1704.26 2674.5,15.6"
         style="fill:none;stroke:#b1b0b0;stroke-width:22.5;stroke-linecap:round;stroke-linejoin:round;stroke-miterlimit:10;stroke-dasharray:none;stroke-opacity:1"
         id="path58" />
      <path
         d="m 3677.15,1671.86 47.4,48 -48,47.4"
         style="fill:none;stroke:#b1b0b0;stroke-width:22.5;stroke-linecap:round;stroke-linejoin:round;stroke-miterlimit:10;stroke-dasharray:none;stroke-opacity:1"
         id="path60" />
      <path
         d="m 1050.05,1704.26 2640.3,1059.9"
         style="fill:none;stroke:#b1b0b0;stroke-width:22.5;stroke-linecap:round;stroke-linejoin:round;stroke-miterlimit:10;stroke-dasharray:none;stroke-opacity:1"
         id="path62" />
      <path
         d="m 3663.85,2702.07 26.5,62.09 -62.1,26.5"
         style="fill:none;stroke:#b1b0b0;stroke-width:22.5;stroke-linecap:round;stroke-linejoin:round;stroke-miterlimit:10;stroke-dasharray:none;stroke-opacity:1"
         id="path64" />
      <path
         d="m 777.945,1396.66 v 354.3 -141.7 h -67.996 v 283.5 l 34,35.4 h 272.101 l 34,-35.4 v -283.5 h -68.003 v 141.7 -354.3 h -102 v 283.5 -283.5 z m 172.903,637.8 c 0,39.1 -31.7,70.8 -70.801,70.8 -39.199,0 -70.899,-31.7 -70.899,-70.8 0,-39.2 31.7,-70.9 70.899,-70.9 39.101,0 70.801,31.7 70.801,70.9"
         style="fill:#ffffff;fill-opacity:1;fill-rule:evenodd;stroke:none"
         id="path66" />
      <path
         d="m 777.945,1396.66 v 354.3 -141.7 h -67.996 v 283.5 l 34,35.4 h 272.101 l 34,-35.4 v -283.5 h -68.003 v 141.7 -354.3 h -102 v 283.5 -283.5 z m 172.903,637.8 c 0,39.1 -31.7,70.8 -70.801,70.8 -39.199,0 -70.899,-31.7 -70.899,-70.8 0,-39.2 31.7,-70.9 70.899,-70.9 39.101,0 70.801,31.7 70.801,70.9 z"
         style="fill:none;stroke:#f9b90a;stroke-width:20;stroke-linecap:round;stroke-linejoin:round;stroke-miterlimit:10;stroke-dasharray:none;stroke-opacity:1"
         id="path68" />
      <g
         id="g70"
         transform="scale(10)">
        <text
           xml:space="preserve"
           transform="matrix(1,0,0,-1,10.7746,119.396)"
           style="font-variant:normal;font-weight:normal;font-size:18px;font-family:Calibri;-inkscape-font-specification:Calibri;writing-mode:lr-tb;fill:#84651e;fill-opacity:1;fill-rule:nonzero;stroke:none"
           id="text74"><tspan
             x="0 8.2620001 16.416 23.400131 29.502241 38.376259 52.758259 63.18026 72.684174 87.06617 91.206123 100.65612 104.72406 111.76205 117.79205 124.07406 132.69606 138.78015 148.26616"
             y="0"
             sodipodi:role="line"
             id="tspan72">SystemAdministrator</tspan></text>
      </g>
      <path
         d="m 7769.75,1750.96 c 0,94 -913.2,170.1 -2039.8,170.1 -1126.6,0 -2039.8,-76.1 -2039.8,-170.1 0,-93.9 913.2,-170.1 2039.8,-170.1 1126.6,0 2039.8,76.2 2039.8,170.1"
         style="fill:#ffffff;fill-opacity:1;fill-rule:evenodd;stroke:none"
         id="path76" />
      <path
         d="m 7769.75,1750.96 c 0,94 -913.2,170.1 -2039.8,170.1 -1126.6,0 -2039.8,-76.1 -2039.8,-170.1 0,-93.9 913.2,-170.1 2039.8,-170.1 1126.6,0 2039.8,76.2 2039.8,170.1 z"
         style="fill:none;stroke:#b1b0b0;stroke-width:20;stroke-linecap:round;stroke-linejoin:round;stroke-miterlimit:10;stroke-dasharray:none;stroke-opacity:1"
         id="path78" />
      <g
         id="g80"
         transform="scale(10)">
        <text
           xml:space="preserve"
           transform="matrix(1,0,0,-1,388.155,169.656)"
           style="font-variant:normal;font-weight:normal;font-size:18.024px;font-family:Calibri;-inkscape-font-specification:Calibri;writing-mode:lr-tb;fill:#727071;fill-opacity:1;fill-rule:nonzero;stroke:none"
           id="text84"><tspan
             x="0 10.435896 19.898497 34.191467 38.372871 47.835472 51.980991 59.028374 65.066414 71.248688 79.882179 85.920219 95.418869 101.70924 105.78267 118.66983 127.30332 136.76593 142.80397 149.72537 153.7988 159.90906 169.4077 173.48112 187.75603 196.38953 205.85213 214.48563 223.01086 231.89677 235.9702 245.4328 252.51633 261.40222 267.7467 274.7041 278.68741 282.76083 286.90619 296.29657 301.79391 311.29254 317.63702 331.9119 340.54538 346.65549 350.72897 360.22763"
             y="0"
             sodipodi:role="line"
             id="tspan82">Administrator wants to manage users' information</tspan></text>
      </g>
    </g>
  </g>
</svg>
