<?xml version="1.0" encoding="UTF-8" standalone="no"?>
<!-- Created with Inkscape (http://www.inkscape.org/) -->

<svg
   version="1.1"
   id="svg2"
   width="1112.8667"
   height="625.15997"
   viewBox="0 0 1112.8667 625.15997"
   sodipodi:docname="test1.eps"
   xmlns:inkscape="http://www.inkscape.org/namespaces/inkscape"
   xmlns:sodipodi="http://sodipodi.sourceforge.net/DTD/sodipodi-0.dtd"
   xmlns="http://www.w3.org/2000/svg"
   xmlns:svg="http://www.w3.org/2000/svg">
  <defs
     id="defs6" />
  <sodipodi:namedview
     id="namedview4"
     pagecolor="#ffffff"
     bordercolor="#000000"
     borderopacity="0.25"
     inkscape:showpageshadow="2"
     inkscape:pageopacity="0.0"
     inkscape:pagecheckerboard="0"
     inkscape:deskcolor="#d1d1d1" />
  <g
     id="g8"
     inkscape:groupmode="layer"
     inkscape:label="ink_ext_XXXXXX"
     transform="matrix(1.3333333,0,0,-1.3333333,0,625.16)">
    <g
       id="g10"
       transform="scale(0.1)">
      <path
         d="m -6210.01,-781.91 h 16477.8 v 5952.8 h -16477.8 z"
         style="fill:none;stroke:#b1b0b0;stroke-width:20;stroke-linecap:round;stroke-linejoin:round;stroke-miterlimit:10;stroke-dasharray:none;stroke-opacity:1"
         id="path12" />
      <path
         d="m 3192.69,198.68 h 5014.3 v 4337 h -5014.3 z"
         style="fill:#ffffff;fill-opacity:1;fill-rule:evenodd;stroke:none"
         id="path14" />
      <path
         d="m 3192.69,198.68 h 5014.3 v 4337 h -5014.3 z"
         style="fill:none;stroke:#f9b90a;stroke-width:20;stroke-linecap:round;stroke-linejoin:round;stroke-miterlimit:10;stroke-dasharray:none;stroke-opacity:1"
         id="path16" />
      <path
         d="m 3348.59,4410.75 c 0,-1.4 -0.1,-2.6 -0.3,-3.6 -0.2,-0.9 -0.5,-1.7 -0.8,-2.3 -0.3,-0.6 -0.7,-1 -1.2,-1.3 -0.5,-0.2 -1,-0.4 -1.5,-0.4 h -11 l -3.3,-25 h 9.4 c 1.1,0 2,-0.6 2.7,-1.7 0.7,-1.2 1,-3.1 1,-5.8 0,-1.4 -0.1,-2.6 -0.3,-3.6 -0.2,-1 -0.4,-1.8 -0.7,-2.4 -0.4,-0.6 -0.8,-1 -1.3,-1.2 -0.4,-0.3 -0.9,-0.4 -1.4,-0.4 h -11.6 l -3.5,-27.5 c -0.1,-0.6 -0.3,-1 -0.6,-1.4 -0.3,-0.4 -0.8,-0.7 -1.5,-1 -0.8,-0.3 -1.8,-0.5 -3,-0.6 -1.3,-0.2 -2.9,-0.2 -4.8,-0.2 -2.1,0 -3.7,0 -5,0.2 -1.2,0.1 -2.2,0.3 -2.8,0.6 -0.7,0.3 -1.1,0.6 -1.3,1 -0.3,0.4 -0.3,0.8 -0.3,1.4 l 3.7,27.5 h -21.7 l -3.5,-27.5 c -0.1,-0.5 -0.3,-1 -0.6,-1.4 -0.3,-0.4 -0.8,-0.7 -1.5,-1 -0.7,-0.3 -1.7,-0.5 -2.9,-0.6 -1.3,-0.2 -2.9,-0.2 -5,-0.2 -2,0 -3.6,0 -4.8,0.2 -1.2,0.1 -2.2,0.3 -2.9,0.6 -0.7,0.3 -1.1,0.6 -1.3,1 -0.3,0.4 -0.3,0.8 -0.2,1.4 l 3.5,27.5 h -9.2 c -1.1,0 -2,0.5 -2.6,1.6 -0.7,1.1 -1.1,3.1 -1.1,5.8 0,1.4 0.1,2.6 0.3,3.6 0.2,1 0.5,1.8 0.8,2.4 0.3,0.6 0.7,1 1.2,1.3 0.4,0.3 0.9,0.4 1.5,0.4 h 11.2 l 3.3,25 h -9.7 c -1.1,0 -2,0.6 -2.7,1.7 -0.7,1.1 -1,3 -1,5.8 0,2.8 0.3,4.8 1,5.9 0.8,1.1 1.7,1.7 2.8,1.7 h 11.6 l 3.4,25.6 c 0,0.6 0.2,1 0.5,1.4 0.3,0.4 0.9,0.7 1.7,1 0.7,0.3 1.8,0.5 3.1,0.7 1.2,0.1 2.9,0.2 4.9,0.2 2,0 3.6,-0.1 4.8,-0.2 1.2,-0.2 2.2,-0.4 2.8,-0.7 0.7,-0.3 1.1,-0.6 1.2,-1 0.2,-0.4 0.3,-0.8 0.3,-1.3 l -3.6,-25.7 h 21.7 l 3.2,25.6 c 0.1,0.5 0.3,0.9 0.6,1.3 0.3,0.5 0.9,0.8 1.6,1.1 0.8,0.3 1.8,0.5 3.1,0.7 1.3,0.1 2.9,0.2 5,0.2 2,0 3.6,-0.1 4.8,-0.2 1.2,-0.2 2.2,-0.4 2.8,-0.7 0.7,-0.3 1.1,-0.6 1.2,-1 0.2,-0.4 0.2,-0.8 0.2,-1.3 l -3.4,-25.7 h 9.3 c 1.1,0 2,-0.6 2.6,-1.8 0.7,-1.1 1.1,-3 1.1,-5.7 z m -55.7,-7.6 -3.3,-25 h 21.5 l 3.4,25 z"
         style="fill:#231f20;fill-opacity:1;fill-rule:nonzero;stroke:none"
         id="path18" />
      <path
         d="m 3496.69,4338.75 c -0.4,-1.4 -1,-2.5 -1.6,-3.4 -0.7,-0.8 -1.7,-1.5 -3.1,-1.9 -1.3,-0.4 -3.1,-0.7 -5.2,-0.9 -2.1,-0.1 -4.8,-0.2 -8.1,-0.2 -3.7,0 -6.6,0.1 -8.9,0.2 -2.2,0.2 -3.9,0.5 -5.2,0.9 -1.3,0.4 -2.3,1.1 -2.8,1.9 -0.6,0.9 -1.1,2 -1.4,3.4 l -20,72.1 h -0.2 l -18.9,-72.1 c -0.4,-1.3 -0.8,-2.4 -1.4,-3.3 -0.6,-0.8 -1.5,-1.5 -2.8,-2 -1.2,-0.4 -2.9,-0.7 -5.1,-0.9 -2.1,-0.1 -5,-0.2 -8.5,-0.2 -3.8,0 -6.8,0.1 -9,0.2 -2.2,0.2 -4,0.5 -5.2,0.9 -1.3,0.4 -2.3,1.1 -2.8,1.9 -0.6,0.9 -1.1,2 -1.5,3.4 l -28.4,99.2 c -0.6,2.1 -0.9,3.8 -1,5 -0.1,1.2 0.3,2.1 1.1,2.8 0.8,0.6 2.1,1 4,1.2 1.8,0.1 4.4,0.2 7.7,0.2 3,0 5.4,-0.1 7.2,-0.2 1.7,0 3.1,-0.2 4,-0.6 0.9,-0.3 1.5,-0.8 1.8,-1.4 0.3,-0.6 0.6,-1.5 0.8,-2.6 l 21.9,-87.1 h 0.1 l 22.9,86.5 c 0.2,1.1 0.6,2 1,2.7 0.4,0.7 1.1,1.3 2.1,1.7 1,0.3 2.4,0.6 4.1,0.8 1.7,0.1 4.1,0.2 7,0.2 3.1,0 5.5,-0.1 7.4,-0.2 1.8,-0.1 3.2,-0.4 4.2,-0.7 1,-0.4 1.7,-1 2.2,-1.7 0.4,-0.7 0.8,-1.6 1.1,-2.8 l 23.5,-86.5 h 0.2 l 22,86.9 c 0.2,0.9 0.4,1.7 0.8,2.4 0.3,0.7 0.9,1.2 1.8,1.6 0.9,0.3 2.2,0.6 3.9,0.8 1.6,0.1 4,0.2 7,0.2 2.9,0 5.1,-0.1 6.6,-0.2 1.6,-0.2 2.8,-0.6 3.5,-1.2 0.7,-0.7 1,-1.6 0.9,-2.9 -0.1,-1.2 -0.4,-3 -1,-5.1 z m 126.5,38.6 c 0,-2.7 -0.7,-4.7 -2,-6 -1.3,-1.3 -3.1,-1.9 -5.4,-1.9 h -52.5 c 0,-3.4 0.4,-6.4 1.3,-9.1 0.8,-2.7 2.2,-5.1 4.1,-7 1.9,-1.9 4.4,-3.3 7.4,-4.3 3,-1 6.6,-1.5 10.8,-1.5 4.2,0 7.9,0.3 11.2,0.8 3.2,0.6 6,1.2 8.3,1.9 2.4,0.7 4.3,1.3 5.9,1.8 1.5,0.6 2.8,0.9 3.7,0.9 0.6,0 1.1,-0.1 1.5,-0.3 0.4,-0.3 0.7,-0.6 1,-1.1 0.2,-0.6 0.4,-1.3 0.5,-2.3 0.1,-1 0.1,-2.2 0.1,-3.6 0,-1.3 0,-2.4 -0.1,-3.3 0,-0.9 -0.1,-1.7 -0.2,-2.4 -0.2,-0.6 -0.4,-1.1 -0.6,-1.6 -0.3,-0.4 -0.6,-0.9 -1,-1.3 -0.5,-0.4 -1.6,-0.9 -3.5,-1.6 -1.8,-0.7 -4.2,-1.4 -7.1,-2.1 -2.9,-0.7 -6.2,-1.3 -10,-1.8 -3.7,-0.5 -7.7,-0.7 -12,-0.7 -7.6,0 -14.4,0.9 -20.1,2.6 -5.8,1.8 -10.6,4.5 -14.5,8 -3.9,3.6 -6.7,8.1 -8.6,13.6 -1.9,5.4 -2.9,11.8 -2.9,19.1 0,7 1,13.3 3,18.9 2,5.6 4.9,10.3 8.7,14.2 3.8,3.9 8.4,6.9 13.9,8.9 5.4,2.1 11.6,3.1 18.4,3.1 7.2,0 13.4,-1 18.5,-2.9 5.1,-1.9 9.3,-4.6 12.6,-8 3.3,-3.5 5.7,-7.5 7.3,-12.2 1.5,-4.7 2.3,-9.8 2.3,-15.3 z m -23.6,6.3 c 0.2,6.2 -1.2,11.1 -4.1,14.7 -2.9,3.5 -7.5,5.3 -13.6,5.3 -3.1,0 -5.8,-0.6 -8.1,-1.6 -2.2,-1.1 -4.1,-2.5 -5.7,-4.3 -1.5,-1.8 -2.6,-3.9 -3.4,-6.3 -0.8,-2.4 -1.3,-5 -1.4,-7.8 z m 130.4,-7.5 c 0,-7 -0.9,-13.3 -2.6,-18.8 -1.6,-5.6 -4.1,-10.4 -7.2,-14.3 -3.2,-3.9 -7.1,-6.9 -11.7,-9 -4.6,-2.1 -9.8,-3.2 -15.7,-3.2 -2.9,0 -5.6,0.2 -8.1,0.7 -2.5,0.5 -4.9,1.3 -7.2,2.5 -2.3,1.1 -4.5,2.5 -6.8,4.2 -2.2,1.7 -4.5,3.7 -6.8,6.1 v -8.5 c 0,-0.6 -0.2,-1.2 -0.5,-1.6 -0.4,-0.5 -0.9,-0.8 -1.7,-1.1 -0.9,-0.3 -1.9,-0.5 -3.3,-0.6 -1.3,-0.2 -3,-0.2 -4.9,-0.2 -2,0 -3.7,0 -5,0.2 -1.3,0.1 -2.4,0.3 -3.2,0.6 -0.8,0.3 -1.4,0.6 -1.7,1.1 -0.3,0.4 -0.5,1 -0.5,1.6 v 115.6 c 0,0.6 0.2,1.1 0.6,1.6 0.4,0.4 1.1,0.8 2,1.2 0.9,0.3 2.2,0.5 3.7,0.7 1.6,0.2 3.5,0.3 5.9,0.3 2.4,0 4.4,-0.1 5.9,-0.3 1.6,-0.2 2.8,-0.4 3.7,-0.7 1,-0.4 1.6,-0.8 2,-1.2 0.4,-0.5 0.6,-1 0.6,-1.6 v -43.3 c 2.2,1.9 4.4,3.6 6.6,5.1 2.2,1.4 4.4,2.5 6.5,3.4 2.2,0.9 4.5,1.6 6.8,2 2.3,0.4 4.8,0.6 7.4,0.6 6.3,0 11.8,-1.1 16.2,-3.5 4.5,-2.3 8.1,-5.4 10.9,-9.3 2.8,-3.9 4.8,-8.5 6.1,-13.8 1.3,-5.2 2,-10.7 2,-16.5 z m -25.3,-1.6 c 0,3.3 -0.3,6.5 -0.8,9.6 -0.5,3.2 -1.5,5.9 -2.9,8.3 -1.3,2.4 -3.1,4.3 -5.2,5.8 -2.2,1.4 -4.9,2.1 -8.2,2.1 -1.6,0 -3.2,-0.2 -4.7,-0.6 -1.6,-0.4 -3.2,-1.1 -4.8,-2.1 -1.7,-1 -3.3,-2.3 -5.1,-3.9 -1.7,-1.6 -3.6,-3.5 -5.5,-5.9 v -26 c 3.4,-4 6.7,-7 9.8,-9.1 3.1,-2.1 6.4,-3.1 9.8,-3.1 3.2,0 5.9,0.7 8.1,2.2 2.1,1.5 4,3.4 5.4,5.7 1.5,2.4 2.5,5 3.2,8 0.6,3 0.9,6 0.9,9 z m 148,-33.1 c 0.7,-2.1 1.2,-3.7 1.4,-5 0.2,-1.2 0,-2.1 -0.8,-2.7 -0.7,-0.7 -1.9,-1 -3.7,-1.2 -1.8,-0.1 -4.3,-0.2 -7.5,-0.2 -3.3,0 -5.8,0 -7.7,0.1 -1.8,0.1 -3.2,0.3 -4.2,0.6 -0.9,0.2 -1.6,0.6 -2,1 -0.4,0.5 -0.7,1.1 -1,1.9 l -8.4,22.8 h -47 l -7.9,-22.2 c -0.2,-0.8 -0.6,-1.5 -1,-2.1 -0.4,-0.5 -1.1,-1 -2,-1.3 -1,-0.3 -2.3,-0.5 -4,-0.6 -1.7,-0.2 -3.9,-0.2 -6.7,-0.2 -3,0 -5.3,0.1 -7,0.3 -1.6,0.1 -2.8,0.6 -3.5,1.2 -0.6,0.7 -0.8,1.7 -0.6,2.9 0.2,1.2 0.6,2.9 1.4,4.9 l 38.6,100.9 c 0.4,1 0.8,1.8 1.3,2.4 0.6,0.6 1.4,1.1 2.5,1.4 1.1,0.4 2.7,0.6 4.7,0.6 2,0.1 4.6,0.2 7.9,0.2 3.8,0 6.9,-0.1 9.1,-0.2 2.3,0 4,-0.2 5.3,-0.6 1.2,-0.3 2.1,-0.8 2.7,-1.4 0.5,-0.7 1,-1.5 1.4,-2.7 z m -57.5,83.4 h -0.1 l -17.6,-48.3 h 35.4 z m 160.4,-48.7 c 0,-6.9 -0.9,-13.2 -2.5,-18.8 -1.7,-5.6 -4.1,-10.4 -7.2,-14.3 -3.2,-3.9 -7.1,-6.9 -11.8,-9 -4.7,-2.1 -10.1,-3.2 -16.2,-3.2 -2.5,0 -4.8,0.2 -6.9,0.7 -2.1,0.4 -4.1,1.1 -6.1,2 -1.9,0.9 -3.9,2 -5.8,3.4 -1.9,1.3 -3.9,2.9 -6,4.7 v -36.9 c 0,-0.6 -0.2,-1.1 -0.6,-1.6 -0.4,-0.5 -1,-0.9 -2,-1.2 -0.9,-0.3 -2.1,-0.5 -3.7,-0.7 -1.5,-0.2 -3.5,-0.3 -5.9,-0.3 -2.4,0 -4.3,0.1 -5.9,0.3 -1.5,0.2 -2.8,0.4 -3.7,0.7 -0.9,0.3 -1.6,0.7 -2,1.2 -0.4,0.5 -0.6,1 -0.6,1.6 v 109.5 c 0,0.6 0.2,1.1 0.5,1.5 0.3,0.5 0.9,0.8 1.7,1.1 0.8,0.3 1.9,0.6 3.2,0.7 1.3,0.1 3,0.2 5,0.2 1.9,0 3.5,-0.1 4.9,-0.2 1.3,-0.1 2.3,-0.4 3.2,-0.7 0.8,-0.3 1.3,-0.6 1.6,-1.1 0.4,-0.4 0.5,-0.9 0.5,-1.5 v -9.2 c 2.5,2.3 5,4.4 7.4,6.2 2.4,1.8 4.9,3.3 7.4,4.5 2.5,1.2 5.1,2.1 7.8,2.6 2.7,0.6 5.5,0.9 8.6,0.9 6.3,0 11.7,-1.1 16.1,-3.4 4.5,-2.2 8.1,-5.3 10.9,-9.2 2.8,-4 4.8,-8.5 6.1,-13.8 1.3,-5.2 2,-10.7 2,-16.7 z m -25.4,-1.5 c 0,3.3 -0.2,6.5 -0.8,9.6 -0.5,3.1 -1.5,5.8 -2.8,8.2 -1.3,2.4 -3.1,4.3 -5.2,5.8 -2.2,1.4 -4.9,2.1 -8.1,2.1 -1.6,0 -3.2,-0.2 -4.8,-0.6 -1.6,-0.5 -3.2,-1.2 -4.8,-2.2 -1.7,-1 -3.3,-2.3 -5.1,-3.9 -1.7,-1.5 -3.6,-3.5 -5.5,-5.8 v -25.9 c 3.4,-3.9 6.7,-6.9 9.8,-9.1 3.1,-2.1 6.3,-3.2 9.6,-3.2 3.2,0 5.9,0.7 8.1,2.2 2.2,1.5 4.1,3.4 5.5,5.8 1.4,2.3 2.4,5 3.1,8 0.7,3 1,6 1,9 z m 132.2,1.5 c 0,-6.9 -0.9,-13.2 -2.5,-18.8 -1.7,-5.6 -4.1,-10.4 -7.2,-14.3 -3.2,-3.9 -7.1,-6.9 -11.8,-9 -4.7,-2.1 -10.1,-3.2 -16.2,-3.2 -2.5,0 -4.8,0.2 -6.9,0.7 -2.1,0.4 -4.1,1.1 -6.1,2 -1.9,0.9 -3.9,2 -5.8,3.4 -1.9,1.3 -3.9,2.9 -6,4.7 v -36.9 c 0,-0.6 -0.2,-1.1 -0.6,-1.6 -0.4,-0.5 -1,-0.9 -2,-1.2 -0.9,-0.3 -2.1,-0.5 -3.7,-0.7 -1.5,-0.2 -3.5,-0.3 -5.9,-0.3 -2.4,0 -4.3,0.1 -5.9,0.3 -1.5,0.2 -2.8,0.4 -3.7,0.7 -0.9,0.3 -1.6,0.7 -2,1.2 -0.4,0.5 -0.6,1 -0.6,1.6 v 109.5 c 0,0.6 0.2,1.1 0.5,1.5 0.3,0.5 0.9,0.8 1.7,1.1 0.8,0.3 1.9,0.6 3.2,0.7 1.3,0.1 3,0.2 5,0.2 1.9,0 3.5,-0.1 4.9,-0.2 1.3,-0.1 2.3,-0.4 3.2,-0.7 0.8,-0.3 1.3,-0.6 1.6,-1.1 0.4,-0.4 0.5,-0.9 0.5,-1.5 v -9.2 c 2.5,2.3 5,4.4 7.4,6.2 2.4,1.8 4.9,3.3 7.4,4.5 2.5,1.2 5.1,2.1 7.8,2.6 2.7,0.6 5.5,0.9 8.6,0.9 6.3,0 11.7,-1.1 16.1,-3.4 4.5,-2.2 8.1,-5.3 10.9,-9.2 2.8,-4 4.8,-8.5 6.1,-13.8 1.3,-5.2 2,-10.7 2,-16.7 z m -25.4,-1.5 c 0,3.3 -0.2,6.5 -0.8,9.6 -0.5,3.1 -1.5,5.8 -2.8,8.2 -1.3,2.4 -3.1,4.3 -5.2,5.8 -2.2,1.4 -4.9,2.1 -8.1,2.1 -1.6,0 -3.2,-0.2 -4.8,-0.6 -1.6,-0.5 -3.2,-1.2 -4.8,-2.2 -1.7,-1 -3.3,-2.3 -5.1,-3.9 -1.7,-1.5 -3.6,-3.5 -5.5,-5.8 v -25.9 c 3.4,-3.9 6.7,-6.9 9.8,-9.1 3.1,-2.1 6.3,-3.2 9.6,-3.2 3.2,0 5.9,0.7 8.1,2.2 2.2,1.5 4.1,3.4 5.5,5.8 1.4,2.3 2.4,5 3.1,8 0.7,3 1,6 1,9"
         style="fill:#231f20;fill-opacity:1;fill-rule:nonzero;stroke:none"
         id="path20" />
      <path
         d="m 4164.99,4410.75 c 0,-1.4 -0.1,-2.6 -0.3,-3.6 -0.2,-0.9 -0.4,-1.7 -0.8,-2.3 -0.3,-0.6 -0.7,-1 -1.2,-1.3 -0.5,-0.2 -1,-0.4 -1.5,-0.4 h -11 l -3.3,-25 h 9.5 c 1.1,0 2,-0.6 2.7,-1.7 0.6,-1.2 1,-3.1 1,-5.8 0,-1.4 -0.1,-2.6 -0.3,-3.6 -0.2,-1 -0.5,-1.8 -0.8,-2.4 -0.3,-0.6 -0.7,-1 -1.2,-1.2 -0.5,-0.3 -1,-0.4 -1.5,-0.4 h -11.5 l -3.6,-27.5 c 0,-0.6 -0.2,-1 -0.5,-1.4 -0.3,-0.4 -0.8,-0.7 -1.6,-1 -0.7,-0.3 -1.7,-0.5 -3,-0.6 -1.2,-0.2 -2.8,-0.2 -4.7,-0.2 -2.1,0 -3.8,0 -5,0.2 -1.3,0.1 -2.2,0.3 -2.9,0.6 -0.6,0.3 -1.1,0.6 -1.3,1 -0.2,0.4 -0.3,0.8 -0.2,1.4 l 3.7,27.5 h -21.7 l -3.6,-27.5 c 0,-0.5 -0.2,-1 -0.5,-1.4 -0.3,-0.4 -0.8,-0.7 -1.5,-1 -0.7,-0.3 -1.7,-0.5 -3,-0.6 -1.2,-0.2 -2.9,-0.2 -4.9,-0.2 -2,0 -3.6,0 -4.9,0.2 -1.2,0.1 -2.1,0.3 -2.8,0.6 -0.7,0.3 -1.2,0.6 -1.4,1 -0.2,0.4 -0.3,0.8 -0.1,1.4 l 3.5,27.5 h -9.2 c -1.1,0 -2,0.5 -2.7,1.6 -0.7,1.1 -1,3.1 -1,5.8 0,1.4 0.1,2.6 0.3,3.6 0.2,1 0.4,1.8 0.8,2.4 0.3,0.6 0.7,1 1.1,1.3 0.5,0.3 1,0.4 1.6,0.4 h 11.2 l 3.3,25 h -9.8 c -1.1,0 -2,0.6 -2.7,1.7 -0.6,1.1 -1,3 -1,5.8 0,2.8 0.4,4.8 1.1,5.9 0.7,1.1 1.6,1.7 2.7,1.7 h 11.6 l 3.5,25.6 c 0,0.6 0.1,1 0.5,1.4 0.3,0.4 0.8,0.7 1.6,1 0.8,0.3 1.8,0.5 3.1,0.7 1.3,0.1 2.9,0.2 4.9,0.2 2,0 3.6,-0.1 4.9,-0.2 1.2,-0.2 2.1,-0.4 2.8,-0.7 0.6,-0.3 1,-0.6 1.2,-1 0.1,-0.4 0.2,-0.8 0.2,-1.3 l -3.6,-25.7 h 21.7 l 3.3,25.6 c 0.1,0.5 0.3,0.9 0.6,1.3 0.3,0.5 0.8,0.8 1.6,1.1 0.7,0.3 1.7,0.5 3,0.7 1.3,0.1 3,0.2 5,0.2 2,0 3.7,-0.1 4.9,-0.2 1.2,-0.2 2.1,-0.4 2.8,-0.7 0.6,-0.3 1,-0.6 1.2,-1 0.1,-0.4 0.2,-0.8 0.1,-1.3 l -3.4,-25.7 h 9.3 c 1.1,0 2,-0.6 2.7,-1.8 0.7,-1.1 1,-3 1,-5.7 z m -55.7,-7.6 -3.3,-25 h 21.6 l 3.4,25 z"
         style="fill:#231f20;fill-opacity:1;fill-rule:nonzero;stroke:none"
         id="path22" />
      <path
         d="m 3192.69,198.68 h 5014.3 v 4337 h -5014.3 z"
         style="fill:#ffffff;fill-opacity:1;fill-rule:evenodd;stroke:none"
         id="path24" />
      <path
         d="m 3192.69,198.68 h 5014.3 v 4337 h -5014.3 z"
         style="fill:none;stroke:#f9b90a;stroke-width:20;stroke-linecap:round;stroke-linejoin:round;stroke-miterlimit:10;stroke-dasharray:none;stroke-opacity:1"
         id="path26" />
      <path
         d="m 3348.59,4410.75 c 0,-1.4 -0.1,-2.6 -0.3,-3.6 -0.2,-0.9 -0.5,-1.7 -0.8,-2.3 -0.3,-0.6 -0.7,-1 -1.2,-1.3 -0.5,-0.2 -1,-0.4 -1.5,-0.4 h -11 l -3.3,-25 h 9.4 c 1.1,0 2,-0.6 2.7,-1.7 0.7,-1.2 1,-3.1 1,-5.8 0,-1.4 -0.1,-2.6 -0.3,-3.6 -0.2,-1 -0.4,-1.8 -0.7,-2.4 -0.4,-0.6 -0.8,-1 -1.3,-1.2 -0.4,-0.3 -0.9,-0.4 -1.4,-0.4 h -11.6 l -3.5,-27.5 c -0.1,-0.6 -0.3,-1 -0.6,-1.4 -0.3,-0.4 -0.8,-0.7 -1.5,-1 -0.8,-0.3 -1.8,-0.5 -3,-0.6 -1.3,-0.2 -2.9,-0.2 -4.8,-0.2 -2.1,0 -3.7,0 -5,0.2 -1.2,0.1 -2.2,0.3 -2.8,0.6 -0.7,0.3 -1.1,0.6 -1.3,1 -0.3,0.4 -0.3,0.8 -0.3,1.4 l 3.7,27.5 h -21.7 l -3.5,-27.5 c -0.1,-0.5 -0.3,-1 -0.6,-1.4 -0.3,-0.4 -0.8,-0.7 -1.5,-1 -0.7,-0.3 -1.7,-0.5 -2.9,-0.6 -1.3,-0.2 -2.9,-0.2 -5,-0.2 -2,0 -3.6,0 -4.8,0.2 -1.2,0.1 -2.2,0.3 -2.9,0.6 -0.7,0.3 -1.1,0.6 -1.3,1 -0.3,0.4 -0.3,0.8 -0.2,1.4 l 3.5,27.5 h -9.2 c -1.1,0 -2,0.5 -2.6,1.6 -0.7,1.1 -1.1,3.1 -1.1,5.8 0,1.4 0.1,2.6 0.3,3.6 0.2,1 0.5,1.8 0.8,2.4 0.3,0.6 0.7,1 1.2,1.3 0.4,0.3 0.9,0.4 1.5,0.4 h 11.2 l 3.3,25 h -9.7 c -1.1,0 -2,0.6 -2.7,1.7 -0.7,1.1 -1,3 -1,5.8 0,2.8 0.3,4.8 1,5.9 0.8,1.1 1.7,1.7 2.8,1.7 h 11.6 l 3.4,25.6 c 0,0.6 0.2,1 0.5,1.4 0.3,0.4 0.9,0.7 1.7,1 0.7,0.3 1.8,0.5 3.1,0.7 1.2,0.1 2.9,0.2 4.9,0.2 2,0 3.6,-0.1 4.8,-0.2 1.2,-0.2 2.2,-0.4 2.8,-0.7 0.7,-0.3 1.1,-0.6 1.2,-1 0.2,-0.4 0.3,-0.8 0.3,-1.3 l -3.6,-25.7 h 21.7 l 3.2,25.6 c 0.1,0.5 0.3,0.9 0.6,1.3 0.3,0.5 0.9,0.8 1.6,1.1 0.8,0.3 1.8,0.5 3.1,0.7 1.3,0.1 2.9,0.2 5,0.2 2,0 3.6,-0.1 4.8,-0.2 1.2,-0.2 2.2,-0.4 2.8,-0.7 0.7,-0.3 1.1,-0.6 1.2,-1 0.2,-0.4 0.2,-0.8 0.2,-1.3 l -3.4,-25.7 h 9.3 c 1.1,0 2,-0.6 2.6,-1.8 0.7,-1.1 1.1,-3 1.1,-5.7 z m -55.7,-7.6 -3.3,-25 h 21.5 l 3.4,25 z"
         style="fill:#231f20;fill-opacity:1;fill-rule:nonzero;stroke:none"
         id="path28" />
      <path
         d="m 3496.69,4338.75 c -0.4,-1.4 -1,-2.5 -1.6,-3.4 -0.7,-0.8 -1.7,-1.5 -3.1,-1.9 -1.3,-0.4 -3.1,-0.7 -5.2,-0.9 -2.1,-0.1 -4.8,-0.2 -8.1,-0.2 -3.7,0 -6.6,0.1 -8.9,0.2 -2.2,0.2 -3.9,0.5 -5.2,0.9 -1.3,0.4 -2.3,1.1 -2.8,1.9 -0.6,0.9 -1.1,2 -1.4,3.4 l -20,72.1 h -0.2 l -18.9,-72.1 c -0.4,-1.3 -0.8,-2.4 -1.4,-3.3 -0.6,-0.8 -1.5,-1.5 -2.8,-2 -1.2,-0.4 -2.9,-0.7 -5.1,-0.9 -2.1,-0.1 -5,-0.2 -8.5,-0.2 -3.8,0 -6.8,0.1 -9,0.2 -2.2,0.2 -4,0.5 -5.2,0.9 -1.3,0.4 -2.3,1.1 -2.8,1.9 -0.6,0.9 -1.1,2 -1.5,3.4 l -28.4,99.2 c -0.6,2.1 -0.9,3.8 -1,5 -0.1,1.2 0.3,2.1 1.1,2.8 0.8,0.6 2.1,1 4,1.2 1.8,0.1 4.4,0.2 7.7,0.2 3,0 5.4,-0.1 7.2,-0.2 1.7,0 3.1,-0.2 4,-0.6 0.9,-0.3 1.5,-0.8 1.8,-1.4 0.3,-0.6 0.6,-1.5 0.8,-2.6 l 21.9,-87.1 h 0.1 l 22.9,86.5 c 0.2,1.1 0.6,2 1,2.7 0.4,0.7 1.1,1.3 2.1,1.7 1,0.3 2.4,0.6 4.1,0.8 1.7,0.1 4.1,0.2 7,0.2 3.1,0 5.5,-0.1 7.4,-0.2 1.8,-0.1 3.2,-0.4 4.2,-0.7 1,-0.4 1.7,-1 2.2,-1.7 0.4,-0.7 0.8,-1.6 1.1,-2.8 l 23.5,-86.5 h 0.2 l 22,86.9 c 0.2,0.9 0.4,1.7 0.8,2.4 0.3,0.7 0.9,1.2 1.8,1.6 0.9,0.3 2.2,0.6 3.9,0.8 1.6,0.1 4,0.2 7,0.2 2.9,0 5.1,-0.1 6.6,-0.2 1.6,-0.2 2.8,-0.6 3.5,-1.2 0.7,-0.7 1,-1.6 0.9,-2.9 -0.1,-1.2 -0.4,-3 -1,-5.1 z m 126.5,38.6 c 0,-2.7 -0.7,-4.7 -2,-6 -1.3,-1.3 -3.1,-1.9 -5.4,-1.9 h -52.5 c 0,-3.4 0.4,-6.4 1.3,-9.1 0.8,-2.7 2.2,-5.1 4.1,-7 1.9,-1.9 4.4,-3.3 7.4,-4.3 3,-1 6.6,-1.5 10.8,-1.5 4.2,0 7.9,0.3 11.2,0.8 3.2,0.6 6,1.2 8.3,1.9 2.4,0.7 4.3,1.3 5.9,1.8 1.5,0.6 2.8,0.9 3.7,0.9 0.6,0 1.1,-0.1 1.5,-0.3 0.4,-0.3 0.7,-0.6 1,-1.1 0.2,-0.6 0.4,-1.3 0.5,-2.3 0.1,-1 0.1,-2.2 0.1,-3.6 0,-1.3 0,-2.4 -0.1,-3.3 0,-0.9 -0.1,-1.7 -0.2,-2.4 -0.2,-0.6 -0.4,-1.1 -0.6,-1.6 -0.3,-0.4 -0.6,-0.9 -1,-1.3 -0.5,-0.4 -1.6,-0.9 -3.5,-1.6 -1.8,-0.7 -4.2,-1.4 -7.1,-2.1 -2.9,-0.7 -6.2,-1.3 -10,-1.8 -3.7,-0.5 -7.7,-0.7 -12,-0.7 -7.6,0 -14.4,0.9 -20.1,2.6 -5.8,1.8 -10.6,4.5 -14.5,8 -3.9,3.6 -6.7,8.1 -8.6,13.6 -1.9,5.4 -2.9,11.8 -2.9,19.1 0,7 1,13.3 3,18.9 2,5.6 4.9,10.3 8.7,14.2 3.8,3.9 8.4,6.9 13.9,8.9 5.4,2.1 11.6,3.1 18.4,3.1 7.2,0 13.4,-1 18.5,-2.9 5.1,-1.9 9.3,-4.6 12.6,-8 3.3,-3.5 5.7,-7.5 7.3,-12.2 1.5,-4.7 2.3,-9.8 2.3,-15.3 z m -23.6,6.3 c 0.2,6.2 -1.2,11.1 -4.1,14.7 -2.9,3.5 -7.5,5.3 -13.6,5.3 -3.1,0 -5.8,-0.6 -8.1,-1.6 -2.2,-1.1 -4.1,-2.5 -5.7,-4.3 -1.5,-1.8 -2.6,-3.9 -3.4,-6.3 -0.8,-2.4 -1.3,-5 -1.4,-7.8 z m 130.4,-7.5 c 0,-7 -0.9,-13.3 -2.6,-18.8 -1.6,-5.6 -4.1,-10.4 -7.2,-14.3 -3.2,-3.9 -7.1,-6.9 -11.7,-9 -4.6,-2.1 -9.8,-3.2 -15.7,-3.2 -2.9,0 -5.6,0.2 -8.1,0.7 -2.5,0.5 -4.9,1.3 -7.2,2.5 -2.3,1.1 -4.5,2.5 -6.8,4.2 -2.2,1.7 -4.5,3.7 -6.8,6.1 v -8.5 c 0,-0.6 -0.2,-1.2 -0.5,-1.6 -0.4,-0.5 -0.9,-0.8 -1.7,-1.1 -0.9,-0.3 -1.9,-0.5 -3.3,-0.6 -1.3,-0.2 -3,-0.2 -4.9,-0.2 -2,0 -3.7,0 -5,0.2 -1.3,0.1 -2.4,0.3 -3.2,0.6 -0.8,0.3 -1.4,0.6 -1.7,1.1 -0.3,0.4 -0.5,1 -0.5,1.6 v 115.6 c 0,0.6 0.2,1.1 0.6,1.6 0.4,0.4 1.1,0.8 2,1.2 0.9,0.3 2.2,0.5 3.7,0.7 1.6,0.2 3.5,0.3 5.9,0.3 2.4,0 4.4,-0.1 5.9,-0.3 1.6,-0.2 2.8,-0.4 3.7,-0.7 1,-0.4 1.6,-0.8 2,-1.2 0.4,-0.5 0.6,-1 0.6,-1.6 v -43.3 c 2.2,1.9 4.4,3.6 6.6,5.1 2.2,1.4 4.4,2.5 6.5,3.4 2.2,0.9 4.5,1.6 6.8,2 2.3,0.4 4.8,0.6 7.4,0.6 6.3,0 11.8,-1.1 16.2,-3.5 4.5,-2.3 8.1,-5.4 10.9,-9.3 2.8,-3.9 4.8,-8.5 6.1,-13.8 1.3,-5.2 2,-10.7 2,-16.5 z m -25.3,-1.6 c 0,3.3 -0.3,6.5 -0.8,9.6 -0.5,3.2 -1.5,5.9 -2.9,8.3 -1.3,2.4 -3.1,4.3 -5.2,5.8 -2.2,1.4 -4.9,2.1 -8.2,2.1 -1.6,0 -3.2,-0.2 -4.7,-0.6 -1.6,-0.4 -3.2,-1.1 -4.8,-2.1 -1.7,-1 -3.3,-2.3 -5.1,-3.9 -1.7,-1.6 -3.6,-3.5 -5.5,-5.9 v -26 c 3.4,-4 6.7,-7 9.8,-9.1 3.1,-2.1 6.4,-3.1 9.8,-3.1 3.2,0 5.9,0.7 8.1,2.2 2.1,1.5 4,3.4 5.4,5.7 1.5,2.4 2.5,5 3.2,8 0.6,3 0.9,6 0.9,9 z m 148,-33.1 c 0.7,-2.1 1.2,-3.7 1.4,-5 0.2,-1.2 0,-2.1 -0.8,-2.7 -0.7,-0.7 -1.9,-1 -3.7,-1.2 -1.8,-0.1 -4.3,-0.2 -7.5,-0.2 -3.3,0 -5.8,0 -7.7,0.1 -1.8,0.1 -3.2,0.3 -4.2,0.6 -0.9,0.2 -1.6,0.6 -2,1 -0.4,0.5 -0.7,1.1 -1,1.9 l -8.4,22.8 h -47 l -7.9,-22.2 c -0.2,-0.8 -0.6,-1.5 -1,-2.1 -0.4,-0.5 -1.1,-1 -2,-1.3 -1,-0.3 -2.3,-0.5 -4,-0.6 -1.7,-0.2 -3.9,-0.2 -6.7,-0.2 -3,0 -5.3,0.1 -7,0.3 -1.6,0.1 -2.8,0.6 -3.5,1.2 -0.6,0.7 -0.8,1.7 -0.6,2.9 0.2,1.2 0.6,2.9 1.4,4.9 l 38.6,100.9 c 0.4,1 0.8,1.8 1.3,2.4 0.6,0.6 1.4,1.1 2.5,1.4 1.1,0.4 2.7,0.6 4.7,0.6 2,0.1 4.6,0.2 7.9,0.2 3.8,0 6.9,-0.1 9.1,-0.2 2.3,0 4,-0.2 5.3,-0.6 1.2,-0.3 2.1,-0.8 2.7,-1.4 0.5,-0.7 1,-1.5 1.4,-2.7 z m -57.5,83.4 h -0.1 l -17.6,-48.3 h 35.4 z m 160.4,-48.7 c 0,-6.9 -0.9,-13.2 -2.5,-18.8 -1.7,-5.6 -4.1,-10.4 -7.2,-14.3 -3.2,-3.9 -7.1,-6.9 -11.8,-9 -4.7,-2.1 -10.1,-3.2 -16.2,-3.2 -2.5,0 -4.8,0.2 -6.9,0.7 -2.1,0.4 -4.1,1.1 -6.1,2 -1.9,0.9 -3.9,2 -5.8,3.4 -1.9,1.3 -3.9,2.9 -6,4.7 v -36.9 c 0,-0.6 -0.2,-1.1 -0.6,-1.6 -0.4,-0.5 -1,-0.9 -2,-1.2 -0.9,-0.3 -2.1,-0.5 -3.7,-0.7 -1.5,-0.2 -3.5,-0.3 -5.9,-0.3 -2.4,0 -4.3,0.1 -5.9,0.3 -1.5,0.2 -2.8,0.4 -3.7,0.7 -0.9,0.3 -1.6,0.7 -2,1.2 -0.4,0.5 -0.6,1 -0.6,1.6 v 109.5 c 0,0.6 0.2,1.1 0.5,1.5 0.3,0.5 0.9,0.8 1.7,1.1 0.8,0.3 1.9,0.6 3.2,0.7 1.3,0.1 3,0.2 5,0.2 1.9,0 3.5,-0.1 4.9,-0.2 1.3,-0.1 2.3,-0.4 3.2,-0.7 0.8,-0.3 1.3,-0.6 1.6,-1.1 0.4,-0.4 0.5,-0.9 0.5,-1.5 v -9.2 c 2.5,2.3 5,4.4 7.4,6.2 2.4,1.8 4.9,3.3 7.4,4.5 2.5,1.2 5.1,2.1 7.8,2.6 2.7,0.6 5.5,0.9 8.6,0.9 6.3,0 11.7,-1.1 16.1,-3.4 4.5,-2.2 8.1,-5.3 10.9,-9.2 2.8,-4 4.8,-8.5 6.1,-13.8 1.3,-5.2 2,-10.7 2,-16.7 z m -25.4,-1.5 c 0,3.3 -0.2,6.5 -0.8,9.6 -0.5,3.1 -1.5,5.8 -2.8,8.2 -1.3,2.4 -3.1,4.3 -5.2,5.8 -2.2,1.4 -4.9,2.1 -8.1,2.1 -1.6,0 -3.2,-0.2 -4.8,-0.6 -1.6,-0.5 -3.2,-1.2 -4.8,-2.2 -1.7,-1 -3.3,-2.3 -5.1,-3.9 -1.7,-1.5 -3.6,-3.5 -5.5,-5.8 v -25.9 c 3.4,-3.9 6.7,-6.9 9.8,-9.1 3.1,-2.1 6.3,-3.2 9.6,-3.2 3.2,0 5.9,0.7 8.1,2.2 2.2,1.5 4.1,3.4 5.5,5.8 1.4,2.3 2.4,5 3.1,8 0.7,3 1,6 1,9 z m 132.2,1.5 c 0,-6.9 -0.9,-13.2 -2.5,-18.8 -1.7,-5.6 -4.1,-10.4 -7.2,-14.3 -3.2,-3.9 -7.1,-6.9 -11.8,-9 -4.7,-2.1 -10.1,-3.2 -16.2,-3.2 -2.5,0 -4.8,0.2 -6.9,0.7 -2.1,0.4 -4.1,1.1 -6.1,2 -1.9,0.9 -3.9,2 -5.8,3.4 -1.9,1.3 -3.9,2.9 -6,4.7 v -36.9 c 0,-0.6 -0.2,-1.1 -0.6,-1.6 -0.4,-0.5 -1,-0.9 -2,-1.2 -0.9,-0.3 -2.1,-0.5 -3.7,-0.7 -1.5,-0.2 -3.5,-0.3 -5.9,-0.3 -2.4,0 -4.3,0.1 -5.9,0.3 -1.5,0.2 -2.8,0.4 -3.7,0.7 -0.9,0.3 -1.6,0.7 -2,1.2 -0.4,0.5 -0.6,1 -0.6,1.6 v 109.5 c 0,0.6 0.2,1.1 0.5,1.5 0.3,0.5 0.9,0.8 1.7,1.1 0.8,0.3 1.9,0.6 3.2,0.7 1.3,0.1 3,0.2 5,0.2 1.9,0 3.5,-0.1 4.9,-0.2 1.3,-0.1 2.3,-0.4 3.2,-0.7 0.8,-0.3 1.3,-0.6 1.6,-1.1 0.4,-0.4 0.5,-0.9 0.5,-1.5 v -9.2 c 2.5,2.3 5,4.4 7.4,6.2 2.4,1.8 4.9,3.3 7.4,4.5 2.5,1.2 5.1,2.1 7.8,2.6 2.7,0.6 5.5,0.9 8.6,0.9 6.3,0 11.7,-1.1 16.1,-3.4 4.5,-2.2 8.1,-5.3 10.9,-9.2 2.8,-4 4.8,-8.5 6.1,-13.8 1.3,-5.2 2,-10.7 2,-16.7 z m -25.4,-1.5 c 0,3.3 -0.2,6.5 -0.8,9.6 -0.5,3.1 -1.5,5.8 -2.8,8.2 -1.3,2.4 -3.1,4.3 -5.2,5.8 -2.2,1.4 -4.9,2.1 -8.1,2.1 -1.6,0 -3.2,-0.2 -4.8,-0.6 -1.6,-0.5 -3.2,-1.2 -4.8,-2.2 -1.7,-1 -3.3,-2.3 -5.1,-3.9 -1.7,-1.5 -3.6,-3.5 -5.5,-5.8 v -25.9 c 3.4,-3.9 6.7,-6.9 9.8,-9.1 3.1,-2.1 6.3,-3.2 9.6,-3.2 3.2,0 5.9,0.7 8.1,2.2 2.2,1.5 4.1,3.4 5.5,5.8 1.4,2.3 2.4,5 3.1,8 0.7,3 1,6 1,9"
         style="fill:#231f20;fill-opacity:1;fill-rule:nonzero;stroke:none"
         id="path30" />
      <path
         d="m 4164.99,4410.75 c 0,-1.4 -0.1,-2.6 -0.3,-3.6 -0.2,-0.9 -0.4,-1.7 -0.8,-2.3 -0.3,-0.6 -0.7,-1 -1.2,-1.3 -0.5,-0.2 -1,-0.4 -1.5,-0.4 h -11 l -3.3,-25 h 9.5 c 1.1,0 2,-0.6 2.7,-1.7 0.6,-1.2 1,-3.1 1,-5.8 0,-1.4 -0.1,-2.6 -0.3,-3.6 -0.2,-1 -0.5,-1.8 -0.8,-2.4 -0.3,-0.6 -0.7,-1 -1.2,-1.2 -0.5,-0.3 -1,-0.4 -1.5,-0.4 h -11.5 l -3.6,-27.5 c 0,-0.6 -0.2,-1 -0.5,-1.4 -0.3,-0.4 -0.8,-0.7 -1.6,-1 -0.7,-0.3 -1.7,-0.5 -3,-0.6 -1.2,-0.2 -2.8,-0.2 -4.7,-0.2 -2.1,0 -3.8,0 -5,0.2 -1.3,0.1 -2.2,0.3 -2.9,0.6 -0.6,0.3 -1.1,0.6 -1.3,1 -0.2,0.4 -0.3,0.8 -0.2,1.4 l 3.7,27.5 h -21.7 l -3.6,-27.5 c 0,-0.5 -0.2,-1 -0.5,-1.4 -0.3,-0.4 -0.8,-0.7 -1.5,-1 -0.7,-0.3 -1.7,-0.5 -3,-0.6 -1.2,-0.2 -2.9,-0.2 -4.9,-0.2 -2,0 -3.6,0 -4.9,0.2 -1.2,0.1 -2.1,0.3 -2.8,0.6 -0.7,0.3 -1.2,0.6 -1.4,1 -0.2,0.4 -0.3,0.8 -0.1,1.4 l 3.5,27.5 h -9.2 c -1.1,0 -2,0.5 -2.7,1.6 -0.7,1.1 -1,3.1 -1,5.8 0,1.4 0.1,2.6 0.3,3.6 0.2,1 0.4,1.8 0.8,2.4 0.3,0.6 0.7,1 1.1,1.3 0.5,0.3 1,0.4 1.6,0.4 h 11.2 l 3.3,25 h -9.8 c -1.1,0 -2,0.6 -2.7,1.7 -0.6,1.1 -1,3 -1,5.8 0,2.8 0.4,4.8 1.1,5.9 0.7,1.1 1.6,1.7 2.7,1.7 h 11.6 l 3.5,25.6 c 0,0.6 0.1,1 0.5,1.4 0.3,0.4 0.8,0.7 1.6,1 0.8,0.3 1.8,0.5 3.1,0.7 1.3,0.1 2.9,0.2 4.9,0.2 2,0 3.6,-0.1 4.9,-0.2 1.2,-0.2 2.1,-0.4 2.8,-0.7 0.6,-0.3 1,-0.6 1.2,-1 0.1,-0.4 0.2,-0.8 0.2,-1.3 l -3.6,-25.7 h 21.7 l 3.3,25.6 c 0.1,0.5 0.3,0.9 0.6,1.3 0.3,0.5 0.8,0.8 1.6,1.1 0.7,0.3 1.7,0.5 3,0.7 1.3,0.1 3,0.2 5,0.2 2,0 3.7,-0.1 4.9,-0.2 1.2,-0.2 2.1,-0.4 2.8,-0.7 0.6,-0.3 1,-0.6 1.2,-1 0.1,-0.4 0.2,-0.8 0.1,-1.3 l -3.4,-25.7 h 9.3 c 1.1,0 2,-0.6 2.7,-1.8 0.7,-1.1 1,-3 1,-5.7 z m -55.7,-7.6 -3.3,-25 h 21.6 l 3.4,25 z"
         style="fill:#231f20;fill-opacity:1;fill-rule:nonzero;stroke:none"
         id="path32" />
      <path
         d="m 7794.69,793.949 c 0,93.903 -913.2,170.102 -2039.8,170.102 -1126.6,0 -2039.8,-76.199 -2039.8,-170.102 0,-93.898 913.2,-170.097 2039.8,-170.097 1126.6,0 2039.8,76.199 2039.8,170.097"
         style="fill:#ffffff;fill-opacity:1;fill-rule:evenodd;stroke:none"
         id="path34" />
      <path
         d="m 7794.69,793.949 c 0,93.903 -913.2,170.102 -2039.8,170.102 -1126.6,0 -2039.8,-76.199 -2039.8,-170.102 0,-93.898 913.2,-170.097 2039.8,-170.097 1126.6,0 2039.8,76.199 2039.8,170.097 z"
         style="fill:none;stroke:#b1b0b0;stroke-width:20;stroke-linecap:round;stroke-linejoin:round;stroke-miterlimit:10;stroke-dasharray:none;stroke-opacity:1"
         id="path36" />
      <g
         id="g38"
         transform="scale(10)">
        <text
           xml:space="preserve"
           transform="matrix(1,0,0,-1,385.869,73.9051)"
           style="font-variant:normal;font-weight:normal;font-size:18px;font-family:Calibri;-inkscape-font-specification:Calibri;writing-mode:lr-tb;fill:#727071;fill-opacity:1;fill-rule:nonzero;stroke:none"
           id="text42"><tspan
             x="0 10.422 19.872 34.199898 38.375755 47.825756 51.965626 59.003628 65.03363 71.261673 79.883675 85.913673 95.399673 101.7177 105.78571 118.65571 127.27771 136.72771 142.75771 149.72392 153.79193 159.91206 169.39807 173.46606 187.75812 196.38013 205.83012 214.50627 222.98427 231.94827 236.01628 241.99246 251.44247 260.46051 264.52853 273.4205 281.6825 289.83649 296.92865 302.95865 311.92264 326.30466 335.21454 339.41049 348.35965 352.44556 362.0574 370.46982"
             y="0"
             sodipodi:role="line"
             id="tspan40">Administrator wants to manage the #System# #log#</tspan></text>
      </g>
      <path
         d="m 7794.69,1566.35 c 0,94 -913.2,170.1 -2039.8,170.1 -1126.6,0 -2039.8,-76.1 -2039.8,-170.1 0,-93.9 913.2,-170 2039.8,-170 1126.6,0 2039.8,76.1 2039.8,170"
         style="fill:#ffffff;fill-opacity:1;fill-rule:evenodd;stroke:none"
         id="path44" />
      <path
         d="m 7794.69,1566.35 c 0,94 -913.2,170.1 -2039.8,170.1 -1126.6,0 -2039.8,-76.1 -2039.8,-170.1 0,-93.9 913.2,-170 2039.8,-170 1126.6,0 2039.8,76.1 2039.8,170 z"
         style="fill:none;stroke:#b1b0b0;stroke-width:20;stroke-linecap:round;stroke-linejoin:round;stroke-miterlimit:10;stroke-dasharray:none;stroke-opacity:1"
         id="path46" />
      <g
         id="g48"
         transform="scale(10)">
        <text
           xml:space="preserve"
           transform="matrix(1,0,0,-1,403.629,151.155)"
           style="font-variant:normal;font-weight:normal;font-size:18px;font-family:Calibri;-inkscape-font-specification:Calibri;writing-mode:lr-tb;fill:#727071;fill-opacity:1;fill-rule:nonzero;stroke:none"
           id="text52"><tspan
             x="0 10.422 19.872 34.199947 38.375805 47.825806 51.965675 59.003677 65.033676 71.261719 79.88372 85.913719 95.399719 101.71776 105.78576 118.65575 127.27776 136.72775 142.75775 149.72398 153.79198 159.91211 169.39812 173.46611 181.51218 185.68803 194.56203 207.50391 211.5719 217.60191 227.05191 235.94383 240.01184 249.46184 253.6017 260.63971 266.66971 276.1557 282.49167 286.57758 294.24567 302.75967 306.93567 311.00369 320.45367 329.02176 335.12384"
             y="0"
             sodipodi:role="line"
             id="tspan50">Administrator wants to view the historical data</tspan></text>
      </g>
      <path
         d="m 7794.69,2338.85 c 0,93.9 -913.2,170.1 -2039.8,170.1 -1126.6,0 -2039.8,-76.2 -2039.8,-170.1 0,-93.9 913.2,-170.1 2039.8,-170.1 1126.6,0 2039.8,76.2 2039.8,170.1"
         style="fill:#ffffff;fill-opacity:1;fill-rule:evenodd;stroke:none"
         id="path54" />
      <path
         d="m 7794.69,2338.85 c 0,93.9 -913.2,170.1 -2039.8,170.1 -1126.6,0 -2039.8,-76.2 -2039.8,-170.1 0,-93.9 913.2,-170.1 2039.8,-170.1 1126.6,0 2039.8,76.2 2039.8,170.1 z"
         style="fill:none;stroke:#b1b0b0;stroke-width:20;stroke-linecap:round;stroke-linejoin:round;stroke-miterlimit:10;stroke-dasharray:none;stroke-opacity:1"
         id="path56" />
      <g
         id="g58"
         transform="scale(10)">
        <text
           xml:space="preserve"
           transform="matrix(1,0,0,-1,377.619,228.415)"
           style="font-variant:normal;font-weight:normal;font-size:18px;font-family:Calibri;-inkscape-font-specification:Calibri;writing-mode:lr-tb;fill:#727071;fill-opacity:1;fill-rule:nonzero;stroke:none"
           id="text62"><tspan
             x="0 10.422 19.872 34.199898 38.375755 47.825756 51.965626 59.003628 65.03363 71.261673 79.883675 85.913673 95.399673 101.7177 105.78571 118.65571 127.27771 136.72771 142.75771 149.72392 153.79193 159.91206 169.39807 173.46606 182.82607 192.27606 198.41428 202.37421 210.99622 215.20045 224.15938 233.60939 243.09538 249.12538 253.26535 260.87936 269.84976 278.79892 282.87766 292.36365 301.81366 305.88165 311.91165 321.36166 330.37961 334.33957 347.28152 356.15552 365.60553 369.67352 376.78366 380.86957 386.89957"
             y="0"
             sodipodi:role="line"
             id="tspan60">Administrator wants to put a #notice# on the web site</tspan></text>
      </g>
      <path
         d="m 7794.69,3883.75 c 0,93.9 -913.2,170 -2039.8,170 -1126.6,0 -2039.8,-76.1 -2039.8,-170 0,-94 913.2,-170.1 2039.8,-170.1 1126.6,0 2039.8,76.1 2039.8,170.1"
         style="fill:#ffffff;fill-opacity:1;fill-rule:evenodd;stroke:none"
         id="path64" />
      <path
         d="m 7794.69,3883.75 c 0,93.9 -913.2,170 -2039.8,170 -1126.6,0 -2039.8,-76.1 -2039.8,-170 0,-94 913.2,-170.1 2039.8,-170.1 1126.6,0 2039.8,76.1 2039.8,170.1 z"
         style="fill:none;stroke:#b1b0b0;stroke-width:20;stroke-linecap:round;stroke-linejoin:round;stroke-miterlimit:10;stroke-dasharray:none;stroke-opacity:1"
         id="path66" />
      <g
         id="g68"
         transform="scale(10)">
        <text
           xml:space="preserve"
           transform="matrix(1,0,0,-1,396.359,382.945)"
           style="font-variant:normal;font-weight:normal;font-size:18px;font-family:Calibri;-inkscape-font-specification:Calibri;writing-mode:lr-tb;fill:#727071;fill-opacity:1;fill-rule:nonzero;stroke:none"
           id="text72"><tspan
             x="0 10.422 19.872 34.199947 38.375805 47.825806 51.965675 59.003677 65.033676 71.261719 79.88372 85.913719 95.399719 101.71776 105.78576 118.65575 127.27776 136.72775 142.75775 149.72398 153.79198 159.91211 169.39812 173.46611 181.51218 185.68803 194.56203 207.50391 211.5719 217.60191 227.05191 235.94383 240.01184 244.20576 248.29167 255.32968 261.35968 265.42767 274.91367 280.40369 284.50751 293.38153 304.52359 313.39758 321.5336 325.67346 333.28745 342.30536 349.27158"
             y="0"
             sodipodi:role="line"
             id="tspan70">Administrator wants to view the list of #Devices#</tspan></text>
      </g>
      <path
         d="m 1042.79,2466.35 2672.6,-903.4"
         style="fill:none;stroke:#b1b0b0;stroke-width:22.5;stroke-linecap:round;stroke-linejoin:round;stroke-miterlimit:10;stroke-dasharray:none;stroke-opacity:1"
         id="path74" />
      <path
         d="m 3654.99,1532.95 60.4,30 -29.9,60.4"
         style="fill:none;stroke:#b1b0b0;stroke-width:22.5;stroke-linecap:round;stroke-linejoin:round;stroke-miterlimit:10;stroke-dasharray:none;stroke-opacity:1"
         id="path76" />
      <path
         d="m 1042.79,2466.35 2673.7,651.5"
         style="fill:none;stroke:#b1b0b0;stroke-width:22.5;stroke-linecap:round;stroke-linejoin:round;stroke-miterlimit:10;stroke-dasharray:none;stroke-opacity:1"
         id="path78" />
      <path
         d="m 3681.39,3060.15 35.1,57.7 -57.7,35"
         style="fill:none;stroke:#b1b0b0;stroke-width:22.5;stroke-linecap:round;stroke-linejoin:round;stroke-miterlimit:10;stroke-dasharray:none;stroke-opacity:1"
         id="path80" />
      <path
         d="m 1042.79,2466.35 2672.5,1420.1"
         style="fill:none;stroke:#b1b0b0;stroke-width:22.5;stroke-linecap:round;stroke-linejoin:round;stroke-miterlimit:10;stroke-dasharray:none;stroke-opacity:1"
         id="path82" />
      <path
         d="m 3695.49,3821.95 19.8,64.5 -64.5,19.7"
         style="fill:none;stroke:#b1b0b0;stroke-width:22.5;stroke-linecap:round;stroke-linejoin:round;stroke-miterlimit:10;stroke-dasharray:none;stroke-opacity:1"
         id="path84" />
      <path
         d="m 770.688,2097.85 v 354.4 -141.8 h -68 v 283.5 l 34,35.4 h 272.102 l 34,-35.4 v -283.5 h -68.001 v 141.8 -354.4 h -102 v 283.5 -283.5 z m 172.902,637.8 c 0,39.2 -31.703,70.9 -70.801,70.9 -39.199,0 -70.902,-31.7 -70.902,-70.9 0,-39.1 31.703,-70.8 70.902,-70.8 39.098,0 70.801,31.7 70.801,70.8"
         style="fill:#ffffff;fill-opacity:1;fill-rule:evenodd;stroke:none"
         id="path86" />
      <path
         d="m 770.688,2097.85 v 354.4 -141.8 h -68 v 283.5 l 34,35.4 h 272.102 l 34,-35.4 v -283.5 h -68.001 v 141.8 -354.4 h -102 v 283.5 -283.5 z m 172.902,637.8 c 0,39.2 -31.703,70.9 -70.801,70.9 -39.199,0 -70.902,-31.7 -70.902,-70.9 0,-39.1 31.703,-70.8 70.902,-70.8 39.098,0 70.801,31.7 70.801,70.8 z"
         style="fill:none;stroke:#f9b90a;stroke-width:20;stroke-linecap:round;stroke-linejoin:round;stroke-miterlimit:10;stroke-dasharray:none;stroke-opacity:1"
         id="path88" />
      <g
         id="g90"
         transform="scale(10)">
        <text
           xml:space="preserve"
           transform="matrix(1,0,0,-1,10.059,189.505)"
           style="font-variant:normal;font-weight:normal;font-size:18px;font-family:Calibri;-inkscape-font-specification:Calibri;writing-mode:lr-tb;fill:#84651e;fill-opacity:1;fill-rule:nonzero;stroke:none"
           id="text94"><tspan
             x="0 8.2620001 16.416 23.40007 29.50218 38.376198 52.758198 63.180199 72.684113 87.066109 91.206009 100.65601 104.72394 111.76194 117.79194 124.07394 132.69594 138.78004 148.26604"
             y="0"
             sodipodi:role="line"
             id="tspan92">SystemAdministrator</tspan></text>
      </g>
      <path
         d="m 7794.69,3111.25 c 0,94 -913.2,170.1 -2039.8,170.1 -1126.6,0 -2039.8,-76.1 -2039.8,-170.1 0,-93.9 913.2,-170.1 2039.8,-170.1 1126.6,0 2039.8,76.2 2039.8,170.1"
         style="fill:#ffffff;fill-opacity:1;fill-rule:evenodd;stroke:none"
         id="path96" />
      <path
         d="m 7794.69,3111.25 c 0,94 -913.2,170.1 -2039.8,170.1 -1126.6,0 -2039.8,-76.1 -2039.8,-170.1 0,-93.9 913.2,-170.1 2039.8,-170.1 1126.6,0 2039.8,76.2 2039.8,170.1 z"
         style="fill:none;stroke:#b1b0b0;stroke-width:20;stroke-linecap:round;stroke-linejoin:round;stroke-miterlimit:10;stroke-dasharray:none;stroke-opacity:1"
         id="path98" />
      <g
         id="g100"
         transform="scale(10)">
        <text
           xml:space="preserve"
           transform="matrix(1,0,0,-1,390.649,305.665)"
           style="font-variant:normal;font-weight:normal;font-size:18px;font-family:Calibri;-inkscape-font-specification:Calibri;writing-mode:lr-tb;fill:#727071;fill-opacity:1;fill-rule:nonzero;stroke:none"
           id="text104"><tspan
             x="0 10.422 19.872 34.199947 38.375805 47.825806 51.965675 59.003677 65.033676 71.261719 79.88372 85.913719 95.399719 101.71776 105.78576 118.65575 127.27776 136.72775 142.75775 149.72398 153.79198 159.91211 169.39812 173.46611 187.75818 196.38017 205.83017 214.50632 222.98433 231.94832 236.01633 245.46632 252.50432 261.46832 267.75034 274.78833 278.71219 282.78018 286.97415 296.33401 301.82401 311.31 317.68201 331.9559 340.57791 346.69803 350.78397 360.26996"
             y="0"
             sodipodi:role="line"
             id="tspan102">Administrator wants to manage users' information</tspan></text>
      </g>
      <path
         d="M 1042.79,2466.35 3715.29,796.449"
         style="fill:none;stroke:#b1b0b0;stroke-width:22.5;stroke-linecap:round;stroke-linejoin:round;stroke-miterlimit:10;stroke-dasharray:none;stroke-opacity:1"
         id="path106" />
      <path
         d="m 3649.49,781.352 65.8,15.097 -15.2,65.801"
         style="fill:none;stroke:#b1b0b0;stroke-width:22.5;stroke-linecap:round;stroke-linejoin:round;stroke-miterlimit:10;stroke-dasharray:none;stroke-opacity:1"
         id="path108" />
      <path
         d="m 1042.79,2466.35 2672.3,-128.5"
         style="fill:none;stroke:#b1b0b0;stroke-width:22.5;stroke-linecap:round;stroke-linejoin:round;stroke-miterlimit:10;stroke-dasharray:none;stroke-opacity:1"
         id="path110" />
      <path
         d="m 3665.09,2292.55 50,45.3 -45.4,49.9"
         style="fill:none;stroke:#b1b0b0;stroke-width:22.5;stroke-linecap:round;stroke-linejoin:round;stroke-miterlimit:10;stroke-dasharray:none;stroke-opacity:1"
         id="path112" />
    </g>
  </g>
</svg>
