<?xml version="1.0" encoding="UTF-8" standalone="no"?>
<!-- Created with Inkscape (http://www.inkscape.org/) -->

<svg
   version="1.1"
   id="svg2"
   width="1240.3333"
   height="476.62668"
   viewBox="0 0 1240.3333 476.62668"
   sodipodi:docname="UseCaseForSystemAdministrator_1.eps"
   xmlns:inkscape="http://www.inkscape.org/namespaces/inkscape"
   xmlns:sodipodi="http://sodipodi.sourceforge.net/DTD/sodipodi-0.dtd"
   xmlns="http://www.w3.org/2000/svg"
   xmlns:svg="http://www.w3.org/2000/svg">
  <defs
     id="defs6" />
  <sodipodi:namedview
     id="namedview4"
     pagecolor="#ffffff"
     bordercolor="#000000"
     borderopacity="0.25"
     inkscape:showpageshadow="2"
     inkscape:pageopacity="0.0"
     inkscape:pagecheckerboard="0"
     inkscape:deskcolor="#d1d1d1" />
  <g
     id="g8"
     inkscape:groupmode="layer"
     inkscape:label="ink_ext_XXXXXX"
     transform="matrix(1.3333333,0,0,-1.3333333,0,476.62667)">
    <g
       id="g10"
       transform="scale(0.1)">
      <path
         d="m -6234.95,-1887.56 h 16477.8 v 5952.8 h -16477.8 z"
         style="fill:none;stroke:#b1b0b0;stroke-width:20;stroke-linecap:round;stroke-linejoin:round;stroke-miterlimit:10;stroke-dasharray:none;stroke-opacity:1"
         id="path12" />
      <path
         d="m 3167.75,161.891 h 6006.4 v 3268.1 h -6006.4 z"
         style="fill:#ffffff;fill-opacity:1;fill-rule:evenodd;stroke:none"
         id="path14" />
      <path
         d="m 3167.75,161.891 h 6006.4 v 3268.1 h -6006.4 z"
         style="fill:none;stroke:#f9b90a;stroke-width:20;stroke-linecap:round;stroke-linejoin:round;stroke-miterlimit:10;stroke-dasharray:none;stroke-opacity:1"
         id="path16" />
      <path
         d="m 3323.65,3305.09 c 0,-1.4 -0.1,-2.6 -0.3,-3.6 -0.2,-0.9 -0.5,-1.7 -0.8,-2.3 -0.3,-0.6 -0.7,-1 -1.2,-1.3 -0.5,-0.2 -1,-0.4 -1.5,-0.4 h -11 l -3.3,-25 h 9.4 c 1.1,0 2,-0.6 2.7,-1.7 0.7,-1.2 1,-3.1 1,-5.8 0,-1.4 -0.1,-2.6 -0.3,-3.6 -0.2,-1 -0.4,-1.8 -0.7,-2.4 -0.4,-0.6 -0.8,-1 -1.3,-1.2 -0.4,-0.3 -0.9,-0.4 -1.4,-0.4 h -11.6 l -3.5,-27.5 c -0.1,-0.6 -0.3,-1 -0.6,-1.4 -0.3,-0.4 -0.8,-0.7 -1.5,-1 -0.8,-0.3 -1.8,-0.5 -3,-0.6 -1.3,-0.2 -2.9,-0.2 -4.8,-0.2 -2.1,0 -3.7,0 -5,0.2 -1.2,0.1 -2.2,0.3 -2.8,0.6 -0.7,0.3 -1.1,0.6 -1.3,1 -0.3,0.4 -0.3,0.8 -0.3,1.4 l 3.7,27.5 h -21.7 l -3.5,-27.5 c -0.1,-0.5 -0.3,-1 -0.6,-1.4 -0.3,-0.4 -0.8,-0.7 -1.5,-1 -0.7,-0.3 -1.7,-0.5 -2.9,-0.6 -1.3,-0.2 -2.9,-0.2 -5,-0.2 -2,0 -3.6,0 -4.8,0.2 -1.2,0.1 -2.2,0.3 -2.9,0.6 -0.7,0.3 -1.1,0.6 -1.3,1 -0.3,0.4 -0.3,0.8 -0.2,1.4 l 3.5,27.5 h -9.2 c -1.1,0 -2,0.5 -2.6,1.6 -0.7,1.1 -1.1,3.1 -1.1,5.8 0,1.4 0.1,2.6 0.3,3.6 0.2,1 0.5,1.8 0.8,2.4 0.3,0.6 0.7,1 1.2,1.3 0.4,0.3 0.9,0.4 1.5,0.4 h 11.2 l 3.3,25 h -9.7 c -1.1,0 -2,0.6 -2.7,1.7 -0.7,1.1 -1,3 -1,5.8 0,2.8 0.3,4.8 1,5.9 0.8,1.1 1.7,1.7 2.8,1.7 h 11.6 l 3.4,25.6 c 0,0.6 0.2,1 0.5,1.4 0.3,0.4 0.9,0.7 1.7,1 0.7,0.3 1.8,0.5 3.1,0.7 1.2,0.1 2.9,0.2 4.9,0.2 2,0 3.6,-0.1 4.8,-0.2 1.2,-0.2 2.2,-0.4 2.8,-0.7 0.7,-0.3 1.1,-0.6 1.2,-1 0.2,-0.4 0.3,-0.8 0.3,-1.3 l -3.6,-25.7 h 21.7 l 3.2,25.6 c 0.1,0.5 0.3,0.9 0.6,1.3 0.3,0.5 0.9,0.8 1.6,1.1 0.8,0.3 1.8,0.5 3.1,0.7 1.3,0.1 2.9,0.2 5,0.2 2,0 3.6,-0.1 4.8,-0.2 1.2,-0.2 2.2,-0.4 2.8,-0.7 0.7,-0.3 1.1,-0.6 1.2,-1 0.2,-0.4 0.2,-0.8 0.2,-1.3 l -3.4,-25.7 h 9.3 c 1.1,0 2,-0.6 2.6,-1.8 0.7,-1.1 1.1,-3 1.1,-5.7 z m -55.7,-7.6 -3.3,-25 h 21.5 l 3.4,25 z"
         style="fill:#231f20;fill-opacity:1;fill-rule:nonzero;stroke:none"
         id="path18" />
      <path
         d="m 3471.75,3233.09 c -0.4,-1.4 -1,-2.5 -1.6,-3.4 -0.7,-0.8 -1.7,-1.5 -3.1,-1.9 -1.3,-0.4 -3.1,-0.7 -5.2,-0.9 -2.1,-0.1 -4.8,-0.2 -8.1,-0.2 -3.7,0 -6.6,0.1 -8.9,0.2 -2.2,0.2 -3.9,0.5 -5.2,0.9 -1.3,0.4 -2.3,1.1 -2.8,1.9 -0.6,0.9 -1.1,2 -1.4,3.4 l -20,72.1 h -0.2 l -18.9,-72.1 c -0.4,-1.3 -0.8,-2.4 -1.4,-3.3 -0.6,-0.8 -1.5,-1.5 -2.8,-2 -1.2,-0.4 -2.9,-0.7 -5.1,-0.9 -2.1,-0.1 -5,-0.2 -8.5,-0.2 -3.8,0 -6.8,0.1 -9,0.2 -2.2,0.2 -4,0.5 -5.2,0.9 -1.3,0.4 -2.3,1.1 -2.8,1.9 -0.6,0.9 -1.1,2 -1.5,3.4 l -28.4,99.2 c -0.6,2.1 -0.9,3.8 -1,5 -0.1,1.2 0.3,2.1 1.1,2.8 0.8,0.6 2.1,1 4,1.2 1.8,0.1 4.4,0.2 7.7,0.2 3,0 5.4,-0.1 7.2,-0.2 1.7,0 3.1,-0.2 4,-0.6 0.9,-0.3 1.5,-0.8 1.8,-1.4 0.3,-0.6 0.6,-1.5 0.8,-2.6 l 21.9,-87.1 h 0.1 l 22.9,86.5 c 0.2,1.1 0.6,2 1,2.7 0.4,0.7 1.1,1.3 2.1,1.7 1,0.3 2.4,0.6 4.1,0.8 1.7,0.1 4.1,0.2 7,0.2 3.1,0 5.5,-0.1 7.4,-0.2 1.8,-0.1 3.2,-0.4 4.2,-0.7 1,-0.4 1.7,-1 2.2,-1.7 0.4,-0.7 0.8,-1.6 1.1,-2.8 l 23.5,-86.5 h 0.2 l 22,86.9 c 0.2,0.9 0.4,1.7 0.8,2.4 0.3,0.7 0.9,1.2 1.8,1.6 0.9,0.3 2.2,0.6 3.9,0.8 1.6,0.1 4,0.2 7,0.2 2.9,0 5.1,-0.1 6.6,-0.2 1.6,-0.2 2.8,-0.6 3.5,-1.2 0.7,-0.7 1,-1.6 0.9,-2.9 -0.1,-1.2 -0.4,-3 -1,-5.1 z m 126.5,38.6 c 0,-2.7 -0.7,-4.7 -2,-6 -1.3,-1.3 -3.1,-1.9 -5.4,-1.9 h -52.5 c 0,-3.4 0.4,-6.4 1.3,-9.1 0.8,-2.7 2.2,-5.1 4.1,-7 1.9,-1.9 4.4,-3.3 7.4,-4.3 3,-1 6.6,-1.5 10.8,-1.5 4.2,0 7.9,0.3 11.2,0.8 3.2,0.6 6,1.2 8.3,1.9 2.4,0.7 4.3,1.3 5.9,1.8 1.5,0.6 2.8,0.9 3.7,0.9 0.6,0 1.1,-0.1 1.5,-0.3 0.4,-0.3 0.7,-0.6 1,-1.1 0.2,-0.6 0.4,-1.3 0.5,-2.3 0.1,-1 0.1,-2.2 0.1,-3.6 0,-1.3 0,-2.4 -0.1,-3.3 0,-0.9 -0.1,-1.7 -0.2,-2.4 -0.2,-0.6 -0.4,-1.1 -0.6,-1.6 -0.3,-0.4 -0.6,-0.9 -1,-1.3 -0.5,-0.4 -1.6,-0.9 -3.5,-1.6 -1.8,-0.7 -4.2,-1.4 -7.1,-2.1 -2.9,-0.7 -6.2,-1.3 -10,-1.8 -3.7,-0.5 -7.7,-0.7 -12,-0.7 -7.6,0 -14.4,0.9 -20.1,2.6 -5.8,1.8 -10.6,4.5 -14.5,8 -3.9,3.6 -6.7,8.1 -8.6,13.6 -1.9,5.4 -2.9,11.8 -2.9,19.1 0,7 1,13.3 3,18.9 2,5.6 4.9,10.3 8.7,14.2 3.8,3.9 8.4,6.9 13.9,8.9 5.4,2.1 11.6,3.1 18.4,3.1 7.2,0 13.4,-1 18.5,-2.9 5.1,-1.9 9.3,-4.6 12.6,-8 3.3,-3.5 5.7,-7.5 7.3,-12.2 1.5,-4.7 2.3,-9.8 2.3,-15.3 z m -23.6,6.3 c 0.2,6.2 -1.2,11.1 -4.1,14.7 -2.9,3.5 -7.5,5.3 -13.6,5.3 -3.1,0 -5.8,-0.6 -8.1,-1.6 -2.2,-1.1 -4.1,-2.5 -5.7,-4.3 -1.5,-1.8 -2.6,-3.9 -3.4,-6.3 -0.8,-2.4 -1.3,-5 -1.4,-7.8 z m 130.4,-7.5 c 0,-7 -0.9,-13.3 -2.6,-18.8 -1.6,-5.6 -4.1,-10.4 -7.2,-14.3 -3.2,-3.9 -7.1,-6.9 -11.7,-9 -4.6,-2.1 -9.8,-3.2 -15.7,-3.2 -2.9,0 -5.6,0.2 -8.1,0.7 -2.5,0.5 -4.9,1.3 -7.2,2.5 -2.3,1.1 -4.5,2.5 -6.8,4.2 -2.2,1.7 -4.5,3.7 -6.8,6.1 v -8.5 c 0,-0.6 -0.2,-1.2 -0.5,-1.6 -0.4,-0.5 -0.9,-0.8 -1.7,-1.1 -0.9,-0.3 -1.9,-0.5 -3.3,-0.6 -1.3,-0.2 -3,-0.2 -4.9,-0.2 -2,0 -3.7,0 -5,0.2 -1.3,0.1 -2.4,0.3 -3.2,0.6 -0.8,0.3 -1.4,0.6 -1.7,1.1 -0.3,0.4 -0.5,1 -0.5,1.6 v 115.6 c 0,0.6 0.2,1.1 0.6,1.6 0.4,0.4 1.1,0.8 2,1.2 0.9,0.3 2.2,0.5 3.7,0.7 1.6,0.2 3.5,0.3 5.9,0.3 2.4,0 4.4,-0.1 5.9,-0.3 1.6,-0.2 2.8,-0.4 3.7,-0.7 1,-0.4 1.6,-0.8 2,-1.2 0.4,-0.5 0.6,-1 0.6,-1.6 v -43.3 c 2.2,1.9 4.4,3.6 6.6,5.1 2.2,1.4 4.4,2.5 6.5,3.4 2.2,0.9 4.5,1.6 6.8,2 2.3,0.4 4.8,0.6 7.4,0.6 6.3,0 11.8,-1.1 16.2,-3.5 4.5,-2.3 8.1,-5.4 10.9,-9.3 2.8,-3.9 4.8,-8.5 6.1,-13.8 1.3,-5.2 2,-10.7 2,-16.5 z m -25.3,-1.6 c 0,3.3 -0.3,6.5 -0.8,9.6 -0.5,3.2 -1.5,5.9 -2.9,8.3 -1.3,2.4 -3.1,4.3 -5.2,5.8 -2.2,1.4 -4.9,2.1 -8.2,2.1 -1.6,0 -3.2,-0.2 -4.7,-0.6 -1.6,-0.4 -3.2,-1.1 -4.8,-2.1 -1.7,-1 -3.3,-2.3 -5.1,-3.9 -1.7,-1.6 -3.6,-3.5 -5.5,-5.9 v -26 c 3.4,-4 6.7,-7 9.8,-9.1 3.1,-2.1 6.4,-3.1 9.8,-3.1 3.2,0 5.9,0.7 8.1,2.2 2.1,1.5 4,3.4 5.4,5.7 1.5,2.4 2.5,5 3.2,8 0.6,3 0.9,6 0.9,9 z m 148,-33.1 c 0.7,-2.1 1.2,-3.7 1.4,-5 0.2,-1.2 0,-2.1 -0.8,-2.7 -0.7,-0.7 -1.9,-1 -3.7,-1.2 -1.8,-0.1 -4.3,-0.2 -7.5,-0.2 -3.3,0 -5.8,0 -7.7,0.1 -1.8,0.1 -3.2,0.3 -4.2,0.6 -0.9,0.2 -1.6,0.6 -2,1 -0.4,0.5 -0.7,1.1 -1,1.9 l -8.4,22.8 h -47 l -7.9,-22.2 c -0.2,-0.8 -0.6,-1.5 -1,-2.1 -0.4,-0.5 -1.1,-1 -2,-1.3 -1,-0.3 -2.3,-0.5 -4,-0.6 -1.7,-0.2 -3.9,-0.2 -6.7,-0.2 -3,0 -5.3,0.1 -7,0.3 -1.6,0.1 -2.8,0.6 -3.5,1.2 -0.6,0.7 -0.8,1.7 -0.6,2.9 0.2,1.2 0.6,2.9 1.4,4.9 l 38.6,100.9 c 0.4,1 0.8,1.8 1.3,2.4 0.6,0.6 1.4,1.1 2.5,1.4 1.1,0.4 2.7,0.6 4.7,0.6 2,0.1 4.6,0.2 7.9,0.2 3.8,0 6.9,-0.1 9.1,-0.2 2.3,0 4,-0.2 5.3,-0.6 1.2,-0.3 2.1,-0.8 2.7,-1.4 0.5,-0.7 1,-1.5 1.4,-2.7 z m -57.5,83.4 h -0.1 l -17.6,-48.3 h 35.4 z m 160.4,-48.7 c 0,-6.9 -0.9,-13.2 -2.5,-18.8 -1.7,-5.6 -4.1,-10.4 -7.2,-14.3 -3.2,-3.9 -7.1,-6.9 -11.8,-9 -4.7,-2.1 -10.1,-3.2 -16.2,-3.2 -2.5,0 -4.8,0.2 -6.9,0.7 -2.1,0.4 -4.1,1.1 -6.1,2 -1.9,0.9 -3.9,2 -5.8,3.4 -1.9,1.3 -3.9,2.9 -6,4.7 v -36.9 c 0,-0.6 -0.2,-1.1 -0.6,-1.6 -0.4,-0.5 -1,-0.9 -2,-1.2 -0.9,-0.3 -2.1,-0.5 -3.7,-0.7 -1.5,-0.2 -3.5,-0.3 -5.9,-0.3 -2.4,0 -4.3,0.1 -5.9,0.3 -1.5,0.2 -2.8,0.4 -3.7,0.7 -0.9,0.3 -1.6,0.7 -2,1.2 -0.4,0.5 -0.6,1 -0.6,1.6 v 109.5 c 0,0.6 0.2,1.1 0.5,1.5 0.3,0.5 0.9,0.8 1.7,1.1 0.8,0.3 1.9,0.6 3.2,0.7 1.3,0.1 3,0.2 5,0.2 1.9,0 3.5,-0.1 4.9,-0.2 1.3,-0.1 2.3,-0.4 3.2,-0.7 0.8,-0.3 1.3,-0.6 1.6,-1.1 0.4,-0.4 0.5,-0.9 0.5,-1.5 v -9.2 c 2.5,2.3 5,4.4 7.4,6.2 2.4,1.8 4.9,3.3 7.4,4.5 2.5,1.2 5.1,2.1 7.8,2.6 2.7,0.6 5.5,0.9 8.6,0.9 6.3,0 11.7,-1.1 16.1,-3.4 4.5,-2.2 8.1,-5.3 10.9,-9.2 2.8,-4 4.8,-8.5 6.1,-13.8 1.3,-5.2 2,-10.7 2,-16.7 z m -25.4,-1.5 c 0,3.3 -0.2,6.5 -0.8,9.6 -0.5,3.1 -1.5,5.8 -2.8,8.2 -1.3,2.4 -3.1,4.3 -5.2,5.8 -2.2,1.4 -4.9,2.1 -8.1,2.1 -1.6,0 -3.2,-0.2 -4.8,-0.6 -1.6,-0.5 -3.2,-1.2 -4.8,-2.2 -1.7,-1 -3.3,-2.3 -5.1,-3.9 -1.7,-1.5 -3.6,-3.5 -5.5,-5.8 v -25.9 c 3.4,-3.9 6.7,-6.9 9.8,-9.1 3.1,-2.1 6.3,-3.2 9.6,-3.2 3.2,0 5.9,0.7 8.1,2.2 2.2,1.5 4.1,3.4 5.5,5.8 1.4,2.3 2.4,5 3.1,8 0.7,3 1,6 1,9 z m 132.2,1.5 c 0,-6.9 -0.9,-13.2 -2.5,-18.8 -1.7,-5.6 -4.1,-10.4 -7.2,-14.3 -3.2,-3.9 -7.1,-6.9 -11.8,-9 -4.7,-2.1 -10.1,-3.2 -16.2,-3.2 -2.5,0 -4.8,0.2 -6.9,0.7 -2.1,0.4 -4.1,1.1 -6.1,2 -1.9,0.9 -3.9,2 -5.8,3.4 -1.9,1.3 -3.9,2.9 -6,4.7 v -36.9 c 0,-0.6 -0.2,-1.1 -0.6,-1.6 -0.4,-0.5 -1,-0.9 -2,-1.2 -0.9,-0.3 -2.1,-0.5 -3.7,-0.7 -1.5,-0.2 -3.5,-0.3 -5.9,-0.3 -2.4,0 -4.3,0.1 -5.9,0.3 -1.5,0.2 -2.8,0.4 -3.7,0.7 -0.9,0.3 -1.6,0.7 -2,1.2 -0.4,0.5 -0.6,1 -0.6,1.6 v 109.5 c 0,0.6 0.2,1.1 0.5,1.5 0.3,0.5 0.9,0.8 1.7,1.1 0.8,0.3 1.9,0.6 3.2,0.7 1.3,0.1 3,0.2 5,0.2 1.9,0 3.5,-0.1 4.9,-0.2 1.3,-0.1 2.3,-0.4 3.2,-0.7 0.8,-0.3 1.3,-0.6 1.6,-1.1 0.4,-0.4 0.5,-0.9 0.5,-1.5 v -9.2 c 2.5,2.3 5,4.4 7.4,6.2 2.4,1.8 4.9,3.3 7.4,4.5 2.5,1.2 5.1,2.1 7.8,2.6 2.7,0.6 5.5,0.9 8.6,0.9 6.3,0 11.7,-1.1 16.1,-3.4 4.5,-2.2 8.1,-5.3 10.9,-9.2 2.8,-4 4.8,-8.5 6.1,-13.8 1.3,-5.2 2,-10.7 2,-16.7 z m -25.4,-1.5 c 0,3.3 -0.2,6.5 -0.8,9.6 -0.5,3.1 -1.5,5.8 -2.8,8.2 -1.3,2.4 -3.1,4.3 -5.2,5.8 -2.2,1.4 -4.9,2.1 -8.1,2.1 -1.6,0 -3.2,-0.2 -4.8,-0.6 -1.6,-0.5 -3.2,-1.2 -4.8,-2.2 -1.7,-1 -3.3,-2.3 -5.1,-3.9 -1.7,-1.5 -3.6,-3.5 -5.5,-5.8 v -25.9 c 3.4,-3.9 6.7,-6.9 9.8,-9.1 3.1,-2.1 6.3,-3.2 9.6,-3.2 3.2,0 5.9,0.7 8.1,2.2 2.2,1.5 4.1,3.4 5.5,5.8 1.4,2.3 2.4,5 3.1,8 0.7,3 1,6 1,9"
         style="fill:#231f20;fill-opacity:1;fill-rule:nonzero;stroke:none"
         id="path20" />
      <path
         d="m 4140.05,3305.09 c 0,-1.4 -0.1,-2.6 -0.3,-3.6 -0.2,-0.9 -0.4,-1.7 -0.8,-2.3 -0.3,-0.6 -0.7,-1 -1.2,-1.3 -0.5,-0.2 -1,-0.4 -1.5,-0.4 h -11 l -3.3,-25 h 9.5 c 1.1,0 2,-0.6 2.7,-1.7 0.6,-1.2 1,-3.1 1,-5.8 0,-1.4 -0.1,-2.6 -0.3,-3.6 -0.2,-1 -0.5,-1.8 -0.8,-2.4 -0.3,-0.6 -0.7,-1 -1.2,-1.2 -0.5,-0.3 -1,-0.4 -1.5,-0.4 h -11.5 l -3.6,-27.5 c 0,-0.6 -0.2,-1 -0.5,-1.4 -0.3,-0.4 -0.8,-0.7 -1.6,-1 -0.7,-0.3 -1.7,-0.5 -3,-0.6 -1.2,-0.2 -2.8,-0.2 -4.7,-0.2 -2.1,0 -3.8,0 -5,0.2 -1.3,0.1 -2.2,0.3 -2.9,0.6 -0.6,0.3 -1.1,0.6 -1.3,1 -0.2,0.4 -0.3,0.8 -0.2,1.4 l 3.7,27.5 h -21.7 l -3.6,-27.5 c 0,-0.5 -0.2,-1 -0.5,-1.4 -0.3,-0.4 -0.8,-0.7 -1.5,-1 -0.7,-0.3 -1.7,-0.5 -3,-0.6 -1.2,-0.2 -2.9,-0.2 -4.9,-0.2 -2,0 -3.6,0 -4.9,0.2 -1.2,0.1 -2.1,0.3 -2.8,0.6 -0.7,0.3 -1.2,0.6 -1.4,1 -0.2,0.4 -0.3,0.8 -0.1,1.4 l 3.5,27.5 h -9.2 c -1.1,0 -2,0.5 -2.7,1.6 -0.7,1.1 -1,3.1 -1,5.8 0,1.4 0.1,2.6 0.3,3.6 0.2,1 0.4,1.8 0.8,2.4 0.3,0.6 0.7,1 1.1,1.3 0.5,0.3 1,0.4 1.6,0.4 h 11.2 l 3.3,25 h -9.8 c -1.1,0 -2,0.6 -2.7,1.7 -0.6,1.1 -1,3 -1,5.8 0,2.8 0.4,4.8 1.1,5.9 0.7,1.1 1.6,1.7 2.7,1.7 h 11.6 l 3.5,25.6 c 0,0.6 0.1,1 0.5,1.4 0.3,0.4 0.8,0.7 1.6,1 0.8,0.3 1.8,0.5 3.1,0.7 1.3,0.1 2.9,0.2 4.9,0.2 2,0 3.6,-0.1 4.9,-0.2 1.2,-0.2 2.1,-0.4 2.8,-0.7 0.6,-0.3 1,-0.6 1.2,-1 0.1,-0.4 0.2,-0.8 0.2,-1.3 l -3.6,-25.7 h 21.7 l 3.3,25.6 c 0.1,0.5 0.3,0.9 0.6,1.3 0.3,0.5 0.8,0.8 1.6,1.1 0.7,0.3 1.7,0.5 3,0.7 1.3,0.1 3,0.2 5,0.2 2,0 3.7,-0.1 4.9,-0.2 1.2,-0.2 2.1,-0.4 2.8,-0.7 0.6,-0.3 1,-0.6 1.2,-1 0.1,-0.4 0.2,-0.8 0.1,-1.3 l -3.4,-25.7 h 9.3 c 1.1,0 2,-0.6 2.7,-1.8 0.7,-1.1 1,-3 1,-5.7 z m -55.7,-7.6 -3.3,-25 h 21.6 l 3.4,25 z"
         style="fill:#231f20;fill-opacity:1;fill-rule:nonzero;stroke:none"
         id="path22" />
      <path
         d="m 3167.75,161.891 h 6006.4 v 3268.1 h -6006.4 z"
         style="fill:#ffffff;fill-opacity:1;fill-rule:evenodd;stroke:none"
         id="path24" />
      <path
         d="m 3167.75,161.891 h 6006.4 v 3268.1 h -6006.4 z"
         style="fill:none;stroke:#f9b90a;stroke-width:20;stroke-linecap:round;stroke-linejoin:round;stroke-miterlimit:10;stroke-dasharray:none;stroke-opacity:1"
         id="path26" />
      <path
         d="m 3323.65,3305.09 c 0,-1.4 -0.1,-2.6 -0.3,-3.6 -0.2,-0.9 -0.5,-1.7 -0.8,-2.3 -0.3,-0.6 -0.7,-1 -1.2,-1.3 -0.5,-0.2 -1,-0.4 -1.5,-0.4 h -11 l -3.3,-25 h 9.4 c 1.1,0 2,-0.6 2.7,-1.7 0.7,-1.2 1,-3.1 1,-5.8 0,-1.4 -0.1,-2.6 -0.3,-3.6 -0.2,-1 -0.4,-1.8 -0.7,-2.4 -0.4,-0.6 -0.8,-1 -1.3,-1.2 -0.4,-0.3 -0.9,-0.4 -1.4,-0.4 h -11.6 l -3.5,-27.5 c -0.1,-0.6 -0.3,-1 -0.6,-1.4 -0.3,-0.4 -0.8,-0.7 -1.5,-1 -0.8,-0.3 -1.8,-0.5 -3,-0.6 -1.3,-0.2 -2.9,-0.2 -4.8,-0.2 -2.1,0 -3.7,0 -5,0.2 -1.2,0.1 -2.2,0.3 -2.8,0.6 -0.7,0.3 -1.1,0.6 -1.3,1 -0.3,0.4 -0.3,0.8 -0.3,1.4 l 3.7,27.5 h -21.7 l -3.5,-27.5 c -0.1,-0.5 -0.3,-1 -0.6,-1.4 -0.3,-0.4 -0.8,-0.7 -1.5,-1 -0.7,-0.3 -1.7,-0.5 -2.9,-0.6 -1.3,-0.2 -2.9,-0.2 -5,-0.2 -2,0 -3.6,0 -4.8,0.2 -1.2,0.1 -2.2,0.3 -2.9,0.6 -0.7,0.3 -1.1,0.6 -1.3,1 -0.3,0.4 -0.3,0.8 -0.2,1.4 l 3.5,27.5 h -9.2 c -1.1,0 -2,0.5 -2.6,1.6 -0.7,1.1 -1.1,3.1 -1.1,5.8 0,1.4 0.1,2.6 0.3,3.6 0.2,1 0.5,1.8 0.8,2.4 0.3,0.6 0.7,1 1.2,1.3 0.4,0.3 0.9,0.4 1.5,0.4 h 11.2 l 3.3,25 h -9.7 c -1.1,0 -2,0.6 -2.7,1.7 -0.7,1.1 -1,3 -1,5.8 0,2.8 0.3,4.8 1,5.9 0.8,1.1 1.7,1.7 2.8,1.7 h 11.6 l 3.4,25.6 c 0,0.6 0.2,1 0.5,1.4 0.3,0.4 0.9,0.7 1.7,1 0.7,0.3 1.8,0.5 3.1,0.7 1.2,0.1 2.9,0.2 4.9,0.2 2,0 3.6,-0.1 4.8,-0.2 1.2,-0.2 2.2,-0.4 2.8,-0.7 0.7,-0.3 1.1,-0.6 1.2,-1 0.2,-0.4 0.3,-0.8 0.3,-1.3 l -3.6,-25.7 h 21.7 l 3.2,25.6 c 0.1,0.5 0.3,0.9 0.6,1.3 0.3,0.5 0.9,0.8 1.6,1.1 0.8,0.3 1.8,0.5 3.1,0.7 1.3,0.1 2.9,0.2 5,0.2 2,0 3.6,-0.1 4.8,-0.2 1.2,-0.2 2.2,-0.4 2.8,-0.7 0.7,-0.3 1.1,-0.6 1.2,-1 0.2,-0.4 0.2,-0.8 0.2,-1.3 l -3.4,-25.7 h 9.3 c 1.1,0 2,-0.6 2.6,-1.8 0.7,-1.1 1.1,-3 1.1,-5.7 z m -55.7,-7.6 -3.3,-25 h 21.5 l 3.4,25 z"
         style="fill:#231f20;fill-opacity:1;fill-rule:nonzero;stroke:none"
         id="path28" />
      <path
         d="m 3471.75,3233.09 c -0.4,-1.4 -1,-2.5 -1.6,-3.4 -0.7,-0.8 -1.7,-1.5 -3.1,-1.9 -1.3,-0.4 -3.1,-0.7 -5.2,-0.9 -2.1,-0.1 -4.8,-0.2 -8.1,-0.2 -3.7,0 -6.6,0.1 -8.9,0.2 -2.2,0.2 -3.9,0.5 -5.2,0.9 -1.3,0.4 -2.3,1.1 -2.8,1.9 -0.6,0.9 -1.1,2 -1.4,3.4 l -20,72.1 h -0.2 l -18.9,-72.1 c -0.4,-1.3 -0.8,-2.4 -1.4,-3.3 -0.6,-0.8 -1.5,-1.5 -2.8,-2 -1.2,-0.4 -2.9,-0.7 -5.1,-0.9 -2.1,-0.1 -5,-0.2 -8.5,-0.2 -3.8,0 -6.8,0.1 -9,0.2 -2.2,0.2 -4,0.5 -5.2,0.9 -1.3,0.4 -2.3,1.1 -2.8,1.9 -0.6,0.9 -1.1,2 -1.5,3.4 l -28.4,99.2 c -0.6,2.1 -0.9,3.8 -1,5 -0.1,1.2 0.3,2.1 1.1,2.8 0.8,0.6 2.1,1 4,1.2 1.8,0.1 4.4,0.2 7.7,0.2 3,0 5.4,-0.1 7.2,-0.2 1.7,0 3.1,-0.2 4,-0.6 0.9,-0.3 1.5,-0.8 1.8,-1.4 0.3,-0.6 0.6,-1.5 0.8,-2.6 l 21.9,-87.1 h 0.1 l 22.9,86.5 c 0.2,1.1 0.6,2 1,2.7 0.4,0.7 1.1,1.3 2.1,1.7 1,0.3 2.4,0.6 4.1,0.8 1.7,0.1 4.1,0.2 7,0.2 3.1,0 5.5,-0.1 7.4,-0.2 1.8,-0.1 3.2,-0.4 4.2,-0.7 1,-0.4 1.7,-1 2.2,-1.7 0.4,-0.7 0.8,-1.6 1.1,-2.8 l 23.5,-86.5 h 0.2 l 22,86.9 c 0.2,0.9 0.4,1.7 0.8,2.4 0.3,0.7 0.9,1.2 1.8,1.6 0.9,0.3 2.2,0.6 3.9,0.8 1.6,0.1 4,0.2 7,0.2 2.9,0 5.1,-0.1 6.6,-0.2 1.6,-0.2 2.8,-0.6 3.5,-1.2 0.7,-0.7 1,-1.6 0.9,-2.9 -0.1,-1.2 -0.4,-3 -1,-5.1 z m 126.5,38.6 c 0,-2.7 -0.7,-4.7 -2,-6 -1.3,-1.3 -3.1,-1.9 -5.4,-1.9 h -52.5 c 0,-3.4 0.4,-6.4 1.3,-9.1 0.8,-2.7 2.2,-5.1 4.1,-7 1.9,-1.9 4.4,-3.3 7.4,-4.3 3,-1 6.6,-1.5 10.8,-1.5 4.2,0 7.9,0.3 11.2,0.8 3.2,0.6 6,1.2 8.3,1.9 2.4,0.7 4.3,1.3 5.9,1.8 1.5,0.6 2.8,0.9 3.7,0.9 0.6,0 1.1,-0.1 1.5,-0.3 0.4,-0.3 0.7,-0.6 1,-1.1 0.2,-0.6 0.4,-1.3 0.5,-2.3 0.1,-1 0.1,-2.2 0.1,-3.6 0,-1.3 0,-2.4 -0.1,-3.3 0,-0.9 -0.1,-1.7 -0.2,-2.4 -0.2,-0.6 -0.4,-1.1 -0.6,-1.6 -0.3,-0.4 -0.6,-0.9 -1,-1.3 -0.5,-0.4 -1.6,-0.9 -3.5,-1.6 -1.8,-0.7 -4.2,-1.4 -7.1,-2.1 -2.9,-0.7 -6.2,-1.3 -10,-1.8 -3.7,-0.5 -7.7,-0.7 -12,-0.7 -7.6,0 -14.4,0.9 -20.1,2.6 -5.8,1.8 -10.6,4.5 -14.5,8 -3.9,3.6 -6.7,8.1 -8.6,13.6 -1.9,5.4 -2.9,11.8 -2.9,19.1 0,7 1,13.3 3,18.9 2,5.6 4.9,10.3 8.7,14.2 3.8,3.9 8.4,6.9 13.9,8.9 5.4,2.1 11.6,3.1 18.4,3.1 7.2,0 13.4,-1 18.5,-2.9 5.1,-1.9 9.3,-4.6 12.6,-8 3.3,-3.5 5.7,-7.5 7.3,-12.2 1.5,-4.7 2.3,-9.8 2.3,-15.3 z m -23.6,6.3 c 0.2,6.2 -1.2,11.1 -4.1,14.7 -2.9,3.5 -7.5,5.3 -13.6,5.3 -3.1,0 -5.8,-0.6 -8.1,-1.6 -2.2,-1.1 -4.1,-2.5 -5.7,-4.3 -1.5,-1.8 -2.6,-3.9 -3.4,-6.3 -0.8,-2.4 -1.3,-5 -1.4,-7.8 z m 130.4,-7.5 c 0,-7 -0.9,-13.3 -2.6,-18.8 -1.6,-5.6 -4.1,-10.4 -7.2,-14.3 -3.2,-3.9 -7.1,-6.9 -11.7,-9 -4.6,-2.1 -9.8,-3.2 -15.7,-3.2 -2.9,0 -5.6,0.2 -8.1,0.7 -2.5,0.5 -4.9,1.3 -7.2,2.5 -2.3,1.1 -4.5,2.5 -6.8,4.2 -2.2,1.7 -4.5,3.7 -6.8,6.1 v -8.5 c 0,-0.6 -0.2,-1.2 -0.5,-1.6 -0.4,-0.5 -0.9,-0.8 -1.7,-1.1 -0.9,-0.3 -1.9,-0.5 -3.3,-0.6 -1.3,-0.2 -3,-0.2 -4.9,-0.2 -2,0 -3.7,0 -5,0.2 -1.3,0.1 -2.4,0.3 -3.2,0.6 -0.8,0.3 -1.4,0.6 -1.7,1.1 -0.3,0.4 -0.5,1 -0.5,1.6 v 115.6 c 0,0.6 0.2,1.1 0.6,1.6 0.4,0.4 1.1,0.8 2,1.2 0.9,0.3 2.2,0.5 3.7,0.7 1.6,0.2 3.5,0.3 5.9,0.3 2.4,0 4.4,-0.1 5.9,-0.3 1.6,-0.2 2.8,-0.4 3.7,-0.7 1,-0.4 1.6,-0.8 2,-1.2 0.4,-0.5 0.6,-1 0.6,-1.6 v -43.3 c 2.2,1.9 4.4,3.6 6.6,5.1 2.2,1.4 4.4,2.5 6.5,3.4 2.2,0.9 4.5,1.6 6.8,2 2.3,0.4 4.8,0.6 7.4,0.6 6.3,0 11.8,-1.1 16.2,-3.5 4.5,-2.3 8.1,-5.4 10.9,-9.3 2.8,-3.9 4.8,-8.5 6.1,-13.8 1.3,-5.2 2,-10.7 2,-16.5 z m -25.3,-1.6 c 0,3.3 -0.3,6.5 -0.8,9.6 -0.5,3.2 -1.5,5.9 -2.9,8.3 -1.3,2.4 -3.1,4.3 -5.2,5.8 -2.2,1.4 -4.9,2.1 -8.2,2.1 -1.6,0 -3.2,-0.2 -4.7,-0.6 -1.6,-0.4 -3.2,-1.1 -4.8,-2.1 -1.7,-1 -3.3,-2.3 -5.1,-3.9 -1.7,-1.6 -3.6,-3.5 -5.5,-5.9 v -26 c 3.4,-4 6.7,-7 9.8,-9.1 3.1,-2.1 6.4,-3.1 9.8,-3.1 3.2,0 5.9,0.7 8.1,2.2 2.1,1.5 4,3.4 5.4,5.7 1.5,2.4 2.5,5 3.2,8 0.6,3 0.9,6 0.9,9 z m 148,-33.1 c 0.7,-2.1 1.2,-3.7 1.4,-5 0.2,-1.2 0,-2.1 -0.8,-2.7 -0.7,-0.7 -1.9,-1 -3.7,-1.2 -1.8,-0.1 -4.3,-0.2 -7.5,-0.2 -3.3,0 -5.8,0 -7.7,0.1 -1.8,0.1 -3.2,0.3 -4.2,0.6 -0.9,0.2 -1.6,0.6 -2,1 -0.4,0.5 -0.7,1.1 -1,1.9 l -8.4,22.8 h -47 l -7.9,-22.2 c -0.2,-0.8 -0.6,-1.5 -1,-2.1 -0.4,-0.5 -1.1,-1 -2,-1.3 -1,-0.3 -2.3,-0.5 -4,-0.6 -1.7,-0.2 -3.9,-0.2 -6.7,-0.2 -3,0 -5.3,0.1 -7,0.3 -1.6,0.1 -2.8,0.6 -3.5,1.2 -0.6,0.7 -0.8,1.7 -0.6,2.9 0.2,1.2 0.6,2.9 1.4,4.9 l 38.6,100.9 c 0.4,1 0.8,1.8 1.3,2.4 0.6,0.6 1.4,1.1 2.5,1.4 1.1,0.4 2.7,0.6 4.7,0.6 2,0.1 4.6,0.2 7.9,0.2 3.8,0 6.9,-0.1 9.1,-0.2 2.3,0 4,-0.2 5.3,-0.6 1.2,-0.3 2.1,-0.8 2.7,-1.4 0.5,-0.7 1,-1.5 1.4,-2.7 z m -57.5,83.4 h -0.1 l -17.6,-48.3 h 35.4 z m 160.4,-48.7 c 0,-6.9 -0.9,-13.2 -2.5,-18.8 -1.7,-5.6 -4.1,-10.4 -7.2,-14.3 -3.2,-3.9 -7.1,-6.9 -11.8,-9 -4.7,-2.1 -10.1,-3.2 -16.2,-3.2 -2.5,0 -4.8,0.2 -6.9,0.7 -2.1,0.4 -4.1,1.1 -6.1,2 -1.9,0.9 -3.9,2 -5.8,3.4 -1.9,1.3 -3.9,2.9 -6,4.7 v -36.9 c 0,-0.6 -0.2,-1.1 -0.6,-1.6 -0.4,-0.5 -1,-0.9 -2,-1.2 -0.9,-0.3 -2.1,-0.5 -3.7,-0.7 -1.5,-0.2 -3.5,-0.3 -5.9,-0.3 -2.4,0 -4.3,0.1 -5.9,0.3 -1.5,0.2 -2.8,0.4 -3.7,0.7 -0.9,0.3 -1.6,0.7 -2,1.2 -0.4,0.5 -0.6,1 -0.6,1.6 v 109.5 c 0,0.6 0.2,1.1 0.5,1.5 0.3,0.5 0.9,0.8 1.7,1.1 0.8,0.3 1.9,0.6 3.2,0.7 1.3,0.1 3,0.2 5,0.2 1.9,0 3.5,-0.1 4.9,-0.2 1.3,-0.1 2.3,-0.4 3.2,-0.7 0.8,-0.3 1.3,-0.6 1.6,-1.1 0.4,-0.4 0.5,-0.9 0.5,-1.5 v -9.2 c 2.5,2.3 5,4.4 7.4,6.2 2.4,1.8 4.9,3.3 7.4,4.5 2.5,1.2 5.1,2.1 7.8,2.6 2.7,0.6 5.5,0.9 8.6,0.9 6.3,0 11.7,-1.1 16.1,-3.4 4.5,-2.2 8.1,-5.3 10.9,-9.2 2.8,-4 4.8,-8.5 6.1,-13.8 1.3,-5.2 2,-10.7 2,-16.7 z m -25.4,-1.5 c 0,3.3 -0.2,6.5 -0.8,9.6 -0.5,3.1 -1.5,5.8 -2.8,8.2 -1.3,2.4 -3.1,4.3 -5.2,5.8 -2.2,1.4 -4.9,2.1 -8.1,2.1 -1.6,0 -3.2,-0.2 -4.8,-0.6 -1.6,-0.5 -3.2,-1.2 -4.8,-2.2 -1.7,-1 -3.3,-2.3 -5.1,-3.9 -1.7,-1.5 -3.6,-3.5 -5.5,-5.8 v -25.9 c 3.4,-3.9 6.7,-6.9 9.8,-9.1 3.1,-2.1 6.3,-3.2 9.6,-3.2 3.2,0 5.9,0.7 8.1,2.2 2.2,1.5 4.1,3.4 5.5,5.8 1.4,2.3 2.4,5 3.1,8 0.7,3 1,6 1,9 z m 132.2,1.5 c 0,-6.9 -0.9,-13.2 -2.5,-18.8 -1.7,-5.6 -4.1,-10.4 -7.2,-14.3 -3.2,-3.9 -7.1,-6.9 -11.8,-9 -4.7,-2.1 -10.1,-3.2 -16.2,-3.2 -2.5,0 -4.8,0.2 -6.9,0.7 -2.1,0.4 -4.1,1.1 -6.1,2 -1.9,0.9 -3.9,2 -5.8,3.4 -1.9,1.3 -3.9,2.9 -6,4.7 v -36.9 c 0,-0.6 -0.2,-1.1 -0.6,-1.6 -0.4,-0.5 -1,-0.9 -2,-1.2 -0.9,-0.3 -2.1,-0.5 -3.7,-0.7 -1.5,-0.2 -3.5,-0.3 -5.9,-0.3 -2.4,0 -4.3,0.1 -5.9,0.3 -1.5,0.2 -2.8,0.4 -3.7,0.7 -0.9,0.3 -1.6,0.7 -2,1.2 -0.4,0.5 -0.6,1 -0.6,1.6 v 109.5 c 0,0.6 0.2,1.1 0.5,1.5 0.3,0.5 0.9,0.8 1.7,1.1 0.8,0.3 1.9,0.6 3.2,0.7 1.3,0.1 3,0.2 5,0.2 1.9,0 3.5,-0.1 4.9,-0.2 1.3,-0.1 2.3,-0.4 3.2,-0.7 0.8,-0.3 1.3,-0.6 1.6,-1.1 0.4,-0.4 0.5,-0.9 0.5,-1.5 v -9.2 c 2.5,2.3 5,4.4 7.4,6.2 2.4,1.8 4.9,3.3 7.4,4.5 2.5,1.2 5.1,2.1 7.8,2.6 2.7,0.6 5.5,0.9 8.6,0.9 6.3,0 11.7,-1.1 16.1,-3.4 4.5,-2.2 8.1,-5.3 10.9,-9.2 2.8,-4 4.8,-8.5 6.1,-13.8 1.3,-5.2 2,-10.7 2,-16.7 z m -25.4,-1.5 c 0,3.3 -0.2,6.5 -0.8,9.6 -0.5,3.1 -1.5,5.8 -2.8,8.2 -1.3,2.4 -3.1,4.3 -5.2,5.8 -2.2,1.4 -4.9,2.1 -8.1,2.1 -1.6,0 -3.2,-0.2 -4.8,-0.6 -1.6,-0.5 -3.2,-1.2 -4.8,-2.2 -1.7,-1 -3.3,-2.3 -5.1,-3.9 -1.7,-1.5 -3.6,-3.5 -5.5,-5.8 v -25.9 c 3.4,-3.9 6.7,-6.9 9.8,-9.1 3.1,-2.1 6.3,-3.2 9.6,-3.2 3.2,0 5.9,0.7 8.1,2.2 2.2,1.5 4.1,3.4 5.5,5.8 1.4,2.3 2.4,5 3.1,8 0.7,3 1,6 1,9"
         style="fill:#231f20;fill-opacity:1;fill-rule:nonzero;stroke:none"
         id="path30" />
      <path
         d="m 4140.05,3305.09 c 0,-1.4 -0.1,-2.6 -0.3,-3.6 -0.2,-0.9 -0.4,-1.7 -0.8,-2.3 -0.3,-0.6 -0.7,-1 -1.2,-1.3 -0.5,-0.2 -1,-0.4 -1.5,-0.4 h -11 l -3.3,-25 h 9.5 c 1.1,0 2,-0.6 2.7,-1.7 0.6,-1.2 1,-3.1 1,-5.8 0,-1.4 -0.1,-2.6 -0.3,-3.6 -0.2,-1 -0.5,-1.8 -0.8,-2.4 -0.3,-0.6 -0.7,-1 -1.2,-1.2 -0.5,-0.3 -1,-0.4 -1.5,-0.4 h -11.5 l -3.6,-27.5 c 0,-0.6 -0.2,-1 -0.5,-1.4 -0.3,-0.4 -0.8,-0.7 -1.6,-1 -0.7,-0.3 -1.7,-0.5 -3,-0.6 -1.2,-0.2 -2.8,-0.2 -4.7,-0.2 -2.1,0 -3.8,0 -5,0.2 -1.3,0.1 -2.2,0.3 -2.9,0.6 -0.6,0.3 -1.1,0.6 -1.3,1 -0.2,0.4 -0.3,0.8 -0.2,1.4 l 3.7,27.5 h -21.7 l -3.6,-27.5 c 0,-0.5 -0.2,-1 -0.5,-1.4 -0.3,-0.4 -0.8,-0.7 -1.5,-1 -0.7,-0.3 -1.7,-0.5 -3,-0.6 -1.2,-0.2 -2.9,-0.2 -4.9,-0.2 -2,0 -3.6,0 -4.9,0.2 -1.2,0.1 -2.1,0.3 -2.8,0.6 -0.7,0.3 -1.2,0.6 -1.4,1 -0.2,0.4 -0.3,0.8 -0.1,1.4 l 3.5,27.5 h -9.2 c -1.1,0 -2,0.5 -2.7,1.6 -0.7,1.1 -1,3.1 -1,5.8 0,1.4 0.1,2.6 0.3,3.6 0.2,1 0.4,1.8 0.8,2.4 0.3,0.6 0.7,1 1.1,1.3 0.5,0.3 1,0.4 1.6,0.4 h 11.2 l 3.3,25 h -9.8 c -1.1,0 -2,0.6 -2.7,1.7 -0.6,1.1 -1,3 -1,5.8 0,2.8 0.4,4.8 1.1,5.9 0.7,1.1 1.6,1.7 2.7,1.7 h 11.6 l 3.5,25.6 c 0,0.6 0.1,1 0.5,1.4 0.3,0.4 0.8,0.7 1.6,1 0.8,0.3 1.8,0.5 3.1,0.7 1.3,0.1 2.9,0.2 4.9,0.2 2,0 3.6,-0.1 4.9,-0.2 1.2,-0.2 2.1,-0.4 2.8,-0.7 0.6,-0.3 1,-0.6 1.2,-1 0.1,-0.4 0.2,-0.8 0.2,-1.3 l -3.6,-25.7 h 21.7 l 3.3,25.6 c 0.1,0.5 0.3,0.9 0.6,1.3 0.3,0.5 0.8,0.8 1.6,1.1 0.7,0.3 1.7,0.5 3,0.7 1.3,0.1 3,0.2 5,0.2 2,0 3.7,-0.1 4.9,-0.2 1.2,-0.2 2.1,-0.4 2.8,-0.7 0.6,-0.3 1,-0.6 1.2,-1 0.1,-0.4 0.2,-0.8 0.1,-1.3 l -3.4,-25.7 h 9.3 c 1.1,0 2,-0.6 2.7,-1.8 0.7,-1.1 1,-3 1,-5.7 z m -55.7,-7.6 -3.3,-25 h 21.6 l 3.4,25 z"
         style="fill:#231f20;fill-opacity:1;fill-rule:nonzero;stroke:none"
         id="path32" />
      <path
         d="m 8663.95,757.191 c 0,141.399 -1113.4,255.999 -2486.9,255.999 -1373.5,0 -2486.9,-114.6 -2486.9,-255.999 0,-141.402 1113.4,-256 2486.9,-256 1373.5,0 2486.9,114.598 2486.9,256"
         style="fill:#ffffff;fill-opacity:1;fill-rule:evenodd;stroke:none"
         id="path34" />
      <path
         d="m 8663.95,757.191 c 0,141.399 -1113.4,255.999 -2486.9,255.999 -1373.5,0 -2486.9,-114.6 -2486.9,-255.999 0,-141.402 1113.4,-256 2486.9,-256 1373.5,0 2486.9,114.598 2486.9,256 z"
         style="fill:none;stroke:#b1b0b0;stroke-width:20;stroke-linecap:round;stroke-linejoin:round;stroke-miterlimit:10;stroke-dasharray:none;stroke-opacity:1"
         id="path36" />
      <g
         id="g38"
         transform="scale(10)">
        <text
           xml:space="preserve"
           transform="matrix(1,0,0,-1,428.885,81.059)"
           style="font-variant:normal;font-weight:normal;font-size:18.024px;font-family:Calibri;-inkscape-font-specification:Calibri;writing-mode:lr-tb;fill:#727071;fill-opacity:1;fill-rule:nonzero;stroke:none"
           id="text42"><tspan
             x="0 8.9759521 17.248968 25.413839 32.407269 38.445309 47.421261 61.822437 72.258331 81.612587 96.013756 100.15928 109.67574 113.74913 120.79652 126.83456 133.07088 141.70438 147.74242 157.24106 163.53143 172.43527 176.5087 189.44991 197.9753 207.4379 213.47594 220.52332 224.59674 230.63478 240.13344 244.20686 252.35371 256.409 265.38495 278.27209 282.34552 288.32965 297.79227 306.76822 310.84164 320.35825 324.43149 331.47888 337.51691 347.01556 353.23383 357.41537 364.96744 373.60095 377.69235"
             y="0"
             sodipodi:role="line"
             id="tspan40">#SystemAdministrator# wants to view the historical </tspan></text>
        <text
           xml:space="preserve"
           transform="matrix(1,0,0,-1,559.485,59.4289)"
           style="font-variant:normal;font-weight:normal;font-size:18px;font-family:Calibri;-inkscape-font-specification:Calibri;writing-mode:lr-tb;fill:#727071;fill-opacity:1;fill-rule:nonzero;stroke:none"
           id="text46"><tspan
             x="0 5.526 20.916 30.402 36.431999 40.571968 50.057968 59.507969 69.281967 78.245972 85.806015 95.381958 101.66396 111.11395"
             y="0"
             sodipodi:role="line"
             id="tspan44">[MotionRecord]</tspan></text>
      </g>
      <path
         d="m 8663.95,2778.09 c 0,93.9 -1113.4,170 -2486.9,170 -1373.5,0 -2486.9,-76.1 -2486.9,-170 0,-94 1113.4,-170.1 2486.9,-170.1 1373.5,0 2486.9,76.1 2486.9,170.1"
         style="fill:#ffffff;fill-opacity:1;fill-rule:evenodd;stroke:none"
         id="path48" />
      <path
         d="m 8663.95,2778.09 c 0,93.9 -1113.4,170 -2486.9,170 -1373.5,0 -2486.9,-76.1 -2486.9,-170 0,-94 1113.4,-170.1 2486.9,-170.1 1373.5,0 2486.9,76.1 2486.9,170.1 z"
         style="fill:none;stroke:#b1b0b0;stroke-width:20;stroke-linecap:round;stroke-linejoin:round;stroke-miterlimit:10;stroke-dasharray:none;stroke-opacity:1"
         id="path50" />
      <g
         id="g52"
         transform="scale(10)">
        <text
           xml:space="preserve"
           transform="matrix(1,0,0,-1,403.205,272.379)"
           style="font-variant:normal;font-weight:normal;font-size:18px;font-family:Calibri;-inkscape-font-specification:Calibri;writing-mode:lr-tb;fill:#727071;fill-opacity:1;fill-rule:nonzero;stroke:none"
           id="text56"><tspan
             x="0 8.9639997 17.226 25.415937 32.382111 38.412113 47.37611 61.75811 72.180115 81.630112 96.012108 100.15199 109.63799 113.7239 120.7619 126.7919 133.0739 141.69589 147.72589 157.2119 163.4939 172.4039 176.47189 189.4319 197.94589 207.3959 213.4259 220.4639 224.5679 230.5979 240.08389 244.1519 252.2879 256.37372 265.33771 278.2077 282.27573 288.30573 297.75571 306.75571 310.82373 314.96371 319.10358 326.06976 332.17184 336.13177 345.70761 351.10754 355.17554 364.13953 375.20953 384.20953 392.34552 396.4855 404.00955 412.97357 421.99167"
             y="0"
             sodipodi:role="line"
             id="tspan54">#SystemAdministrator# wants to view the list of #Device#s</tspan></text>
      </g>
      <path
         d="M 1050.05,1720.89 3695.45,769.488"
         style="fill:none;stroke:#b1b0b0;stroke-width:22.5;stroke-linecap:round;stroke-linejoin:round;stroke-miterlimit:10;stroke-dasharray:none;stroke-opacity:1"
         id="path58" />
      <path
         d="m 3634.45,740.789 61,28.699 -28.7,61"
         style="fill:none;stroke:#b1b0b0;stroke-width:22.5;stroke-linecap:round;stroke-linejoin:round;stroke-miterlimit:10;stroke-dasharray:none;stroke-opacity:1"
         id="path60" />
      <path
         d="m 1050.05,1720.89 2640.6,43.1"
         style="fill:none;stroke:#b1b0b0;stroke-width:22.5;stroke-linecap:round;stroke-linejoin:round;stroke-miterlimit:10;stroke-dasharray:none;stroke-opacity:1"
         id="path62" />
      <path
         d="m 3643.75,1715.59 46.9,48.4 -48.5,47"
         style="fill:none;stroke:#b1b0b0;stroke-width:22.5;stroke-linecap:round;stroke-linejoin:round;stroke-miterlimit:10;stroke-dasharray:none;stroke-opacity:1"
         id="path64" />
      <path
         d="m 1050.05,1720.89 2640.3,1059.9"
         style="fill:none;stroke:#b1b0b0;stroke-width:22.5;stroke-linecap:round;stroke-linejoin:round;stroke-miterlimit:10;stroke-dasharray:none;stroke-opacity:1"
         id="path66" />
      <path
         d="m 3663.85,2718.69 26.5,62.1 -62.1,26.5"
         style="fill:none;stroke:#b1b0b0;stroke-width:22.5;stroke-linecap:round;stroke-linejoin:round;stroke-miterlimit:10;stroke-dasharray:none;stroke-opacity:1"
         id="path68" />
      <path
         d="m 777.945,1413.29 v 354.3 -141.7 h -68 v 283.5 l 34,35.4 h 272.105 l 34,-35.4 v -283.5 h -68.003 v 141.7 -354.3 h -102 v 283.5 -283.5 z m 172.903,637.8 c 0,39.1 -31.7,70.8 -70.801,70.8 -39.199,0 -70.899,-31.7 -70.899,-70.8 0,-39.2 31.7,-70.9 70.899,-70.9 39.101,0 70.801,31.7 70.801,70.9"
         style="fill:#ffffff;fill-opacity:1;fill-rule:evenodd;stroke:none"
         id="path70" />
      <path
         d="m 777.945,1413.29 v 354.3 -141.7 h -68 v 283.5 l 34,35.4 h 272.105 l 34,-35.4 v -283.5 h -68.003 v 141.7 -354.3 h -102 v 283.5 -283.5 z m 172.903,637.8 c 0,39.1 -31.7,70.8 -70.801,70.8 -39.199,0 -70.899,-31.7 -70.899,-70.8 0,-39.2 31.7,-70.9 70.899,-70.9 39.101,0 70.801,31.7 70.801,70.9 z"
         style="fill:none;stroke:#f9b90a;stroke-width:20;stroke-linecap:round;stroke-linejoin:round;stroke-miterlimit:10;stroke-dasharray:none;stroke-opacity:1"
         id="path72" />
      <g
         id="g74"
         transform="scale(10)">
        <text
           xml:space="preserve"
           transform="matrix(1,0,0,-1,10.7746,121.059)"
           style="font-variant:normal;font-weight:normal;font-size:18px;font-family:Calibri;-inkscape-font-specification:Calibri;writing-mode:lr-tb;fill:#84651e;fill-opacity:1;fill-rule:nonzero;stroke:none"
           id="text78"><tspan
             x="0 8.2620001 16.416 23.400131 29.502241 38.376259 52.758259 63.18026 72.684174 87.06617 91.206123 100.65612 104.72406 111.76205 117.79205 124.07406 132.69606 138.78015 148.26616"
             y="0"
             sodipodi:role="line"
             id="tspan76">SystemAdministrator</tspan></text>
      </g>
      <path
         d="m 8663.95,1767.59 c 0,94 -1113.4,170.1 -2486.9,170.1 -1373.5,0 -2486.9,-76.1 -2486.9,-170.1 0,-93.9 1113.4,-170.1 2486.9,-170.1 1373.5,0 2486.9,76.2 2486.9,170.1"
         style="fill:#ffffff;fill-opacity:1;fill-rule:evenodd;stroke:none"
         id="path80" />
      <path
         d="m 8663.95,1767.59 c 0,94 -1113.4,170.1 -2486.9,170.1 -1373.5,0 -2486.9,-76.1 -2486.9,-170.1 0,-93.9 1113.4,-170.1 2486.9,-170.1 1373.5,0 2486.9,76.2 2486.9,170.1 z"
         style="fill:none;stroke:#b1b0b0;stroke-width:20;stroke-linecap:round;stroke-linejoin:round;stroke-miterlimit:10;stroke-dasharray:none;stroke-opacity:1"
         id="path82" />
      <g
         id="g84"
         transform="scale(10)">
        <text
           xml:space="preserve"
           transform="matrix(1,0,0,-1,385.365,171.319)"
           style="font-variant:normal;font-weight:normal;font-size:18.024px;font-family:Calibri;-inkscape-font-specification:Calibri;writing-mode:lr-tb;fill:#727071;fill-opacity:1;fill-rule:nonzero;stroke:none"
           id="text88"><tspan
             x="0 8.9759521 17.248968 25.413839 32.407269 38.445309 47.421261 61.822437 72.258331 81.612587 96.013756 100.15928 109.67574 113.74913 120.79652 126.83456 133.07088 141.70438 147.74242 157.24106 163.53143 172.43527 176.5087 189.44991 197.9753 207.4379 213.47594 220.52332 224.59674 230.63478 240.13344 244.20686 258.60803 267.24152 276.70413 285.33762 293.73663 302.71259 306.78601 312.3194 322.10641 331.08237 339.46338 343.64487 350.69226 356.73032 365.59799 371.94247 376.37631 385.83893 391.33624 400.8349 407.12527 421.52646 430.15994 436.14398 440.32547 449.82413 459.28671"
             y="0"
             sodipodi:role="line"
             id="tspan86">#SystemAdministrator# wants to manage [RegisterInformation]</tspan></text>
      </g>
    </g>
  </g>
</svg>
