<?xml version="1.0" encoding="us-ascii" standalone="no"?><svg xmlns="http://www.w3.org/2000/svg" xmlns:xlink="http://www.w3.org/1999/xlink" contentStyleType="text/css" height="671px" preserveAspectRatio="none" style="width:492px;height:671px;background:#FFFFFF;" version="1.1" viewBox="0 0 492 671" width="492px" zoomAndPan="magnify"><defs/><g><rect fill="none" height="128.1641" style="stroke:#000000;stroke-width:1.5;" width="462.5" x="20" y="189.4941"/><rect fill="none" height="237.0078" style="stroke:#000000;stroke-width:1.5;" width="475.5" x="10" y="331.6582"/><rect fill="none" height="142.7949" style="stroke:#000000;stroke-width:1.5;" width="455.5" x="20" y="402.2402"/><line style="stroke:#181818;stroke-width:0.5;stroke-dasharray:5.0,5.0;" x1="58" x2="58" y1="86.6211" y2="585.666"/><line style="stroke:#181818;stroke-width:0.5;stroke-dasharray:5.0,5.0;" x1="401.5" x2="401.5" y1="86.6211" y2="585.666"/><text fill="#000000" font-family="sans-serif" font-size="14" lengthAdjust="spacing" textLength="42" x="34.5" y="83.1074">Server</text><ellipse cx="58.5" cy="22.5" fill="#E2E2F0" rx="16" ry="16" style="stroke:#181818;stroke-width:1.5;"/><path d="M58.5,42.5 C62.5,42.5 65.5,42.5 69.5,38.5 C77.5,38.5 85.5,46.5 85.5,54.5 L85.5,58.5 C85.5,62.5 81.5,66.5 77.5,66.5 L39.5,66.5 C35.5,66.5 31.5,62.5 31.5,58.5 L31.5,54.5 C31.5,46.5 39.5,38.5 47.5,38.5 C51.5,42.5 54.5,42.5 58.5,42.5 " fill="#E2E2F0" style="stroke:#181818;stroke-width:1.5;"/><text fill="#000000" font-family="sans-serif" font-size="14" lengthAdjust="spacing" textLength="42" x="34.5" y="599.7734">Server</text><ellipse cx="58.5" cy="620.7871" fill="#E2E2F0" rx="16" ry="16" style="stroke:#181818;stroke-width:1.5;"/><path d="M58.5,640.7871 C62.5,640.7871 65.5,640.7871 69.5,636.7871 C77.5,636.7871 85.5,644.7871 85.5,652.7871 L85.5,656.7871 C85.5,660.7871 81.5,664.7871 77.5,664.7871 L39.5,664.7871 C35.5,664.7871 31.5,660.7871 31.5,656.7871 L31.5,652.7871 C31.5,644.7871 39.5,636.7871 47.5,636.7871 C51.5,640.7871 54.5,640.7871 58.5,640.7871 " fill="#E2E2F0" style="stroke:#181818;stroke-width:1.5;"/><rect fill="#E2E2F0" height="32.6211" rx="2.5" ry="2.5" style="stroke:#181818;stroke-width:0.5;" width="128" x="337.5" y="53"/><text fill="#000000" font-family="sans-serif" font-size="14" lengthAdjust="spacing" textLength="114" x="344.5" y="75.1074">EmbeddedSystem</text><rect fill="#E2E2F0" height="32.6211" rx="2.5" ry="2.5" style="stroke:#181818;stroke-width:0.5;" width="128" x="337.5" y="584.666"/><text fill="#000000" font-family="sans-serif" font-size="14" lengthAdjust="spacing" textLength="114" x="344.5" y="606.7734">EmbeddedSystem</text><path d="M290,101.6211 L290,145.6211 L396,145.6211 L396,111.6211 L386,101.6211 L290,101.6211 " fill="#FEFFDD" style="stroke:#181818;stroke-width:0.5;"/><path d="M386,101.6211 L386,111.6211 L396,111.6211 L386,101.6211 " fill="#FEFFDD" style="stroke:#181818;stroke-width:0.5;"/><text fill="#000000" font-family="sans-serif" font-size="13" lengthAdjust="spacing" textLength="85" x="296" y="120.6494">Pre-Conditions</text><text fill="#000000" font-family="sans-serif" font-size="13" lengthAdjust="spacing" textLength="62" x="296" y="137.9404">- Power on</text><polygon fill="#181818" points="389.5,170.4941,399.5,174.4941,389.5,178.4941,393.5,174.4941" style="stroke:#181818;stroke-width:1.0;"/><line style="stroke:#181818;stroke-width:1.0;" x1="58.5" x2="395.5" y1="174.4941" y2="174.4941"/><text fill="#000000" font-family="sans-serif" font-size="13" lengthAdjust="spacing" textLength="201" x="65.5" y="169.2314">REQUEST to determine availability</text><path d="M20,189.4941 L81,189.4941 L81,198.7852 L71,208.7852 L20,208.7852 L20,189.4941 " fill="#EEEEEE" style="stroke:#000000;stroke-width:1.5;"/><rect fill="none" height="128.1641" style="stroke:#000000;stroke-width:1.5;" width="462.5" x="20" y="189.4941"/><text fill="#000000" font-family="sans-serif" font-size="13" font-weight="bold" lengthAdjust="spacing" textLength="16" x="35" y="204.5225">alt</text><text fill="#000000" font-family="sans-serif" font-size="11" font-weight="bold" lengthAdjust="spacing" textLength="268" x="96" y="203.3643">[Network error occurs when sending RESPONSE]</text><line style="stroke:#181818;stroke-width:1.0;" x1="401.5" x2="443.5" y1="232.0762" y2="232.0762"/><line style="stroke:#181818;stroke-width:1.0;" x1="443.5" x2="443.5" y1="232.0762" y2="245.0762"/><line style="stroke:#181818;stroke-width:1.0;" x1="402.5" x2="443.5" y1="245.0762" y2="245.0762"/><polygon fill="#181818" points="412.5,241.0762,402.5,245.0762,412.5,249.0762,408.5,245.0762" style="stroke:#181818;stroke-width:1.0;"/><text fill="#000000" font-family="sans-serif" font-size="13" lengthAdjust="spacing" textLength="62" x="408.5" y="226.8135">Do nothing</text><polygon fill="#181818" points="69.5,272.3672,59.5,276.3672,69.5,280.3672,65.5,276.3672" style="stroke:#181818;stroke-width:1.0;"/><line style="stroke:#181818;stroke-width:1.0;" x1="63.5" x2="400.5" y1="276.3672" y2="276.3672"/><text fill="#000000" font-family="sans-serif" font-size="13" lengthAdjust="spacing" textLength="87" x="75.5" y="271.1045">Use case ends</text><line style="stroke:#000000;stroke-width:1.0;stroke-dasharray:2.0,2.0;" x1="20" x2="482.5" y1="285.3672" y2="285.3672"/><polygon fill="#181818" points="69.5,305.6582,59.5,309.6582,69.5,313.6582,65.5,309.6582" style="stroke:#181818;stroke-width:1.0;"/><line style="stroke:#181818;stroke-width:1.0;" x1="63.5" x2="400.5" y1="309.6582" y2="309.6582"/><text fill="#000000" font-family="sans-serif" font-size="13" lengthAdjust="spacing" textLength="126" x="75.5" y="304.3955">RESPONSE available</text><path d="M10,331.6582 L71,331.6582 L71,340.9492 L61,350.9492 L10,350.9492 L10,331.6582 " fill="#EEEEEE" style="stroke:#000000;stroke-width:1.5;"/><rect fill="none" height="237.0078" style="stroke:#000000;stroke-width:1.5;" width="475.5" x="10" y="331.6582"/><text fill="#000000" font-family="sans-serif" font-size="13" font-weight="bold" lengthAdjust="spacing" textLength="16" x="25" y="346.6865">alt</text><text fill="#000000" font-family="sans-serif" font-size="11" font-weight="bold" lengthAdjust="spacing" textLength="274" x="86" y="345.5283">[Network error occurs when receiving RESPONSE]</text><line style="stroke:#181818;stroke-width:1.0;" x1="58.5" x2="100.5" y1="374.2402" y2="374.2402"/><line style="stroke:#181818;stroke-width:1.0;" x1="100.5" x2="100.5" y1="374.2402" y2="387.2402"/><line style="stroke:#181818;stroke-width:1.0;" x1="59.5" x2="100.5" y1="387.2402" y2="387.2402"/><polygon fill="#181818" points="69.5,383.2402,59.5,387.2402,69.5,391.2402,65.5,387.2402" style="stroke:#181818;stroke-width:1.0;"/><text fill="#000000" font-family="sans-serif" font-size="13" lengthAdjust="spacing" textLength="217" x="65.5" y="368.9775">Retry 3 times with 0.5-second interval</text><path d="M20,402.2402 L81,402.2402 L81,411.5313 L71,421.5313 L20,421.5313 L20,402.2402 " fill="#EEEEEE" style="stroke:#000000;stroke-width:1.5;"/><rect fill="none" height="142.7949" style="stroke:#000000;stroke-width:1.5;" width="455.5" x="20" y="402.2402"/><text fill="#000000" font-family="sans-serif" font-size="13" font-weight="bold" lengthAdjust="spacing" textLength="16" x="35" y="417.2686">alt</text><text fill="#000000" font-family="sans-serif" font-size="11" font-weight="bold" lengthAdjust="spacing" textLength="121" x="96" y="416.1104">[Retry limit exceeded]</text><line style="stroke:#181818;stroke-width:1.0;" x1="58.5" x2="100.5" y1="444.8223" y2="444.8223"/><line style="stroke:#181818;stroke-width:1.0;" x1="100.5" x2="100.5" y1="444.8223" y2="457.8223"/><line style="stroke:#181818;stroke-width:1.0;" x1="59.5" x2="100.5" y1="457.8223" y2="457.8223"/><polygon fill="#181818" points="69.5,453.8223,59.5,457.8223,69.5,461.8223,65.5,457.8223" style="stroke:#181818;stroke-width:1.0;"/><text fill="#000000" font-family="sans-serif" font-size="13" lengthAdjust="spacing" textLength="329" x="65.5" y="439.5596">Confirm embedded system is unreachable, end use case</text><line style="stroke:#000000;stroke-width:1.0;stroke-dasharray:2.0,2.0;" x1="20" x2="475.5" y1="466.8223" y2="466.8223"/><text fill="#000000" font-family="sans-serif" font-size="11" font-weight="bold" lengthAdjust="spacing" textLength="154" x="25" y="478.6924">[Server receives RESPONSE]</text><polygon fill="#181818" points="389.5,501.7441,399.5,505.7441,389.5,509.7441,393.5,505.7441" style="stroke:#181818;stroke-width:1.0;"/><line style="stroke:#181818;stroke-width:1.0;" x1="58.5" x2="395.5" y1="505.7441" y2="505.7441"/><text fill="#000000" font-family="sans-serif" font-size="13" lengthAdjust="spacing" textLength="201" x="65.5" y="500.4814">REQUEST to determine availability</text><polygon fill="#181818" points="69.5,533.0352,59.5,537.0352,69.5,541.0352,65.5,537.0352" style="stroke:#181818;stroke-width:1.0;"/><line style="stroke:#181818;stroke-width:1.0;" x1="63.5" x2="400.5" y1="537.0352" y2="537.0352"/><text fill="#000000" font-family="sans-serif" font-size="13" lengthAdjust="spacing" textLength="126" x="75.5" y="531.7725">RESPONSE available</text><line style="stroke:#000000;stroke-width:1.0;stroke-dasharray:2.0,2.0;" x1="10" x2="485.5" y1="553.0352" y2="553.0352"/><text fill="#000000" font-family="sans-serif" font-size="11" font-weight="bold" lengthAdjust="spacing" textLength="154" x="15" y="564.9053">[Server receives RESPONSE]</text><!--SRC=[bLBDJW8n4BxtAUO1N6DYl13ZHVUAwChDI-b-o8HkIzfXLzxUOHSm26heeOTsljysBpciRB8DMISnLRBn8DiXnmQcFw8AgKKoEYNiU6M3KDdCKDUegqqMDCQ4A22FkL2S_xWSqIIXU8oXPk4OydieQ18x98h1c86RYeSJr6lvCYshDv98DGIfuQ36MilUpjYpR8onNcWCwM9Q4b9Igz6vTShKBH0eGoN3Xn9La-TnLHhITQnoJlSfagPPAB87x0pU5oU3qmnoLZVLoGO-unU5WM9qCB9FuM4K-b-C10TkJu9y5tUWXwGDtP9m0yMoBEZc-gx8SDezST0EM-jxy5Pn6FVSi10-7Q2U-ylpxFg0SquDOHUFyf2FCwr3WdMBRQ2hRHcqtZNJqssBsVCDMTJTKPHZmSl_mPxZekPxQzh-t_PquWi0]--></g></svg>