<?xml version="1.0" encoding="us-ascii" standalone="no"?><svg xmlns="http://www.w3.org/2000/svg" xmlns:xlink="http://www.w3.org/1999/xlink" contentStyleType="text/css" height="660px" preserveAspectRatio="none" style="width:647px;height:660px;background:#FFFFFF;" version="1.1" viewBox="0 0 647 660" width="647px" zoomAndPan="magnify"><defs/><g><text fill="#000000" font-family="sans-serif" font-size="14" font-weight="bold" lengthAdjust="spacing" textLength="211" x="219" y="30.1074">Request Real-time Data (Sync)</text><rect fill="none" height="266.668" style="stroke:#000000;stroke-width:1.5;" width="546.5" x="93.5" y="246.4063"/><rect fill="none" height="111.5039" style="stroke:#000000;stroke-width:1.5;" width="408.5" x="103.5" y="316.9883"/><line style="stroke:#181818;stroke-width:0.5;stroke-dasharray:5.0,5.0;" x1="141.5" x2="141.5" y1="126.2422" y2="574.3652"/><line style="stroke:#181818;stroke-width:0.5;stroke-dasharray:5.0,5.0;" x1="438" x2="438" y1="126.2422" y2="574.3652"/><text fill="#000000" font-family="sans-serif" font-size="14" lengthAdjust="spacing" textLength="42" x="118" y="122.7285">Server</text><ellipse cx="142" cy="62.1211" fill="#E2E2F0" rx="16" ry="16" style="stroke:#181818;stroke-width:1.5;"/><path d="M142,82.1211 C146,82.1211 149,82.1211 153,78.1211 C161,78.1211 169,86.1211 169,94.1211 L169,98.1211 C169,102.1211 165,106.1211 161,106.1211 L123,106.1211 C119,106.1211 115,102.1211 115,98.1211 L115,94.1211 C115,86.1211 123,78.1211 131,78.1211 C135,82.1211 138,82.1211 142,82.1211 " fill="#E2E2F0" style="stroke:#181818;stroke-width:1.5;"/><text fill="#000000" font-family="sans-serif" font-size="14" lengthAdjust="spacing" textLength="42" x="118" y="588.4727">Server</text><ellipse cx="142" cy="609.4863" fill="#E2E2F0" rx="16" ry="16" style="stroke:#181818;stroke-width:1.5;"/><path d="M142,629.4863 C146,629.4863 149,629.4863 153,625.4863 C161,625.4863 169,633.4863 169,641.4863 L169,645.4863 C169,649.4863 165,653.4863 161,653.4863 L123,653.4863 C119,653.4863 115,649.4863 115,645.4863 L115,641.4863 C115,633.4863 123,625.4863 131,625.4863 C135,629.4863 138,629.4863 142,629.4863 " fill="#E2E2F0" style="stroke:#181818;stroke-width:1.5;"/><rect fill="#E2E2F0" height="32.6211" rx="2.5" ry="2.5" style="stroke:#181818;stroke-width:0.5;" width="128" x="374" y="92.6211"/><text fill="#000000" font-family="sans-serif" font-size="14" lengthAdjust="spacing" textLength="114" x="381" y="114.7285">EmbeddedSystem</text><rect fill="#E2E2F0" height="32.6211" rx="2.5" ry="2.5" style="stroke:#181818;stroke-width:0.5;" width="128" x="374" y="573.3652"/><text fill="#000000" font-family="sans-serif" font-size="14" lengthAdjust="spacing" textLength="114" x="381" y="595.4727">EmbeddedSystem</text><path d="M304,141.2422 L304,202.2422 L433,202.2422 L433,151.2422 L423,141.2422 L304,141.2422 " fill="#FEFFDD" style="stroke:#181818;stroke-width:0.5;"/><path d="M423,141.2422 L423,151.2422 L433,151.2422 L423,141.2422 " fill="#FEFFDD" style="stroke:#181818;stroke-width:0.5;"/><text fill="#000000" font-family="sans-serif" font-size="13" lengthAdjust="spacing" textLength="85" x="310" y="160.2705">Pre-Conditions</text><text fill="#000000" font-family="sans-serif" font-size="13" lengthAdjust="spacing" textLength="62" x="310" y="177.5615">- Power on</text><text fill="#000000" font-family="sans-serif" font-size="13" lengthAdjust="spacing" textLength="108" x="310" y="194.8525">- Network available</text><polygon fill="#181818" points="426,227.4063,436,231.4063,426,235.4063,430,231.4063" style="stroke:#181818;stroke-width:1.0;"/><line style="stroke:#181818;stroke-width:1.0;" x1="142" x2="432" y1="231.4063" y2="231.4063"/><text fill="#000000" font-family="sans-serif" font-size="13" lengthAdjust="spacing" textLength="272" x="149" y="226.1436">REQUEST for real-time data with sampling rate</text><path d="M93.5,246.4063 L154.5,246.4063 L154.5,255.6973 L144.5,265.6973 L93.5,265.6973 L93.5,246.4063 " fill="#EEEEEE" style="stroke:#000000;stroke-width:1.5;"/><rect fill="none" height="266.668" style="stroke:#000000;stroke-width:1.5;" width="546.5" x="93.5" y="246.4063"/><text fill="#000000" font-family="sans-serif" font-size="13" font-weight="bold" lengthAdjust="spacing" textLength="16" x="108.5" y="261.4346">alt</text><text fill="#000000" font-family="sans-serif" font-size="11" font-weight="bold" lengthAdjust="spacing" textLength="261" x="169.5" y="260.2764">[Network error occurs when sending REQUEST]</text><line style="stroke:#181818;stroke-width:1.0;" x1="142" x2="184" y1="288.9883" y2="288.9883"/><line style="stroke:#181818;stroke-width:1.0;" x1="184" x2="184" y1="288.9883" y2="301.9883"/><line style="stroke:#181818;stroke-width:1.0;" x1="143" x2="184" y1="301.9883" y2="301.9883"/><polygon fill="#181818" points="153,297.9883,143,301.9883,153,305.9883,149,301.9883" style="stroke:#181818;stroke-width:1.0;"/><text fill="#000000" font-family="sans-serif" font-size="13" lengthAdjust="spacing" textLength="217" x="149" y="283.7256">Retry 3 times with 0.5-second interval</text><path d="M103.5,316.9883 L164.5,316.9883 L164.5,326.2793 L154.5,336.2793 L103.5,336.2793 L103.5,316.9883 " fill="#EEEEEE" style="stroke:#000000;stroke-width:1.5;"/><rect fill="none" height="111.5039" style="stroke:#000000;stroke-width:1.5;" width="408.5" x="103.5" y="316.9883"/><text fill="#000000" font-family="sans-serif" font-size="13" font-weight="bold" lengthAdjust="spacing" textLength="16" x="118.5" y="332.0166">alt</text><text fill="#000000" font-family="sans-serif" font-size="11" font-weight="bold" lengthAdjust="spacing" textLength="121" x="179.5" y="330.8584">[Retry limit exceeded]</text><line style="stroke:#181818;stroke-width:1.0;" x1="142" x2="184" y1="359.5703" y2="359.5703"/><line style="stroke:#181818;stroke-width:1.0;" x1="184" x2="184" y1="359.5703" y2="372.5703"/><line style="stroke:#181818;stroke-width:1.0;" x1="143" x2="184" y1="372.5703" y2="372.5703"/><polygon fill="#181818" points="153,368.5703,143,372.5703,153,376.5703,149,372.5703" style="stroke:#181818;stroke-width:1.0;"/><text fill="#000000" font-family="sans-serif" font-size="13" lengthAdjust="spacing" textLength="195" x="149" y="354.3076">Use cached data or INVALID data</text><line style="stroke:#000000;stroke-width:1.0;stroke-dasharray:2.0,2.0;" x1="103.5" x2="512" y1="381.5703" y2="381.5703"/><text fill="#000000" font-family="sans-serif" font-size="11" font-weight="bold" lengthAdjust="spacing" textLength="166" x="108.5" y="393.4404">[Server sends REQUEST again]</text><polygon fill="#181818" points="426,416.4922,436,420.4922,426,424.4922,430,420.4922" style="stroke:#181818;stroke-width:1.0;"/><line style="stroke:#181818;stroke-width:1.0;" x1="142" x2="432" y1="420.4922" y2="420.4922"/><text fill="#000000" font-family="sans-serif" font-size="13" lengthAdjust="spacing" textLength="272" x="149" y="415.2295">REQUEST for real-time data with sampling rate</text><line style="stroke:#000000;stroke-width:1.0;stroke-dasharray:2.0,2.0;" x1="93.5" x2="640" y1="436.4922" y2="436.4922"/><line style="stroke:#181818;stroke-width:1.0;" x1="438" x2="480" y1="460.7832" y2="460.7832"/><line style="stroke:#181818;stroke-width:1.0;" x1="480" x2="480" y1="460.7832" y2="473.7832"/><line style="stroke:#181818;stroke-width:1.0;" x1="439" x2="480" y1="473.7832" y2="473.7832"/><polygon fill="#181818" points="449,469.7832,439,473.7832,449,477.7832,445,473.7832" style="stroke:#181818;stroke-width:1.0;"/><text fill="#000000" font-family="sans-serif" font-size="13" lengthAdjust="spacing" textLength="183" x="445" y="455.5205">Get real-time data from sensors</text><polygon fill="#181818" points="153,501.0742,143,505.0742,153,509.0742,149,505.0742" style="stroke:#181818;stroke-width:1.0;"/><line style="stroke:#181818;stroke-width:1.0;" x1="147" x2="437" y1="505.0742" y2="505.0742"/><text fill="#000000" font-family="sans-serif" font-size="13" lengthAdjust="spacing" textLength="183" x="159" y="499.8115">RESPONSE with real-time data</text><line style="stroke:#181818;stroke-width:1.0;" x1="100" x2="142" y1="543.3652" y2="543.3652"/><line style="stroke:#181818;stroke-width:1.0;" x1="100" x2="100" y1="543.3652" y2="556.3652"/><line style="stroke:#181818;stroke-width:1.0;" x1="100" x2="141" y1="556.3652" y2="556.3652"/><polygon fill="#181818" points="133,552.3652,143,556.3652,133,560.3652,137,556.3652" style="stroke:#181818;stroke-width:1.0;"/><text fill="#000000" font-family="sans-serif" font-size="13" lengthAdjust="spacing" textLength="128" x="14" y="538.1025">Receive real-time data</text><!--SRC=[fL8xJyCm4DxzAsw48GW9iI24X6Y4Ag5I6ih4SZYNrgeVnRusvDzZEoNGKYQo-77VwyvXnPfWHkyR2XnNr0KhGp12HZYfEYjF1Kfs7YhoM_8Yh9HTeqS3-RhYBlAnfU0CYLXW9TKQBKDftgYkgQwwm6I4i8u9D3KChZaeNi7KKt7dRArOEHjURG5Jrv87PzD-GjmwlmBSejBufac8FWqKDx-aPkNJlAoUeOcP_T1FdVff5IyXe5bhPHVWaQCGQXxqoVj8Sb9kV81sIHO2nKmHknCL4BzlwtuNBObz1nUGd4BlSdvsMGIIiILGbYCETIOdknwkbL4Cz269OlfSFAu-3mGIvPBgleiOSJnvkNqOZ_8vCqb7q8wQCeTX3BX0PO-e_szisTFM8ldcmxxSCODxuaFXnZkJuWRdmnygmuZBQleugSe-pBwEI4c-_eZhuiUpI59REa1_0W00]--></g></svg>