<?xml version="1.0" encoding="us-ascii" standalone="no"?><svg xmlns="http://www.w3.org/2000/svg" xmlns:xlink="http://www.w3.org/1999/xlink" contentStyleType="text/css" height="882px" preserveAspectRatio="none" style="width:578px;height:882px;background:#FFFFFF;" version="1.1" viewBox="0 0 578 882" width="578px" zoomAndPan="magnify"><defs/><g><text fill="#000000" font-family="sans-serif" font-size="14" font-weight="bold" lengthAdjust="spacing" textLength="219" x="181.25" y="30.1074">Request Real-time Data (Async)</text><rect fill="none" height="81.873" style="stroke:#000000;stroke-width:1.5;" width="542.5" x="20" y="332.2793"/><rect fill="none" height="220.377" style="stroke:#000000;stroke-width:1.5;" width="562.5" x="10" y="559.3164"/><rect fill="none" height="142.7949" style="stroke:#000000;stroke-width:1.5;" width="542.5" x="20" y="629.8984"/><line style="stroke:#181818;stroke-width:0.5;stroke-dasharray:5.0,5.0;" x1="58" x2="58" y1="126.2422" y2="796.6934"/><line style="stroke:#181818;stroke-width:0.5;stroke-dasharray:5.0,5.0;" x1="488.5" x2="488.5" y1="126.2422" y2="796.6934"/><text fill="#000000" font-family="sans-serif" font-size="14" lengthAdjust="spacing" textLength="42" x="34.5" y="122.7285">Server</text><ellipse cx="58.5" cy="62.1211" fill="#E2E2F0" rx="16" ry="16" style="stroke:#181818;stroke-width:1.5;"/><path d="M58.5,82.1211 C62.5,82.1211 65.5,82.1211 69.5,78.1211 C77.5,78.1211 85.5,86.1211 85.5,94.1211 L85.5,98.1211 C85.5,102.1211 81.5,106.1211 77.5,106.1211 L39.5,106.1211 C35.5,106.1211 31.5,102.1211 31.5,98.1211 L31.5,94.1211 C31.5,86.1211 39.5,78.1211 47.5,78.1211 C51.5,82.1211 54.5,82.1211 58.5,82.1211 " fill="#E2E2F0" style="stroke:#181818;stroke-width:1.5;"/><text fill="#000000" font-family="sans-serif" font-size="14" lengthAdjust="spacing" textLength="42" x="34.5" y="810.8008">Server</text><ellipse cx="58.5" cy="831.8145" fill="#E2E2F0" rx="16" ry="16" style="stroke:#181818;stroke-width:1.5;"/><path d="M58.5,851.8145 C62.5,851.8145 65.5,851.8145 69.5,847.8145 C77.5,847.8145 85.5,855.8145 85.5,863.8145 L85.5,867.8145 C85.5,871.8145 81.5,875.8145 77.5,875.8145 L39.5,875.8145 C35.5,875.8145 31.5,871.8145 31.5,867.8145 L31.5,863.8145 C31.5,855.8145 39.5,847.8145 47.5,847.8145 C51.5,851.8145 54.5,851.8145 58.5,851.8145 " fill="#E2E2F0" style="stroke:#181818;stroke-width:1.5;"/><rect fill="#E2E2F0" height="32.6211" rx="2.5" ry="2.5" style="stroke:#181818;stroke-width:0.5;" width="128" x="424.5" y="92.6211"/><text fill="#000000" font-family="sans-serif" font-size="14" lengthAdjust="spacing" textLength="114" x="431.5" y="114.7285">EmbeddedSystem</text><rect fill="#E2E2F0" height="32.6211" rx="2.5" ry="2.5" style="stroke:#181818;stroke-width:0.5;" width="128" x="424.5" y="795.6934"/><text fill="#000000" font-family="sans-serif" font-size="14" lengthAdjust="spacing" textLength="114" x="431.5" y="817.8008">EmbeddedSystem</text><path d="M223,141.2422 L223,220.2422 L483,220.2422 L483,151.2422 L473,141.2422 L223,141.2422 " fill="#FEFFDD" style="stroke:#181818;stroke-width:0.5;"/><path d="M473,141.2422 L473,151.2422 L483,151.2422 L473,141.2422 " fill="#FEFFDD" style="stroke:#181818;stroke-width:0.5;"/><text fill="#000000" font-family="sans-serif" font-size="13" lengthAdjust="spacing" textLength="85" x="229" y="160.2705">Pre-Conditions</text><text fill="#000000" font-family="sans-serif" font-size="13" lengthAdjust="spacing" textLength="62" x="229" y="177.5615">- Power on</text><text fill="#000000" font-family="sans-serif" font-size="13" lengthAdjust="spacing" textLength="108" x="229" y="194.8525">- Network available</text><text fill="#000000" font-family="sans-serif" font-size="13" lengthAdjust="spacing" textLength="239" x="229" y="212.1436">- Not in real-time data transmission mode</text><polygon fill="#181818" points="476.5,244.6973,486.5,248.6973,476.5,252.6973,480.5,248.6973" style="stroke:#181818;stroke-width:1.0;"/><line style="stroke:#181818;stroke-width:1.0;" x1="58.5" x2="482.5" y1="248.6973" y2="248.6973"/><text fill="#000000" font-family="sans-serif" font-size="13" lengthAdjust="spacing" textLength="254" x="65.5" y="243.4346">REQUEST real-time data with sampling rate</text><polygon fill="#181818" points="69.5,275.9883,59.5,279.9883,69.5,283.9883,65.5,279.9883" style="stroke:#181818;stroke-width:1.0;"/><line style="stroke:#181818;stroke-width:1.0;" x1="63.5" x2="487.5" y1="279.9883" y2="279.9883"/><text fill="#000000" font-family="sans-serif" font-size="13" lengthAdjust="spacing" textLength="247" x="75.5" y="274.7256">RESPONSE ready to deliver real-time data</text><path d="M234,292.9883 L234,319.9883 L483,319.9883 L483,302.9883 L473,292.9883 L234,292.9883 " fill="#FEFFDD" style="stroke:#181818;stroke-width:0.5;"/><path d="M473,292.9883 L473,302.9883 L483,302.9883 L473,292.9883 " fill="#FEFFDD" style="stroke:#181818;stroke-width:0.5;"/><text fill="#000000" font-family="sans-serif" font-size="13" lengthAdjust="spacing" textLength="228" x="240" y="312.0166">Enter real-time data transmission mode</text><path d="M20,332.2793 L93,332.2793 L93,341.5703 L83,351.5703 L20,351.5703 L20,332.2793 " fill="#EEEEEE" style="stroke:#000000;stroke-width:1.5;"/><rect fill="none" height="81.873" style="stroke:#000000;stroke-width:1.5;" width="542.5" x="20" y="332.2793"/><text fill="#000000" font-family="sans-serif" font-size="13" font-weight="bold" lengthAdjust="spacing" textLength="28" x="35" y="347.3076">loop</text><text fill="#000000" font-family="sans-serif" font-size="11" font-weight="bold" lengthAdjust="spacing" textLength="142" x="108" y="346.1494">[Collecting real-time data]</text><polygon fill="#181818" points="69.5,370.8613,59.5,374.8613,69.5,378.8613,65.5,374.8613" style="stroke:#181818;stroke-width:1.0;"/><line style="stroke:#181818;stroke-width:1.0;" x1="63.5" x2="487.5" y1="374.8613" y2="374.8613"/><text fill="#000000" font-family="sans-serif" font-size="13" lengthAdjust="spacing" textLength="203" x="75.5" y="369.5986">SEND real-time data by REQUEST</text><polygon fill="#181818" points="476.5,402.1523,486.5,406.1523,476.5,410.1523,480.5,406.1523" style="stroke:#181818;stroke-width:1.0;"/><line style="stroke:#181818;stroke-width:1.0;" x1="58.5" x2="482.5" y1="406.1523" y2="406.1523"/><text fill="#000000" font-family="sans-serif" font-size="13" lengthAdjust="spacing" textLength="158" x="65.5" y="400.8896">RESPONSE data collected</text><polygon fill="#181818" points="476.5,440.4434,486.5,444.4434,476.5,448.4434,480.5,444.4434" style="stroke:#181818;stroke-width:1.0;"/><line style="stroke:#181818;stroke-width:1.0;" x1="58.5" x2="482.5" y1="444.4434" y2="444.4434"/><text fill="#000000" font-family="sans-serif" font-size="13" lengthAdjust="spacing" textLength="223" x="65.5" y="439.1807">REQUEST stop sending real-time data</text><path d="M242,457.4434 L242,484.4434 L483,484.4434 L483,467.4434 L473,457.4434 L242,457.4434 " fill="#FEFFDD" style="stroke:#181818;stroke-width:0.5;"/><path d="M473,457.4434 L473,467.4434 L483,467.4434 L473,457.4434 " fill="#FEFFDD" style="stroke:#181818;stroke-width:0.5;"/><text fill="#000000" font-family="sans-serif" font-size="13" lengthAdjust="spacing" textLength="220" x="248" y="476.4717">Exit real-time data transmission mode</text><polygon fill="#181818" points="69.5,509.0254,59.5,513.0254,69.5,517.0254,65.5,513.0254" style="stroke:#181818;stroke-width:1.0;"/><line style="stroke:#181818;stroke-width:1.0;" x1="63.5" x2="487.5" y1="513.0254" y2="513.0254"/><text fill="#000000" font-family="sans-serif" font-size="13" lengthAdjust="spacing" textLength="201" x="75.5" y="507.7627">RESPONSE transmission stopped</text><polygon fill="#181818" points="69.5,540.3164,59.5,544.3164,69.5,548.3164,65.5,544.3164" style="stroke:#181818;stroke-width:1.0;"/><line style="stroke:#181818;stroke-width:1.0;" x1="63.5" x2="487.5" y1="544.3164" y2="544.3164"/><text fill="#000000" font-family="sans-serif" font-size="13" lengthAdjust="spacing" textLength="114" x="75.5" y="539.0537">Information received</text><path d="M10,559.3164 L75,559.3164 L75,568.6074 L65,578.6074 L10,578.6074 L10,559.3164 " fill="#EEEEEE" style="stroke:#000000;stroke-width:1.5;"/><rect fill="none" height="220.377" style="stroke:#000000;stroke-width:1.5;" width="562.5" x="10" y="559.3164"/><text fill="#000000" font-family="sans-serif" font-size="13" font-weight="bold" lengthAdjust="spacing" textLength="20" x="25" y="574.3447">opt</text><text fill="#000000" font-family="sans-serif" font-size="11" font-weight="bold" lengthAdjust="spacing" textLength="161" x="90" y="573.1865">[Unable to receive RESPONSE]</text><line style="stroke:#181818;stroke-width:1.0;" x1="58.5" x2="100.5" y1="601.8984" y2="601.8984"/><line style="stroke:#181818;stroke-width:1.0;" x1="100.5" x2="100.5" y1="601.8984" y2="614.8984"/><line style="stroke:#181818;stroke-width:1.0;" x1="59.5" x2="100.5" y1="614.8984" y2="614.8984"/><polygon fill="#181818" points="69.5,610.8984,59.5,614.8984,69.5,618.8984,65.5,614.8984" style="stroke:#181818;stroke-width:1.0;"/><text fill="#000000" font-family="sans-serif" font-size="13" lengthAdjust="spacing" textLength="217" x="65.5" y="596.6357">Retry 3 times with 0.5-second interval</text><path d="M20,629.8984 L81,629.8984 L81,639.1895 L71,649.1895 L20,649.1895 L20,629.8984 " fill="#EEEEEE" style="stroke:#000000;stroke-width:1.5;"/><rect fill="none" height="142.7949" style="stroke:#000000;stroke-width:1.5;" width="542.5" x="20" y="629.8984"/><text fill="#000000" font-family="sans-serif" font-size="13" font-weight="bold" lengthAdjust="spacing" textLength="16" x="35" y="644.9268">alt</text><text fill="#000000" font-family="sans-serif" font-size="11" font-weight="bold" lengthAdjust="spacing" textLength="121" x="96" y="643.7686">[Retry limit exceeded]</text><line style="stroke:#181818;stroke-width:1.0;" x1="58.5" x2="100.5" y1="672.4805" y2="672.4805"/><line style="stroke:#181818;stroke-width:1.0;" x1="100.5" x2="100.5" y1="672.4805" y2="685.4805"/><line style="stroke:#181818;stroke-width:1.0;" x1="59.5" x2="100.5" y1="685.4805" y2="685.4805"/><polygon fill="#181818" points="69.5,681.4805,59.5,685.4805,69.5,689.4805,65.5,685.4805" style="stroke:#181818;stroke-width:1.0;"/><text fill="#000000" font-family="sans-serif" font-size="13" lengthAdjust="spacing" textLength="416" x="65.5" y="667.2178">Confirm embedded system is unreachable, end use case with exception</text><line style="stroke:#000000;stroke-width:1.0;stroke-dasharray:2.0,2.0;" x1="20" x2="562.5" y1="694.4805" y2="694.4805"/><text fill="#000000" font-family="sans-serif" font-size="11" font-weight="bold" lengthAdjust="spacing" textLength="169" x="25" y="706.3506">[Embedded system responds]</text><polygon fill="#181818" points="476.5,729.4023,486.5,733.4023,476.5,737.4023,480.5,733.4023" style="stroke:#181818;stroke-width:1.0;"/><line style="stroke:#181818;stroke-width:1.0;" x1="58.5" x2="482.5" y1="733.4023" y2="733.4023"/><text fill="#000000" font-family="sans-serif" font-size="13" lengthAdjust="spacing" textLength="223" x="65.5" y="728.1396">REQUEST stop sending real-time data</text><polygon fill="#181818" points="69.5,760.6934,59.5,764.6934,69.5,768.6934,65.5,764.6934" style="stroke:#181818;stroke-width:1.0;"/><line style="stroke:#181818;stroke-width:1.0;" x1="63.5" x2="487.5" y1="764.6934" y2="764.6934"/><text fill="#000000" font-family="sans-serif" font-size="13" lengthAdjust="spacing" textLength="201" x="75.5" y="759.4307">RESPONSE transmission stopped</text><!--SRC=[dPDDRzim38Rl_XKyRi0y32Xs6OO1G-j3BrbMhxTT68bPXUh34vca_lUZv3H3d6mDwaCSKEBBXozfSU89xkZtXbZqZRuL5mXkK13UVEKnchSD6aaPUifRoWq_kZXWnW0rtCke0hWZJe4QFH1dt81He0ihifPiFx9GQ9gOXC3JMY2jPuUVO9cflKxHEd4fyi_OmZBjA4EAvV-2P9Vo8-0MdSULfnfC0Yv2FZ3RmYmP8mV7h3eGagMccS2X_N9IzQxxVj_rF-OQEoSFm1W6x-8lo2WgSfnQn2RP8j8llotwhgZO4II19UzAnMFP5npeefoadEl6fpJ0TVAUZ5IyuoAWpxzP-svnCw-n6fzzgCd_SslVQ4qp4mBPXgAzn6GM1MUzV8Rw1MkUd5pWp0KZEiegG0FzPV_SdbI-ZUkK0vQbL013EbQzdmQ1-rZsi4nx7pyKcRbuO2398rn1QO6d5Vlm_cFBP7JjTP5r-blqDHczxAzx5xHrUZ94IbKFpwlhjxDsEG3j6m2UJ70CcwZMcOU2-mxKVjWmWK7zgH15V2WDLdNo6kzc8fbuK4W-K_yrmtvMUUsyAcUiU_S7]--></g></svg>