<?xml version="1.0" encoding="UTF-8" standalone="no"?>
<svg
   xmlns:dc="http://purl.org/dc/elements/1.1/"
   xmlns:cc="http://creativecommons.org/ns#"
   xmlns:rdf="http://www.w3.org/1999/02/22-rdf-syntax-ns#"
   xmlns:svg="http://www.w3.org/2000/svg"
   xmlns="http://www.w3.org/2000/svg"
   viewBox="0 0 1611.64 987.93335"
   height="987.93335"
   width="1611.64"
   xml:space="preserve"
   id="svg2"
   version="1.1"><metadata
     id="metadata8"><rdf:RDF><cc:Work
         rdf:about=""><dc:format>image/svg+xml</dc:format><dc:type
           rdf:resource="http://purl.org/dc/dcmitype/StillImage" /></cc:Work></rdf:RDF></metadata><defs
     id="defs6" /><g
     transform="matrix(1.3333333,0,0,-1.3333333,0,987.93333)"
     id="g10"><g
       transform="scale(0.1)"
       id="g12"><g
         transform="scale(1.21352)"
         id="g14"><path
           id="path16"
           style="fill:none;stroke:#b1b0b0;stroke-width:16.4810009;stroke-linecap:round;stroke-linejoin:round;stroke-miterlimit:10;stroke-dasharray:none;stroke-opacity:1"
           d="M -3919.5,-2983.98 H 16300 V 6530.11 H -3919.5 Z" /></g><path
         id="path18"
         style="fill:#ffffff;fill-opacity:1;fill-rule:evenodd;stroke:none"
         d="m 5711.92,5222.9 c 0,93.9 -253.8,170 -566.9,170 -313.1,0 -566.9,-76.1 -566.9,-170 0,-94 253.8,-170.1 566.9,-170.1 313.1,0 566.9,76.1 566.9,170.1" /><path
         id="path20"
         style="fill:none;stroke:#b1b0b0;stroke-width:20;stroke-linecap:round;stroke-linejoin:round;stroke-miterlimit:10;stroke-dasharray:none;stroke-opacity:1"
         d="m 5711.92,5222.9 c 0,93.9 -253.8,170 -566.9,170 -313.1,0 -566.9,-76.1 -566.9,-170 0,-94 253.8,-170.1 566.9,-170.1 313.1,0 566.9,76.1 566.9,170.1 z" /><g
         transform="scale(10)"
         id="g22"><text
           id="text26"
           style="font-variant:normal;font-weight:normal;font-size:18px;font-family:Calibri;-inkscape-font-specification:Calibri;writing-mode:lr-tb;fill:#727071;fill-opacity:1;fill-rule:nonzero;stroke:none"
           transform="matrix(1,0,0,-1,483.162,516.85)"><tspan
             id="tspan24"
             y="0"
             x="0 11.556 18.594 27.558001 33.84 38.375999 47.753929 53.243931">UserInfo</tspan></text>
</g><path
         id="path28"
         style="fill:#ffffff;fill-opacity:1;fill-rule:evenodd;stroke:none"
         d="m 4033.82,6903.9 c 0,94 -264,170.1 -589.6,170.1 -325.6,0 -589.5,-76.1 -589.5,-170.1 0,-93.9 263.9,-170.1 589.5,-170.1 325.6,0 589.6,76.2 589.6,170.1" /><path
         id="path30"
         style="fill:none;stroke:#b1b0b0;stroke-width:20;stroke-linecap:round;stroke-linejoin:round;stroke-miterlimit:10;stroke-dasharray:none;stroke-opacity:1"
         d="m 4033.82,6903.9 c 0,94 -264,170.1 -589.6,170.1 -325.6,0 -589.5,-76.1 -589.5,-170.1 0,-93.9 263.9,-170.1 589.5,-170.1 325.6,0 589.6,76.2 589.6,170.1 z" /><g
         transform="scale(10)"
         id="g32"><text
           id="text36"
           style="font-variant:normal;font-weight:normal;font-size:18.02400017px;font-family:Calibri;-inkscape-font-specification:Calibri;writing-mode:lr-tb;fill:#727071;fill-opacity:1;fill-rule:nonzero;stroke:none"
           transform="matrix(1,0,0,-1,291.542,684.99)"><tspan
             id="tspan34"
             y="0"
             x="0 11.373144 20.277025 26.387259 35.633522 44.609474 50.899849 57.947235 67.445885 76.908485 81.360413 90.823013 96.320328">GetPersonInfo</tspan></text>
</g><path
         id="path38"
         style="fill:#ffffff;fill-opacity:1;fill-rule:evenodd;stroke:none"
         d="m 3168.02,6283 c 0,94 -257.1,170.1 -574.2,170.1 -317,0 -574.1,-76.1 -574.1,-170.1 0,-93.9 257.1,-170.1 574.1,-170.1 317.1,0 574.2,76.2 574.2,170.1" /><path
         id="path40"
         style="fill:none;stroke:#b1b0b0;stroke-width:20;stroke-linecap:round;stroke-linejoin:round;stroke-miterlimit:10;stroke-dasharray:none;stroke-opacity:1"
         d="m 3168.02,6283 c 0,94 -257.1,170.1 -574.2,170.1 -317,0 -574.1,-76.1 -574.1,-170.1 0,-93.9 257.1,-170.1 574.1,-170.1 317.1,0 574.2,76.2 574.2,170.1 z" /><g
         transform="scale(10)"
         id="g42"><text
           id="text46"
           style="font-variant:normal;font-weight:normal;font-size:18px;font-family:Calibri;-inkscape-font-specification:Calibri;writing-mode:lr-tb;fill:#727071;fill-opacity:1;fill-rule:nonzero;stroke:none"
           transform="matrix(1,0,0,-1,208.052,622.88)"><tspan
             id="tspan44"
             y="0"
             x="0 8.2620001 17.226 23.256001 32.562 41.526001 47.807999 54.846001 64.332001 73.781998 78.318001 87.767998 93.258003">SetPersonInfo</tspan></text>
</g><path
         id="path48"
         style="fill:#ffffff;fill-opacity:1;fill-rule:evenodd;stroke:none"
         d="m 6573.42,7074 c 0,93.9 -258.8,170.1 -578,170.1 -319.2,0 -577.9,-76.2 -577.9,-170.1 0,-93.9 258.7,-170.1 577.9,-170.1 319.2,0 578,76.2 578,170.1" /><path
         id="path50"
         style="fill:none;stroke:#b1b0b0;stroke-width:20;stroke-linecap:round;stroke-linejoin:round;stroke-miterlimit:10;stroke-dasharray:none;stroke-opacity:1"
         d="m 6573.42,7074 c 0,93.9 -258.8,170.1 -578,170.1 -319.2,0 -577.9,-76.2 -577.9,-170.1 0,-93.9 258.7,-170.1 577.9,-170.1 319.2,0 578,76.2 578,170.1 z" /><g
         transform="scale(10)"
         id="g52"><text
           id="text56"
           style="font-variant:normal;font-weight:normal;font-size:18px;font-family:Calibri;-inkscape-font-specification:Calibri;writing-mode:lr-tb;fill:#727071;fill-opacity:1;fill-rule:nonzero;stroke:none"
           transform="matrix(1,0,0,-1,547.842,701.98)"><tspan
             id="tspan54"
             y="0"
             x="0 11.358 20.322001 26.351999 37.908001 44.874077 53.838078 60.120075 71.478073 80.981979 85.067802 94.517799">GetUserGuide</tspan></text>
</g><path
         id="path58"
         style="fill:#ffffff;fill-opacity:1;fill-rule:evenodd;stroke:none"
         d="m 8157.82,5486.6 c 0,93.9 -324.1,170.1 -723.8,170.1 -399.8,0 -723.8,-76.2 -723.8,-170.1 0,-93.9 324,-170.1 723.8,-170.1 399.7,0 723.8,76.2 723.8,170.1" /><path
         id="path60"
         style="fill:none;stroke:#b1b0b0;stroke-width:20;stroke-linecap:round;stroke-linejoin:round;stroke-miterlimit:10;stroke-dasharray:none;stroke-opacity:1"
         d="m 8157.82,5486.6 c 0,93.9 -324.1,170.1 -723.8,170.1 -399.8,0 -723.8,-76.2 -723.8,-170.1 0,-93.9 324,-170.1 723.8,-170.1 399.7,0 723.8,76.2 723.8,170.1 z" /><g
         transform="scale(10)"
         id="g62"><text
           id="text66"
           style="font-variant:normal;font-weight:normal;font-size:18px;font-family:Calibri;-inkscape-font-specification:Calibri;writing-mode:lr-tb;fill:#727071;fill-opacity:1;fill-rule:nonzero;stroke:none"
           transform="matrix(1,0,0,-1,677.102,543.22)"><tspan
             id="tspan64"
             y="0"
             x="0 11.07 19.691999 25.722 34.344002 49.734001 58.355999 67.806 76.428001 84.959908 93.833908 108.2159 117.23381 126.59367">DataManagement</tspan></text>
</g><path
         id="path68"
         style="fill:#ffffff;fill-opacity:1;fill-rule:evenodd;stroke:none"
         d="m 8646.02,7074 c 0,93.9 -253.9,170.1 -567,170.1 -313.1,0 -566.9,-76.2 -566.9,-170.1 0,-93.9 253.8,-170.1 566.9,-170.1 313.1,0 567,76.2 567,170.1" /><path
         id="path70"
         style="fill:none;stroke:#b1b0b0;stroke-width:20;stroke-linecap:round;stroke-linejoin:round;stroke-miterlimit:10;stroke-dasharray:none;stroke-opacity:1"
         d="m 8646.02,7074 c 0,93.9 -253.9,170.1 -567,170.1 -313.1,0 -566.9,-76.2 -566.9,-170.1 0,-93.9 253.8,-170.1 566.9,-170.1 313.1,0 567,76.2 567,170.1 z" /><g
         transform="scale(10)"
         id="g72"><text
           id="text76"
           style="font-variant:normal;font-weight:normal;font-size:18px;font-family:Calibri;-inkscape-font-specification:Calibri;writing-mode:lr-tb;fill:#727071;fill-opacity:1;fill-rule:nonzero;stroke:none"
           transform="matrix(1,0,0,-1,777.622,701.98)"><tspan
             id="tspan74"
             y="0"
             x="0 11.358 20.322001 26.351999 37.422001 46.043999 52.074001">GetData</tspan></text>
</g><path
         id="path78"
         style="fill:#ffffff;fill-opacity:1;fill-rule:evenodd;stroke:none"
         d="m 10814.3,6648.8 c 0,93.9 -253.8,170.1 -566.9,170.1 -313.08,0 -566.98,-76.2 -566.98,-170.1 0,-93.9 253.9,-170.1 566.98,-170.1 313.1,0 566.9,76.2 566.9,170.1" /><path
         id="path80"
         style="fill:none;stroke:#b1b0b0;stroke-width:20;stroke-linecap:round;stroke-linejoin:round;stroke-miterlimit:10;stroke-dasharray:none;stroke-opacity:1"
         d="m 10814.3,6648.8 c 0,93.9 -253.8,170.1 -566.9,170.1 -313.08,0 -566.98,-76.2 -566.98,-170.1 0,-93.9 253.9,-170.1 566.98,-170.1 313.1,0 566.9,76.2 566.9,170.1 z" /><g
         transform="scale(10)"
         id="g82"><text
           id="text86"
           style="font-variant:normal;font-weight:normal;font-size:18px;font-family:Calibri;-inkscape-font-specification:Calibri;writing-mode:lr-tb;fill:#727071;fill-opacity:1;fill-rule:nonzero;stroke:none"
           transform="matrix(1,0,0,-1,980.542,659.46)"><tspan
             id="tspan84"
             y="0"
             x="0 11.07 15.210067 22.248066 29.862066 38.484066 44.766068 54.216068 65.286064 73.908066 79.938065">DiscardData</tspan></text>
</g><path
         id="path88"
         style="fill:#ffffff;fill-opacity:1;fill-rule:evenodd;stroke:none"
         d="m 11512.9,5486.6 c 0,93.9 -312.8,170.1 -698.6,170.1 -385.8,0 -698.6,-76.2 -698.6,-170.1 0,-93.9 312.8,-170.1 698.6,-170.1 385.8,0 698.6,76.2 698.6,170.1" /><path
         id="path90"
         style="fill:none;stroke:#b1b0b0;stroke-width:20;stroke-linecap:round;stroke-linejoin:round;stroke-miterlimit:10;stroke-dasharray:none;stroke-opacity:1"
         d="m 11512.9,5486.6 c 0,93.9 -312.8,170.1 -698.6,170.1 -385.8,0 -698.6,-76.2 -698.6,-170.1 0,-93.9 312.8,-170.1 698.6,-170.1 385.8,0 698.6,76.2 698.6,170.1 z" /><g
         transform="scale(10)"
         id="g92"><text
           id="text96"
           style="font-variant:normal;font-weight:normal;font-size:18px;font-family:Calibri;-inkscape-font-specification:Calibri;writing-mode:lr-tb;fill:#727071;fill-opacity:1;fill-rule:nonzero;stroke:none"
           transform="matrix(1,0,0,-1,1017.69,543.22)"><tspan
             id="tspan94"
             y="0"
             x="0 9.5939999 19.044001 27.702133 37.061996 45.539997 54.558098 65.628098 74.250099 80.280098 88.9021 96.462097 105.0841 114.5341 123.44419">ChangeDataLabel</tspan></text>
</g><path
         id="path98"
         style="fill:#ffffff;fill-opacity:1;fill-rule:evenodd;stroke:none"
         d="m 3972.82,3794.2 c 0,93.9 -253.8,170.1 -566.9,170.1 -313.1,0 -567,-76.2 -567,-170.1 0,-93.9 253.9,-170.1 567,-170.1 313.1,0 566.9,76.2 566.9,170.1" /><path
         id="path100"
         style="fill:none;stroke:#b1b0b0;stroke-width:20;stroke-linecap:round;stroke-linejoin:round;stroke-miterlimit:10;stroke-dasharray:none;stroke-opacity:1"
         d="m 3972.82,3794.2 c 0,93.9 -253.8,170.1 -566.9,170.1 -313.1,0 -567,-76.2 -567,-170.1 0,-93.9 253.9,-170.1 567,-170.1 313.1,0 566.9,76.2 566.9,170.1 z" /><g
         transform="scale(10)"
         id="g102"><text
           id="text106"
           style="font-variant:normal;font-weight:normal;font-size:18px;font-family:Calibri;-inkscape-font-specification:Calibri;writing-mode:lr-tb;fill:#727071;fill-opacity:1;fill-rule:nonzero;stroke:none"
           transform="matrix(1,0,0,-1,299.922,373.98)"><tspan
             id="tspan104"
             y="0"
             x="0 9.2339544 15.569934 24.443968 33.893967 49.283966 58.859886 68.219749 77.183746">PredModel</tspan></text>
</g><path
         id="path108"
         style="fill:#ffffff;fill-opacity:1;fill-rule:evenodd;stroke:none"
         d="m 2397.42,5222.9 c 0,93.9 -253.9,170 -567,170 -313.1,0 -566.9,-76.1 -566.9,-170 0,-94 253.8,-170.1 566.9,-170.1 313.1,0 567,76.1 567,170.1" /><path
         id="path110"
         style="fill:none;stroke:#b1b0b0;stroke-width:20;stroke-linecap:round;stroke-linejoin:round;stroke-miterlimit:10;stroke-dasharray:none;stroke-opacity:1"
         d="m 2397.42,5222.9 c 0,93.9 -253.9,170 -567,170 -313.1,0 -566.9,-76.1 -566.9,-170 0,-94 253.8,-170.1 566.9,-170.1 313.1,0 567,76.1 567,170.1 z" /><g
         transform="scale(10)"
         id="g112"><text
           id="text116"
           style="font-variant:normal;font-weight:normal;font-size:18px;font-family:Calibri;-inkscape-font-specification:Calibri;writing-mode:lr-tb;fill:#727071;fill-opacity:1;fill-rule:nonzero;stroke:none"
           transform="matrix(1,0,0,-1,138.982,516.85)"><tspan
             id="tspan114"
             y="0"
             x="0 9.7740002 18.738001 25.775999 34.68602 40.788128 56.178127 65.664131 75.114128 83.988159">ResetModel</tspan></text>
</g><path
         id="path118"
         style="fill:#ffffff;fill-opacity:1;fill-rule:evenodd;stroke:none"
         d="m 1420.72,4069.3 c 0,93.9 -299.7,170.1 -669.404,170.1 -369.699,0 -669.3004,-76.2 -669.3004,-170.1 0,-94 299.6014,-170.1 669.3004,-170.1 369.704,0 669.404,76.1 669.404,170.1" /><path
         id="path120"
         style="fill:none;stroke:#b1b0b0;stroke-width:20;stroke-linecap:round;stroke-linejoin:round;stroke-miterlimit:10;stroke-dasharray:none;stroke-opacity:1"
         d="m 1420.72,4069.3 c 0,93.9 -299.7,170.1 -669.404,170.1 -369.699,0 -669.3004,-76.2 -669.3004,-170.1 0,-94 299.6014,-170.1 669.3004,-170.1 369.704,0 669.404,76.1 669.404,170.1 z" /><g
         transform="scale(10)"
         id="g122"><text
           id="text126"
           style="font-variant:normal;font-weight:normal;font-size:18px;font-family:Calibri;-inkscape-font-specification:Calibri;writing-mode:lr-tb;fill:#727071;fill-opacity:1;fill-rule:nonzero;stroke:none"
           transform="matrix(1,0,0,-1,14.2516,401.48)"><tspan
             id="tspan124"
             y="0"
             x="0 9.2339802 15.56995 24.44397 33.89397 45.44997 52.487968 61.506035 67.788033 83.105934 92.591934 98.694038 102.77998 112.26598">PredUserMotion</tspan></text>
</g><path
         id="path128"
         style="fill:#ffffff;fill-opacity:1;fill-rule:evenodd;stroke:none"
         d="m 2379.52,2793.7 c 0,93.9 -287.8,170.1 -642.8,170.1 -355.1,0 -642.9,-76.2 -642.9,-170.1 0,-93.9 287.8,-170.1 642.9,-170.1 355,0 642.8,76.2 642.8,170.1" /><path
         id="path130"
         style="fill:none;stroke:#b1b0b0;stroke-width:20;stroke-linecap:round;stroke-linejoin:round;stroke-miterlimit:10;stroke-dasharray:none;stroke-opacity:1"
         d="m 2379.52,2793.7 c 0,93.9 -287.8,170.1 -642.8,170.1 -355.1,0 -642.9,-76.2 -642.9,-170.1 0,-93.9 287.8,-170.1 642.9,-170.1 355,0 642.8,76.2 642.8,170.1 z" /><g
         transform="scale(10)"
         id="g132"><text
           id="text136"
           style="font-variant:normal;font-weight:normal;font-size:18px;font-family:Calibri;-inkscape-font-specification:Calibri;writing-mode:lr-tb;fill:#727071;fill-opacity:1;fill-rule:nonzero;stroke:none"
           transform="matrix(1,0,0,-1,115.462,273.92)"><tspan
             id="tspan134"
             y="0"
             x="0 8.2620001 17.712 27.198 40.068001 55.458 64.944 74.393997 83.358002 87.497894 92.033897 101.48389 107.0278">ShowModelInfo</tspan></text>
</g><path
         id="path138"
         style="fill:#ffffff;fill-opacity:1;fill-rule:evenodd;stroke:none"
         d="m 7221.42,2085 c 0,94 -253.8,170.1 -566.9,170.1 -313.1,0 -567,-76.1 -567,-170.1 0,-93.9 253.9,-170 567,-170 313.1,0 566.9,76.1 566.9,170" /><path
         id="path140"
         style="fill:none;stroke:#b1b0b0;stroke-width:20;stroke-linecap:round;stroke-linejoin:round;stroke-miterlimit:10;stroke-dasharray:none;stroke-opacity:1"
         d="m 7221.42,2085 c 0,94 -253.8,170.1 -566.9,170.1 -313.1,0 -567,-76.1 -567,-170.1 0,-93.9 253.9,-170 567,-170 313.1,0 566.9,76.1 566.9,170 z" /><g
         transform="scale(10)"
         id="g142"><text
           id="text146"
           style="font-variant:normal;font-weight:normal;font-size:18px;font-family:Calibri;-inkscape-font-specification:Calibri;writing-mode:lr-tb;fill:#727071;fill-opacity:1;fill-rule:nonzero;stroke:none"
           transform="matrix(1,0,0,-1,625.462,203.05)"><tspan
             id="tspan144"
             y="0"
             x="0 8.7840004 18.233999 27.684 31.823822 41.273823 55.655823 64.655823 74.015686">Equipment</tspan></text>
</g><path
         id="path148"
         style="fill:#ffffff;fill-opacity:1;fill-rule:evenodd;stroke:none"
         d="m 4149.52,951.199 c 0,93.901 -280.2,170.101 -625.8,170.101 -345.6,0 -625.7,-76.2 -625.7,-170.101 0,-94 280.1,-170.097 625.7,-170.097 345.6,0 625.8,76.097 625.8,170.097" /><path
         id="path150"
         style="fill:none;stroke:#b1b0b0;stroke-width:20;stroke-linecap:round;stroke-linejoin:round;stroke-miterlimit:10;stroke-dasharray:none;stroke-opacity:1"
         d="m 4149.52,951.199 c 0,93.901 -280.2,170.101 -625.8,170.101 -345.6,0 -625.7,-76.2 -625.7,-170.101 0,-94 280.1,-170.097 625.7,-170.097 345.6,0 625.8,76.097 625.8,170.097 z" /><g
         transform="scale(10)"
         id="g152"><text
           id="text156"
           style="font-variant:normal;font-weight:normal;font-size:18px;font-family:Calibri;-inkscape-font-specification:Calibri;writing-mode:lr-tb;fill:#727071;fill-opacity:1;fill-rule:nonzero;stroke:none"
           transform="matrix(1,0,0,-1,295.862,89.65)"><tspan
             id="tspan154"
             y="0"
             x="0 11.358 20.322001 26.351999 35.136002 44.621841 53.98175 58.157658 67.607658 75.869659 81.899658 90.52166 96.551659 106.00166">GetEquipStatus</tspan></text>
</g><path
         id="path158"
         style="fill:#ffffff;fill-opacity:1;fill-rule:evenodd;stroke:none"
         d="m 5145.02,384.199 c 0,94 -253.8,170.102 -566.9,170.102 -313.1,0 -566.9,-76.102 -566.9,-170.102 0,-93.898 253.8,-170 566.9,-170 313.1,0 566.9,76.102 566.9,170" /><path
         id="path160"
         style="fill:none;stroke:#b1b0b0;stroke-width:20;stroke-linecap:round;stroke-linejoin:round;stroke-miterlimit:10;stroke-dasharray:none;stroke-opacity:1"
         d="m 5145.02,384.199 c 0,94 -253.8,170.102 -566.9,170.102 -313.1,0 -566.9,-76.102 -566.9,-170.102 0,-93.898 253.8,-170 566.9,-170 313.1,0 566.9,76.102 566.9,170 z" /><g
         transform="scale(10)"
         id="g162"><text
           id="text166"
           style="font-variant:normal;font-weight:normal;font-size:18px;font-family:Calibri;-inkscape-font-specification:Calibri;writing-mode:lr-tb;fill:#727071;fill-opacity:1;fill-rule:nonzero;stroke:none"
           transform="matrix(1,0,0,-1,410.462,32.9398)"><tspan
             id="tspan164"
             y="0"
             x="0 11.556 21.006001 30.455999 34.59597 44.045967 53.495968 62.279968 71.729965 81.215805 85.301727">UnbindEquip</tspan></text>
</g><path
         id="path168"
         style="fill:#ffffff;fill-opacity:1;fill-rule:evenodd;stroke:none"
         d="m 7074.52,384.199 c 0,94 -253.8,170.102 -566.9,170.102 -313.1,0 -566.9,-76.102 -566.9,-170.102 0,-93.898 253.8,-170 566.9,-170 313.1,0 566.9,76.102 566.9,170" /><path
         id="path170"
         style="fill:none;stroke:#b1b0b0;stroke-width:20;stroke-linecap:round;stroke-linejoin:round;stroke-miterlimit:10;stroke-dasharray:none;stroke-opacity:1"
         d="m 7074.52,384.199 c 0,94 -253.8,170.102 -566.9,170.102 -313.1,0 -566.9,-76.102 -566.9,-170.102 0,-93.898 253.8,-170 566.9,-170 313.1,0 566.9,76.102 566.9,170 z" /><g
         transform="scale(10)"
         id="g172"><text
           id="text176"
           style="font-variant:normal;font-weight:normal;font-size:18px;font-family:Calibri;-inkscape-font-specification:Calibri;writing-mode:lr-tb;fill:#727071;fill-opacity:1;fill-rule:nonzero;stroke:none"
           transform="matrix(1,0,0,-1,609.472,32.9398)"><tspan
             id="tspan174"
             y="0"
             x="0 9.5939999 19.08 23.255857 27.341774 36.305775 43.919773 49.949772 59.399773 68.021774 74.051773">Collectdata</tspan></text>
</g><path
         id="path178"
         style="fill:#ffffff;fill-opacity:1;fill-rule:evenodd;stroke:none"
         d="m 8404.92,384.199 c 0,94 -253.9,170.102 -567,170.102 -313.1,0 -566.9,-76.102 -566.9,-170.102 0,-93.898 253.8,-170 566.9,-170 313.1,0 567,76.102 567,170" /><path
         id="path180"
         style="fill:none;stroke:#b1b0b0;stroke-width:20;stroke-linecap:round;stroke-linejoin:round;stroke-miterlimit:10;stroke-dasharray:none;stroke-opacity:1"
         d="m 8404.92,384.199 c 0,94 -253.9,170.102 -567,170.102 -313.1,0 -566.9,-76.102 -566.9,-170.102 0,-93.898 253.8,-170 566.9,-170 313.1,0 567,76.102 567,170 z" /><g
         transform="scale(10)"
         id="g182"><text
           id="text186"
           style="font-variant:normal;font-weight:normal;font-size:18px;font-family:Calibri;-inkscape-font-specification:Calibri;writing-mode:lr-tb;fill:#727071;fill-opacity:1;fill-rule:nonzero;stroke:none"
           transform="matrix(1,0,0,-1,735.542,32.9398)"><tspan
             id="tspan184"
             y="0"
             x="0 11.358 20.322001 26.351999 35.136002 44.621841 53.981705 58.157703 67.607704 72.071732 81.521729 87.047569">GetEquipInfo</tspan></text>
</g><path
         id="path188"
         style="fill:#ffffff;fill-opacity:1;fill-rule:evenodd;stroke:none"
         d="m 9683.32,1263 c 0,93.9 -255.1,170.1 -569.8,170.1 -314.7,0 -569.8,-76.2 -569.8,-170.1 0,-93.9 255.1,-170.1 569.8,-170.1 314.7,0 569.8,76.2 569.8,170.1" /><path
         id="path190"
         style="fill:none;stroke:#b1b0b0;stroke-width:20;stroke-linecap:round;stroke-linejoin:round;stroke-miterlimit:10;stroke-dasharray:none;stroke-opacity:1"
         d="m 9683.32,1263 c 0,93.9 -255.1,170.1 -569.8,170.1 -314.7,0 -569.8,-76.2 -569.8,-170.1 0,-93.9 255.1,-170.1 569.8,-170.1 314.7,0 569.8,76.2 569.8,170.1 z" /><g
         transform="scale(10)"
         id="g192"><text
           id="text196"
           style="font-variant:normal;font-weight:normal;font-size:18px;font-family:Calibri;-inkscape-font-specification:Calibri;writing-mode:lr-tb;fill:#727071;fill-opacity:1;fill-rule:nonzero;stroke:none"
           transform="matrix(1,0,0,-1,860.492,120.82)"><tspan
             id="tspan194"
             y="0"
             x="0 9.5939999 19.08 28.530001 38.015839 46.8899 54.557999 60.588001 69.372002 78.821999 88.272003 92.357964">ConnectEquip</tspan></text>
</g><path
         id="path198"
         style="fill:#ffffff;fill-opacity:1;fill-rule:evenodd;stroke:none"
         d="m 2452.12,1518.1 c 0,93.9 -253.8,170.1 -566.9,170.1 -313.1,0 -567,-76.2 -567,-170.1 0,-93.9 253.9,-170.1 567,-170.1 313.1,0 566.9,76.2 566.9,170.1" /><path
         id="path200"
         style="fill:none;stroke:#b1b0b0;stroke-width:20;stroke-linecap:round;stroke-linejoin:round;stroke-miterlimit:10;stroke-dasharray:none;stroke-opacity:1"
         d="m 2452.12,1518.1 c 0,93.9 -253.8,170.1 -566.9,170.1 -313.1,0 -567,-76.2 -567,-170.1 0,-93.9 253.9,-170.1 567,-170.1 313.1,0 566.9,76.2 566.9,170.1 z" /><g
         transform="scale(10)"
         id="g202"><text
           id="text206"
           style="font-variant:normal;font-weight:normal;font-size:18px;font-family:Calibri;-inkscape-font-specification:Calibri;writing-mode:lr-tb;fill:#727071;fill-opacity:1;fill-rule:nonzero;stroke:none"
           transform="matrix(1,0,0,-1,162.092,146.34)"><tspan
             id="tspan204"
             y="0"
             x="0 7.5599999 17.046 25.524 37.439999 46.889999">LogOut</tspan></text>
</g><path
         id="path208"
         style="fill:none;stroke:#b1b0b0;stroke-width:22.5;stroke-linecap:round;stroke-linejoin:round;stroke-miterlimit:10;stroke-dasharray:157.5, 112.5;stroke-dashoffset:0;stroke-opacity:1"
         d="M 6292.82,1954.1 3899.42,1087.2" /><path
         id="path210"
         style="fill:none;stroke:#b1b0b0;stroke-width:22.5;stroke-linecap:round;stroke-linejoin:round;stroke-miterlimit:10;stroke-dasharray:none;stroke-opacity:1"
         d="m 3928.02,1148.3 -28.6,-61.1 61,-28.6" /><path
         id="path212"
         style="fill:#ffffff;fill-opacity:1;fill-rule:evenodd;stroke:none"
         d="m 4749.72,1436.6 h 692.68 v 168 h -692.68 z" /><g
         transform="scale(10)"
         id="g214"><text
           id="text218"
           style="font-variant:normal;font-weight:normal;font-size:14.03999996px;font-family:Calibri;-inkscape-font-specification:Calibri;writing-mode:lr-tb;fill:#727071;fill-opacity:1;fill-rule:nonzero;stroke:none"
           transform="matrix(1,0,0,-1,475.022,147.8)"><tspan
             id="tspan216"
             y="0"
             x="0 6.99192 13.913625 17.142799 24.5138 30.452719 33.597664 41.024719 48.33947 55.33139 62.253143">&lt;&lt;include&gt;&gt;</tspan></text>
</g><path
         id="path220"
         style="fill:none;stroke:#b1b0b0;stroke-width:22.5;stroke-linecap:round;stroke-linejoin:round;stroke-miterlimit:10;stroke-dasharray:157.5, 112.5;stroke-dashoffset:0;stroke-opacity:1"
         d="M 6292.82,1954.1 3899.42,1087.2" /><path
         id="path222"
         style="fill:none;stroke:#b1b0b0;stroke-width:22.5;stroke-linecap:round;stroke-linejoin:round;stroke-miterlimit:10;stroke-dasharray:none;stroke-opacity:1"
         d="m 3928.02,1148.3 -28.6,-61.1 61,-28.6" /><path
         id="path224"
         style="fill:#ffffff;fill-opacity:1;fill-rule:evenodd;stroke:none"
         d="m 4749.72,1436.6 h 692.68 v 168 h -692.68 z" /><g
         transform="scale(10)"
         id="g226"><text
           id="text230"
           style="font-variant:normal;font-weight:normal;font-size:14.03999996px;font-family:Calibri;-inkscape-font-specification:Calibri;writing-mode:lr-tb;fill:#727071;fill-opacity:1;fill-rule:nonzero;stroke:none"
           transform="matrix(1,0,0,-1,475.022,147.8)"><tspan
             id="tspan228"
             y="0"
             x="0 6.99192 13.913625 17.142799 24.5138 30.452719 33.597664 41.024719 48.33947 55.33139 62.253143">&lt;&lt;include&gt;&gt;</tspan></text>
</g><path
         id="path232"
         style="fill:none;stroke:#b1b0b0;stroke-width:22.5;stroke-linecap:round;stroke-linejoin:round;stroke-miterlimit:10;stroke-dasharray:157.5, 112.5;stroke-dashoffset:0;stroke-opacity:1"
         d="M 6459.52,1925.3 4773.12,543.898" /><path
         id="path234"
         style="fill:none;stroke:#b1b0b0;stroke-width:22.5;stroke-linecap:round;stroke-linejoin:round;stroke-miterlimit:10;stroke-dasharray:none;stroke-opacity:1"
         d="m 4779.72,611.102 -6.6,-67.204 67.1,-6.597" /><path
         id="path236"
         style="fill:#ffffff;fill-opacity:1;fill-rule:evenodd;stroke:none"
         d="m 5269.92,1150.6 h 692.68 v 168 h -692.68 z" /><g
         transform="scale(10)"
         id="g238"><text
           id="text242"
           style="font-variant:normal;font-weight:normal;font-size:14.03999996px;font-family:Calibri;-inkscape-font-specification:Calibri;writing-mode:lr-tb;fill:#727071;fill-opacity:1;fill-rule:nonzero;stroke:none"
           transform="matrix(1,0,0,-1,527.062,119.19)"><tspan
             id="tspan240"
             y="0"
             x="0 6.99192 13.913625 17.142799 24.5138 30.452719 33.597664 41.024769 48.33947 55.33139 62.253143">&lt;&lt;include&gt;&gt;</tspan></text>
</g><path
         id="path244"
         style="fill:none;stroke:#b1b0b0;stroke-width:22.5;stroke-linecap:round;stroke-linejoin:round;stroke-miterlimit:10;stroke-dasharray:157.5, 112.5;stroke-dashoffset:0;stroke-opacity:1"
         d="M 6459.52,1925.3 4773.12,543.898" /><path
         id="path246"
         style="fill:none;stroke:#b1b0b0;stroke-width:22.5;stroke-linecap:round;stroke-linejoin:round;stroke-miterlimit:10;stroke-dasharray:none;stroke-opacity:1"
         d="m 4779.72,611.102 -6.6,-67.204 67.1,-6.597" /><path
         id="path248"
         style="fill:#ffffff;fill-opacity:1;fill-rule:evenodd;stroke:none"
         d="m 5269.92,1150.6 h 692.68 v 168 h -692.68 z" /><g
         transform="scale(10)"
         id="g250"><text
           id="text254"
           style="font-variant:normal;font-weight:normal;font-size:14.03999996px;font-family:Calibri;-inkscape-font-specification:Calibri;writing-mode:lr-tb;fill:#727071;fill-opacity:1;fill-rule:nonzero;stroke:none"
           transform="matrix(1,0,0,-1,527.062,119.19)"><tspan
             id="tspan252"
             y="0"
             x="0 6.99192 13.913625 17.142799 24.5138 30.452719 33.597664 41.024769 48.33947 55.33139 62.253143">&lt;&lt;include&gt;&gt;</tspan></text>
</g><path
         id="path256"
         style="fill:none;stroke:#b1b0b0;stroke-width:22.5;stroke-linecap:round;stroke-linejoin:round;stroke-miterlimit:10;stroke-dasharray:157.5, 112.5;stroke-dashoffset:0;stroke-opacity:1"
         d="M 6639.82,1915 6522.32,554.301" /><path
         id="path258"
         style="fill:none;stroke:#b1b0b0;stroke-width:22.5;stroke-linecap:round;stroke-linejoin:round;stroke-miterlimit:10;stroke-dasharray:none;stroke-opacity:1"
         d="m 6478.82,605.898 43.5,-51.597 51.6,43.398" /><path
         id="path260"
         style="fill:#ffffff;fill-opacity:1;fill-rule:evenodd;stroke:none"
         d="m 6234.72,1150.6 h 692.68 v 168 h -692.68 z" /><g
         transform="scale(10)"
         id="g262"><text
           id="text266"
           style="font-variant:normal;font-weight:normal;font-size:14.03999996px;font-family:Calibri;-inkscape-font-specification:Calibri;writing-mode:lr-tb;fill:#727071;fill-opacity:1;fill-rule:nonzero;stroke:none"
           transform="matrix(1,0,0,-1,623.542,119.19)"><tspan
             id="tspan264"
             y="0"
             x="0 6.99192 13.913625 17.142799 24.5138 30.452719 33.597614 41.02462 48.339462 55.331383 62.252987">&lt;&lt;include&gt;&gt;</tspan></text>
</g><path
         id="path268"
         style="fill:none;stroke:#b1b0b0;stroke-width:22.5;stroke-linecap:round;stroke-linejoin:round;stroke-miterlimit:10;stroke-dasharray:157.5, 112.5;stroke-dashoffset:0;stroke-opacity:1"
         d="M 6639.82,1915 6522.32,554.301" /><path
         id="path270"
         style="fill:none;stroke:#b1b0b0;stroke-width:22.5;stroke-linecap:round;stroke-linejoin:round;stroke-miterlimit:10;stroke-dasharray:none;stroke-opacity:1"
         d="m 6478.82,605.898 43.5,-51.597 51.6,43.398" /><path
         id="path272"
         style="fill:#ffffff;fill-opacity:1;fill-rule:evenodd;stroke:none"
         d="m 6234.72,1150.6 h 692.68 v 168 h -692.68 z" /><g
         transform="scale(10)"
         id="g274"><text
           id="text278"
           style="font-variant:normal;font-weight:normal;font-size:14.03999996px;font-family:Calibri;-inkscape-font-specification:Calibri;writing-mode:lr-tb;fill:#727071;fill-opacity:1;fill-rule:nonzero;stroke:none"
           transform="matrix(1,0,0,-1,623.542,119.19)"><tspan
             id="tspan276"
             y="0"
             x="0 6.99192 13.913625 17.142799 24.5138 30.452719 33.597614 41.02462 48.339462 55.331383 62.252987">&lt;&lt;include&gt;&gt;</tspan></text>
</g><path
         id="path280"
         style="fill:none;stroke:#b1b0b0;stroke-width:22.5;stroke-linecap:round;stroke-linejoin:round;stroke-miterlimit:10;stroke-dasharray:157.5, 112.5;stroke-dashoffset:0;stroke-opacity:1"
         d="M 6770.32,1918.5 7722.12,550.699" /><path
         id="path282"
         style="fill:none;stroke:#b1b0b0;stroke-width:22.5;stroke-linecap:round;stroke-linejoin:round;stroke-miterlimit:10;stroke-dasharray:none;stroke-opacity:1"
         d="m 7655.72,562.602 66.4,-11.903 11.9,66.403" /><path
         id="path284"
         style="fill:#ffffff;fill-opacity:1;fill-rule:evenodd;stroke:none"
         d="m 6899.92,1150.6 h 692.68 v 168 h -692.68 z" /><g
         transform="scale(10)"
         id="g286"><text
           id="text290"
           style="font-variant:normal;font-weight:normal;font-size:14.03999996px;font-family:Calibri;-inkscape-font-specification:Calibri;writing-mode:lr-tb;fill:#727071;fill-opacity:1;fill-rule:nonzero;stroke:none"
           transform="matrix(1,0,0,-1,690.042,119.19)"><tspan
             id="tspan288"
             y="0"
             x="0 6.99192 13.913625 17.142799 24.5138 30.452719 33.597614 41.02462 48.339462 55.331383 62.252987">&lt;&lt;include&gt;&gt;</tspan></text>
</g><path
         id="path292"
         style="fill:none;stroke:#b1b0b0;stroke-width:22.5;stroke-linecap:round;stroke-linejoin:round;stroke-miterlimit:10;stroke-dasharray:157.5, 112.5;stroke-dashoffset:0;stroke-opacity:1"
         d="M 6770.32,1918.5 7722.12,550.699" /><path
         id="path294"
         style="fill:none;stroke:#b1b0b0;stroke-width:22.5;stroke-linecap:round;stroke-linejoin:round;stroke-miterlimit:10;stroke-dasharray:none;stroke-opacity:1"
         d="m 7655.72,562.602 66.4,-11.903 11.9,66.403" /><path
         id="path296"
         style="fill:#ffffff;fill-opacity:1;fill-rule:evenodd;stroke:none"
         d="m 6899.92,1150.6 h 692.68 v 168 h -692.68 z" /><g
         transform="scale(10)"
         id="g298"><text
           id="text302"
           style="font-variant:normal;font-weight:normal;font-size:14.03999996px;font-family:Calibri;-inkscape-font-specification:Calibri;writing-mode:lr-tb;fill:#727071;fill-opacity:1;fill-rule:nonzero;stroke:none"
           transform="matrix(1,0,0,-1,690.042,119.19)"><tspan
             id="tspan300"
             y="0"
             x="0 6.99192 13.913625 17.142799 24.5138 30.452719 33.597614 41.02462 48.339462 55.331383 62.252987">&lt;&lt;include&gt;&gt;</tspan></text>
</g><path
         id="path304"
         style="fill:none;stroke:#b1b0b0;stroke-width:22.5;stroke-linecap:round;stroke-linejoin:round;stroke-miterlimit:10;stroke-dasharray:157.5, 112.5;stroke-dashoffset:0;stroke-opacity:1"
         d="m 7033.12,1958.4 1700.9,-568.5" /><path
         id="path306"
         style="fill:none;stroke:#b1b0b0;stroke-width:22.5;stroke-linecap:round;stroke-linejoin:round;stroke-miterlimit:10;stroke-dasharray:none;stroke-opacity:1"
         d="m 8673.62,1359.7 60.4,30.2 -30.1,60.3" /><path
         id="path308"
         style="fill:#ffffff;fill-opacity:1;fill-rule:evenodd;stroke:none"
         d="m 7537.22,1590.1 h 692.684 v 168 H 7537.22 Z" /><g
         transform="scale(10)"
         id="g310"><text
           id="text314"
           style="font-variant:normal;font-weight:normal;font-size:14.03999996px;font-family:Calibri;-inkscape-font-specification:Calibri;writing-mode:lr-tb;fill:#727071;fill-opacity:1;fill-rule:nonzero;stroke:none"
           transform="matrix(1,0,0,-1,753.782,163.14)"><tspan
             id="tspan312"
             y="0"
             x="0 6.99192 13.913625 17.142799 24.5138 30.452719 33.597614 41.02462 48.339462 55.331383 62.252987">&lt;&lt;include&gt;&gt;</tspan></text>
</g><path
         id="path316"
         style="fill:none;stroke:#b1b0b0;stroke-width:22.5;stroke-linecap:round;stroke-linejoin:round;stroke-miterlimit:10;stroke-dasharray:157.5, 112.5;stroke-dashoffset:0;stroke-opacity:1"
         d="m 7033.12,1958.4 1700.9,-568.5" /><path
         id="path318"
         style="fill:none;stroke:#b1b0b0;stroke-width:22.5;stroke-linecap:round;stroke-linejoin:round;stroke-miterlimit:10;stroke-dasharray:none;stroke-opacity:1"
         d="m 8673.62,1359.7 60.4,30.2 -30.1,60.3" /><path
         id="path320"
         style="fill:#ffffff;fill-opacity:1;fill-rule:evenodd;stroke:none"
         d="m 7537.22,1590.1 h 692.684 v 168 H 7537.22 Z" /><g
         transform="scale(10)"
         id="g322"><text
           id="text326"
           style="font-variant:normal;font-weight:normal;font-size:14.03999996px;font-family:Calibri;-inkscape-font-specification:Calibri;writing-mode:lr-tb;fill:#727071;fill-opacity:1;fill-rule:nonzero;stroke:none"
           transform="matrix(1,0,0,-1,753.782,163.14)"><tspan
             id="tspan324"
             y="0"
             x="0 6.99192 13.913625 17.142799 24.5138 30.452719 33.597614 41.02462 48.339462 55.331383 62.252987">&lt;&lt;include&gt;&gt;</tspan></text>
</g><path
         id="path328"
         style="fill:none;stroke:#b1b0b0;stroke-width:22.5;stroke-linecap:round;stroke-linejoin:round;stroke-miterlimit:10;stroke-dasharray:157.5, 112.5;stroke-dashoffset:0;stroke-opacity:1"
         d="M 3152.12,3642.1 1996.22,2949.3" /><path
         id="path330"
         style="fill:none;stroke:#b1b0b0;stroke-width:22.5;stroke-linecap:round;stroke-linejoin:round;stroke-miterlimit:10;stroke-dasharray:none;stroke-opacity:1"
         d="m 2012.62,3014.7 -16.4,-65.4 65.5,-16.4" /><path
         id="path332"
         style="fill:#ffffff;fill-opacity:1;fill-rule:evenodd;stroke:none"
         d="m 2227.82,3211.7 h 692.68 v 168 h -692.68 z" /><g
         transform="scale(10)"
         id="g334"><text
           id="text338"
           style="font-variant:normal;font-weight:normal;font-size:14.03999996px;font-family:Calibri;-inkscape-font-specification:Calibri;writing-mode:lr-tb;fill:#727071;fill-opacity:1;fill-rule:nonzero;stroke:none"
           transform="matrix(1,0,0,-1,222.832,325.33)"><tspan
             id="tspan336"
             y="0"
             x="0 6.99192 13.913674 17.142799 24.5138 30.452719 33.597614 41.024693 48.339443 55.331364 62.253117">&lt;&lt;include&gt;&gt;</tspan></text>
</g><path
         id="path340"
         style="fill:none;stroke:#b1b0b0;stroke-width:22.5;stroke-linecap:round;stroke-linejoin:round;stroke-miterlimit:10;stroke-dasharray:157.5, 112.5;stroke-dashoffset:0;stroke-opacity:1"
         d="M 3152.12,3642.1 1996.22,2949.3" /><path
         id="path342"
         style="fill:none;stroke:#b1b0b0;stroke-width:22.5;stroke-linecap:round;stroke-linejoin:round;stroke-miterlimit:10;stroke-dasharray:none;stroke-opacity:1"
         d="m 2012.62,3014.7 -16.4,-65.4 65.5,-16.4" /><path
         id="path344"
         style="fill:#ffffff;fill-opacity:1;fill-rule:evenodd;stroke:none"
         d="m 2227.82,3211.7 h 692.68 v 168 h -692.68 z" /><g
         transform="scale(10)"
         id="g346"><text
           id="text350"
           style="font-variant:normal;font-weight:normal;font-size:14.03999996px;font-family:Calibri;-inkscape-font-specification:Calibri;writing-mode:lr-tb;fill:#727071;fill-opacity:1;fill-rule:nonzero;stroke:none"
           transform="matrix(1,0,0,-1,222.832,325.33)"><tspan
             id="tspan348"
             y="0"
             x="0 6.99192 13.913674 17.142799 24.5138 30.452719 33.597614 41.024693 48.339443 55.331364 62.253117">&lt;&lt;include&gt;&gt;</tspan></text>
</g><path
         id="path352"
         style="fill:none;stroke:#b1b0b0;stroke-width:22.5;stroke-linecap:round;stroke-linejoin:round;stroke-miterlimit:10;stroke-dasharray:157.5, 112.5;stroke-dashoffset:0;stroke-opacity:1"
         d="m 2870.02,3849.7 -1498.9,155.4" /><path
         id="path354"
         style="fill:none;stroke:#b1b0b0;stroke-width:22.5;stroke-linecap:round;stroke-linejoin:round;stroke-miterlimit:10;stroke-dasharray:none;stroke-opacity:1"
         d="m 1423.52,4047.6 -52.4,-42.5 42.5,-52.4" /><path
         id="path356"
         style="fill:#ffffff;fill-opacity:1;fill-rule:evenodd;stroke:none"
         d="m 1774.22,3843.4 h 692.68 v 168 h -692.68 z" /><g
         transform="scale(10)"
         id="g358"><text
           id="text362"
           style="font-variant:normal;font-weight:normal;font-size:14.03999996px;font-family:Calibri;-inkscape-font-specification:Calibri;writing-mode:lr-tb;fill:#727071;fill-opacity:1;fill-rule:nonzero;stroke:none"
           transform="matrix(1,0,0,-1,177.452,388.5)"><tspan
             id="tspan360"
             y="0"
             x="0 6.99192 13.913662 17.142799 24.5138 30.452719 33.597614 41.024693 48.339443 55.331364 62.253117">&lt;&lt;include&gt;&gt;</tspan></text>
</g><path
         id="path364"
         style="fill:none;stroke:#b1b0b0;stroke-width:22.5;stroke-linecap:round;stroke-linejoin:round;stroke-miterlimit:10;stroke-dasharray:157.5, 112.5;stroke-dashoffset:0;stroke-opacity:1"
         d="m 2870.02,3849.7 -1498.9,155.4" /><path
         id="path366"
         style="fill:none;stroke:#b1b0b0;stroke-width:22.5;stroke-linecap:round;stroke-linejoin:round;stroke-miterlimit:10;stroke-dasharray:none;stroke-opacity:1"
         d="m 1423.52,4047.6 -52.4,-42.5 42.5,-52.4" /><path
         id="path368"
         style="fill:#ffffff;fill-opacity:1;fill-rule:evenodd;stroke:none"
         d="m 1774.22,3843.4 h 692.68 v 168 h -692.68 z" /><g
         transform="scale(10)"
         id="g370"><text
           id="text374"
           style="font-variant:normal;font-weight:normal;font-size:14.03999996px;font-family:Calibri;-inkscape-font-specification:Calibri;writing-mode:lr-tb;fill:#727071;fill-opacity:1;fill-rule:nonzero;stroke:none"
           transform="matrix(1,0,0,-1,177.452,388.5)"><tspan
             id="tspan372"
             y="0"
             x="0 6.99192 13.913662 17.142799 24.5138 30.452719 33.597614 41.024693 48.339443 55.331364 62.253117">&lt;&lt;include&gt;&gt;</tspan></text>
</g><path
         id="path376"
         style="fill:none;stroke:#b1b0b0;stroke-width:22.5;stroke-linecap:round;stroke-linejoin:round;stroke-miterlimit:10;stroke-dasharray:157.5, 112.5;stroke-dashoffset:0;stroke-opacity:1"
         d="M 3227.82,3955.7 2008.52,5061.4" /><path
         id="path378"
         style="fill:none;stroke:#b1b0b0;stroke-width:22.5;stroke-linecap:round;stroke-linejoin:round;stroke-miterlimit:10;stroke-dasharray:none;stroke-opacity:1"
         d="m 2075.92,5064.7 -67.4,-3.3 3.3,-67.4" /><path
         id="path380"
         style="fill:#ffffff;fill-opacity:1;fill-rule:evenodd;stroke:none"
         d="m 2271.82,4424.5 h 692.68 v 168 h -692.68 z" /><g
         transform="scale(10)"
         id="g382"><text
           id="text386"
           style="font-variant:normal;font-weight:normal;font-size:14.03999996px;font-family:Calibri;-inkscape-font-specification:Calibri;writing-mode:lr-tb;fill:#727071;fill-opacity:1;fill-rule:nonzero;stroke:none"
           transform="matrix(1,0,0,-1,227.222,446.62)"><tspan
             id="tspan384"
             y="0"
             x="0 6.99192 13.913674 17.142799 24.5138 30.452719 33.597614 41.024693 48.339443 55.331364 62.253117">&lt;&lt;include&gt;&gt;</tspan></text>
</g><path
         id="path388"
         style="fill:none;stroke:#b1b0b0;stroke-width:22.5;stroke-linecap:round;stroke-linejoin:round;stroke-miterlimit:10;stroke-dasharray:157.5, 112.5;stroke-dashoffset:0;stroke-opacity:1"
         d="M 3227.82,3955.7 2008.52,5061.4" /><path
         id="path390"
         style="fill:none;stroke:#b1b0b0;stroke-width:22.5;stroke-linecap:round;stroke-linejoin:round;stroke-miterlimit:10;stroke-dasharray:none;stroke-opacity:1"
         d="m 2075.92,5064.7 -67.4,-3.3 3.3,-67.4" /><path
         id="path392"
         style="fill:#ffffff;fill-opacity:1;fill-rule:evenodd;stroke:none"
         d="m 2271.82,4424.5 h 692.68 v 168 h -692.68 z" /><g
         transform="scale(10)"
         id="g394"><text
           id="text398"
           style="font-variant:normal;font-weight:normal;font-size:14.03999996px;font-family:Calibri;-inkscape-font-specification:Calibri;writing-mode:lr-tb;fill:#727071;fill-opacity:1;fill-rule:nonzero;stroke:none"
           transform="matrix(1,0,0,-1,227.222,446.62)"><tspan
             id="tspan396"
             y="0"
             x="0 6.99192 13.913674 17.142799 24.5138 30.452719 33.597614 41.024693 48.339443 55.331364 62.253117">&lt;&lt;include&gt;&gt;</tspan></text>
</g><path
         id="path400"
         style="fill:none;stroke:#b1b0b0;stroke-width:22.5;stroke-linecap:round;stroke-linejoin:round;stroke-miterlimit:10;stroke-dasharray:157.5, 112.5;stroke-dashoffset:0;stroke-opacity:1"
         d="m 4813.22,5360.8 -1886.1,783.7" /><path
         id="path402"
         style="fill:none;stroke:#b1b0b0;stroke-width:22.5;stroke-linecap:round;stroke-linejoin:round;stroke-miterlimit:10;stroke-dasharray:none;stroke-opacity:1"
         d="m 2989.52,6170.3 -62.4,-25.8 25.7,-62.3" /><path
         id="path404"
         style="fill:#ffffff;fill-opacity:1;fill-rule:evenodd;stroke:none"
         d="m 3523.82,5668.6 h 692.68 v 168 h -692.68 z" /><g
         transform="scale(10)"
         id="g406"><text
           id="text410"
           style="font-variant:normal;font-weight:normal;font-size:14.03999996px;font-family:Calibri;-inkscape-font-specification:Calibri;writing-mode:lr-tb;fill:#727071;fill-opacity:1;fill-rule:nonzero;stroke:none"
           transform="matrix(1,0,0,-1,352.432,571.04)"><tspan
             id="tspan408"
             y="0"
             x="0 6.99192 13.913674 17.142799 24.5138 30.452719 33.597614 41.024693 48.339443 55.331364 62.253117">&lt;&lt;include&gt;&gt;</tspan></text>
</g><path
         id="path412"
         style="fill:none;stroke:#b1b0b0;stroke-width:22.5;stroke-linecap:round;stroke-linejoin:round;stroke-miterlimit:10;stroke-dasharray:157.5, 112.5;stroke-dashoffset:0;stroke-opacity:1"
         d="m 4813.22,5360.8 -1886.1,783.7" /><path
         id="path414"
         style="fill:none;stroke:#b1b0b0;stroke-width:22.5;stroke-linecap:round;stroke-linejoin:round;stroke-miterlimit:10;stroke-dasharray:none;stroke-opacity:1"
         d="m 2989.52,6170.3 -62.4,-25.8 25.7,-62.3" /><path
         id="path416"
         style="fill:#ffffff;fill-opacity:1;fill-rule:evenodd;stroke:none"
         d="m 3523.82,5668.6 h 692.68 v 168 h -692.68 z" /><g
         transform="scale(10)"
         id="g418"><text
           id="text422"
           style="font-variant:normal;font-weight:normal;font-size:14.03999996px;font-family:Calibri;-inkscape-font-specification:Calibri;writing-mode:lr-tb;fill:#727071;fill-opacity:1;fill-rule:nonzero;stroke:none"
           transform="matrix(1,0,0,-1,352.432,571.04)"><tspan
             id="tspan420"
             y="0"
             x="0 6.99192 13.913674 17.142799 24.5138 30.452719 33.597614 41.024693 48.339443 55.331364 62.253117">&lt;&lt;include&gt;&gt;</tspan></text>
</g><path
         id="path424"
         style="fill:none;stroke:#b1b0b0;stroke-width:22.5;stroke-linecap:round;stroke-linejoin:round;stroke-miterlimit:10;stroke-dasharray:157.5, 112.5;stroke-dashoffset:0;stroke-opacity:1"
         d="m 4980.42,5385.6 -1371,1355.1" /><path
         id="path426"
         style="fill:none;stroke:#b1b0b0;stroke-width:22.5;stroke-linecap:round;stroke-linejoin:round;stroke-miterlimit:10;stroke-dasharray:none;stroke-opacity:1"
         d="m 3676.92,6741.1 -67.5,-0.4 0.4,-67.5" /><path
         id="path428"
         style="fill:#ffffff;fill-opacity:1;fill-rule:evenodd;stroke:none"
         d="m 3948.52,5979.1 h 692.68 v 168 h -692.68 z" /><g
         transform="scale(10)"
         id="g430"><text
           id="text434"
           style="font-variant:normal;font-weight:normal;font-size:14.03999996px;font-family:Calibri;-inkscape-font-specification:Calibri;writing-mode:lr-tb;fill:#727071;fill-opacity:1;fill-rule:nonzero;stroke:none"
           transform="matrix(1,0,0,-1,394.912,602.1)"><tspan
             id="tspan432"
             y="0"
             x="0 6.99192 13.913674 17.142799 24.5138 30.452719 33.597664 41.024719 48.33947 55.33139 62.253143">&lt;&lt;include&gt;&gt;</tspan></text>
</g><path
         id="path436"
         style="fill:none;stroke:#b1b0b0;stroke-width:22.5;stroke-linecap:round;stroke-linejoin:round;stroke-miterlimit:10;stroke-dasharray:157.5, 112.5;stroke-dashoffset:0;stroke-opacity:1"
         d="m 4980.42,5385.6 -1371,1355.1" /><path
         id="path438"
         style="fill:none;stroke:#b1b0b0;stroke-width:22.5;stroke-linecap:round;stroke-linejoin:round;stroke-miterlimit:10;stroke-dasharray:none;stroke-opacity:1"
         d="m 3676.92,6741.1 -67.5,-0.4 0.4,-67.5" /><path
         id="path440"
         style="fill:#ffffff;fill-opacity:1;fill-rule:evenodd;stroke:none"
         d="m 3948.52,5979.1 h 692.68 v 168 h -692.68 z" /><g
         transform="scale(10)"
         id="g442"><text
           id="text446"
           style="font-variant:normal;font-weight:normal;font-size:14.03999996px;font-family:Calibri;-inkscape-font-specification:Calibri;writing-mode:lr-tb;fill:#727071;fill-opacity:1;fill-rule:nonzero;stroke:none"
           transform="matrix(1,0,0,-1,394.912,602.1)"><tspan
             id="tspan444"
             y="0"
             x="0 6.99192 13.913674 17.142799 24.5138 30.452719 33.597664 41.024719 48.33947 55.33139 62.253143">&lt;&lt;include&gt;&gt;</tspan></text>
</g><path
         id="path448"
         style="fill:none;stroke:#b1b0b0;stroke-width:22.5;stroke-linecap:round;stroke-linejoin:round;stroke-miterlimit:10;stroke-dasharray:157.5, 112.5;stroke-dashoffset:0;stroke-opacity:1"
         d="m 7502.82,5655.9 507.6,1249.3" /><path
         id="path450"
         style="fill:none;stroke:#b1b0b0;stroke-width:22.5;stroke-linecap:round;stroke-linejoin:round;stroke-miterlimit:10;stroke-dasharray:none;stroke-opacity:1"
         d="m 8036.72,6843 -26.3,62.2 -62.1,-26.3" /><path
         id="path452"
         style="fill:#ffffff;fill-opacity:1;fill-rule:evenodd;stroke:none"
         d="M 7410.32,6196.5 H 8103 v 168 h -692.68 z" /><g
         transform="scale(10)"
         id="g454"><text
           id="text458"
           style="font-variant:normal;font-weight:normal;font-size:14.03999996px;font-family:Calibri;-inkscape-font-specification:Calibri;writing-mode:lr-tb;fill:#727071;fill-opacity:1;fill-rule:nonzero;stroke:none"
           transform="matrix(1,0,0,-1,741.092,623.84)"><tspan
             id="tspan456"
             y="0"
             x="0 6.99192 13.913625 17.142799 24.5138 30.452719 33.597614 41.02462 48.339462 55.331383 62.252987">&lt;&lt;include&gt;&gt;</tspan></text>
</g><path
         id="path460"
         style="fill:none;stroke:#b1b0b0;stroke-width:22.5;stroke-linecap:round;stroke-linejoin:round;stroke-miterlimit:10;stroke-dasharray:157.5, 112.5;stroke-dashoffset:0;stroke-opacity:1"
         d="m 7502.82,5655.9 507.6,1249.3" /><path
         id="path462"
         style="fill:none;stroke:#b1b0b0;stroke-width:22.5;stroke-linecap:round;stroke-linejoin:round;stroke-miterlimit:10;stroke-dasharray:none;stroke-opacity:1"
         d="m 8036.72,6843 -26.3,62.2 -62.1,-26.3" /><path
         id="path464"
         style="fill:#ffffff;fill-opacity:1;fill-rule:evenodd;stroke:none"
         d="M 7410.32,6196.5 H 8103 v 168 h -692.68 z" /><g
         transform="scale(10)"
         id="g466"><text
           id="text470"
           style="font-variant:normal;font-weight:normal;font-size:14.03999996px;font-family:Calibri;-inkscape-font-specification:Calibri;writing-mode:lr-tb;fill:#727071;fill-opacity:1;fill-rule:nonzero;stroke:none"
           transform="matrix(1,0,0,-1,741.092,623.84)"><tspan
             id="tspan468"
             y="0"
             x="0 6.99192 13.913625 17.142799 24.5138 30.452719 33.597614 41.02462 48.339462 55.331383 62.252987">&lt;&lt;include&gt;&gt;</tspan></text>
</g><path
         id="path472"
         style="fill:none;stroke:#b1b0b0;stroke-width:22.5;stroke-linecap:round;stroke-linejoin:round;stroke-miterlimit:10;stroke-dasharray:157.5, 112.5;stroke-dashoffset:0;stroke-opacity:1"
         d="m 7791.92,5634.4 2122.3,876.8" /><path
         id="path474"
         style="fill:none;stroke:#b1b0b0;stroke-width:22.5;stroke-linecap:round;stroke-linejoin:round;stroke-miterlimit:10;stroke-dasharray:none;stroke-opacity:1"
         d="m 9888.42,6448.9 25.8,62.3 -62.3,25.9" /><path
         id="path476"
         style="fill:#ffffff;fill-opacity:1;fill-rule:evenodd;stroke:none"
         d="m 8506.72,5988.8 h 692.684 v 168 H 8506.72 Z" /><g
         transform="scale(10)"
         id="g478"><text
           id="text482"
           style="font-variant:normal;font-weight:normal;font-size:14.03999996px;font-family:Calibri;-inkscape-font-specification:Calibri;writing-mode:lr-tb;fill:#727071;fill-opacity:1;fill-rule:nonzero;stroke:none"
           transform="matrix(1,0,0,-1,850.742,603.06)"><tspan
             id="tspan480"
             y="0"
             x="0 6.99192 13.913723 17.142847 24.513847 30.452768 33.597713 41.024769 48.339516 55.331436 62.253044">&lt;&lt;include&gt;&gt;</tspan></text>
</g><path
         id="path484"
         style="fill:none;stroke:#b1b0b0;stroke-width:22.5;stroke-linecap:round;stroke-linejoin:round;stroke-miterlimit:10;stroke-dasharray:157.5, 112.5;stroke-dashoffset:0;stroke-opacity:1"
         d="m 7791.92,5634.4 2122.3,876.8" /><path
         id="path486"
         style="fill:none;stroke:#b1b0b0;stroke-width:22.5;stroke-linecap:round;stroke-linejoin:round;stroke-miterlimit:10;stroke-dasharray:none;stroke-opacity:1"
         d="m 9888.42,6448.9 25.8,62.3 -62.3,25.9" /><path
         id="path488"
         style="fill:#ffffff;fill-opacity:1;fill-rule:evenodd;stroke:none"
         d="m 8506.72,5988.8 h 692.684 v 168 H 8506.72 Z" /><g
         transform="scale(10)"
         id="g490"><text
           id="text494"
           style="font-variant:normal;font-weight:normal;font-size:14.03999996px;font-family:Calibri;-inkscape-font-specification:Calibri;writing-mode:lr-tb;fill:#727071;fill-opacity:1;fill-rule:nonzero;stroke:none"
           transform="matrix(1,0,0,-1,850.742,603.06)"><tspan
             id="tspan492"
             y="0"
             x="0 6.99192 13.913723 17.142847 24.513847 30.452768 33.597713 41.024769 48.339516 55.331436 62.253044">&lt;&lt;include&gt;&gt;</tspan></text>
</g><path
         id="path496"
         style="fill:none;stroke:#b1b0b0;stroke-width:22.5;stroke-linecap:round;stroke-linejoin:round;stroke-miterlimit:10;stroke-dasharray:157.5, 112.5;stroke-dashoffset:0;stroke-opacity:1"
         d="M 8157.82,5486.6 H 10115.7" /><path
         id="path498"
         style="fill:none;stroke:#b1b0b0;stroke-width:22.5;stroke-linecap:round;stroke-linejoin:round;stroke-miterlimit:10;stroke-dasharray:none;stroke-opacity:1"
         d="m 10068,5438.9 47.7,47.7 -47.7,47.7" /><path
         id="path500"
         style="fill:#ffffff;fill-opacity:1;fill-rule:evenodd;stroke:none"
         d="m 8790.42,5402.6 h 692.68 v 168 h -692.68 z" /><g
         transform="scale(10)"
         id="g502"><text
           id="text506"
           style="font-variant:normal;font-weight:normal;font-size:14.03999996px;font-family:Calibri;-inkscape-font-specification:Calibri;writing-mode:lr-tb;fill:#727071;fill-opacity:1;fill-rule:nonzero;stroke:none"
           transform="matrix(1,0,0,-1,879.112,544.42)"><tspan
             id="tspan504"
             y="0"
             x="0 6.99192 13.913723 17.142847 24.513847 30.452768 33.597713 41.024769 48.339516 55.331436 62.253044">&lt;&lt;include&gt;&gt;</tspan></text>
</g><path
         id="path508"
         style="fill:none;stroke:#b1b0b0;stroke-width:22.5;stroke-linecap:round;stroke-linejoin:round;stroke-miterlimit:10;stroke-dasharray:157.5, 112.5;stroke-dashoffset:0;stroke-opacity:1"
         d="M 8157.82,5486.6 H 10115.7" /><path
         id="path510"
         style="fill:none;stroke:#b1b0b0;stroke-width:22.5;stroke-linecap:round;stroke-linejoin:round;stroke-miterlimit:10;stroke-dasharray:none;stroke-opacity:1"
         d="m 10068,5438.9 47.7,47.7 -47.7,47.7" /><path
         id="path512"
         style="fill:#ffffff;fill-opacity:1;fill-rule:evenodd;stroke:none"
         d="m 8790.42,5402.6 h 692.68 v 168 h -692.68 z" /><g
         transform="scale(10)"
         id="g514"><text
           id="text518"
           style="font-variant:normal;font-weight:normal;font-size:14.03999996px;font-family:Calibri;-inkscape-font-specification:Calibri;writing-mode:lr-tb;fill:#727071;fill-opacity:1;fill-rule:nonzero;stroke:none"
           transform="matrix(1,0,0,-1,879.112,544.42)"><tspan
             id="tspan516"
             y="0"
             x="0 6.99192 13.913723 17.142847 24.513847 30.452768 33.597713 41.024769 48.339516 55.331436 62.253044">&lt;&lt;include&gt;&gt;</tspan></text>
</g><path
         id="path520"
         style="fill:#ffffff;fill-opacity:1;fill-rule:evenodd;stroke:none"
         d="m 11745.3,2396.8 c 0,94 -253.8,170.1 -566.9,170.1 -313.1,0 -567,-76.1 -567,-170.1 0,-93.9 253.9,-170 567,-170 313.1,0 566.9,76.1 566.9,170" /><path
         id="path522"
         style="fill:none;stroke:#b1b0b0;stroke-width:20;stroke-linecap:round;stroke-linejoin:round;stroke-miterlimit:10;stroke-dasharray:none;stroke-opacity:1"
         d="m 11745.3,2396.8 c 0,94 -253.8,170.1 -566.9,170.1 -313.1,0 -567,-76.1 -567,-170.1 0,-93.9 253.9,-170 567,-170 313.1,0 566.9,76.1 566.9,170 z" /><g
         transform="scale(10)"
         id="g524"><text
           id="text528"
           style="font-variant:normal;font-weight:normal;font-size:18px;font-family:Calibri;-inkscape-font-specification:Calibri;writing-mode:lr-tb;fill:#727071;fill-opacity:1;fill-rule:nonzero;stroke:none"
           transform="matrix(1,0,0,-1,1098.35,234.22)"><tspan
             id="tspan526"
             y="0"
             x="0 7.5599999 17.046 25.524 29.663969">Login</tspan></text>
</g><path
         id="path530"
         style="fill:#ffffff;fill-opacity:1;fill-rule:evenodd;stroke:none"
         d="m 11902.2,3955.9 c 0,93.9 -253.8,170.1 -566.9,170.1 -313.1,0 -567,-76.2 -567,-170.1 0,-93.9 253.9,-170.1 567,-170.1 313.1,0 566.9,76.2 566.9,170.1" /><path
         id="path532"
         style="fill:none;stroke:#b1b0b0;stroke-width:20;stroke-linecap:round;stroke-linejoin:round;stroke-miterlimit:10;stroke-dasharray:none;stroke-opacity:1"
         d="m 11902.2,3955.9 c 0,93.9 -253.8,170.1 -566.9,170.1 -313.1,0 -567,-76.2 -567,-170.1 0,-93.9 253.9,-170.1 567,-170.1 313.1,0 566.9,76.2 566.9,170.1 z" /><g
         transform="scale(10)"
         id="g534"><text
           id="text538"
           style="font-variant:normal;font-weight:normal;font-size:18px;font-family:Calibri;-inkscape-font-specification:Calibri;writing-mode:lr-tb;fill:#727071;fill-opacity:1;fill-rule:nonzero;stroke:none"
           transform="matrix(1,0,0,-1,1103.8,390.15)"><tspan
             id="tspan536"
             y="0"
             x="0 9.7740002 18.738001 27.216 31.356066 38.394066 44.424065 53.388065">Register</tspan></text>
</g><path
         id="path540"
         style="fill:#ffffff;fill-opacity:1;fill-rule:evenodd;stroke:none"
         d="m 5308.02,3292.5 h 2955.1 v 1454.1 h -2955.1 z" /><path
         id="path542"
         style="fill:none;stroke:#f9b90a;stroke-width:22.5;stroke-linecap:round;stroke-linejoin:round;stroke-miterlimit:10;stroke-dasharray:none;stroke-opacity:1"
         d="m 5308.02,3292.5 h 2955.1 v 1454.1 h -2955.1 z" /><path
         id="path544"
         style="fill:#84661e;fill-opacity:1;fill-rule:nonzero;stroke:none"
         d="m 5468.22,4560.9 c 0,-1.4 -0.1,-2.7 -0.2,-3.7 -0.1,-1 -0.2,-1.9 -0.4,-2.6 -0.2,-0.8 -0.5,-1.4 -0.8,-1.9 -0.3,-0.6 -0.8,-1.2 -1.5,-1.8 -0.7,-0.7 -2.1,-1.6 -4.1,-2.6 -2.1,-1.1 -4.6,-2.1 -7.5,-3.1 -2.9,-0.9 -6.3,-1.7 -10,-2.4 -3.8,-0.6 -7.9,-0.9 -12.3,-0.9 -8.5,0 -16.3,1.2 -23.2,3.6 -6.9,2.4 -12.7,6 -17.6,10.7 -4.8,4.8 -8.5,10.8 -11.1,17.9 -2.6,7.2 -3.9,15.5 -3.9,25 0,9.6 1.5,18.2 4.3,25.7 2.8,7.5 6.8,13.8 11.9,18.9 5.1,5.1 11.2,9 18.3,11.6 7.1,2.7 15,4 23.6,4 3.4,0 6.8,-0.3 10,-0.8 3.2,-0.5 6.2,-1.2 9,-2.1 2.7,-0.8 5.2,-1.8 7.3,-2.9 2.2,-1.1 3.8,-2.1 4.6,-2.9 0.9,-0.8 1.5,-1.4 1.8,-1.9 0.4,-0.6 0.6,-1.3 0.8,-2.1 0.2,-0.8 0.3,-1.8 0.4,-2.9 0.1,-1.1 0.2,-2.5 0.2,-4.1 0,-1.8 -0.1,-3.3 -0.2,-4.5 -0.1,-1.2 -0.4,-2.2 -0.7,-3 -0.3,-0.7 -0.7,-1.3 -1.1,-1.6 -0.5,-0.4 -1,-0.6 -1.6,-0.6 -1,0 -2.2,0.5 -3.7,1.6 -1.5,1 -3.4,2.1 -5.7,3.4 -2.4,1.3 -5.2,2.4 -8.4,3.4 -3.3,1 -7.2,1.6 -11.7,1.6 -4.9,0 -9.4,-1 -13.3,-2.8 -3.9,-1.9 -7.2,-4.5 -9.9,-7.9 -2.8,-3.4 -4.9,-7.6 -6.3,-12.5 -1.4,-4.8 -2.1,-10.3 -2.1,-16.4 0,-6.7 0.8,-12.5 2.3,-17.3 1.5,-4.9 3.6,-9 6.5,-12.1 2.8,-3.2 6.1,-5.6 10.1,-7.1 4,-1.6 8.4,-2.3 13.4,-2.3 4.5,0 8.4,0.4 11.7,1.4 3.3,1 6.1,2 8.5,3.2 2.3,1.2 4.2,2.2 5.8,3.2 1.5,0.9 2.6,1.4 3.5,1.4 0.6,0 1.1,-0.1 1.5,-0.4 0.4,-0.2 0.7,-0.7 1,-1.4 0.3,-0.7 0.4,-1.7 0.6,-2.9 0.1,-1.3 0.2,-3 0.2,-5.1 z m 98.2,-14.2 c 0,-0.6 -0.2,-1.1 -0.5,-1.5 -0.3,-0.5 -0.9,-0.8 -1.7,-1.1 -0.8,-0.3 -1.9,-0.6 -3.2,-0.7 -1.3,-0.1 -3,-0.2 -5,-0.2 -2.1,0 -3.8,0.1 -5.1,0.2 -1.4,0.1 -2.4,0.4 -3.2,0.7 -0.8,0.3 -1.3,0.6 -1.6,1.1 -0.3,0.4 -0.5,0.9 -0.5,1.5 v 9.1 c -4.8,-4.7 -9.6,-8.3 -14.6,-10.6 -4.9,-2.3 -10,-3.5 -15.3,-3.5 -5.9,0 -10.9,0.9 -14.9,2.6 -4,1.8 -7.3,4.2 -9.8,7.2 -2.5,3.1 -4.2,6.6 -5.3,10.6 -1.1,4 -1.6,9 -1.6,15 v 48 c 0,0.6 0.2,1.1 0.5,1.5 0.4,0.5 1,0.8 2,1.1 0.9,0.3 2.2,0.5 3.7,0.7 1.6,0.1 3.6,0.2 5.9,0.2 2.4,0 4.3,-0.1 5.9,-0.2 1.5,-0.2 2.8,-0.4 3.7,-0.7 0.9,-0.3 1.6,-0.6 2,-1.1 0.4,-0.4 0.6,-0.9 0.6,-1.5 v -44.3 c 0,-4.1 0.3,-7.2 0.8,-9.4 0.6,-2.2 1.5,-4 2.7,-5.6 1.2,-1.5 2.7,-2.7 4.5,-3.6 1.9,-0.8 4,-1.3 6.5,-1.3 3.1,0 6.2,1.1 9.3,3.1 3.1,2.1 6.5,5.1 10,9 v 52.1 c 0,0.6 0.2,1.1 0.5,1.5 0.4,0.5 1,0.8 2,1.1 0.9,0.3 2.2,0.5 3.7,0.7 1.5,0.1 3.5,0.2 5.9,0.2 2.4,0 4.3,-0.1 5.9,-0.2 1.5,-0.2 2.8,-0.4 3.7,-0.7 0.9,-0.3 1.5,-0.6 1.9,-1.1 0.4,-0.4 0.6,-0.9 0.6,-1.5 z m 85.7,22.1 c 0,-4.4 -0.9,-8.3 -2.8,-11.7 -1.8,-3.4 -4.4,-6.3 -7.7,-8.6 -3.4,-2.2 -7.3,-4 -11.9,-5.1 -4.6,-1.1 -9.6,-1.7 -14.9,-1.7 -3.2,0 -6.3,0.2 -9.2,0.6 -3,0.5 -5.6,1 -7.9,1.7 -2.3,0.7 -4.3,1.4 -5.8,2.1 -1.6,0.7 -2.7,1.3 -3.4,2 -0.7,0.6 -1.3,1.5 -1.7,2.9 -0.3,1.3 -0.5,3.2 -0.5,5.8 0,1.7 0,3.1 0.2,4.1 0.1,1 0.3,1.8 0.5,2.5 0.3,0.6 0.6,1 1,1.2 0.4,0.2 0.9,0.3 1.5,0.3 0.7,0 1.7,-0.4 3.1,-1.1 1.4,-0.7 3.1,-1.5 5.2,-2.4 2,-0.9 4.4,-1.7 7.2,-2.5 2.7,-0.7 5.8,-1.1 9.3,-1.1 2.2,0 4.1,0.2 5.9,0.6 1.7,0.4 3.1,1 4.4,1.7 1.3,0.8 2.2,1.8 2.9,2.9 0.6,1.2 0.9,2.6 0.9,4.1 0,1.7 -0.6,3.3 -1.8,4.5 -1.2,1.3 -2.7,2.4 -4.7,3.3 -2,0.9 -4.2,1.8 -6.7,2.6 -2.5,0.9 -5,1.8 -7.6,2.8 -2.6,1 -5.2,2.1 -7.7,3.4 -2.4,1.3 -4.7,2.9 -6.6,4.7 -2,1.9 -3.6,4.2 -4.8,6.8 -1.2,2.6 -1.8,5.8 -1.8,9.5 0,3.8 0.9,7.2 2.5,10.3 1.6,3.2 3.9,5.8 6.9,8.1 3.1,2.2 6.7,3.9 11.1,5.2 4.3,1.2 9.2,1.8 14.6,1.8 2.8,0 5.4,-0.2 7.9,-0.5 2.6,-0.4 4.9,-0.8 6.9,-1.3 2.1,-0.6 3.8,-1.1 5.3,-1.8 1.4,-0.6 2.4,-1.1 3,-1.5 0.6,-0.5 1,-0.9 1.3,-1.4 0.3,-0.4 0.5,-0.9 0.6,-1.5 0.1,-0.7 0.2,-1.4 0.3,-2.3 0.1,-0.9 0.2,-2.1 0.2,-3.4 0,-1.6 -0.1,-2.9 -0.2,-3.9 -0.1,-1 -0.2,-1.8 -0.5,-2.3 -0.2,-0.6 -0.5,-1 -0.9,-1.2 -0.4,-0.2 -0.8,-0.3 -1.3,-0.3 -0.6,0 -1.5,0.3 -2.7,0.9 -1.3,0.6 -2.8,1.3 -4.6,2 -1.9,0.7 -4,1.3 -6.4,1.9 -2.4,0.7 -5.2,1 -8.3,1 -2.2,0 -4.1,-0.2 -5.7,-0.7 -1.6,-0.4 -2.9,-1 -3.9,-1.7 -1.1,-0.8 -1.8,-1.7 -2.4,-2.7 -0.5,-1 -0.7,-2.1 -0.7,-3.3 0,-1.8 0.6,-3.3 1.8,-4.6 1.2,-1.2 2.8,-2.3 4.8,-3.2 2,-0.9 4.3,-1.8 6.8,-2.6 2.6,-0.9 5.2,-1.8 7.8,-2.7 2.6,-1 5.2,-2.1 7.7,-3.4 2.6,-1.3 4.8,-2.9 6.8,-4.8 2,-1.8 3.6,-4.1 4.9,-6.7 1.2,-2.6 1.8,-5.7 1.8,-9.3 z m 69.5,-14.4 c 0,-2.5 -0.1,-4.5 -0.5,-5.9 -0.3,-1.4 -0.8,-2.3 -1.4,-2.9 -0.6,-0.6 -1.4,-1.1 -2.6,-1.5 -1.1,-0.4 -2.4,-0.8 -3.9,-1.1 -1.5,-0.4 -3.2,-0.6 -5,-0.8 -1.7,-0.2 -3.5,-0.2 -5.3,-0.2 -4.9,0 -9,0.5 -12.6,1.6 -3.5,1.1 -6.5,2.8 -8.8,5.2 -2.3,2.3 -4,5.2 -5.1,8.7 -1.1,3.5 -1.7,7.7 -1.7,12.5 v 40.2 h -10.3 c -1.2,0 -2.2,0.6 -2.8,2 -0.6,1.4 -1,3.7 -1,6.9 0,1.7 0.1,3.2 0.3,4.3 0.1,1.2 0.4,2.1 0.7,2.8 0.3,0.7 0.7,1.2 1.2,1.4 0.5,0.3 1.1,0.5 1.7,0.5 h 10.2 v 17.5 c 0,0.6 0.2,1.1 0.6,1.6 0.3,0.4 1,0.8 1.9,1.1 0.9,0.4 2.2,0.6 3.8,0.7 1.6,0.2 3.5,0.3 5.8,0.3 2.4,0 4.4,-0.1 6,-0.3 1.6,-0.1 2.8,-0.3 3.7,-0.7 0.9,-0.3 1.5,-0.7 1.9,-1.1 0.4,-0.5 0.6,-1 0.6,-1.6 v -17.5 h 18.8 c 0.6,0 1.2,-0.2 1.7,-0.5 0.4,-0.2 0.8,-0.7 1.2,-1.4 0.3,-0.7 0.5,-1.6 0.7,-2.8 0.2,-1.1 0.2,-2.6 0.2,-4.3 0,-3.2 -0.3,-5.5 -0.9,-6.9 -0.7,-1.4 -1.6,-2 -2.8,-2 h -18.9 v -36.9 c 0,-4.2 0.8,-7.5 2.2,-9.6 1.5,-2.1 4.2,-3.2 8,-3.2 1.3,0 2.4,0.1 3.4,0.3 1.1,0.2 2,0.4 2.8,0.7 0.8,0.3 1.5,0.5 2,0.7 0.6,0.2 1.1,0.3 1.5,0.3 0.4,0 0.8,-0.1 1.1,-0.3 0.4,-0.2 0.7,-0.6 0.9,-1.2 0.2,-0.6 0.3,-1.5 0.5,-2.5 0.2,-1.1 0.2,-2.4 0.2,-4.1 z m 104.6,32.3 c 0,-6.7 -1,-12.8 -2.9,-18.3 -1.9,-5.5 -4.9,-10.2 -8.8,-14.2 -3.9,-4 -8.9,-7.1 -14.8,-9.3 -5.9,-2.1 -12.9,-3.2 -20.8,-3.2 -7.7,0 -14.3,1 -20,2.9 -5.7,1.9 -10.4,4.7 -14.1,8.4 -3.7,3.7 -6.5,8.3 -8.3,13.6 -1.8,5.4 -2.7,11.6 -2.7,18.5 0,6.7 1,12.8 2.9,18.3 2,5.6 4.9,10.3 8.9,14.3 3.9,3.9 8.8,7 14.7,9.2 5.9,2.1 12.8,3.2 20.7,3.2 7.8,0 14.5,-0.9 20.2,-2.9 5.6,-1.9 10.3,-4.7 14,-8.3 3.7,-3.7 6.5,-8.3 8.3,-13.7 1.8,-5.4 2.7,-11.5 2.7,-18.5 z m -25,-0.9 c 0,3.9 -0.4,7.4 -1.1,10.7 -0.6,3.2 -1.8,6.1 -3.4,8.5 -1.6,2.4 -3.7,4.2 -6.4,5.6 -2.7,1.3 -6.1,2 -10.1,2 -3.6,0 -6.8,-0.6 -9.5,-1.8 -2.7,-1.2 -4.9,-2.9 -6.7,-5.3 -1.7,-2.3 -3,-5.1 -3.9,-8.3 -0.9,-3.3 -1.3,-7 -1.3,-11.1 0,-3.9 0.4,-7.5 1.1,-10.7 0.7,-3.3 1.8,-6.1 3.4,-8.5 1.6,-2.4 3.7,-4.3 6.4,-5.6 2.7,-1.3 6.1,-1.9 10.1,-1.9 3.7,0 6.9,0.6 9.6,1.8 2.7,1.2 4.9,2.9 6.6,5.2 1.8,2.3 3.1,5 3.9,8.3 0.8,3.2 1.3,6.9 1.3,11.1 z m 181.8,-39.1 c 0,-0.6 -0.2,-1.1 -0.6,-1.5 -0.4,-0.5 -1,-0.8 -1.9,-1.1 -0.9,-0.3 -2.2,-0.6 -3.7,-0.7 -1.6,-0.1 -3.5,-0.2 -5.9,-0.2 -2.5,0 -4.5,0.1 -6,0.2 -1.5,0.1 -2.8,0.4 -3.7,0.7 -1,0.3 -1.6,0.6 -2,1.1 -0.3,0.4 -0.5,0.9 -0.5,1.5 v 46.5 c 0,2.6 -0.3,5 -0.8,7.2 -0.6,2.2 -1.4,4 -2.5,5.6 -1.2,1.5 -2.6,2.7 -4.3,3.6 -1.7,0.8 -3.7,1.3 -6.1,1.3 -2.9,0 -5.8,-1.1 -8.8,-3.1 -3,-2.1 -6.2,-5.1 -9.7,-9 v -52.1 c 0,-0.6 -0.2,-1.1 -0.6,-1.5 -0.3,-0.5 -1,-0.8 -1.9,-1.1 -1,-0.3 -2.2,-0.6 -3.8,-0.7 -1.5,-0.1 -3.4,-0.2 -5.8,-0.2 -2.4,0 -4.3,0.1 -5.9,0.2 -1.5,0.1 -2.8,0.4 -3.7,0.7 -0.9,0.3 -1.6,0.6 -2,1.1 -0.4,0.4 -0.5,0.9 -0.5,1.5 v 46.5 c 0,2.6 -0.3,5 -0.9,7.2 -0.5,2.2 -1.3,4 -2.4,5.6 -1.1,1.5 -2.5,2.7 -4.3,3.6 -1.7,0.8 -3.8,1.3 -6.1,1.3 -2.9,0 -5.9,-1.1 -8.9,-3.1 -2.9,-2.1 -6.1,-5.1 -9.5,-9 v -52.1 c 0,-0.6 -0.2,-1.1 -0.6,-1.5 -0.4,-0.5 -1.1,-0.8 -2,-1.1 -0.9,-0.3 -2.2,-0.6 -3.7,-0.7 -1.6,-0.1 -3.5,-0.2 -5.9,-0.2 -2.4,0 -4.4,0.1 -5.9,0.2 -1.6,0.1 -2.8,0.4 -3.7,0.7 -1,0.3 -1.6,0.6 -2,1.1 -0.4,0.4 -0.6,0.9 -0.6,1.5 v 78.4 c 0,0.6 0.2,1.1 0.5,1.5 0.3,0.5 0.9,0.8 1.7,1.1 0.9,0.3 1.9,0.5 3.3,0.7 1.3,0.1 2.9,0.2 4.9,0.2 2.1,0 3.8,-0.1 5.2,-0.2 1.3,-0.2 2.4,-0.4 3.1,-0.7 0.7,-0.3 1.3,-0.6 1.6,-1.1 0.3,-0.4 0.5,-0.9 0.5,-1.5 v -9.1 c 4.7,4.7 9.5,8.2 14.2,10.6 4.8,2.3 9.7,3.5 14.9,3.5 3.5,0 6.7,-0.3 9.5,-1 2.9,-0.7 5.4,-1.6 7.6,-2.9 2.3,-1.3 4.2,-2.8 5.8,-4.5 1.6,-1.8 3,-3.8 4.1,-5.9 2.5,2.5 5.1,4.7 7.5,6.5 2.5,1.8 5,3.3 7.4,4.4 2.4,1.2 4.8,2 7.2,2.6 2.5,0.5 4.9,0.8 7.4,0.8 5.8,0 10.6,-0.9 14.5,-2.6 4,-1.8 7.1,-4.2 9.6,-7.2 2.4,-3 4.1,-6.5 5.1,-10.6 1.1,-4 1.6,-8.3 1.6,-12.8 z m 103.3,41.5 c 0,-2.7 -0.7,-4.7 -2,-6 -1.3,-1.3 -3.2,-1.9 -5.5,-1.9 h -52.5 c 0,-3.4 0.4,-6.4 1.3,-9.1 0.9,-2.7 2.3,-5.1 4.2,-7 1.9,-1.9 4.3,-3.3 7.3,-4.3 3,-1 6.6,-1.5 10.8,-1.5 4.3,0 8,0.3 11.2,0.8 3.2,0.6 6,1.2 8.4,1.9 2.3,0.6 4.3,1.3 5.8,1.8 1.6,0.6 2.8,0.8 3.8,0.8 0.6,0 1.1,-0.1 1.5,-0.3 0.3,-0.2 0.7,-0.5 0.9,-1.1 0.3,-0.5 0.5,-1.2 0.5,-2.2 0.1,-1 0.2,-2.2 0.2,-3.6 0,-1.3 0,-2.4 -0.1,-3.3 -0.1,-1 -0.2,-1.7 -0.3,-2.4 -0.1,-0.6 -0.3,-1.2 -0.6,-1.6 -0.2,-0.4 -0.6,-0.9 -1,-1.3 -0.4,-0.4 -1.6,-0.9 -3.4,-1.6 -1.9,-0.7 -4.3,-1.4 -7.2,-2.1 -2.9,-0.7 -6.2,-1.3 -9.9,-1.8 -3.8,-0.5 -7.8,-0.7 -12,-0.7 -7.7,0 -14.4,0.9 -20.2,2.6 -5.7,1.8 -10.6,4.4 -14.4,8 -3.9,3.6 -6.8,8.1 -8.7,13.6 -1.9,5.4 -2.8,11.8 -2.8,19.1 0,7 1,13.3 3,18.9 2,5.6 4.9,10.3 8.7,14.2 3.8,3.9 8.4,6.9 13.8,8.9 5.5,2.1 11.6,3.1 18.5,3.1 7.2,0 13.3,-1 18.5,-2.9 5.1,-1.9 9.3,-4.6 12.6,-8 3.3,-3.5 5.7,-7.5 7.2,-12.2 1.6,-4.7 2.4,-9.8 2.4,-15.3 z m -23.6,6.3 c 0.2,6.2 -1.2,11.1 -4.1,14.6 -3,3.6 -7.5,5.4 -13.6,5.4 -3.1,0 -5.8,-0.6 -8.1,-1.6 -2.3,-1.1 -4.2,-2.5 -5.7,-4.3 -1.5,-1.8 -2.7,-3.9 -3.5,-6.3 -0.8,-2.4 -1.3,-5 -1.4,-7.8 z m 98.9,23.3 c 0,-2.1 -0.1,-3.8 -0.2,-5.2 -0.1,-1.3 -0.3,-2.4 -0.6,-3.1 -0.2,-0.8 -0.6,-1.3 -1,-1.6 -0.4,-0.3 -1,-0.5 -1.6,-0.5 -0.5,0 -1.1,0.1 -1.7,0.3 -0.7,0.2 -1.4,0.5 -2.2,0.7 -0.8,0.2 -1.7,0.5 -2.7,0.7 -0.9,0.2 -2,0.3 -3.2,0.3 -1.3,0 -2.7,-0.3 -4,-0.8 -1.4,-0.5 -2.8,-1.3 -4.2,-2.3 -1.5,-1.1 -3,-2.5 -4.6,-4.2 -1.5,-1.8 -3.2,-4 -5,-6.5 v -48.9 c 0,-0.6 -0.2,-1.1 -0.6,-1.5 -0.4,-0.5 -1.1,-0.8 -2,-1.1 -0.9,-0.3 -2.2,-0.6 -3.7,-0.7 -1.6,-0.1 -3.5,-0.2 -5.9,-0.2 -2.4,0 -4.4,0.1 -5.9,0.2 -1.6,0.1 -2.8,0.4 -3.7,0.7 -1,0.3 -1.6,0.6 -2,1.1 -0.4,0.4 -0.6,0.9 -0.6,1.5 v 78.4 c 0,0.6 0.2,1.1 0.5,1.5 0.3,0.5 0.9,0.8 1.7,1.1 0.9,0.3 1.9,0.5 3.3,0.7 1.3,0.1 2.9,0.2 4.9,0.2 2.1,0 3.8,-0.1 5.2,-0.2 1.3,-0.2 2.4,-0.4 3.1,-0.7 0.7,-0.3 1.3,-0.6 1.6,-1.1 0.3,-0.4 0.5,-0.9 0.5,-1.5 v -9.8 c 2.2,3 4.4,5.4 6.4,7.3 2,1.9 3.9,3.4 5.7,4.5 1.8,1.1 3.6,1.9 5.4,2.3 1.8,0.5 3.6,0.7 5.4,0.7 0.8,0 1.7,0 2.7,-0.1 1,-0.1 2,-0.3 3,-0.5 1,-0.2 1.9,-0.4 2.7,-0.7 0.8,-0.2 1.3,-0.5 1.7,-0.8 0.3,-0.3 0.6,-0.6 0.8,-1 0.1,-0.3 0.3,-0.8 0.4,-1.4 0.1,-0.6 0.2,-1.6 0.3,-2.8 0.1,-1.2 0.1,-2.9 0.1,-5" /><path
         id="path546"
         style="fill:#ffffff;fill-opacity:1;fill-rule:evenodd;stroke:none"
         d="m 5308.02,3292.5 h 2955.1 v 1454.1 h -2955.1 z" /><path
         id="path548"
         style="fill:none;stroke:#f9b90a;stroke-width:22.5;stroke-linecap:round;stroke-linejoin:round;stroke-miterlimit:10;stroke-dasharray:none;stroke-opacity:1"
         d="m 5308.02,3292.5 h 2955.1 v 1454.1 h -2955.1 z" /><path
         id="path550"
         style="fill:#84661e;fill-opacity:1;fill-rule:nonzero;stroke:none"
         d="m 5468.22,4560.9 c 0,-1.4 -0.1,-2.7 -0.2,-3.7 -0.1,-1 -0.2,-1.9 -0.4,-2.6 -0.2,-0.8 -0.5,-1.4 -0.8,-1.9 -0.3,-0.6 -0.8,-1.2 -1.5,-1.8 -0.7,-0.7 -2.1,-1.6 -4.1,-2.6 -2.1,-1.1 -4.6,-2.1 -7.5,-3.1 -2.9,-0.9 -6.3,-1.7 -10,-2.4 -3.8,-0.6 -7.9,-0.9 -12.3,-0.9 -8.5,0 -16.3,1.2 -23.2,3.6 -6.9,2.4 -12.7,6 -17.6,10.7 -4.8,4.8 -8.5,10.8 -11.1,17.9 -2.6,7.2 -3.9,15.5 -3.9,25 0,9.6 1.5,18.2 4.3,25.7 2.8,7.5 6.8,13.8 11.9,18.9 5.1,5.1 11.2,9 18.3,11.6 7.1,2.7 15,4 23.6,4 3.4,0 6.8,-0.3 10,-0.8 3.2,-0.5 6.2,-1.2 9,-2.1 2.7,-0.8 5.2,-1.8 7.3,-2.9 2.2,-1.1 3.8,-2.1 4.6,-2.9 0.9,-0.8 1.5,-1.4 1.8,-1.9 0.4,-0.6 0.6,-1.3 0.8,-2.1 0.2,-0.8 0.3,-1.8 0.4,-2.9 0.1,-1.1 0.2,-2.5 0.2,-4.1 0,-1.8 -0.1,-3.3 -0.2,-4.5 -0.1,-1.2 -0.4,-2.2 -0.7,-3 -0.3,-0.7 -0.7,-1.3 -1.1,-1.6 -0.5,-0.4 -1,-0.6 -1.6,-0.6 -1,0 -2.2,0.5 -3.7,1.6 -1.5,1 -3.4,2.1 -5.7,3.4 -2.4,1.3 -5.2,2.4 -8.4,3.4 -3.3,1 -7.2,1.6 -11.7,1.6 -4.9,0 -9.4,-1 -13.3,-2.8 -3.9,-1.9 -7.2,-4.5 -9.9,-7.9 -2.8,-3.4 -4.9,-7.6 -6.3,-12.5 -1.4,-4.8 -2.1,-10.3 -2.1,-16.4 0,-6.7 0.8,-12.5 2.3,-17.3 1.5,-4.9 3.6,-9 6.5,-12.1 2.8,-3.2 6.1,-5.6 10.1,-7.1 4,-1.6 8.4,-2.3 13.4,-2.3 4.5,0 8.4,0.4 11.7,1.4 3.3,1 6.1,2 8.5,3.2 2.3,1.2 4.2,2.2 5.8,3.2 1.5,0.9 2.6,1.4 3.5,1.4 0.6,0 1.1,-0.1 1.5,-0.4 0.4,-0.2 0.7,-0.7 1,-1.4 0.3,-0.7 0.4,-1.7 0.6,-2.9 0.1,-1.3 0.2,-3 0.2,-5.1 z m 98.2,-14.2 c 0,-0.6 -0.2,-1.1 -0.5,-1.5 -0.3,-0.5 -0.9,-0.8 -1.7,-1.1 -0.8,-0.3 -1.9,-0.6 -3.2,-0.7 -1.3,-0.1 -3,-0.2 -5,-0.2 -2.1,0 -3.8,0.1 -5.1,0.2 -1.4,0.1 -2.4,0.4 -3.2,0.7 -0.8,0.3 -1.3,0.6 -1.6,1.1 -0.3,0.4 -0.5,0.9 -0.5,1.5 v 9.1 c -4.8,-4.7 -9.6,-8.3 -14.6,-10.6 -4.9,-2.3 -10,-3.5 -15.3,-3.5 -5.9,0 -10.9,0.9 -14.9,2.6 -4,1.8 -7.3,4.2 -9.8,7.2 -2.5,3.1 -4.2,6.6 -5.3,10.6 -1.1,4 -1.6,9 -1.6,15 v 48 c 0,0.6 0.2,1.1 0.5,1.5 0.4,0.5 1,0.8 2,1.1 0.9,0.3 2.2,0.5 3.7,0.7 1.6,0.1 3.6,0.2 5.9,0.2 2.4,0 4.3,-0.1 5.9,-0.2 1.5,-0.2 2.8,-0.4 3.7,-0.7 0.9,-0.3 1.6,-0.6 2,-1.1 0.4,-0.4 0.6,-0.9 0.6,-1.5 v -44.3 c 0,-4.1 0.3,-7.2 0.8,-9.4 0.6,-2.2 1.5,-4 2.7,-5.6 1.2,-1.5 2.7,-2.7 4.5,-3.6 1.9,-0.8 4,-1.3 6.5,-1.3 3.1,0 6.2,1.1 9.3,3.1 3.1,2.1 6.5,5.1 10,9 v 52.1 c 0,0.6 0.2,1.1 0.5,1.5 0.4,0.5 1,0.8 2,1.1 0.9,0.3 2.2,0.5 3.7,0.7 1.5,0.1 3.5,0.2 5.9,0.2 2.4,0 4.3,-0.1 5.9,-0.2 1.5,-0.2 2.8,-0.4 3.7,-0.7 0.9,-0.3 1.5,-0.6 1.9,-1.1 0.4,-0.4 0.6,-0.9 0.6,-1.5 z m 85.7,22.1 c 0,-4.4 -0.9,-8.3 -2.8,-11.7 -1.8,-3.4 -4.4,-6.3 -7.7,-8.6 -3.4,-2.2 -7.3,-4 -11.9,-5.1 -4.6,-1.1 -9.6,-1.7 -14.9,-1.7 -3.2,0 -6.3,0.2 -9.2,0.6 -3,0.5 -5.6,1 -7.9,1.7 -2.3,0.7 -4.3,1.4 -5.8,2.1 -1.6,0.7 -2.7,1.3 -3.4,2 -0.7,0.6 -1.3,1.5 -1.7,2.9 -0.3,1.3 -0.5,3.2 -0.5,5.8 0,1.7 0,3.1 0.2,4.1 0.1,1 0.3,1.8 0.5,2.5 0.3,0.6 0.6,1 1,1.2 0.4,0.2 0.9,0.3 1.5,0.3 0.7,0 1.7,-0.4 3.1,-1.1 1.4,-0.7 3.1,-1.5 5.2,-2.4 2,-0.9 4.4,-1.7 7.2,-2.5 2.7,-0.7 5.8,-1.1 9.3,-1.1 2.2,0 4.1,0.2 5.9,0.6 1.7,0.4 3.1,1 4.4,1.7 1.3,0.8 2.2,1.8 2.9,2.9 0.6,1.2 0.9,2.6 0.9,4.1 0,1.7 -0.6,3.3 -1.8,4.5 -1.2,1.3 -2.7,2.4 -4.7,3.3 -2,0.9 -4.2,1.8 -6.7,2.6 -2.5,0.9 -5,1.8 -7.6,2.8 -2.6,1 -5.2,2.1 -7.7,3.4 -2.4,1.3 -4.7,2.9 -6.6,4.7 -2,1.9 -3.6,4.2 -4.8,6.8 -1.2,2.6 -1.8,5.8 -1.8,9.5 0,3.8 0.9,7.2 2.5,10.3 1.6,3.2 3.9,5.8 6.9,8.1 3.1,2.2 6.7,3.9 11.1,5.2 4.3,1.2 9.2,1.8 14.6,1.8 2.8,0 5.4,-0.2 7.9,-0.5 2.6,-0.4 4.9,-0.8 6.9,-1.3 2.1,-0.6 3.8,-1.1 5.3,-1.8 1.4,-0.6 2.4,-1.1 3,-1.5 0.6,-0.5 1,-0.9 1.3,-1.4 0.3,-0.4 0.5,-0.9 0.6,-1.5 0.1,-0.7 0.2,-1.4 0.3,-2.3 0.1,-0.9 0.2,-2.1 0.2,-3.4 0,-1.6 -0.1,-2.9 -0.2,-3.9 -0.1,-1 -0.2,-1.8 -0.5,-2.3 -0.2,-0.6 -0.5,-1 -0.9,-1.2 -0.4,-0.2 -0.8,-0.3 -1.3,-0.3 -0.6,0 -1.5,0.3 -2.7,0.9 -1.3,0.6 -2.8,1.3 -4.6,2 -1.9,0.7 -4,1.3 -6.4,1.9 -2.4,0.7 -5.2,1 -8.3,1 -2.2,0 -4.1,-0.2 -5.7,-0.7 -1.6,-0.4 -2.9,-1 -3.9,-1.7 -1.1,-0.8 -1.8,-1.7 -2.4,-2.7 -0.5,-1 -0.7,-2.1 -0.7,-3.3 0,-1.8 0.6,-3.3 1.8,-4.6 1.2,-1.2 2.8,-2.3 4.8,-3.2 2,-0.9 4.3,-1.8 6.8,-2.6 2.6,-0.9 5.2,-1.8 7.8,-2.7 2.6,-1 5.2,-2.1 7.7,-3.4 2.6,-1.3 4.8,-2.9 6.8,-4.8 2,-1.8 3.6,-4.1 4.9,-6.7 1.2,-2.6 1.8,-5.7 1.8,-9.3 z m 69.5,-14.4 c 0,-2.5 -0.1,-4.5 -0.5,-5.9 -0.3,-1.4 -0.8,-2.3 -1.4,-2.9 -0.6,-0.6 -1.4,-1.1 -2.6,-1.5 -1.1,-0.4 -2.4,-0.8 -3.9,-1.1 -1.5,-0.4 -3.2,-0.6 -5,-0.8 -1.7,-0.2 -3.5,-0.2 -5.3,-0.2 -4.9,0 -9,0.5 -12.6,1.6 -3.5,1.1 -6.5,2.8 -8.8,5.2 -2.3,2.3 -4,5.2 -5.1,8.7 -1.1,3.5 -1.7,7.7 -1.7,12.5 v 40.2 h -10.3 c -1.2,0 -2.2,0.6 -2.8,2 -0.6,1.4 -1,3.7 -1,6.9 0,1.7 0.1,3.2 0.3,4.3 0.1,1.2 0.4,2.1 0.7,2.8 0.3,0.7 0.7,1.2 1.2,1.4 0.5,0.3 1.1,0.5 1.7,0.5 h 10.2 v 17.5 c 0,0.6 0.2,1.1 0.6,1.6 0.3,0.4 1,0.8 1.9,1.1 0.9,0.4 2.2,0.6 3.8,0.7 1.6,0.2 3.5,0.3 5.8,0.3 2.4,0 4.4,-0.1 6,-0.3 1.6,-0.1 2.8,-0.3 3.7,-0.7 0.9,-0.3 1.5,-0.7 1.9,-1.1 0.4,-0.5 0.6,-1 0.6,-1.6 v -17.5 h 18.8 c 0.6,0 1.2,-0.2 1.7,-0.5 0.4,-0.2 0.8,-0.7 1.2,-1.4 0.3,-0.7 0.5,-1.6 0.7,-2.8 0.2,-1.1 0.2,-2.6 0.2,-4.3 0,-3.2 -0.3,-5.5 -0.9,-6.9 -0.7,-1.4 -1.6,-2 -2.8,-2 h -18.9 v -36.9 c 0,-4.2 0.8,-7.5 2.2,-9.6 1.5,-2.1 4.2,-3.2 8,-3.2 1.3,0 2.4,0.1 3.4,0.3 1.1,0.2 2,0.4 2.8,0.7 0.8,0.3 1.5,0.5 2,0.7 0.6,0.2 1.1,0.3 1.5,0.3 0.4,0 0.8,-0.1 1.1,-0.3 0.4,-0.2 0.7,-0.6 0.9,-1.2 0.2,-0.6 0.3,-1.5 0.5,-2.5 0.2,-1.1 0.2,-2.4 0.2,-4.1 z m 104.6,32.3 c 0,-6.7 -1,-12.8 -2.9,-18.3 -1.9,-5.5 -4.9,-10.2 -8.8,-14.2 -3.9,-4 -8.9,-7.1 -14.8,-9.3 -5.9,-2.1 -12.9,-3.2 -20.8,-3.2 -7.7,0 -14.3,1 -20,2.9 -5.7,1.9 -10.4,4.7 -14.1,8.4 -3.7,3.7 -6.5,8.3 -8.3,13.6 -1.8,5.4 -2.7,11.6 -2.7,18.5 0,6.7 1,12.8 2.9,18.3 2,5.6 4.9,10.3 8.9,14.3 3.9,3.9 8.8,7 14.7,9.2 5.9,2.1 12.8,3.2 20.7,3.2 7.8,0 14.5,-0.9 20.2,-2.9 5.6,-1.9 10.3,-4.7 14,-8.3 3.7,-3.7 6.5,-8.3 8.3,-13.7 1.8,-5.4 2.7,-11.5 2.7,-18.5 z m -25,-0.9 c 0,3.9 -0.4,7.4 -1.1,10.7 -0.6,3.2 -1.8,6.1 -3.4,8.5 -1.6,2.4 -3.7,4.2 -6.4,5.6 -2.7,1.3 -6.1,2 -10.1,2 -3.6,0 -6.8,-0.6 -9.5,-1.8 -2.7,-1.2 -4.9,-2.9 -6.7,-5.3 -1.7,-2.3 -3,-5.1 -3.9,-8.3 -0.9,-3.3 -1.3,-7 -1.3,-11.1 0,-3.9 0.4,-7.5 1.1,-10.7 0.7,-3.3 1.8,-6.1 3.4,-8.5 1.6,-2.4 3.7,-4.3 6.4,-5.6 2.7,-1.3 6.1,-1.9 10.1,-1.9 3.7,0 6.9,0.6 9.6,1.8 2.7,1.2 4.9,2.9 6.6,5.2 1.8,2.3 3.1,5 3.9,8.3 0.8,3.2 1.3,6.9 1.3,11.1 z m 181.8,-39.1 c 0,-0.6 -0.2,-1.1 -0.6,-1.5 -0.4,-0.5 -1,-0.8 -1.9,-1.1 -0.9,-0.3 -2.2,-0.6 -3.7,-0.7 -1.6,-0.1 -3.5,-0.2 -5.9,-0.2 -2.5,0 -4.5,0.1 -6,0.2 -1.5,0.1 -2.8,0.4 -3.7,0.7 -1,0.3 -1.6,0.6 -2,1.1 -0.3,0.4 -0.5,0.9 -0.5,1.5 v 46.5 c 0,2.6 -0.3,5 -0.8,7.2 -0.6,2.2 -1.4,4 -2.5,5.6 -1.2,1.5 -2.6,2.7 -4.3,3.6 -1.7,0.8 -3.7,1.3 -6.1,1.3 -2.9,0 -5.8,-1.1 -8.8,-3.1 -3,-2.1 -6.2,-5.1 -9.7,-9 v -52.1 c 0,-0.6 -0.2,-1.1 -0.6,-1.5 -0.3,-0.5 -1,-0.8 -1.9,-1.1 -1,-0.3 -2.2,-0.6 -3.8,-0.7 -1.5,-0.1 -3.4,-0.2 -5.8,-0.2 -2.4,0 -4.3,0.1 -5.9,0.2 -1.5,0.1 -2.8,0.4 -3.7,0.7 -0.9,0.3 -1.6,0.6 -2,1.1 -0.4,0.4 -0.5,0.9 -0.5,1.5 v 46.5 c 0,2.6 -0.3,5 -0.9,7.2 -0.5,2.2 -1.3,4 -2.4,5.6 -1.1,1.5 -2.5,2.7 -4.3,3.6 -1.7,0.8 -3.8,1.3 -6.1,1.3 -2.9,0 -5.9,-1.1 -8.9,-3.1 -2.9,-2.1 -6.1,-5.1 -9.5,-9 v -52.1 c 0,-0.6 -0.2,-1.1 -0.6,-1.5 -0.4,-0.5 -1.1,-0.8 -2,-1.1 -0.9,-0.3 -2.2,-0.6 -3.7,-0.7 -1.6,-0.1 -3.5,-0.2 -5.9,-0.2 -2.4,0 -4.4,0.1 -5.9,0.2 -1.6,0.1 -2.8,0.4 -3.7,0.7 -1,0.3 -1.6,0.6 -2,1.1 -0.4,0.4 -0.6,0.9 -0.6,1.5 v 78.4 c 0,0.6 0.2,1.1 0.5,1.5 0.3,0.5 0.9,0.8 1.7,1.1 0.9,0.3 1.9,0.5 3.3,0.7 1.3,0.1 2.9,0.2 4.9,0.2 2.1,0 3.8,-0.1 5.2,-0.2 1.3,-0.2 2.4,-0.4 3.1,-0.7 0.7,-0.3 1.3,-0.6 1.6,-1.1 0.3,-0.4 0.5,-0.9 0.5,-1.5 v -9.1 c 4.7,4.7 9.5,8.2 14.2,10.6 4.8,2.3 9.7,3.5 14.9,3.5 3.5,0 6.7,-0.3 9.5,-1 2.9,-0.7 5.4,-1.6 7.6,-2.9 2.3,-1.3 4.2,-2.8 5.8,-4.5 1.6,-1.8 3,-3.8 4.1,-5.9 2.5,2.5 5.1,4.7 7.5,6.5 2.5,1.8 5,3.3 7.4,4.4 2.4,1.2 4.8,2 7.2,2.6 2.5,0.5 4.9,0.8 7.4,0.8 5.8,0 10.6,-0.9 14.5,-2.6 4,-1.8 7.1,-4.2 9.6,-7.2 2.4,-3 4.1,-6.5 5.1,-10.6 1.1,-4 1.6,-8.3 1.6,-12.8 z m 103.3,41.5 c 0,-2.7 -0.7,-4.7 -2,-6 -1.3,-1.3 -3.2,-1.9 -5.5,-1.9 h -52.5 c 0,-3.4 0.4,-6.4 1.3,-9.1 0.9,-2.7 2.3,-5.1 4.2,-7 1.9,-1.9 4.3,-3.3 7.3,-4.3 3,-1 6.6,-1.5 10.8,-1.5 4.3,0 8,0.3 11.2,0.8 3.2,0.6 6,1.2 8.4,1.9 2.3,0.6 4.3,1.3 5.8,1.8 1.6,0.6 2.8,0.8 3.8,0.8 0.6,0 1.1,-0.1 1.5,-0.3 0.3,-0.2 0.7,-0.5 0.9,-1.1 0.3,-0.5 0.5,-1.2 0.5,-2.2 0.1,-1 0.2,-2.2 0.2,-3.6 0,-1.3 0,-2.4 -0.1,-3.3 -0.1,-1 -0.2,-1.7 -0.3,-2.4 -0.1,-0.6 -0.3,-1.2 -0.6,-1.6 -0.2,-0.4 -0.6,-0.9 -1,-1.3 -0.4,-0.4 -1.6,-0.9 -3.4,-1.6 -1.9,-0.7 -4.3,-1.4 -7.2,-2.1 -2.9,-0.7 -6.2,-1.3 -9.9,-1.8 -3.8,-0.5 -7.8,-0.7 -12,-0.7 -7.7,0 -14.4,0.9 -20.2,2.6 -5.7,1.8 -10.6,4.4 -14.4,8 -3.9,3.6 -6.8,8.1 -8.7,13.6 -1.9,5.4 -2.8,11.8 -2.8,19.1 0,7 1,13.3 3,18.9 2,5.6 4.9,10.3 8.7,14.2 3.8,3.9 8.4,6.9 13.8,8.9 5.5,2.1 11.6,3.1 18.5,3.1 7.2,0 13.3,-1 18.5,-2.9 5.1,-1.9 9.3,-4.6 12.6,-8 3.3,-3.5 5.7,-7.5 7.2,-12.2 1.6,-4.7 2.4,-9.8 2.4,-15.3 z m -23.6,6.3 c 0.2,6.2 -1.2,11.1 -4.1,14.6 -3,3.6 -7.5,5.4 -13.6,5.4 -3.1,0 -5.8,-0.6 -8.1,-1.6 -2.3,-1.1 -4.2,-2.5 -5.7,-4.3 -1.5,-1.8 -2.7,-3.9 -3.5,-6.3 -0.8,-2.4 -1.3,-5 -1.4,-7.8 z m 98.9,23.3 c 0,-2.1 -0.1,-3.8 -0.2,-5.2 -0.1,-1.3 -0.3,-2.4 -0.6,-3.1 -0.2,-0.8 -0.6,-1.3 -1,-1.6 -0.4,-0.3 -1,-0.5 -1.6,-0.5 -0.5,0 -1.1,0.1 -1.7,0.3 -0.7,0.2 -1.4,0.5 -2.2,0.7 -0.8,0.2 -1.7,0.5 -2.7,0.7 -0.9,0.2 -2,0.3 -3.2,0.3 -1.3,0 -2.7,-0.3 -4,-0.8 -1.4,-0.5 -2.8,-1.3 -4.2,-2.3 -1.5,-1.1 -3,-2.5 -4.6,-4.2 -1.5,-1.8 -3.2,-4 -5,-6.5 v -48.9 c 0,-0.6 -0.2,-1.1 -0.6,-1.5 -0.4,-0.5 -1.1,-0.8 -2,-1.1 -0.9,-0.3 -2.2,-0.6 -3.7,-0.7 -1.6,-0.1 -3.5,-0.2 -5.9,-0.2 -2.4,0 -4.4,0.1 -5.9,0.2 -1.6,0.1 -2.8,0.4 -3.7,0.7 -1,0.3 -1.6,0.6 -2,1.1 -0.4,0.4 -0.6,0.9 -0.6,1.5 v 78.4 c 0,0.6 0.2,1.1 0.5,1.5 0.3,0.5 0.9,0.8 1.7,1.1 0.9,0.3 1.9,0.5 3.3,0.7 1.3,0.1 2.9,0.2 4.9,0.2 2.1,0 3.8,-0.1 5.2,-0.2 1.3,-0.2 2.4,-0.4 3.1,-0.7 0.7,-0.3 1.3,-0.6 1.6,-1.1 0.3,-0.4 0.5,-0.9 0.5,-1.5 v -9.8 c 2.2,3 4.4,5.4 6.4,7.3 2,1.9 3.9,3.4 5.7,4.5 1.8,1.1 3.6,1.9 5.4,2.3 1.8,0.5 3.6,0.7 5.4,0.7 0.8,0 1.7,0 2.7,-0.1 1,-0.1 2,-0.3 3,-0.5 1,-0.2 1.9,-0.4 2.7,-0.7 0.8,-0.2 1.3,-0.5 1.7,-0.8 0.3,-0.3 0.6,-0.6 0.8,-1 0.1,-0.3 0.3,-0.8 0.4,-1.4 0.1,-0.6 0.2,-1.6 0.3,-2.8 0.1,-1.2 0.1,-2.9 0.1,-5" /><path
         id="path552"
         style="fill:none;stroke:#b1b0b0;stroke-width:22.5;stroke-linecap:round;stroke-linejoin:round;stroke-miterlimit:10;stroke-dasharray:none;stroke-opacity:1"
         d="m 6153.52,4361.9 -191.6,2542.3" /><path
         id="path554"
         style="fill:none;stroke:#b1b0b0;stroke-width:22.5;stroke-linecap:round;stroke-linejoin:round;stroke-miterlimit:10;stroke-dasharray:none;stroke-opacity:1"
         d="m 6013.12,6860.2 -51.2,44 -44,-51.1" /><path
         id="path556"
         style="fill:none;stroke:#b1b0b0;stroke-width:22.5;stroke-linecap:round;stroke-linejoin:round;stroke-miterlimit:10;stroke-dasharray:none;stroke-opacity:1"
         d="m 6001.12,4186.7 -655.4,877.1" /><path
         id="path558"
         style="fill:none;stroke:#b1b0b0;stroke-width:22.5;stroke-linecap:round;stroke-linejoin:round;stroke-miterlimit:10;stroke-dasharray:none;stroke-opacity:1"
         d="m 5412.52,5054.1 -66.8,9.7 -9.7,-66.8" /><path
         id="path560"
         style="fill:none;stroke:#b1b0b0;stroke-width:22.5;stroke-linecap:round;stroke-linejoin:round;stroke-miterlimit:10;stroke-dasharray:none;stroke-opacity:1"
         d="M 5967.12,4097.6 3949.32,3842.7" /><path
         id="path562"
         style="fill:none;stroke:#b1b0b0;stroke-width:22.5;stroke-linecap:round;stroke-linejoin:round;stroke-miterlimit:10;stroke-dasharray:none;stroke-opacity:1"
         d="m 3990.62,3896 -41.3,-53.3 53.3,-41.4" /><path
         id="path564"
         style="fill:none;stroke:#b1b0b0;stroke-width:22.5;stroke-linecap:round;stroke-linejoin:round;stroke-miterlimit:10;stroke-dasharray:none;stroke-opacity:1"
         d="M 5967.12,3867.8 2289.42,1637.3" /><path
         id="path566"
         style="fill:none;stroke:#b1b0b0;stroke-width:22.5;stroke-linecap:round;stroke-linejoin:round;stroke-miterlimit:10;stroke-dasharray:none;stroke-opacity:1"
         d="m 2305.52,1702.9 -16.1,-65.6 65.5,-16" /><path
         id="path568"
         style="fill:none;stroke:#b1b0b0;stroke-width:22.5;stroke-linecap:round;stroke-linejoin:round;stroke-miterlimit:10;stroke-dasharray:none;stroke-opacity:1"
         d="m 6239.22,3655.2 356.4,-1401" /><path
         id="path570"
         style="fill:none;stroke:#b1b0b0;stroke-width:22.5;stroke-linecap:round;stroke-linejoin:round;stroke-miterlimit:10;stroke-dasharray:none;stroke-opacity:1"
         d="m 6537.62,2288.7 58,-34.5 34.4,58" /><path
         id="path572"
         style="fill:none;stroke:#b1b0b0;stroke-width:22.5;stroke-linecap:round;stroke-linejoin:round;stroke-miterlimit:10;stroke-dasharray:none;stroke-opacity:1"
         d="M 7656.52,3757.5 10666,2469.6" /><path
         id="path574"
         style="fill:none;stroke:#b1b0b0;stroke-width:22.5;stroke-linecap:round;stroke-linejoin:round;stroke-miterlimit:10;stroke-dasharray:none;stroke-opacity:1"
         d="m 10603.4,2444.6 62.6,25 -25.1,62.7" /><path
         id="path576"
         style="fill:none;stroke:#b1b0b0;stroke-width:22.5;stroke-linecap:round;stroke-linejoin:round;stroke-miterlimit:10;stroke-dasharray:none;stroke-opacity:1"
         d="m 7724.52,4040.9 3076.28,-28.3" /><path
         id="path578"
         style="fill:none;stroke:#b1b0b0;stroke-width:22.5;stroke-linecap:round;stroke-linejoin:round;stroke-miterlimit:10;stroke-dasharray:none;stroke-opacity:1"
         d="m 10752.6,3965.3 48.2,47.3 -47.3,48.1" /><path
         id="path580"
         style="fill:none;stroke:#b1b0b0;stroke-width:22.5;stroke-linecap:round;stroke-linejoin:round;stroke-miterlimit:10;stroke-dasharray:none;stroke-opacity:1"
         d="m 6307.22,4151.3 985.8,1170.6" /><path
         id="path582"
         style="fill:none;stroke:#b1b0b0;stroke-width:22.5;stroke-linecap:round;stroke-linejoin:round;stroke-miterlimit:10;stroke-dasharray:none;stroke-opacity:1"
         d="m 7298.72,5254.7 -5.7,67.2 -67.3,-5.8" /><path
         id="path584"
         style="fill:#ffffff;fill-opacity:1;fill-rule:evenodd;stroke:none"
         d="m 6035.12,3655.2 v 354.3 -141.7 h -68 v 283.5 l 34,35.4 h 272.1 l 34,-35.4 v -283.5 h -68 v 141.7 -354.3 h -102.1 v 283.5 -283.5 z m 172.9,637.8 c 0,39.1 -31.7,70.9 -70.9,70.9 -39.1,0 -70.8,-31.8 -70.8,-70.9 0,-39.2 31.7,-70.9 70.8,-70.9 39.2,0 70.9,31.7 70.9,70.9" /><path
         id="path586"
         style="fill:none;stroke:#f9b90a;stroke-width:20;stroke-linecap:round;stroke-linejoin:round;stroke-miterlimit:10;stroke-dasharray:none;stroke-opacity:1"
         d="m 6035.12,3655.2 v 354.3 -141.7 h -68 v 283.5 l 34,35.4 h 272.1 l 34,-35.4 v -283.5 h -68 v 141.7 -354.3 h -102.1 v 283.5 -283.5 z m 172.9,637.8 c 0,39.1 -31.7,70.9 -70.9,70.9 -39.1,0 -70.8,-31.8 -70.8,-70.9 0,-39.2 31.7,-70.9 70.8,-70.9 39.2,0 70.9,31.7 70.9,70.9 z" /><g
         transform="scale(10)"
         id="g588"><text
           id="text592"
           style="font-variant:normal;font-weight:normal;font-size:18px;font-family:Calibri;-inkscape-font-specification:Calibri;writing-mode:lr-tb;fill:#84661e;fill-opacity:1;fill-rule:nonzero;stroke:none"
           transform="matrix(1,0,0,-1,553.002,345.27)"><tspan
             id="tspan590"
             y="0"
             x="0 10.422 19.872 29.322001 35.604 45.09 49.229969 58.67997 69.101967 78.407967 87.713966 99.269966 106.30797 115.20004">AndroidAPPUser</tspan></text>
</g><path
         id="path594"
         style="fill:#ffffff;fill-opacity:1;fill-rule:evenodd;stroke:none"
         d="m 7452.42,3655.2 v 354.3 -141.7 h -68 v 283.5 l 34,35.4 h 272.1 l 34,-35.4 v -283.5 h -68 v 141.7 -354.3 h -102 v 283.5 -283.5 z m 172.9,637.8 c 0,39.1 -31.7,70.9 -70.8,70.9 -39.2,0 -70.9,-31.8 -70.9,-70.9 0,-39.2 31.7,-70.9 70.9,-70.9 39.1,0 70.8,31.7 70.8,70.9" /><path
         id="path596"
         style="fill:none;stroke:#f9b90a;stroke-width:20;stroke-linecap:round;stroke-linejoin:round;stroke-miterlimit:10;stroke-dasharray:none;stroke-opacity:1"
         d="m 7452.42,3655.2 v 354.3 -141.7 h -68 v 283.5 l 34,35.4 h 272.1 l 34,-35.4 v -283.5 h -68 v 141.7 -354.3 h -102 v 283.5 -283.5 z m 172.9,637.8 c 0,39.1 -31.7,70.9 -70.8,70.9 -39.2,0 -70.9,-31.8 -70.9,-70.9 0,-39.2 31.7,-70.9 70.9,-70.9 39.1,0 70.8,31.7 70.8,70.9 z" /><g
         transform="scale(10)"
         id="g598"><text
           id="text602"
           style="font-variant:normal;font-weight:normal;font-size:18px;font-family:Calibri;-inkscape-font-specification:Calibri;writing-mode:lr-tb;fill:#84661e;fill-opacity:1;fill-rule:nonzero;stroke:none"
           transform="matrix(1,0,0,-1,688.002,345.27)"><tspan
             id="tspan600"
             y="0"
             x="0 10.422 19.872 29.322001 35.604 45.09 49.229969 58.67997 69.101967 78.407967 87.713966 97.919968 102.00588 109.04388 113.18388 119.26798 128.75398">AndroidAPPVisitor</tspan></text>
</g></g></g></svg>