<?xml version="1.0" encoding="us-ascii" standalone="no"?><svg xmlns="http://www.w3.org/2000/svg" xmlns:xlink="http://www.w3.org/1999/xlink" contentStyleType="text/css" height="565px" preserveAspectRatio="none" style="width:391px;height:565px;background:#FFFFFF;" version="1.1" viewBox="0 0 391 565" width="391px" zoomAndPan="magnify"><defs/><g><text fill="#000000" font-family="sans-serif" font-size="14" font-weight="bold" lengthAdjust="spacing" textLength="182" x="97.75" y="25.1074">Overall Use Case Diagram</text><!--cluster Embedded-System--><g id="cluster_Embedded-System"><path d="M108,45.6348 L239,45.6348 A3.75,3.75 0 0 1 241.5,48.1348 L248.5,70.2559 L382,70.2559 A2.5,2.5 0 0 1 384.5,72.7559 L384.5,556.1348 A2.5,2.5 0 0 1 382,558.6348 L108,558.6348 A2.5,2.5 0 0 1 105.5,556.1348 L105.5,48.1348 A2.5,2.5 0 0 1 108,45.6348 " fill="none" style="stroke:#000000;stroke-width:1.5;"/><line style="stroke:#000000;stroke-width:1.5;" x1="105.5" x2="248.5" y1="70.2559" y2="70.2559"/><text fill="#000000" font-family="sans-serif" font-size="14" font-weight="bold" lengthAdjust="spacing" textLength="130" x="109.5" y="62.7422">Embedded-System</text></g><g id="elem_CA"><ellipse cx="245.1633" cy="102.4674" fill="#F1F1F1" rx="87.1633" ry="19.8327" style="stroke:#181818;stroke-width:0.5;"/><text fill="#000000" font-family="sans-serif" font-size="14" lengthAdjust="spacing" textLength="127" x="178.6633" y="107.2711">Checks Accessibility</text></g><g id="elem_RRDA"><ellipse cx="244.8668" cy="184.7081" fill="#F1F1F1" rx="123.3668" ry="27.0734" style="stroke:#181818;stroke-width:0.5;"/><text fill="#000000" font-family="sans-serif" font-size="14" lengthAdjust="spacing" textLength="210" x="139.8668" y="188.505">Requests Real-time Data (Async)</text></g><g id="elem_RRDS"><ellipse cx="245.1469" cy="273.5642" fill="#F1F1F1" rx="120.1469" ry="26.4294" style="stroke:#181818;stroke-width:0.5;"/><text fill="#000000" font-family="sans-serif" font-size="14" lengthAdjust="spacing" textLength="203" x="143.6469" y="277.361">Requests Real-time Data (Sync)</text></g><g id="elem_RSC"><ellipse cx="245.142" cy="359.5632" fill="#F1F1F1" rx="110.142" ry="24.4284" style="stroke:#181818;stroke-width:0.5;"/><text fill="#000000" font-family="sans-serif" font-size="14" lengthAdjust="spacing" textLength="181" x="154.642" y="363.36">Requests Sensor Calibration</text></g><g id="elem_RSD"><ellipse cx="245.0796" cy="441.8507" fill="#F1F1F1" rx="99.0796" ry="22.2159" style="stroke:#181818;stroke-width:0.5;"/><text fill="#000000" font-family="sans-serif" font-size="14" lengthAdjust="spacing" textLength="156" x="165.6977" y="446.1462">Requests Sensor Details</text></g><g id="elem_RSS"><ellipse cx="244.7971" cy="520.5942" fill="#F1F1F1" rx="97.7971" ry="21.9594" style="stroke:#181818;stroke-width:0.5;"/><text fill="#000000" font-family="sans-serif" font-size="14" lengthAdjust="spacing" textLength="153" x="166.519" y="525.0213">Requests Sensor Status</text></g><!--entity Server--><g id="elem_Server"><ellipse cx="33" cy="293.1348" fill="#F1F1F1" rx="16" ry="16" style="stroke:#181818;stroke-width:1.5;"/><path d="M33,313.1348 C37,313.1348 40,313.1348 44,309.1348 C52,309.1348 60,317.1348 60,325.1348 L60,329.1348 C60,333.1348 56,337.1348 52,337.1348 L14,337.1348 C10,337.1348 6,333.1348 6,329.1348 L6,325.1348 C6,317.1348 14,309.1348 22,309.1348 C26,313.1348 29,313.1348 33,313.1348 " fill="#F1F1F1" style="stroke:#181818;stroke-width:1.5;"/><text fill="#000000" font-family="sans-serif" font-size="14" lengthAdjust="spacing" textLength="42" x="12" y="353.7422">Server</text></g><!--link Server to CA--><g id="link_Server_CA"><path d="M37.77,275.4348 C43.68,235.1048 58.82,174.7348 97.5,139.6348 C114.03,124.6348 135.75,115.5248 157.38,110.0348 " fill="none" id="Server-to-CA" style="stroke:#181818;stroke-width:1.0;"/><polygon fill="#181818" points="162.29,108.8548,152.603,107.0763,157.4294,110.027,154.4787,114.8534,162.29,108.8548" style="stroke:#181818;stroke-width:1.0;"/></g><!--link Server to RRDA--><g id="link_Server_RRDA"><path d="M56.35,275.2248 C66.93,258.9948 80.9,241.4648 97.5,229.6348 C112.55,218.9048 130.22,210.6848 147.98,204.4048 " fill="none" id="Server-to-RRDA" style="stroke:#181818;stroke-width:1.0;"/><polygon fill="#181818" points="152.99,202.6848,143.1803,201.807,148.2581,204.3002,145.765,209.378,152.99,202.6848" style="stroke:#181818;stroke-width:1.0;"/></g><!--link Server to RRDS--><g id="link_Server_RRDS"><path d="M61.89,310.9248 C84.87,306.2148 118.83,299.2648 151.23,292.6348 " fill="none" id="Server-to-RRDS" style="stroke:#181818;stroke-width:1.0;"/><polygon fill="#181818" points="156.41,291.5748,146.7919,289.4552,151.511,292.5746,148.3916,297.2936,156.41,291.5748" style="stroke:#181818;stroke-width:1.0;"/></g><!--link Server to RSC--><g id="link_Server_RSC"><path d="M61.89,322.3448 C86.56,327.3948 123.89,335.0448 158.34,342.0948 " fill="none" id="Server-to-RSC" style="stroke:#181818;stroke-width:1.0;"/><polygon fill="#181818" points="163.4,343.1348,155.3816,337.4159,158.501,342.135,153.7819,345.2543,163.4,343.1348" style="stroke:#181818;stroke-width:1.0;"/></g><!--link Server to RSD--><g id="link_Server_RSD"><path d="M56.64,357.7848 C67.19,373.5548 81.06,390.4348 97.5,401.6348 C115.25,413.7248 136.54,422.1748 157.32,428.0648 " fill="none" id="Server-to-RSD" style="stroke:#181818;stroke-width:1.0;"/><polygon fill="#181818" points="162.31,429.4348,154.6936,423.1905,157.4892,428.1083,152.5713,430.9038,162.31,429.4348" style="stroke:#181818;stroke-width:1.0;"/></g><!--link Server to RSS--><g id="link_Server_RSS"><path d="M39.38,357.9148 C46.39,395.1548 62.25,448.8348 97.5,480.6348 C112.66,494.3148 132.05,503.3748 151.73,509.3648 " fill="none" id="Server-to-RSS" style="stroke:#181818;stroke-width:1.0;"/><polygon fill="#181818" points="156.74,510.8148,149.22,504.4548,151.94,509.4148,146.98,512.1348,156.74,510.8148" style="stroke:#181818;stroke-width:1.0;"/></g><!--SRC=[ZLF1Rjim3BthAuXSt1pi03tcC22mUsm7HEkj5rfcOosov5bCss0Oi2_OhlkMViymO7ynMaw1U5YB6OPDKkzPVDHprZBtSRrQzGuz7pfNcD2j3f5oW_9eBEu6x9JArjTeFMoQplerO9mYbLtSHW9k2R3ldJN8DlZbk3ukB5KMzzRtA9y0D1m6pKT7q0RdmYF0xw_VV_tuzlFvMVqJXeyKGqVAqJq31nZihcLex41ct4ObA6WQ7cXGR5aexoL4vs3igXG1K9q4z6Zsk2Euwcfg6cfoVOnC7NnM89Ve7UN2ecp9x4MSCHIZhQspV5oCSihD7BYbJmUA765Bw7AsdMo5Z72nYKTlbecptLR_ozBd9FqAIPEF8hX4P-iXJNfYwF9jGaMCriKJk7eRh1dvy8BLwejIqu0Xpz-DKpZBahvvhcUvD3PBgtcgrNXbSbPJPRACofArf79Mye7fTFxXVl8UhE53QoF8ZHxe2RlUKP7zZJtvS0EfR0IABWQLrGJ1GwHa673MKrGP-IRXKb-9i4Xxf53U9dWlvgFcpeiVNyYX_YZ5MAIXtLpAJo5377W9HP7IcyinIety0G00]--></g></svg>