<?xml version="1.0" encoding="us-ascii" standalone="no"?><svg xmlns="http://www.w3.org/2000/svg" xmlns:xlink="http://www.w3.org/1999/xlink" contentStyleType="text/css" height="563px" preserveAspectRatio="none" style="width:419px;height:563px;background:#FFFFFF;" version="1.1" viewBox="0 0 419 563" width="419px" zoomAndPan="magnify"><defs/><g><text fill="#000000" font-family="sans-serif" font-size="14" font-weight="bold" lengthAdjust="spacing" textLength="182" x="111.75" y="25.1074">Overall Use Case Diagram</text><!--cluster Embedded-System--><g id="cluster_Embedded-System"><path d="M108,45.6348 L239,45.6348 A3.75,3.75 0 0 1 241.5,48.1348 L248.5,70.2559 L410,70.2559 A2.5,2.5 0 0 1 412.5,72.7559 L412.5,554.1348 A2.5,2.5 0 0 1 410,556.6348 L108,556.6348 A2.5,2.5 0 0 1 105.5,554.1348 L105.5,48.1348 A2.5,2.5 0 0 1 108,45.6348 " fill="none" style="stroke:#000000;stroke-width:1.5;"/><line style="stroke:#000000;stroke-width:1.5;" x1="105.5" x2="248.5" y1="70.2559" y2="70.2559"/><text fill="#000000" font-family="sans-serif" font-size="14" font-weight="bold" lengthAdjust="spacing" textLength="130" x="109.5" y="62.7422">Embedded-System</text></g><g id="elem_CA"><ellipse cx="259.1633" cy="102.4674" fill="#F1F1F1" rx="87.1633" ry="19.8327" style="stroke:#181818;stroke-width:0.5;"/><text fill="#000000" font-family="sans-serif" font-size="14" lengthAdjust="spacing" textLength="127" x="192.6633" y="107.2711">Checks Accessibility</text></g><g id="elem_RRDS"><ellipse cx="258.9414" cy="180.523" fill="#F1F1F1" rx="99.9414" ry="22.3883" style="stroke:#181818;stroke-width:0.5;"/><text fill="#000000" font-family="sans-serif" font-size="14" lengthAdjust="spacing" textLength="158" x="178.8178" y="184.7302">Requests Real-time Data</text></g><g id="elem_RSC"><ellipse cx="259.142" cy="262.5632" fill="#F1F1F1" rx="110.142" ry="24.4284" style="stroke:#181818;stroke-width:0.5;"/><text fill="#000000" font-family="sans-serif" font-size="14" lengthAdjust="spacing" textLength="181" x="168.642" y="266.36">Requests Sensor Calibration</text></g><g id="elem_RSD"><ellipse cx="259.0796" cy="344.8507" fill="#F1F1F1" rx="99.0796" ry="22.2159" style="stroke:#181818;stroke-width:0.5;"/><text fill="#000000" font-family="sans-serif" font-size="14" lengthAdjust="spacing" textLength="156" x="179.6977" y="349.1462">Requests Sensor Details</text></g><g id="elem_RSS"><ellipse cx="258.7971" cy="423.5942" fill="#F1F1F1" rx="97.7971" ry="21.9594" style="stroke:#181818;stroke-width:0.5;"/><text fill="#000000" font-family="sans-serif" font-size="14" lengthAdjust="spacing" textLength="153" x="180.519" y="428.0213">Requests Sensor Status</text></g><g id="elem_MS"><ellipse cx="258.8248" cy="510.4997" fill="#F1F1F1" rx="137.3248" ry="29.865" style="stroke:#181818;stroke-width:0.5;"/><text fill="#000000" font-family="sans-serif" font-size="14" lengthAdjust="spacing" textLength="240" x="138.8248" y="514.2966">Send a "Motion Start" Signal to Server</text></g><!--entity Server--><g id="elem_Server"><ellipse cx="33" cy="280.1348" fill="#F1F1F1" rx="16" ry="16" style="stroke:#181818;stroke-width:1.5;"/><path d="M33,300.1348 C37,300.1348 40,300.1348 44,296.1348 C52,296.1348 60,304.1348 60,312.1348 L60,316.1348 C60,320.1348 56,324.1348 52,324.1348 L14,324.1348 C10,324.1348 6,320.1348 6,316.1348 L6,312.1348 C6,304.1348 14,296.1348 22,296.1348 C26,300.1348 29,300.1348 33,300.1348 " fill="#F1F1F1" style="stroke:#181818;stroke-width:1.5;"/><text fill="#000000" font-family="sans-serif" font-size="14" lengthAdjust="spacing" textLength="42" x="12" y="340.7422">Server</text></g><!--link Server to CA--><g id="link_Server_CA"><path d="M39.2,262.3248 C46.09,225.1148 61.87,171.6248 97.5,140.6348 C117.25,123.4548 143.36,113.7048 168.76,108.2548 " fill="none" id="Server-to-CA" style="stroke:#181818;stroke-width:1.0;"/><polygon fill="#181818" points="173.83,107.2248,164.2179,105.0783,168.9282,108.2108,165.7956,112.9211,173.83,107.2248" style="stroke:#181818;stroke-width:1.0;"/></g><!--link Server to RRDS--><g id="link_Server_RRDS"><path d="M57.3,262.4148 C67.77,247.2348 81.42,231.1948 97.5,220.6348 C117.78,207.3148 142.16,198.4348 165.72,192.5048 " fill="none" id="Server-to-RRDS" style="stroke:#181818;stroke-width:1.0;"/><polygon fill="#181818" points="170.73,191.2848,161.0381,189.5333,165.8726,192.4705,162.9354,197.305,170.73,191.2848" style="stroke:#181818;stroke-width:1.0;"/></g><!--link Server to RSC--><g id="link_Server_RSC"><path d="M61.92,298.5248 C88.52,293.6548 130.03,286.0548 168.02,279.1048 " fill="none" id="Server-to-RSC" style="stroke:#181818;stroke-width:1.0;"/><polygon fill="#181818" points="173.12,278.1748,163.5467,275.8615,168.2018,279.0755,164.9878,283.7306,173.12,278.1748" style="stroke:#181818;stroke-width:1.0;"/></g><!--link Server to RSD--><g id="link_Server_RSD"><path d="M61.92,308.7448 C90.54,313.9848 136.42,322.3848 176.61,329.7348 " fill="none" id="Server-to-RSD" style="stroke:#181818;stroke-width:1.0;"/><polygon fill="#181818" points="181.99,330.7248,173.8578,325.1689,177.0718,329.824,172.4167,333.038,181.99,330.7248" style="stroke:#181818;stroke-width:1.0;"/></g><!--link Server to RSS--><g id="link_Server_RSS"><path d="M58.78,345.0248 C69.12,359.1548 82.29,373.8448 97.5,383.6348 C118.35,397.0648 143.4,405.9748 167.44,411.9048 " fill="none" id="Server-to-RSS" style="stroke:#181818;stroke-width:1.0;"/><polygon fill="#181818" points="172.55,413.1248,164.722,407.1479,167.6861,411.966,162.868,414.9301,172.55,413.1248" style="stroke:#181818;stroke-width:1.0;"/></g><!--reverse link Server to MS--><g id="link_Server_MS"><path d="M41.31,350.0348 C49.26,385.5548 65.41,433.2848 97.5,462.6348 C112.1,475.9848 130.26,485.6248 149.07,492.5848 " fill="none" id="Server-backto-MS" style="stroke:#181818;stroke-width:1.0;"/><polygon fill="#181818" points="40.19,344.8848,38.1838,354.5271,41.2474,349.7717,46.0029,352.8353,40.19,344.8848" style="stroke:#181818;stroke-width:1.0;"/></g><!--SRC=[VLF1Rjim3BthAmXVl1pi03q6mu30tZ4j46-tNMYPZRN8acinwu9XmBvWk-vR-Zt3WFt5A3ajacAhODWazIZoFT5vppo6rN8vMdHy66of_R0y12eqogipk9jmK2fVRT0uM7U3SIl0C5igV_K-471FWEDeZKOstYtYVjnOg3piZHjHZW3KxAU6ZvQWzzRwUu0_ttxy_ldzryE3-YSCxoduWPIbMmRsC9bTpz2PYNGien8K6fe-qQJOiAJSY8dMGkog4W9GdmYCgFUu8tWxjDHrr1NDCJ0Dy4M1BE4RwK9MzQJtGavh2i6qnXe-Pf5EjRu4RkdkG843R0bjmMQGKiYOiDjjtVm7tP0BqdE5rhHJ4clEQAgN4sfYD3QSmFNBu8QH3u_OPvq8f0E4REDZyGYTE8F6x1pQgF6iPihTDEghKdC0Yk9DrE3CIopFVU5muTQNxXFuTL74i-FAvPxc_NbSL9x6IY9d8UUPJdVlR-UvWnMywqq0UT01VSPXj5Jcpx6d6Ln32ck1eWrUvIs1S0-KXWMiSHHK7eM9kDHNIiXIZMJALtldPF2e- -14fyTattwKO2YJOjTNyaCaIHTGbiczlefMQkGl]--></g></svg>