<?xml version="1.0" encoding="us-ascii" standalone="no"?><svg xmlns="http://www.w3.org/2000/svg" xmlns:xlink="http://www.w3.org/1999/xlink" contentStyleType="text/css" height="670px" preserveAspectRatio="none" style="width:478px;height:670px;background:#FFFFFF;" version="1.1" viewBox="0 0 478 670" width="478px" zoomAndPan="magnify"><defs/><g><text fill="#000000" font-family="sans-serif" font-size="14" font-weight="bold" lengthAdjust="spacing" textLength="182" x="141.25" y="25.1074">Overall Use Case Diagram</text><!--cluster Embedded-System--><g id="cluster_Embedded-System"><path d="M108,45.6348 L239,45.6348 A3.75,3.75 0 0 1 241.5,48.1348 L248.5,70.2559 L469,70.2559 A2.5,2.5 0 0 1 471.5,72.7559 L471.5,661.1348 A2.5,2.5 0 0 1 469,663.6348 L108,663.6348 A2.5,2.5 0 0 1 105.5,661.1348 L105.5,48.1348 A2.5,2.5 0 0 1 108,45.6348 " fill="none" style="stroke:#000000;stroke-width:1.5;"/><line style="stroke:#000000;stroke-width:1.5;" x1="105.5" x2="248.5" y1="70.2559" y2="70.2559"/><text fill="#000000" font-family="sans-serif" font-size="14" font-weight="bold" lengthAdjust="spacing" textLength="130" x="109.5" y="62.7422">Embedded-System</text></g><g id="elem_OQC"><ellipse cx="288.7358" cy="611.4819" fill="#F1F1F1" rx="167.2358" ry="35.8472" style="stroke:#181818;stroke-width:0.5;"/><text fill="#000000" font-family="sans-serif" font-size="14" lengthAdjust="spacing" textLength="303" x="137.2358" y="615.2788">Offer QR Code of the Embedded Device to User</text></g><g id="elem_CA"><ellipse cx="288.6633" cy="197.4674" fill="#F1F1F1" rx="87.1633" ry="19.8327" style="stroke:#181818;stroke-width:0.5;"/><text fill="#000000" font-family="sans-serif" font-size="14" lengthAdjust="spacing" textLength="127" x="222.1633" y="202.2711">Checks Accessibility</text></g><g id="elem_RRDS"><ellipse cx="288.4414" cy="275.523" fill="#F1F1F1" rx="99.9414" ry="22.3883" style="stroke:#181818;stroke-width:0.5;"/><text fill="#000000" font-family="sans-serif" font-size="14" lengthAdjust="spacing" textLength="158" x="208.3178" y="279.7302">Requests Real-time Data</text></g><g id="elem_RSC"><ellipse cx="288.642" cy="357.5632" fill="#F1F1F1" rx="110.142" ry="24.4284" style="stroke:#181818;stroke-width:0.5;"/><text fill="#000000" font-family="sans-serif" font-size="14" lengthAdjust="spacing" textLength="181" x="198.142" y="361.36">Requests Sensor Calibration</text></g><g id="elem_RSD"><ellipse cx="288.5796" cy="439.8507" fill="#F1F1F1" rx="99.0796" ry="22.2159" style="stroke:#181818;stroke-width:0.5;"/><text fill="#000000" font-family="sans-serif" font-size="14" lengthAdjust="spacing" textLength="156" x="209.1977" y="444.1462">Requests Sensor Details</text></g><g id="elem_RSS"><ellipse cx="288.2971" cy="518.5942" fill="#F1F1F1" rx="97.7971" ry="21.9594" style="stroke:#181818;stroke-width:0.5;"/><text fill="#000000" font-family="sans-serif" font-size="14" lengthAdjust="spacing" textLength="153" x="210.019" y="523.0213">Requests Sensor Status</text></g><g id="elem_MS"><ellipse cx="288.3248" cy="112.4997" fill="#F1F1F1" rx="137.3248" ry="29.865" style="stroke:#181818;stroke-width:0.5;"/><text fill="#000000" font-family="sans-serif" font-size="14" lengthAdjust="spacing" textLength="240" x="168.3248" y="116.2966">Send a "Motion Start" Signal to Server</text></g><!--entity Server--><g id="elem_Server"><ellipse cx="33" cy="293.1348" fill="#F1F1F1" rx="16" ry="16" style="stroke:#181818;stroke-width:1.5;"/><path d="M33,313.1348 C37,313.1348 40,313.1348 44,309.1348 C52,309.1348 60,317.1348 60,325.1348 L60,329.1348 C60,333.1348 56,337.1348 52,337.1348 L14,337.1348 C10,337.1348 6,333.1348 6,329.1348 L6,325.1348 C6,317.1348 14,309.1348 22,309.1348 C26,313.1348 29,313.1348 33,313.1348 " fill="#F1F1F1" style="stroke:#181818;stroke-width:1.5;"/><text fill="#000000" font-family="sans-serif" font-size="14" lengthAdjust="spacing" textLength="42" x="12" y="353.7422">Server</text></g><!--entity User--><g id="elem_User"><ellipse cx="33" cy="588.1348" fill="#F1F1F1" rx="16" ry="16" style="stroke:#181818;stroke-width:1.5;"/><path d="M33,608.1348 C37,608.1348 40,608.1348 44,604.1348 C52,604.1348 60,612.1348 60,620.1348 L60,624.1348 C60,628.1348 56,632.1348 52,632.1348 L14,632.1348 C10,632.1348 6,628.1348 6,624.1348 L6,620.1348 C6,612.1348 14,604.1348 22,604.1348 C26,608.1348 29,608.1348 33,608.1348 " fill="#F1F1F1" style="stroke:#181818;stroke-width:1.5;"/><text fill="#000000" font-family="sans-serif" font-size="14" lengthAdjust="spacing" textLength="29" x="18.5" y="648.7422">User</text></g><!--link Server to CA--><g id="link_Server_CA"><path d="M57.54,275.5948 C67.97,260.8648 81.52,245.4648 97.5,235.6348 C127.28,217.3148 164.2,207.6048 197.55,202.5348 " fill="none" id="Server-to-CA" style="stroke:#181818;stroke-width:1.0;"/><polygon fill="#181818" points="202.87,201.7548,193.3915,199.0792,197.9211,202.4679,194.5325,206.9974,202.87,201.7548" style="stroke:#181818;stroke-width:1.0;"/></g><!--link Server to RRDS--><g id="link_Server_RRDS"><path d="M61.61,312.1648 C95.05,306.7648 152.95,297.3948 201.76,289.5048 " fill="none" id="Server-to-RRDS" style="stroke:#181818;stroke-width:1.0;"/><polygon fill="#181818" points="206.76,288.6948,197.2365,286.1841,201.8242,289.4936,198.5147,294.0813,206.76,288.6948" style="stroke:#181818;stroke-width:1.0;"/></g><!--link Server to RSC--><g id="link_Server_RSC"><path d="M61.61,321.1048 C93.25,326.2148 146.78,334.8748 193.8,342.4848 " fill="none" id="Server-to-RSC" style="stroke:#181818;stroke-width:1.0;"/><polygon fill="#181818" points="198.91,343.3048,190.652,337.9378,193.9724,342.5176,189.3925,345.838,198.91,343.3048" style="stroke:#181818;stroke-width:1.0;"/></g><!--link Server to RSD--><g id="link_Server_RSD"><path d="M56.81,357.7348 C67.29,373.0848 81.08,389.2848 97.5,399.6348 C124.57,416.7048 157.68,426.6148 188.64,432.3248 " fill="none" id="Server-to-RSD" style="stroke:#181818;stroke-width:1.0;"/><polygon fill="#181818" points="193.59,433.2048,185.4239,427.6989,188.6664,432.3342,184.031,435.5767,193.59,433.2048" style="stroke:#181818;stroke-width:1.0;"/></g><!--link Server to RSS--><g id="link_Server_RSS"><path d="M39.1,357.9048 C45.92,395.0348 61.64,448.2848 97.5,478.6348 C121.92,499.3048 154.36,510.1448 185.5,515.6048 " fill="none" id="Server-to-RSS" style="stroke:#181818;stroke-width:1.0;"/><polygon fill="#181818" points="190.49,516.4348,182.2751,511.0019,185.5588,515.6081,180.9526,518.8918,190.49,516.4348" style="stroke:#181818;stroke-width:1.0;"/></g><!--reverse link Server to MS--><g id="link_Server_MS"><path d="M41.09,270.3848 C48.91,235.0648 65,187.8248 97.5,159.6348 C116.24,143.3848 139.74,132.5748 163.77,125.4348 " fill="none" id="Server-backto-MS" style="stroke:#181818;stroke-width:1.0;"/><polygon fill="#181818" points="39.99,275.5048,45.8029,267.5542,41.0474,270.6179,37.9838,265.8624,39.99,275.5048" style="stroke:#181818;stroke-width:1.0;"/></g><!--reverse link User to OQC--><g id="link_User_OQC"><path d="M66.94,611.6348 C81.89,611.6348 100.8,611.6348 121.23,611.6348 " fill="none" id="User-backto-OQC" style="stroke:#181818;stroke-width:1.0;"/><polygon fill="#181818" points="61.61,611.6348,70.61,615.6348,66.61,611.6348,70.61,607.6348,61.61,611.6348" style="stroke:#181818;stroke-width:1.0;"/></g><!--SRC=[VPF1ZjD038RlynHMBw67jD8UAuHK9HoxrJPmu-9Et6ReP2Pat5qgXCGJm9LdsUT1IBm5dacwQbUmKPICdSzZ_nudQvYxi9ZFEukEZwsTQT_EZu5oZVAe3UvxR9NA5Yiq3fPrQzm2C0mhbRrw7mYu8S2kiqOZ6- -cyNlyC5LPE1ZNeMm1gDdt5PyiGUEjzGy0Vxxz-Ftp-w_7H_LF31ye-9QKfHq3U-ZDlc6eJKywfb4giL1HVq_zQ4ZMNh5X2L-B5wsDBYX439IZc0xr0VS4RzijrJNLUNKAJ2ryKI2NQ8_IORBUxQY7kmqKlYRmkoJp70CbtHjDiQoOSX8bh- -AwnsAXlH1MgKrXM2snXe-9R9ONeCR-dIam04sX3Pdqqgno9ZOpQQi_aDNv89eBj2QRPzQFqHKnSi19J4Q6qQuV1ck6FbuPfzL8aWD29ELZyaZslC4AhDtQ6DhXgD9iQjAVLLA3Hx8ypUn2HTMadbfYuWhixmsd-3NUHutZwUGrl4KufKbJuI7KLHP6bdnNBYSPnhdIWvu01RmhZ41v4O7z1dRpj8iUywEyxs4vDQ2eWrUPLiP5GU1ql21DOw2ocAR8fVgIW6Jb2CjvQszSpBKL7zmqhLpiDz-56UOfVxTtiZFbXeyXTaicRStSPKA-Gi0]--></g></svg>