<?xml version="1.0" encoding="us-ascii" standalone="no"?><svg xmlns="http://www.w3.org/2000/svg" xmlns:xlink="http://www.w3.org/1999/xlink" contentStyleType="text/css" height="967px" preserveAspectRatio="none" style="width:665px;height:967px;background:#FFFFFF;" version="1.1" viewBox="0 0 665 967" width="665px" zoomAndPan="magnify"><defs/><g><text fill="#000000" font-family="sans-serif" font-size="14" font-weight="bold" lengthAdjust="spacing" textLength="195" x="236" y="30.1074">Server Checks Accessibility</text><rect fill="#FFC0CB" height="279.2988" style="stroke:#181818;stroke-width:1.0;" width="10" x="375.5" y="231.4063"/><rect fill="#FFFFBB" height="194.0859" style="stroke:#181818;stroke-width:1.0;" width="10" x="375.5" y="231.4063"/><rect fill="#7FFFAA" height="101.873" style="stroke:#181818;stroke-width:1.0;" width="10" x="375.5" y="231.4063"/><rect fill="#FFC0CB" height="71.8438" style="stroke:#181818;stroke-width:1.0;" width="10" x="365.5" y="655.209"/><rect fill="none" height="573.2285" style="stroke:#000000;stroke-width:1.5;" width="648" x="10" y="290.6973"/><rect fill="none" height="216.3477" style="stroke:#000000;stroke-width:1.5;" width="442" x="154" y="569.9961"/><rect fill="none" height="109.1348" style="stroke:#000000;stroke-width:1.5;" width="422" x="164" y="670.209"/><rect fill="none" height="56.582" style="stroke:#000000;stroke-width:1.5;" width="533" x="20" y="800.3438"/><line style="stroke:#181818;stroke-width:0.5;stroke-dasharray:5.0,5.0;" x1="202" x2="202" y1="126.2422" y2="589.2871"/><line style="stroke:#A80036;stroke-width:1.0;stroke-dasharray:1.0,4.0;" x1="202" x2="202" y1="589.2871" y2="631.918"/><line style="stroke:#181818;stroke-width:0.5;stroke-dasharray:5.0,5.0;" x1="202" x2="202" y1="631.918" y2="880.9258"/><line style="stroke:#181818;stroke-width:0.5;stroke-dasharray:5.0,5.0;" x1="370.5" x2="370.5" y1="126.2422" y2="589.2871"/><line style="stroke:#A80036;stroke-width:1.0;stroke-dasharray:1.0,4.0;" x1="370.5" x2="370.5" y1="589.2871" y2="631.918"/><line style="stroke:#181818;stroke-width:0.5;stroke-dasharray:5.0,5.0;" x1="370.5" x2="370.5" y1="631.918" y2="880.9258"/><text fill="#000000" font-family="sans-serif" font-size="14" lengthAdjust="spacing" textLength="42" x="178.5" y="122.7285">Server</text><ellipse cx="202.5" cy="62.1211" fill="#E2E2F0" rx="16" ry="16" style="stroke:#181818;stroke-width:1.5;"/><path d="M202.5,82.1211 C206.5,82.1211 209.5,82.1211 213.5,78.1211 C221.5,78.1211 229.5,86.1211 229.5,94.1211 L229.5,98.1211 C229.5,102.1211 225.5,106.1211 221.5,106.1211 L183.5,106.1211 C179.5,106.1211 175.5,102.1211 175.5,98.1211 L175.5,94.1211 C175.5,86.1211 183.5,78.1211 191.5,78.1211 C195.5,82.1211 198.5,82.1211 202.5,82.1211 " fill="#E2E2F0" style="stroke:#181818;stroke-width:1.5;"/><text fill="#000000" font-family="sans-serif" font-size="14" lengthAdjust="spacing" textLength="42" x="178.5" y="895.0332">Server</text><ellipse cx="202.5" cy="916.0469" fill="#E2E2F0" rx="16" ry="16" style="stroke:#181818;stroke-width:1.5;"/><path d="M202.5,936.0469 C206.5,936.0469 209.5,936.0469 213.5,932.0469 C221.5,932.0469 229.5,940.0469 229.5,948.0469 L229.5,952.0469 C229.5,956.0469 225.5,960.0469 221.5,960.0469 L183.5,960.0469 C179.5,960.0469 175.5,956.0469 175.5,952.0469 L175.5,948.0469 C175.5,940.0469 183.5,932.0469 191.5,932.0469 C195.5,936.0469 198.5,936.0469 202.5,936.0469 " fill="#E2E2F0" style="stroke:#181818;stroke-width:1.5;"/><rect fill="#E2E2F0" height="32.6211" rx="2.5" ry="2.5" style="stroke:#181818;stroke-width:0.5;" width="60" x="340.5" y="92.6211"/><text fill="#000000" font-family="sans-serif" font-size="14" lengthAdjust="spacing" textLength="46" x="347.5" y="114.7285">System</text><rect fill="#E2E2F0" height="32.6211" rx="2.5" ry="2.5" style="stroke:#181818;stroke-width:0.5;" width="60" x="340.5" y="879.9258"/><text fill="#000000" font-family="sans-serif" font-size="14" lengthAdjust="spacing" textLength="46" x="347.5" y="902.0332">System</text><rect fill="#FFC0CB" height="279.2988" style="stroke:#181818;stroke-width:1.0;" width="10" x="375.5" y="231.4063"/><rect fill="#FFFFBB" height="194.0859" style="stroke:#181818;stroke-width:1.0;" width="10" x="375.5" y="231.4063"/><rect fill="#7FFFAA" height="101.873" style="stroke:#181818;stroke-width:1.0;" width="10" x="375.5" y="231.4063"/><rect fill="#FFC0CB" height="71.8438" style="stroke:#181818;stroke-width:1.0;" width="10" x="365.5" y="655.209"/><path d="M155,141.2422 L155,202.2422 L417,202.2422 L417,151.2422 L407,141.2422 L155,141.2422 " fill="#FEFFDD" style="stroke:#181818;stroke-width:0.5;"/><path d="M407,141.2422 L407,151.2422 L417,151.2422 L407,141.2422 " fill="#FEFFDD" style="stroke:#181818;stroke-width:0.5;"/><text fill="#000000" font-family="sans-serif" font-size="13" font-weight="bold" lengthAdjust="spacing" textLength="39" x="161" y="160.2705">Green</text><text fill="#000000" font-family="sans-serif" font-size="13" lengthAdjust="spacing" textLength="98" x="200" y="160.2705">: The life cycle of</text><text fill="#000000" font-family="sans-serif" font-size="13" font-weight="bold" lengthAdjust="spacing" textLength="69" x="302" y="160.2705">Basic Flow</text><text fill="#000000" font-family="sans-serif" font-size="13" font-weight="bold" lengthAdjust="spacing" textLength="43" x="161" y="177.5615">Yellow</text><text fill="#000000" font-family="sans-serif" font-size="13" lengthAdjust="spacing" textLength="77" x="204" y="177.5615">: Life cycle of</text><text fill="#000000" font-family="sans-serif" font-size="13" font-weight="bold" lengthAdjust="spacing" textLength="117" x="285" y="177.5615">Exception Flow 3a</text><text fill="#000000" font-family="sans-serif" font-size="13" font-weight="bold" lengthAdjust="spacing" textLength="28" x="161" y="194.8525">Pink</text><text fill="#000000" font-family="sans-serif" font-size="13" lengthAdjust="spacing" textLength="77" x="189" y="194.8525">: Life cycle of</text><text fill="#000000" font-family="sans-serif" font-size="13" font-weight="bold" lengthAdjust="spacing" textLength="117" x="270" y="194.8525">Exception Flow 4a</text><polygon fill="#181818" points="363.5,227.4063,373.5,231.4063,363.5,235.4063,367.5,231.4063" style="stroke:#181818;stroke-width:1.0;"/><line style="stroke:#181818;stroke-width:1.0;" x1="202.5" x2="369.5" y1="231.4063" y2="231.4063"/><text fill="#000000" font-family="sans-serif" font-size="13" font-weight="bold" lengthAdjust="spacing" textLength="7" x="209.5" y="226.1436">1</text><text fill="#000000" font-family="sans-serif" font-size="13" lengthAdjust="spacing" textLength="48" x="220.5" y="226.1436">Request</text><line style="stroke:#181818;stroke-width:1.0;" x1="385.5" x2="427.5" y1="262.6973" y2="262.6973"/><line style="stroke:#181818;stroke-width:1.0;" x1="427.5" x2="427.5" y1="262.6973" y2="275.6973"/><line style="stroke:#181818;stroke-width:1.0;" x1="386.5" x2="427.5" y1="275.6973" y2="275.6973"/><polygon fill="#181818" points="396.5,271.6973,386.5,275.6973,396.5,279.6973,392.5,275.6973" style="stroke:#181818;stroke-width:1.0;"/><text fill="#000000" font-family="sans-serif" font-size="13" font-weight="bold" lengthAdjust="spacing" textLength="7" x="392.5" y="257.4346">2</text><text fill="#000000" font-family="sans-serif" font-size="13" lengthAdjust="spacing" textLength="114" x="403.5" y="257.4346">Receive the request</text><path d="M10,290.6973 L71,290.6973 L71,299.9883 L61,309.9883 L10,309.9883 L10,290.6973 " fill="#EEEEEE" style="stroke:#000000;stroke-width:1.5;"/><rect fill="none" height="573.2285" style="stroke:#000000;stroke-width:1.5;" width="648" x="10" y="290.6973"/><text fill="#000000" font-family="sans-serif" font-size="13" font-weight="bold" lengthAdjust="spacing" textLength="16" x="25" y="305.7256">alt</text><text fill="#000000" font-family="sans-serif" font-size="11" font-weight="bold" lengthAdjust="spacing" textLength="66" x="86" y="304.5674">[Basic Flow]</text><line style="stroke:#181818;stroke-width:1.0;" x1="203.5" x2="213.5" y1="333.2793" y2="329.2793"/><line style="stroke:#181818;stroke-width:1.0;" x1="203.5" x2="213.5" y1="333.2793" y2="337.2793"/><line style="stroke:#181818;stroke-width:1.0;stroke-dasharray:2.0,2.0;" x1="202.5" x2="369.5" y1="333.2793" y2="333.2793"/><text fill="#000000" font-family="sans-serif" font-size="13" font-weight="bold" lengthAdjust="spacing" textLength="7" x="219.5" y="328.0166">3</text><text fill="#000000" font-family="sans-serif" font-size="13" lengthAdjust="spacing" textLength="58" x="230.5" y="328.0166">Response</text><line style="stroke:#181818;stroke-width:1.0;" x1="202.5" x2="244.5" y1="364.5703" y2="364.5703"/><line style="stroke:#181818;stroke-width:1.0;" x1="244.5" x2="244.5" y1="364.5703" y2="377.5703"/><line style="stroke:#181818;stroke-width:1.0;" x1="203.5" x2="244.5" y1="377.5703" y2="377.5703"/><polygon fill="#181818" points="213.5,373.5703,203.5,377.5703,213.5,381.5703,209.5,377.5703" style="stroke:#181818;stroke-width:1.0;"/><text fill="#000000" font-family="sans-serif" font-size="13" font-weight="bold" lengthAdjust="spacing" textLength="7" x="209.5" y="359.3076">4</text><text fill="#000000" font-family="sans-serif" font-size="13" lengthAdjust="spacing" textLength="124" x="220.5" y="359.3076">Receive the response</text><line style="stroke:#000000;stroke-width:1.0;stroke-dasharray:2.0,2.0;" x1="10" x2="658" y1="386.5703" y2="386.5703"/><text fill="#000000" font-family="sans-serif" font-size="11" font-weight="bold" lengthAdjust="spacing" textLength="377" x="15" y="398.4404">[3a: When the system sends the response, a network error occurs.]</text><line style="stroke:#181818;stroke-width:2.0;" x1="209.5" x2="219.5" y1="420.4922" y2="430.4922"/><line style="stroke:#181818;stroke-width:2.0;" x1="209.5" x2="219.5" y1="430.4922" y2="420.4922"/><line style="stroke:#181818;stroke-width:1.0;stroke-dasharray:2.0,2.0;" x1="214.5" x2="364.5" y1="425.4922" y2="425.4922"/><text fill="#000000" font-family="sans-serif" font-size="13" font-weight="bold" lengthAdjust="spacing" textLength="26" x="219.5" y="420.2295">3a.1</text><text fill="#000000" font-family="sans-serif" font-size="13" lengthAdjust="spacing" textLength="58" x="249.5" y="420.2295">Response</text><path d="M380,438.4922 L380,465.4922 L648,465.4922 L648,448.4922 L638,438.4922 L380,438.4922 " fill="#FEFFDD" style="stroke:#181818;stroke-width:0.5;"/><path d="M638,438.4922 L638,448.4922 L648,448.4922 L638,438.4922 " fill="#FEFFDD" style="stroke:#181818;stroke-width:0.5;"/><text fill="#000000" font-family="sans-serif" font-size="13" lengthAdjust="spacing" textLength="150" x="386" y="457.5205">The system does nothing,</text><text fill="#000000" font-family="sans-serif" font-size="13" font-weight="bold" lengthAdjust="spacing" textLength="89" x="540" y="457.5205">use case ends</text><text fill="#000000" font-family="sans-serif" font-size="13" lengthAdjust="spacing" textLength="4" x="629" y="457.5205">.</text><line style="stroke:#000000;stroke-width:1.0;stroke-dasharray:2.0,2.0;" x1="10" x2="658" y1="471.7832" y2="471.7832"/><text fill="#000000" font-family="sans-serif" font-size="11" font-weight="bold" lengthAdjust="spacing" textLength="385" x="15" y="483.6533">[4a: When the server receives the response, a network error occurs.]</text><line style="stroke:#181818;stroke-width:1.0;" x1="203.5" x2="213.5" y1="510.7051" y2="506.7051"/><line style="stroke:#181818;stroke-width:1.0;" x1="203.5" x2="213.5" y1="510.7051" y2="514.7051"/><line style="stroke:#181818;stroke-width:1.0;stroke-dasharray:2.0,2.0;" x1="202.5" x2="369.5" y1="510.7051" y2="510.7051"/><text fill="#000000" font-family="sans-serif" font-size="13" font-weight="bold" lengthAdjust="spacing" textLength="7" x="219.5" y="505.4424">3</text><text fill="#000000" font-family="sans-serif" font-size="13" lengthAdjust="spacing" textLength="58" x="230.5" y="505.4424">Response</text><line style="stroke:#181818;stroke-width:1.0;stroke-dasharray:2.0,2.0;" x1="202.5" x2="244.5" y1="541.9961" y2="541.9961"/><line style="stroke:#181818;stroke-width:1.0;stroke-dasharray:2.0,2.0;" x1="244.5" x2="244.5" y1="541.9961" y2="554.9961"/><line style="stroke:#181818;stroke-width:1.0;stroke-dasharray:2.0,2.0;" x1="215.5" x2="244.5" y1="554.9961" y2="554.9961"/><line style="stroke:#181818;stroke-width:2.0;" x1="208.5" x2="218.5" y1="549.9961" y2="559.9961"/><line style="stroke:#181818;stroke-width:2.0;" x1="208.5" x2="218.5" y1="559.9961" y2="549.9961"/><text fill="#000000" font-family="sans-serif" font-size="13" font-weight="bold" lengthAdjust="spacing" textLength="26" x="209.5" y="536.7334">4a.1</text><text fill="#000000" font-family="sans-serif" font-size="13" lengthAdjust="spacing" textLength="124" x="239.5" y="536.7334">Receive the response</text><path d="M154,569.9961 L227,569.9961 L227,579.2871 L217,589.2871 L154,589.2871 L154,569.9961 " fill="#EEEEEE" style="stroke:#000000;stroke-width:1.5;"/><rect fill="none" height="216.3477" style="stroke:#000000;stroke-width:1.5;" width="442" x="154" y="569.9961"/><text fill="#000000" font-family="sans-serif" font-size="13" font-weight="bold" lengthAdjust="spacing" textLength="28" x="169" y="585.0244">loop</text><text fill="#000000" font-family="sans-serif" font-size="11" font-weight="bold" lengthAdjust="spacing" textLength="137" x="242" y="583.8662">[for at most three times]</text><text fill="#000000" font-family="sans-serif" font-size="11" lengthAdjust="spacing" textLength="54" x="259.5" y="615.1572">0.5 second</text><polygon fill="#181818" points="353.5,651.209,363.5,655.209,353.5,659.209,357.5,655.209" style="stroke:#181818;stroke-width:1.0;"/><line style="stroke:#181818;stroke-width:1.0;" x1="202.5" x2="359.5" y1="655.209" y2="655.209"/><text fill="#000000" font-family="sans-serif" font-size="13" font-weight="bold" lengthAdjust="spacing" textLength="26" x="209.5" y="649.9463">4a.2</text><text fill="#000000" font-family="sans-serif" font-size="13" lengthAdjust="spacing" textLength="48" x="239.5" y="649.9463">Request</text><path d="M164,670.209 L229,670.209 L229,679.5 L219,689.5 L164,689.5 L164,670.209 " fill="#EEEEEE" style="stroke:#000000;stroke-width:1.5;"/><rect fill="none" height="109.1348" style="stroke:#000000;stroke-width:1.5;" width="422" x="164" y="670.209"/><text fill="#000000" font-family="sans-serif" font-size="13" font-weight="bold" lengthAdjust="spacing" textLength="20" x="179" y="685.2373">opt</text><text fill="#000000" font-family="sans-serif" font-size="11" font-weight="bold" lengthAdjust="spacing" textLength="337" x="244" y="684.0791">[The system successfully sends the response to the server,</text><text fill="#000000" font-family="sans-serif" font-size="11" font-weight="bold" lengthAdjust="spacing" textLength="290" x="244" y="698.71">and the server successfully receives the response.]</text><line style="stroke:#181818;stroke-width:1.0;" x1="203.5" x2="213.5" y1="727.0527" y2="723.0527"/><line style="stroke:#181818;stroke-width:1.0;" x1="203.5" x2="213.5" y1="727.0527" y2="731.0527"/><line style="stroke:#181818;stroke-width:1.0;stroke-dasharray:2.0,2.0;" x1="202.5" x2="369.5" y1="727.0527" y2="727.0527"/><text fill="#000000" font-family="sans-serif" font-size="13" font-weight="bold" lengthAdjust="spacing" textLength="7" x="219.5" y="721.79">3</text><text fill="#000000" font-family="sans-serif" font-size="13" lengthAdjust="spacing" textLength="58" x="230.5" y="721.79">Response</text><line style="stroke:#181818;stroke-width:1.0;" x1="202.5" x2="244.5" y1="758.3438" y2="758.3438"/><line style="stroke:#181818;stroke-width:1.0;" x1="244.5" x2="244.5" y1="758.3438" y2="771.3438"/><line style="stroke:#181818;stroke-width:1.0;" x1="203.5" x2="244.5" y1="771.3438" y2="771.3438"/><polygon fill="#181818" points="213.5,767.3438,203.5,771.3438,213.5,775.3438,209.5,771.3438" style="stroke:#181818;stroke-width:1.0;"/><text fill="#000000" font-family="sans-serif" font-size="13" font-weight="bold" lengthAdjust="spacing" textLength="7" x="209.5" y="753.0811">4</text><text fill="#000000" font-family="sans-serif" font-size="13" lengthAdjust="spacing" textLength="124" x="220.5" y="753.0811">Receive the response</text><path d="M20,800.3438 L85,800.3438 L85,809.6348 L75,819.6348 L20,819.6348 L20,800.3438 " fill="#EEEEEE" style="stroke:#000000;stroke-width:1.5;"/><rect fill="none" height="56.582" style="stroke:#000000;stroke-width:1.5;" width="533" x="20" y="800.3438"/><text fill="#000000" font-family="sans-serif" font-size="13" font-weight="bold" lengthAdjust="spacing" textLength="20" x="35" y="815.3721">opt</text><text fill="#000000" font-family="sans-serif" font-size="11" font-weight="bold" lengthAdjust="spacing" textLength="307" x="100" y="814.2139">[The Server has been failed to connect for three times.]</text><path d="M30,824.6348 L30,851.6348 L543,851.6348 L543,834.6348 L533,824.6348 L30,824.6348 " fill="#FFC0CB" style="stroke:#181818;stroke-width:0.5;"/><path d="M533,824.6348 L533,834.6348 L543,834.6348 L533,824.6348 " fill="#FFC0CB" style="stroke:#181818;stroke-width:0.5;"/><text fill="#000000" font-family="sans-serif" font-size="13" font-weight="bold" lengthAdjust="spacing" textLength="26" x="36" y="843.6631">4a.3</text><text fill="#000000" font-family="sans-serif" font-size="13" lengthAdjust="spacing" textLength="365" x="66" y="843.6631">The Server confirms that the embedded system is unreachable,</text><text fill="#000000" font-family="sans-serif" font-size="13" font-weight="bold" lengthAdjust="spacing" textLength="89" x="435" y="843.6631">use case ends</text><text fill="#000000" font-family="sans-serif" font-size="13" lengthAdjust="spacing" textLength="4" x="524" y="843.6631">.</text><!--SRC=[dLHHQzim47xthpZOGy0axjfc3F8GIBTbZ8rHbi8Ox4MHBxM8B7dIkMt-_KwodTYf1rq5IOZkFjttVQVJf22g_EBYejB2K5tgJDhomkEV6et4MQx4lHDbGeeqmWRT0phuKA3SUrX9YTwhhTAA3edVArC9pWKXoReD7HWW7j7R4fEurS8JpY8bLSNrO7FmX6KoGSCL3fnXl7K-cOYQhAdBBQSRImWsr6tmqmu4lDBqiqCqQRg0km91gns2F4WkRNSSl15UILXh-vYcRVulrF7l0hwT9NzwabYHiYO2u5eSCRVAx5-0c0S4cXm2vQGrQxPi-IuOS9ccy2DuwobueXu4Qsl2yERso_UlptVNwvldc-_Nw_LgbR1Fvv6FmkqtGfVM9EtMWC1L921HFI0G6-PQCedG12UtekuEFrikM-l32TVn15zPup6cvNX6eW6Vr1-XysV5ssCIr1xPy0NyBD34c6-AUxRJ3vAd8C0WFLgt1tIEhvMLidO-E-Vyr2SjiikNyOwtpQdxWaABUu6mxax4Sei-91VAt4-vGiq2fE2lG3XD6pR7kn3rpGVw6dzSOySh9Rw-BRE1FVFEdh7U19Ysje8T4n44fVN4AJnsGAf4VtGdoxAtsJjM9gt9-SynC3O9NFAgDmp7tF6fwAAseduJV1sVe5sjzM7agW3PdjVJtqPmFthc3-2ZdJXf-0_dkpNUWH5JNZ0W7Oer9ltVpf3sj49usF9x23kXDER106w6GKcnUxskdPJrtjV8SjeTDhI-UGcvRK5lhoIVlrEk3Bu9YgoHd-qyv-fjbvI7sZWsen1RZVySbi70T1h3XzTV]--></g></svg>