<?xml version="1.0" encoding="us-ascii" standalone="no"?><svg xmlns="http://www.w3.org/2000/svg" xmlns:xlink="http://www.w3.org/1999/xlink" contentStyleType="text/css" height="711px" preserveAspectRatio="none" style="width:492px;height:711px;background:#FFFFFF;" version="1.1" viewBox="0 0 492 711" width="492px" zoomAndPan="magnify"><defs/><g><text fill="#000000" font-family="sans-serif" font-size="14" font-weight="bold" lengthAdjust="spacing" textLength="195" x="149.75" y="30.1074">Server Checks Accessibility</text><rect fill="none" height="128.1641" style="stroke:#000000;stroke-width:1.5;" width="462.5" x="20" y="229.1152"/><rect fill="none" height="237.0078" style="stroke:#000000;stroke-width:1.5;" width="475.5" x="10" y="371.2793"/><rect fill="none" height="142.7949" style="stroke:#000000;stroke-width:1.5;" width="455.5" x="20" y="441.8613"/><line style="stroke:#181818;stroke-width:0.5;stroke-dasharray:5.0,5.0;" x1="58" x2="58" y1="126.2422" y2="625.2871"/><line style="stroke:#181818;stroke-width:0.5;stroke-dasharray:5.0,5.0;" x1="401.5" x2="401.5" y1="126.2422" y2="625.2871"/><text fill="#000000" font-family="sans-serif" font-size="14" lengthAdjust="spacing" textLength="42" x="34.5" y="122.7285">Server</text><ellipse cx="58.5" cy="62.1211" fill="#E2E2F0" rx="16" ry="16" style="stroke:#181818;stroke-width:1.5;"/><path d="M58.5,82.1211 C62.5,82.1211 65.5,82.1211 69.5,78.1211 C77.5,78.1211 85.5,86.1211 85.5,94.1211 L85.5,98.1211 C85.5,102.1211 81.5,106.1211 77.5,106.1211 L39.5,106.1211 C35.5,106.1211 31.5,102.1211 31.5,98.1211 L31.5,94.1211 C31.5,86.1211 39.5,78.1211 47.5,78.1211 C51.5,82.1211 54.5,82.1211 58.5,82.1211 " fill="#E2E2F0" style="stroke:#181818;stroke-width:1.5;"/><text fill="#000000" font-family="sans-serif" font-size="14" lengthAdjust="spacing" textLength="42" x="34.5" y="639.3945">Server</text><ellipse cx="58.5" cy="660.4082" fill="#E2E2F0" rx="16" ry="16" style="stroke:#181818;stroke-width:1.5;"/><path d="M58.5,680.4082 C62.5,680.4082 65.5,680.4082 69.5,676.4082 C77.5,676.4082 85.5,684.4082 85.5,692.4082 L85.5,696.4082 C85.5,700.4082 81.5,704.4082 77.5,704.4082 L39.5,704.4082 C35.5,704.4082 31.5,700.4082 31.5,696.4082 L31.5,692.4082 C31.5,684.4082 39.5,676.4082 47.5,676.4082 C51.5,680.4082 54.5,680.4082 58.5,680.4082 " fill="#E2E2F0" style="stroke:#181818;stroke-width:1.5;"/><rect fill="#E2E2F0" height="32.6211" rx="2.5" ry="2.5" style="stroke:#181818;stroke-width:0.5;" width="128" x="337.5" y="92.6211"/><text fill="#000000" font-family="sans-serif" font-size="14" lengthAdjust="spacing" textLength="114" x="344.5" y="114.7285">EmbeddedSystem</text><rect fill="#E2E2F0" height="32.6211" rx="2.5" ry="2.5" style="stroke:#181818;stroke-width:0.5;" width="128" x="337.5" y="624.2871"/><text fill="#000000" font-family="sans-serif" font-size="14" lengthAdjust="spacing" textLength="114" x="344.5" y="646.3945">EmbeddedSystem</text><path d="M290,141.2422 L290,185.2422 L396,185.2422 L396,151.2422 L386,141.2422 L290,141.2422 " fill="#FEFFDD" style="stroke:#181818;stroke-width:0.5;"/><path d="M386,141.2422 L386,151.2422 L396,151.2422 L386,141.2422 " fill="#FEFFDD" style="stroke:#181818;stroke-width:0.5;"/><text fill="#000000" font-family="sans-serif" font-size="13" lengthAdjust="spacing" textLength="85" x="296" y="160.2705">Pre-Conditions</text><text fill="#000000" font-family="sans-serif" font-size="13" lengthAdjust="spacing" textLength="62" x="296" y="177.5615">- Power on</text><polygon fill="#181818" points="389.5,210.1152,399.5,214.1152,389.5,218.1152,393.5,214.1152" style="stroke:#181818;stroke-width:1.0;"/><line style="stroke:#181818;stroke-width:1.0;" x1="58.5" x2="395.5" y1="214.1152" y2="214.1152"/><text fill="#000000" font-family="sans-serif" font-size="13" lengthAdjust="spacing" textLength="201" x="65.5" y="208.8525">REQUEST to determine availability</text><path d="M20,229.1152 L81,229.1152 L81,238.4063 L71,248.4063 L20,248.4063 L20,229.1152 " fill="#EEEEEE" style="stroke:#000000;stroke-width:1.5;"/><rect fill="none" height="128.1641" style="stroke:#000000;stroke-width:1.5;" width="462.5" x="20" y="229.1152"/><text fill="#000000" font-family="sans-serif" font-size="13" font-weight="bold" lengthAdjust="spacing" textLength="16" x="35" y="244.1436">alt</text><text fill="#000000" font-family="sans-serif" font-size="11" font-weight="bold" lengthAdjust="spacing" textLength="268" x="96" y="242.9854">[Network error occurs when sending RESPONSE]</text><line style="stroke:#181818;stroke-width:1.0;" x1="401.5" x2="443.5" y1="271.6973" y2="271.6973"/><line style="stroke:#181818;stroke-width:1.0;" x1="443.5" x2="443.5" y1="271.6973" y2="284.6973"/><line style="stroke:#181818;stroke-width:1.0;" x1="402.5" x2="443.5" y1="284.6973" y2="284.6973"/><polygon fill="#181818" points="412.5,280.6973,402.5,284.6973,412.5,288.6973,408.5,284.6973" style="stroke:#181818;stroke-width:1.0;"/><text fill="#000000" font-family="sans-serif" font-size="13" lengthAdjust="spacing" textLength="62" x="408.5" y="266.4346">Do nothing</text><polygon fill="#181818" points="69.5,311.9883,59.5,315.9883,69.5,319.9883,65.5,315.9883" style="stroke:#181818;stroke-width:1.0;"/><line style="stroke:#181818;stroke-width:1.0;" x1="63.5" x2="400.5" y1="315.9883" y2="315.9883"/><text fill="#000000" font-family="sans-serif" font-size="13" lengthAdjust="spacing" textLength="87" x="75.5" y="310.7256">Use case ends</text><line style="stroke:#000000;stroke-width:1.0;stroke-dasharray:2.0,2.0;" x1="20" x2="482.5" y1="324.9883" y2="324.9883"/><polygon fill="#181818" points="69.5,345.2793,59.5,349.2793,69.5,353.2793,65.5,349.2793" style="stroke:#181818;stroke-width:1.0;"/><line style="stroke:#181818;stroke-width:1.0;" x1="63.5" x2="400.5" y1="349.2793" y2="349.2793"/><text fill="#000000" font-family="sans-serif" font-size="13" lengthAdjust="spacing" textLength="126" x="75.5" y="344.0166">RESPONSE available</text><path d="M10,371.2793 L71,371.2793 L71,380.5703 L61,390.5703 L10,390.5703 L10,371.2793 " fill="#EEEEEE" style="stroke:#000000;stroke-width:1.5;"/><rect fill="none" height="237.0078" style="stroke:#000000;stroke-width:1.5;" width="475.5" x="10" y="371.2793"/><text fill="#000000" font-family="sans-serif" font-size="13" font-weight="bold" lengthAdjust="spacing" textLength="16" x="25" y="386.3076">alt</text><text fill="#000000" font-family="sans-serif" font-size="11" font-weight="bold" lengthAdjust="spacing" textLength="274" x="86" y="385.1494">[Network error occurs when receiving RESPONSE]</text><line style="stroke:#181818;stroke-width:1.0;" x1="58.5" x2="100.5" y1="413.8613" y2="413.8613"/><line style="stroke:#181818;stroke-width:1.0;" x1="100.5" x2="100.5" y1="413.8613" y2="426.8613"/><line style="stroke:#181818;stroke-width:1.0;" x1="59.5" x2="100.5" y1="426.8613" y2="426.8613"/><polygon fill="#181818" points="69.5,422.8613,59.5,426.8613,69.5,430.8613,65.5,426.8613" style="stroke:#181818;stroke-width:1.0;"/><text fill="#000000" font-family="sans-serif" font-size="13" lengthAdjust="spacing" textLength="217" x="65.5" y="408.5986">Retry 3 times with 0.5-second interval</text><path d="M20,441.8613 L81,441.8613 L81,451.1523 L71,461.1523 L20,461.1523 L20,441.8613 " fill="#EEEEEE" style="stroke:#000000;stroke-width:1.5;"/><rect fill="none" height="142.7949" style="stroke:#000000;stroke-width:1.5;" width="455.5" x="20" y="441.8613"/><text fill="#000000" font-family="sans-serif" font-size="13" font-weight="bold" lengthAdjust="spacing" textLength="16" x="35" y="456.8896">alt</text><text fill="#000000" font-family="sans-serif" font-size="11" font-weight="bold" lengthAdjust="spacing" textLength="121" x="96" y="455.7314">[Retry limit exceeded]</text><line style="stroke:#181818;stroke-width:1.0;" x1="58.5" x2="100.5" y1="484.4434" y2="484.4434"/><line style="stroke:#181818;stroke-width:1.0;" x1="100.5" x2="100.5" y1="484.4434" y2="497.4434"/><line style="stroke:#181818;stroke-width:1.0;" x1="59.5" x2="100.5" y1="497.4434" y2="497.4434"/><polygon fill="#181818" points="69.5,493.4434,59.5,497.4434,69.5,501.4434,65.5,497.4434" style="stroke:#181818;stroke-width:1.0;"/><text fill="#000000" font-family="sans-serif" font-size="13" lengthAdjust="spacing" textLength="329" x="65.5" y="479.1807">Confirm embedded system is unreachable, end use case</text><line style="stroke:#000000;stroke-width:1.0;stroke-dasharray:2.0,2.0;" x1="20" x2="475.5" y1="506.4434" y2="506.4434"/><text fill="#000000" font-family="sans-serif" font-size="11" font-weight="bold" lengthAdjust="spacing" textLength="154" x="25" y="518.3135">[Server receives RESPONSE]</text><polygon fill="#181818" points="389.5,541.3652,399.5,545.3652,389.5,549.3652,393.5,545.3652" style="stroke:#181818;stroke-width:1.0;"/><line style="stroke:#181818;stroke-width:1.0;" x1="58.5" x2="395.5" y1="545.3652" y2="545.3652"/><text fill="#000000" font-family="sans-serif" font-size="13" lengthAdjust="spacing" textLength="201" x="65.5" y="540.1025">REQUEST to determine availability</text><polygon fill="#181818" points="69.5,572.6563,59.5,576.6563,69.5,580.6563,65.5,576.6563" style="stroke:#181818;stroke-width:1.0;"/><line style="stroke:#181818;stroke-width:1.0;" x1="63.5" x2="400.5" y1="576.6563" y2="576.6563"/><text fill="#000000" font-family="sans-serif" font-size="13" lengthAdjust="spacing" textLength="126" x="75.5" y="571.3936">RESPONSE available</text><line style="stroke:#000000;stroke-width:1.0;stroke-dasharray:2.0,2.0;" x1="10" x2="485.5" y1="592.6563" y2="592.6563"/><text fill="#000000" font-family="sans-serif" font-size="11" font-weight="bold" lengthAdjust="spacing" textLength="154" x="15" y="604.5264">[Server receives RESPONSE]</text><!--SRC=[bLBDJi904BxlKym3M6DYl11ZOf0hefMRbsNxOITiTydk0FBs3ct18AYXXnxQxtytBpWiRR8DMISnbRBr8Bj1ZWrC-ubAf3MIKPImuwKDGgDcXgf2LMwpe372egmEHyCQRf7fqJdap3FsB5iJee0yva9n_eCze4b2COoXOk4OydieQ18tgXI3CRreyN32UXszJ4Vb6qca2eBKSD3aQylUzgR6Ug4nP1FJWf2ITedEhLAcJOr06MePFbIed3oFov4XVOvTpla-HT8sjJ9RGX_mlZW1JZF8MNsfJpRm6RyuT1A3Gv1z2m-ZrFzg93Zm-gJ8zt07UKZQqYq9Dr0kIqqtrtT5XjFjYODkkBQ-9UySExZdXeNmwG3DtFuyhwu7EEVK4FfwbBj-d6aL4gohTuMkTcFGgb-cbTiDizVhkcYweoh7XfVVWxt6HSktqNJzl-CfuWi0]--></g></svg>