<?xml version="1.0" encoding="us-ascii" standalone="no"?><svg xmlns="http://www.w3.org/2000/svg" xmlns:xlink="http://www.w3.org/1999/xlink" contentStyleType="text/css" height="908px" preserveAspectRatio="none" style="width:437px;height:908px;background:#FFFFFF;" version="1.1" viewBox="0 0 437 908" width="437px" zoomAndPan="magnify"><defs/><g><text fill="#000000" font-family="sans-serif" font-size="14" font-weight="bold" lengthAdjust="spacing" textLength="193" x="123.25" y="30.1074">Request Sensor Calibration</text><rect fill="none" height="541.627" style="stroke:#000000;stroke-width:1.5;" width="420.5" x="10" y="263.6973"/><rect fill="none" height="111.5039" style="stroke:#000000;stroke-width:1.5;" width="380.5" x="30" y="334.2793"/><rect fill="none" height="336.541" style="stroke:#000000;stroke-width:1.5;" width="400.5" x="20" y="461.7832"/><rect fill="none" height="128.1641" style="stroke:#000000;stroke-width:1.5;" width="380.5" x="30" y="663.1602"/><line style="stroke:#181818;stroke-width:0.5;stroke-dasharray:5.0,5.0;" x1="68" x2="68" y1="126.2422" y2="822.3242"/><line style="stroke:#181818;stroke-width:0.5;stroke-dasharray:5.0,5.0;" x1="336.5" x2="336.5" y1="126.2422" y2="822.3242"/><text fill="#000000" font-family="sans-serif" font-size="14" lengthAdjust="spacing" textLength="42" x="44.5" y="122.7285">Server</text><ellipse cx="68.5" cy="62.1211" fill="#E2E2F0" rx="16" ry="16" style="stroke:#181818;stroke-width:1.5;"/><path d="M68.5,82.1211 C72.5,82.1211 75.5,82.1211 79.5,78.1211 C87.5,78.1211 95.5,86.1211 95.5,94.1211 L95.5,98.1211 C95.5,102.1211 91.5,106.1211 87.5,106.1211 L49.5,106.1211 C45.5,106.1211 41.5,102.1211 41.5,98.1211 L41.5,94.1211 C41.5,86.1211 49.5,78.1211 57.5,78.1211 C61.5,82.1211 64.5,82.1211 68.5,82.1211 " fill="#E2E2F0" style="stroke:#181818;stroke-width:1.5;"/><text fill="#000000" font-family="sans-serif" font-size="14" lengthAdjust="spacing" textLength="42" x="44.5" y="836.4316">Server</text><ellipse cx="68.5" cy="857.4453" fill="#E2E2F0" rx="16" ry="16" style="stroke:#181818;stroke-width:1.5;"/><path d="M68.5,877.4453 C72.5,877.4453 75.5,877.4453 79.5,873.4453 C87.5,873.4453 95.5,881.4453 95.5,889.4453 L95.5,893.4453 C95.5,897.4453 91.5,901.4453 87.5,901.4453 L49.5,901.4453 C45.5,901.4453 41.5,897.4453 41.5,893.4453 L41.5,889.4453 C41.5,881.4453 49.5,873.4453 57.5,873.4453 C61.5,877.4453 64.5,877.4453 68.5,877.4453 " fill="#E2E2F0" style="stroke:#181818;stroke-width:1.5;"/><rect fill="#E2E2F0" height="32.6211" rx="2.5" ry="2.5" style="stroke:#181818;stroke-width:0.5;" width="128" x="272.5" y="92.6211"/><text fill="#000000" font-family="sans-serif" font-size="14" lengthAdjust="spacing" textLength="114" x="279.5" y="114.7285">EmbeddedSystem</text><rect fill="#E2E2F0" height="32.6211" rx="2.5" ry="2.5" style="stroke:#181818;stroke-width:0.5;" width="128" x="272.5" y="821.3242"/><text fill="#000000" font-family="sans-serif" font-size="14" lengthAdjust="spacing" textLength="114" x="279.5" y="843.4316">EmbeddedSystem</text><path d="M71,141.2422 L71,220.2422 L331,220.2422 L331,151.2422 L321,141.2422 L71,141.2422 " fill="#FEFFDD" style="stroke:#181818;stroke-width:0.5;"/><path d="M321,141.2422 L321,151.2422 L331,151.2422 L321,141.2422 " fill="#FEFFDD" style="stroke:#181818;stroke-width:0.5;"/><text fill="#000000" font-family="sans-serif" font-size="13" lengthAdjust="spacing" textLength="85" x="77" y="160.2705">Pre-Conditions</text><text fill="#000000" font-family="sans-serif" font-size="13" lengthAdjust="spacing" textLength="62" x="77" y="177.5615">- Power on</text><text fill="#000000" font-family="sans-serif" font-size="13" lengthAdjust="spacing" textLength="108" x="77" y="194.8525">- Network available</text><text fill="#000000" font-family="sans-serif" font-size="13" lengthAdjust="spacing" textLength="239" x="77" y="212.1436">- Not in real-time data transmission mode</text><polygon fill="#181818" points="324.5,244.6973,334.5,248.6973,324.5,252.6973,328.5,248.6973" style="stroke:#181818;stroke-width:1.0;"/><line style="stroke:#181818;stroke-width:1.0;" x1="68.5" x2="330.5" y1="248.6973" y2="248.6973"/><text fill="#000000" font-family="sans-serif" font-size="13" lengthAdjust="spacing" textLength="186" x="75.5" y="243.4346">REQUEST for sensor calibration</text><path d="M10,263.6973 L71,263.6973 L71,272.9883 L61,282.9883 L10,282.9883 L10,263.6973 " fill="#EEEEEE" style="stroke:#000000;stroke-width:1.5;"/><rect fill="none" height="541.627" style="stroke:#000000;stroke-width:1.5;" width="420.5" x="10" y="263.6973"/><text fill="#000000" font-family="sans-serif" font-size="13" font-weight="bold" lengthAdjust="spacing" textLength="16" x="25" y="278.7256">alt</text><text fill="#000000" font-family="sans-serif" font-size="11" font-weight="bold" lengthAdjust="spacing" textLength="261" x="86" y="277.5674">[Network error occurs when sending REQUEST]</text><line style="stroke:#181818;stroke-width:1.0;" x1="68.5" x2="110.5" y1="306.2793" y2="306.2793"/><line style="stroke:#181818;stroke-width:1.0;" x1="110.5" x2="110.5" y1="306.2793" y2="319.2793"/><line style="stroke:#181818;stroke-width:1.0;" x1="69.5" x2="110.5" y1="319.2793" y2="319.2793"/><polygon fill="#181818" points="79.5,315.2793,69.5,319.2793,79.5,323.2793,75.5,319.2793" style="stroke:#181818;stroke-width:1.0;"/><text fill="#000000" font-family="sans-serif" font-size="13" lengthAdjust="spacing" textLength="217" x="75.5" y="301.0166">Retry 3 times with 0.5-second interval</text><path d="M30,334.2793 L91,334.2793 L91,343.5703 L81,353.5703 L30,353.5703 L30,334.2793 " fill="#EEEEEE" style="stroke:#000000;stroke-width:1.5;"/><rect fill="none" height="111.5039" style="stroke:#000000;stroke-width:1.5;" width="380.5" x="30" y="334.2793"/><text fill="#000000" font-family="sans-serif" font-size="13" font-weight="bold" lengthAdjust="spacing" textLength="16" x="45" y="349.3076">alt</text><text fill="#000000" font-family="sans-serif" font-size="11" font-weight="bold" lengthAdjust="spacing" textLength="121" x="106" y="348.1494">[Retry limit exceeded]</text><line style="stroke:#181818;stroke-width:1.0;" x1="68.5" x2="110.5" y1="376.8613" y2="376.8613"/><line style="stroke:#181818;stroke-width:1.0;" x1="110.5" x2="110.5" y1="376.8613" y2="389.8613"/><line style="stroke:#181818;stroke-width:1.0;" x1="69.5" x2="110.5" y1="389.8613" y2="389.8613"/><polygon fill="#181818" points="79.5,385.8613,69.5,389.8613,79.5,393.8613,75.5,389.8613" style="stroke:#181818;stroke-width:1.0;"/><text fill="#000000" font-family="sans-serif" font-size="13" lengthAdjust="spacing" textLength="87" x="75.5" y="371.5986">Use case ends</text><line style="stroke:#000000;stroke-width:1.0;stroke-dasharray:2.0,2.0;" x1="30" x2="410.5" y1="398.8613" y2="398.8613"/><text fill="#000000" font-family="sans-serif" font-size="11" font-weight="bold" lengthAdjust="spacing" textLength="166" x="35" y="410.7314">[Server sends REQUEST again]</text><polygon fill="#181818" points="324.5,433.7832,334.5,437.7832,324.5,441.7832,328.5,437.7832" style="stroke:#181818;stroke-width:1.0;"/><line style="stroke:#181818;stroke-width:1.0;" x1="68.5" x2="330.5" y1="437.7832" y2="437.7832"/><text fill="#000000" font-family="sans-serif" font-size="13" lengthAdjust="spacing" textLength="186" x="75.5" y="432.5205">REQUEST for sensor calibration</text><line style="stroke:#000000;stroke-width:1.0;stroke-dasharray:2.0,2.0;" x1="10" x2="430.5" y1="453.7832" y2="453.7832"/><path d="M20,461.7832 L81,461.7832 L81,471.0742 L71,481.0742 L20,481.0742 L20,461.7832 " fill="#EEEEEE" style="stroke:#000000;stroke-width:1.5;"/><rect fill="none" height="336.541" style="stroke:#000000;stroke-width:1.5;" width="400.5" x="20" y="461.7832"/><text fill="#000000" font-family="sans-serif" font-size="13" font-weight="bold" lengthAdjust="spacing" textLength="16" x="35" y="476.8115">alt</text><text fill="#000000" font-family="sans-serif" font-size="11" font-weight="bold" lengthAdjust="spacing" textLength="316" x="96" y="475.6533">[Embedded system in real-time data transmission mode]</text><polygon fill="#181818" points="79.5,500.3652,69.5,504.3652,79.5,508.3652,75.5,504.3652" style="stroke:#181818;stroke-width:1.0;"/><line style="stroke:#181818;stroke-width:1.0;" x1="73.5" x2="335.5" y1="504.3652" y2="504.3652"/><text fill="#000000" font-family="sans-serif" font-size="13" lengthAdjust="spacing" textLength="160" x="85.5" y="499.1025">RESPONSE error message</text><polygon fill="#181818" points="79.5,531.6563,69.5,535.6563,79.5,539.6563,75.5,535.6563" style="stroke:#181818;stroke-width:1.0;"/><line style="stroke:#181818;stroke-width:1.0;" x1="73.5" x2="335.5" y1="535.6563" y2="535.6563"/><text fill="#000000" font-family="sans-serif" font-size="13" lengthAdjust="spacing" textLength="87" x="85.5" y="530.3936">Use case ends</text><line style="stroke:#000000;stroke-width:1.0;stroke-dasharray:2.0,2.0;" x1="20" x2="420.5" y1="544.6563" y2="544.6563"/><text fill="#000000" font-family="sans-serif" font-size="11" font-weight="bold" lengthAdjust="spacing" textLength="282" x="25" y="556.5264">[alt Sensors calibrated in the recently ten seconds]</text><polygon fill="#181818" points="79.5,579.5781,69.5,583.5781,79.5,587.5781,75.5,583.5781" style="stroke:#181818;stroke-width:1.0;"/><line style="stroke:#181818;stroke-width:1.0;" x1="73.5" x2="335.5" y1="583.5781" y2="583.5781"/><text fill="#000000" font-family="sans-serif" font-size="13" lengthAdjust="spacing" textLength="160" x="85.5" y="578.3154">RESPONSE error message</text><polygon fill="#181818" points="79.5,610.8691,69.5,614.8691,79.5,618.8691,75.5,614.8691" style="stroke:#181818;stroke-width:1.0;"/><line style="stroke:#181818;stroke-width:1.0;" x1="73.5" x2="335.5" y1="614.8691" y2="614.8691"/><text fill="#000000" font-family="sans-serif" font-size="13" lengthAdjust="spacing" textLength="87" x="85.5" y="609.6064">Use case ends</text><line style="stroke:#000000;stroke-width:1.0;stroke-dasharray:2.0,2.0;" x1="20" x2="420.5" y1="623.8691" y2="623.8691"/><polygon fill="#181818" points="79.5,644.1602,69.5,648.1602,79.5,652.1602,75.5,648.1602" style="stroke:#181818;stroke-width:1.0;"/><line style="stroke:#181818;stroke-width:1.0;" x1="73.5" x2="335.5" y1="648.1602" y2="648.1602"/><text fill="#000000" font-family="sans-serif" font-size="13" lengthAdjust="spacing" textLength="208" x="85.5" y="642.8975">RESPONSE and perform calibration</text><path d="M30,663.1602 L91,663.1602 L91,672.4512 L81,682.4512 L30,682.4512 L30,663.1602 " fill="#EEEEEE" style="stroke:#000000;stroke-width:1.5;"/><rect fill="none" height="128.1641" style="stroke:#000000;stroke-width:1.5;" width="380.5" x="30" y="663.1602"/><text fill="#000000" font-family="sans-serif" font-size="13" font-weight="bold" lengthAdjust="spacing" textLength="16" x="45" y="678.1885">alt</text><text fill="#000000" font-family="sans-serif" font-size="11" font-weight="bold" lengthAdjust="spacing" textLength="268" x="106" y="677.0303">[Network error occurs when sending RESPONSE]</text><line style="stroke:#181818;stroke-width:1.0;" x1="68.5" x2="110.5" y1="705.7422" y2="705.7422"/><line style="stroke:#181818;stroke-width:1.0;" x1="110.5" x2="110.5" y1="705.7422" y2="718.7422"/><line style="stroke:#181818;stroke-width:1.0;" x1="69.5" x2="110.5" y1="718.7422" y2="718.7422"/><polygon fill="#181818" points="79.5,714.7422,69.5,718.7422,79.5,722.7422,75.5,718.7422" style="stroke:#181818;stroke-width:1.0;"/><text fill="#000000" font-family="sans-serif" font-size="13" lengthAdjust="spacing" textLength="254" x="75.5" y="700.4795">Check reachability of the embedded system</text><polygon fill="#181818" points="324.5,746.0332,334.5,750.0332,324.5,754.0332,328.5,750.0332" style="stroke:#181818;stroke-width:1.0;"/><line style="stroke:#181818;stroke-width:1.0;" x1="68.5" x2="330.5" y1="750.0332" y2="750.0332"/><text fill="#000000" font-family="sans-serif" font-size="13" lengthAdjust="spacing" textLength="186" x="75.5" y="744.7705">REQUEST for sensor calibration</text><line style="stroke:#000000;stroke-width:1.0;stroke-dasharray:2.0,2.0;" x1="30" x2="410.5" y1="759.0332" y2="759.0332"/><polygon fill="#181818" points="79.5,779.3242,69.5,783.3242,79.5,787.3242,75.5,783.3242" style="stroke:#181818;stroke-width:1.0;"/><line style="stroke:#181818;stroke-width:1.0;" x1="73.5" x2="335.5" y1="783.3242" y2="783.3242"/><text fill="#000000" font-family="sans-serif" font-size="13" lengthAdjust="spacing" textLength="202" x="85.5" y="778.0615">RESPONSE successful calibration</text><!--SRC=[lLDDZzD03BtFh_2DKn0Iue8GbohNfMpO6nTtuZPM9pDbxBRat-D9jYdTTgKk1o8rIZFs-_1pb3KGFDAlFOb2Gr5IXWK6NcLKJj79bkCEC_Q0NbDkTB1wF9AadjpuohhoWRApAcNFEumATR-YjgMs6KIfTouc9GYqLaZh5uUVOPcfMgJOSY6Kdx62PJfIXXJBymFfCUKju04vu2hG-38fS8HC62hbdg15HT2CKNeMCHpeKqlEJTgW-dh5-bX_VwgR7x0s1pBvzd_vTXXqvgQSxJXvlyy2nuvYwMWvRaue3kmwSqrFna6Q1_W8HQ8ridRmuVsdIiYRNJEWLeTXR2vqKtdWdXNejoSokUFXRVGd8PDiDzCYOnq5-_TSM1JAx18toF46rXkdCfB4rXMYMVO90sG4kIkOav9B_elPrStosqDJFm_V1YYuePSMlbHN5buPIr4wxRVCbgY40DgH2VOKDGoWOxWb7_d_8j_2YBP1EyeML7yLqIcPU_PtWflRRg_QeYE_BQdw3bSSM8Vo8PV1qMNuh-3ymvfTpUJEkSZUUujXlG-t8MDxtcBxkNVdaCwVhIS-aEr6cUxO_mS0]--></g></svg>