<?xml version="1.0" encoding="us-ascii" standalone="no"?><svg xmlns="http://www.w3.org/2000/svg" xmlns:xlink="http://www.w3.org/1999/xlink" contentStyleType="text/css" height="773px" preserveAspectRatio="none" style="width:423px;height:773px;background:#FFFFFF;" version="1.1" viewBox="0 0 423 773" width="423px" zoomAndPan="magnify"><defs/><g><text fill="#000000" font-family="sans-serif" font-size="14" font-weight="bold" lengthAdjust="spacing" textLength="225" x="100.25" y="30.1074">Server Requests Sensor Details</text><rect fill="#7FFFAA" height="31.291" style="stroke:#181818;stroke-width:1.0;" width="10" x="361.5" y="214.1152"/><rect fill="#FFFFBB" height="31.291" style="stroke:#181818;stroke-width:1.0;" width="10" x="361.5" y="540.3652"/><rect fill="none" height="409.832" style="stroke:#000000;stroke-width:1.5;" width="407.5" x="9" y="260.4063"/><rect fill="none" height="202.7461" style="stroke:#000000;stroke-width:1.5;" width="307.5" x="99" y="460.4922"/><line style="stroke:#181818;stroke-width:0.5;stroke-dasharray:5.0,5.0;" x1="137" x2="137" y1="126.2422" y2="687.2383"/><line style="stroke:#181818;stroke-width:0.5;stroke-dasharray:5.0,5.0;" x1="366.5" x2="366.5" y1="126.2422" y2="687.2383"/><text fill="#000000" font-family="sans-serif" font-size="14" lengthAdjust="spacing" textLength="42" x="113.5" y="122.7285">Server</text><ellipse cx="137.5" cy="62.1211" fill="#E2E2F0" rx="16" ry="16" style="stroke:#181818;stroke-width:1.5;"/><path d="M137.5,82.1211 C141.5,82.1211 144.5,82.1211 148.5,78.1211 C156.5,78.1211 164.5,86.1211 164.5,94.1211 L164.5,98.1211 C164.5,102.1211 160.5,106.1211 156.5,106.1211 L118.5,106.1211 C114.5,106.1211 110.5,102.1211 110.5,98.1211 L110.5,94.1211 C110.5,86.1211 118.5,78.1211 126.5,78.1211 C130.5,82.1211 133.5,82.1211 137.5,82.1211 " fill="#E2E2F0" style="stroke:#181818;stroke-width:1.5;"/><text fill="#000000" font-family="sans-serif" font-size="14" lengthAdjust="spacing" textLength="42" x="113.5" y="701.3457">Server</text><ellipse cx="137.5" cy="722.3594" fill="#E2E2F0" rx="16" ry="16" style="stroke:#181818;stroke-width:1.5;"/><path d="M137.5,742.3594 C141.5,742.3594 144.5,742.3594 148.5,738.3594 C156.5,738.3594 164.5,746.3594 164.5,754.3594 L164.5,758.3594 C164.5,762.3594 160.5,766.3594 156.5,766.3594 L118.5,766.3594 C114.5,766.3594 110.5,762.3594 110.5,758.3594 L110.5,754.3594 C110.5,746.3594 118.5,738.3594 126.5,738.3594 C130.5,742.3594 133.5,742.3594 137.5,742.3594 " fill="#E2E2F0" style="stroke:#181818;stroke-width:1.5;"/><rect fill="#E2E2F0" height="32.6211" rx="2.5" ry="2.5" style="stroke:#181818;stroke-width:0.5;" width="60" x="336.5" y="92.6211"/><text fill="#000000" font-family="sans-serif" font-size="14" lengthAdjust="spacing" textLength="46" x="343.5" y="114.7285">System</text><rect fill="#E2E2F0" height="32.6211" rx="2.5" ry="2.5" style="stroke:#181818;stroke-width:0.5;" width="60" x="336.5" y="686.2383"/><text fill="#000000" font-family="sans-serif" font-size="14" lengthAdjust="spacing" textLength="46" x="343.5" y="708.3457">System</text><rect fill="#7FFFAA" height="31.291" style="stroke:#181818;stroke-width:1.0;" width="10" x="361.5" y="214.1152"/><rect fill="#FFFFBB" height="31.291" style="stroke:#181818;stroke-width:1.0;" width="10" x="361.5" y="540.3652"/><path d="M110,141.2422 L110,185.2422 L392,185.2422 L392,151.2422 L382,141.2422 L110,141.2422 " fill="#FEFFDD" style="stroke:#181818;stroke-width:0.5;"/><path d="M382,141.2422 L382,151.2422 L392,151.2422 L382,141.2422 " fill="#FEFFDD" style="stroke:#181818;stroke-width:0.5;"/><text fill="#000000" font-family="sans-serif" font-size="13" font-weight="bold" lengthAdjust="spacing" textLength="39" x="126.25" y="160.2705">Green</text><text fill="#000000" font-family="sans-serif" font-size="13" lengthAdjust="spacing" textLength="98" x="165.25" y="160.2705">: The life cycle of</text><text fill="#000000" font-family="sans-serif" font-size="13" font-weight="bold" lengthAdjust="spacing" textLength="69" x="267.25" y="160.2705">Basic Flow</text><text fill="#000000" font-family="sans-serif" font-size="13" font-weight="bold" lengthAdjust="spacing" textLength="43" x="126.25" y="177.5615">Yellow</text><text fill="#000000" font-family="sans-serif" font-size="13" lengthAdjust="spacing" textLength="77" x="169.25" y="177.5615">: Life cycle of</text><text fill="#000000" font-family="sans-serif" font-size="13" font-weight="bold" lengthAdjust="spacing" textLength="117" x="250.25" y="177.5615">Exception Flow 3a</text><polygon fill="#181818" points="349.5,210.1152,359.5,214.1152,349.5,218.1152,353.5,214.1152" style="stroke:#181818;stroke-width:1.0;"/><line style="stroke:#181818;stroke-width:1.0;" x1="137.5" x2="355.5" y1="214.1152" y2="214.1152"/><text fill="#000000" font-family="sans-serif" font-size="13" font-weight="bold" lengthAdjust="spacing" textLength="7" x="144.5" y="208.8525">1</text><text fill="#000000" font-family="sans-serif" font-size="13" lengthAdjust="spacing" textLength="133" x="155.5" y="208.8525">Request sensor details</text><line style="stroke:#181818;stroke-width:1.0;" x1="138.5" x2="148.5" y1="245.4063" y2="241.4063"/><line style="stroke:#181818;stroke-width:1.0;" x1="138.5" x2="148.5" y1="245.4063" y2="249.4063"/><line style="stroke:#181818;stroke-width:1.0;stroke-dasharray:2.0,2.0;" x1="137.5" x2="365.5" y1="245.4063" y2="245.4063"/><text fill="#000000" font-family="sans-serif" font-size="13" font-weight="bold" lengthAdjust="spacing" textLength="7" x="154.5" y="240.1436">2</text><text fill="#000000" font-family="sans-serif" font-size="13" lengthAdjust="spacing" textLength="170" x="165.5" y="240.1436">Response with sensor details</text><path d="M9,260.4063 L70,260.4063 L70,269.6973 L60,279.6973 L9,279.6973 L9,260.4063 " fill="#EEEEEE" style="stroke:#000000;stroke-width:1.5;"/><rect fill="none" height="409.832" style="stroke:#000000;stroke-width:1.5;" width="407.5" x="9" y="260.4063"/><text fill="#000000" font-family="sans-serif" font-size="13" font-weight="bold" lengthAdjust="spacing" textLength="16" x="24" y="275.4346">alt</text><text fill="#000000" font-family="sans-serif" font-size="11" font-weight="bold" lengthAdjust="spacing" textLength="66" x="85" y="274.2764">[Basic Flow]</text><line style="stroke:#181818;stroke-width:1.0;" x1="137.5" x2="179.5" y1="302.9883" y2="302.9883"/><line style="stroke:#181818;stroke-width:1.0;" x1="179.5" x2="179.5" y1="302.9883" y2="315.9883"/><line style="stroke:#181818;stroke-width:1.0;" x1="138.5" x2="179.5" y1="315.9883" y2="315.9883"/><polygon fill="#181818" points="148.5,311.9883,138.5,315.9883,148.5,319.9883,144.5,315.9883" style="stroke:#181818;stroke-width:1.0;"/><text fill="#000000" font-family="sans-serif" font-size="13" font-weight="bold" lengthAdjust="spacing" textLength="7" x="144.5" y="297.7256">3</text><text fill="#000000" font-family="sans-serif" font-size="13" lengthAdjust="spacing" textLength="134" x="155.5" y="297.7256">Receive the information</text><line style="stroke:#000000;stroke-width:1.0;stroke-dasharray:2.0,2.0;" x1="9" x2="416.5" y1="324.9883" y2="324.9883"/><text fill="#000000" font-family="sans-serif" font-size="11" font-weight="bold" lengthAdjust="spacing" textLength="264" x="14" y="336.8584">[3a: The server does not receive the response.]</text><line style="stroke:#181818;stroke-width:1.0;" x1="137.5" x2="179.5" y1="363.9102" y2="363.9102"/><line style="stroke:#181818;stroke-width:1.0;" x1="179.5" x2="179.5" y1="363.9102" y2="376.9102"/><line style="stroke:#181818;stroke-width:1.0;" x1="150.5" x2="179.5" y1="376.9102" y2="376.9102"/><line style="stroke:#181818;stroke-width:2.0;" x1="143.5" x2="153.5" y1="371.9102" y2="381.9102"/><line style="stroke:#181818;stroke-width:2.0;" x1="143.5" x2="153.5" y1="381.9102" y2="371.9102"/><text fill="#000000" font-family="sans-serif" font-size="13" font-weight="bold" lengthAdjust="spacing" textLength="26" x="144.5" y="358.6475">3a.1</text><text fill="#000000" font-family="sans-serif" font-size="13" lengthAdjust="spacing" textLength="185" x="174.5" y="358.6475">Does not receive the information</text><polygon fill="#181818" points="354.5,404.2012,364.5,408.2012,354.5,412.2012,358.5,408.2012" style="stroke:#181818;stroke-width:1.0;"/><line style="stroke:#181818;stroke-width:1.0;" x1="137.5" x2="360.5" y1="408.2012" y2="408.2012"/><text fill="#000000" font-family="sans-serif" font-size="13" font-weight="bold" lengthAdjust="spacing" textLength="26" x="144.5" y="402.9385">3a.2</text><text fill="#000000" font-family="sans-serif" font-size="13" lengthAdjust="spacing" textLength="113" x="174.5" y="402.9385">Check accessibility</text><path d="M19,421.2012 L19,448.2012 L132,448.2012 L132,431.2012 L122,421.2012 L19,421.2012 " fill="#FEFFDD" style="stroke:#181818;stroke-width:0.5;"/><path d="M122,421.2012 L122,431.2012 L132,431.2012 L122,421.2012 " fill="#FEFFDD" style="stroke:#181818;stroke-width:0.5;"/><text fill="#000000" font-family="sans-serif" font-size="13" lengthAdjust="spacing" textLength="92" x="25" y="440.2295">By Use Case 2.</text><path d="M99,460.4922 L160,460.4922 L160,469.7832 L150,479.7832 L99,479.7832 L99,460.4922 " fill="#EEEEEE" style="stroke:#000000;stroke-width:1.5;"/><rect fill="none" height="202.7461" style="stroke:#000000;stroke-width:1.5;" width="307.5" x="99" y="460.4922"/><text fill="#000000" font-family="sans-serif" font-size="13" font-weight="bold" lengthAdjust="spacing" textLength="16" x="114" y="475.5205">alt</text><text fill="#000000" font-family="sans-serif" font-size="11" font-weight="bold" lengthAdjust="spacing" textLength="152" x="175" y="474.3623">[The system is accessible.]</text><path d="M110,484.7832 L110,511.7832 L392,511.7832 L392,494.7832 L382,484.7832 L110,484.7832 " fill="#FEFFDD" style="stroke:#181818;stroke-width:0.5;"/><path d="M382,484.7832 L382,494.7832 L392,494.7832 L382,484.7832 " fill="#FEFFDD" style="stroke:#181818;stroke-width:0.5;"/><text fill="#000000" font-family="sans-serif" font-size="13" lengthAdjust="spacing" textLength="136" x="178.75" y="503.8115">Return to Basic Flow 1.</text><polygon fill="#181818" points="349.5,536.3652,359.5,540.3652,349.5,544.3652,353.5,540.3652" style="stroke:#181818;stroke-width:1.0;"/><line style="stroke:#181818;stroke-width:1.0;" x1="137.5" x2="355.5" y1="540.3652" y2="540.3652"/><text fill="#000000" font-family="sans-serif" font-size="13" font-weight="bold" lengthAdjust="spacing" textLength="7" x="144.5" y="535.1025">1</text><text fill="#000000" font-family="sans-serif" font-size="13" lengthAdjust="spacing" textLength="133" x="155.5" y="535.1025">Request sensor details</text><line style="stroke:#181818;stroke-width:1.0;" x1="138.5" x2="148.5" y1="571.6563" y2="567.6563"/><line style="stroke:#181818;stroke-width:1.0;" x1="138.5" x2="148.5" y1="571.6563" y2="575.6563"/><line style="stroke:#181818;stroke-width:1.0;stroke-dasharray:2.0,2.0;" x1="137.5" x2="365.5" y1="571.6563" y2="571.6563"/><text fill="#000000" font-family="sans-serif" font-size="13" font-weight="bold" lengthAdjust="spacing" textLength="7" x="154.5" y="566.3936">2</text><text fill="#000000" font-family="sans-serif" font-size="13" lengthAdjust="spacing" textLength="170" x="165.5" y="566.3936">Response with sensor details</text><line style="stroke:#181818;stroke-width:1.0;" x1="137.5" x2="179.5" y1="602.9473" y2="602.9473"/><line style="stroke:#181818;stroke-width:1.0;" x1="179.5" x2="179.5" y1="602.9473" y2="615.9473"/><line style="stroke:#181818;stroke-width:1.0;" x1="138.5" x2="179.5" y1="615.9473" y2="615.9473"/><polygon fill="#181818" points="148.5,611.9473,138.5,615.9473,148.5,619.9473,144.5,615.9473" style="stroke:#181818;stroke-width:1.0;"/><text fill="#000000" font-family="sans-serif" font-size="13" font-weight="bold" lengthAdjust="spacing" textLength="7" x="144.5" y="597.6846">3</text><text fill="#000000" font-family="sans-serif" font-size="13" lengthAdjust="spacing" textLength="134" x="155.5" y="597.6846">Receive the information</text><line style="stroke:#000000;stroke-width:1.0;stroke-dasharray:2.0,2.0;" x1="99" x2="406.5" y1="624.9473" y2="624.9473"/><path d="M110,630.9473 L110,657.9473 L392,657.9473 L392,640.9473 L382,630.9473 L110,630.9473 " fill="#FEFFDD" style="stroke:#181818;stroke-width:0.5;"/><path d="M382,630.9473 L382,640.9473 L392,640.9473 L382,630.9473 " fill="#FEFFDD" style="stroke:#181818;stroke-width:0.5;"/><text fill="#000000" font-family="sans-serif" font-size="13" font-weight="bold" lengthAdjust="spacing" textLength="90" x="199.75" y="649.9756">Use case ends</text><text fill="#000000" font-family="sans-serif" font-size="13" lengthAdjust="spacing" textLength="4" x="289.75" y="649.9756">.</text><!--SRC=[dLEnRjim4Dtv5GTqA434DX8F1JmOY9EgIwUu7JgorBacGf4gURQZl- -HecL5IOgq70oSUE_TlSVdZtkYDguMYzOgHuV6phLl5X5_7z1fdDL6_Ggg4MJ88cmn7370GxgD5BbsqGUuHrB6HX4VZMiLjuFIvCEMEiQe4qRVeCYV2eFWBZBQj3mIjbqaR8HmdX1yuk-Rhiutm4VABm7HIRc2Rti4QtO8kjFCxtTykL7HQAYiFqbP-d-WpUKAlawQFpzfRCbubm6mL8n1LqDQG8YYSROkurUCk9RoB1fYhxakcbcMEIhUlE-63v-gghgz5QMSpTRheYSHtMIYs7eN4Kw6zbEw6YU4We-o11U5MTzeou5ycSarcYC2iKd6xNneL58gqFB0fUhTYpsuzXYJQ0WZK2ZRpP-FUHhFKVDaoFrhyF7CoPw3cunFFjpjKJzoKZJ6Q7uQQwZBa9m3YpjAhrNo0kLiElZEGkuK_zpqAmulbuhaL5ROks_Ym6-Bec52dxJSTpKTayu3qY4u83-o7gul9C_clYNrBy4vmru4gAes5yx_Iz4P_Z9DhopxhlnanPoXV_DGolHQEhqMsnMbVCC-Bj8_KFm1]--></g></svg>