<?xml version="1.0" encoding="us-ascii" standalone="no"?><svg xmlns="http://www.w3.org/2000/svg" xmlns:xlink="http://www.w3.org/1999/xlink" contentStyleType="text/css" height="905px" preserveAspectRatio="none" style="width:533px;height:905px;background:#FFFFFF;" version="1.1" viewBox="0 0 533 905" width="533px" zoomAndPan="magnify"><defs/><g><text fill="#000000" font-family="sans-serif" font-size="14" font-weight="bold" lengthAdjust="spacing" textLength="253" x="141.5" y="30.1074">Server Requests Sensor Calibration</text><rect fill="#7FFFAA" height="101.873" style="stroke:#181818;stroke-width:1.0;" width="10" x="358.5" y="231.4063"/><rect fill="#7FFFAA" height="28" style="stroke:#181818;stroke-width:1.0;" width="10" x="358.5" y="372.5703"/><rect fill="none" height="556.3359" style="stroke:#000000;stroke-width:1.5;" width="517" x="9" y="246.4063"/><rect fill="none" height="89.873" style="stroke:#000000;stroke-width:1.5;" width="304.5" x="99" y="705.8691"/><line style="stroke:#181818;stroke-width:0.5;stroke-dasharray:5.0,5.0;" x1="137" x2="137" y1="126.2422" y2="819.7422"/><line style="stroke:#181818;stroke-width:0.5;stroke-dasharray:5.0,5.0;" x1="363.5" x2="363.5" y1="126.2422" y2="819.7422"/><text fill="#000000" font-family="sans-serif" font-size="14" lengthAdjust="spacing" textLength="42" x="113.5" y="122.7285">Server</text><ellipse cx="137.5" cy="62.1211" fill="#E2E2F0" rx="16" ry="16" style="stroke:#181818;stroke-width:1.5;"/><path d="M137.5,82.1211 C141.5,82.1211 144.5,82.1211 148.5,78.1211 C156.5,78.1211 164.5,86.1211 164.5,94.1211 L164.5,98.1211 C164.5,102.1211 160.5,106.1211 156.5,106.1211 L118.5,106.1211 C114.5,106.1211 110.5,102.1211 110.5,98.1211 L110.5,94.1211 C110.5,86.1211 118.5,78.1211 126.5,78.1211 C130.5,82.1211 133.5,82.1211 137.5,82.1211 " fill="#E2E2F0" style="stroke:#181818;stroke-width:1.5;"/><text fill="#000000" font-family="sans-serif" font-size="14" lengthAdjust="spacing" textLength="42" x="113.5" y="833.8496">Server</text><ellipse cx="137.5" cy="854.8633" fill="#E2E2F0" rx="16" ry="16" style="stroke:#181818;stroke-width:1.5;"/><path d="M137.5,874.8633 C141.5,874.8633 144.5,874.8633 148.5,870.8633 C156.5,870.8633 164.5,878.8633 164.5,886.8633 L164.5,890.8633 C164.5,894.8633 160.5,898.8633 156.5,898.8633 L118.5,898.8633 C114.5,898.8633 110.5,894.8633 110.5,890.8633 L110.5,886.8633 C110.5,878.8633 118.5,870.8633 126.5,870.8633 C130.5,874.8633 133.5,874.8633 137.5,874.8633 " fill="#E2E2F0" style="stroke:#181818;stroke-width:1.5;"/><rect fill="#E2E2F0" height="32.6211" rx="2.5" ry="2.5" style="stroke:#181818;stroke-width:0.5;" width="60" x="333.5" y="92.6211"/><text fill="#000000" font-family="sans-serif" font-size="14" lengthAdjust="spacing" textLength="46" x="340.5" y="114.7285">System</text><rect fill="#E2E2F0" height="32.6211" rx="2.5" ry="2.5" style="stroke:#181818;stroke-width:0.5;" width="60" x="333.5" y="818.7422"/><text fill="#000000" font-family="sans-serif" font-size="14" lengthAdjust="spacing" textLength="46" x="340.5" y="840.8496">System</text><rect fill="#7FFFAA" height="101.873" style="stroke:#181818;stroke-width:1.0;" width="10" x="358.5" y="231.4063"/><rect fill="#7FFFAA" height="28" style="stroke:#181818;stroke-width:1.0;" width="10" x="358.5" y="372.5703"/><path d="M110,141.2422 L110,202.2422 L389,202.2422 L389,151.2422 L379,141.2422 L110,141.2422 " fill="#FEFFDD" style="stroke:#181818;stroke-width:0.5;"/><path d="M379,141.2422 L379,151.2422 L389,151.2422 L379,141.2422 " fill="#FEFFDD" style="stroke:#181818;stroke-width:0.5;"/><text fill="#000000" font-family="sans-serif" font-size="13" font-weight="bold" lengthAdjust="spacing" textLength="39" x="124.75" y="160.2705">Green</text><text fill="#000000" font-family="sans-serif" font-size="13" lengthAdjust="spacing" textLength="98" x="163.75" y="160.2705">: The life cycle of</text><text fill="#000000" font-family="sans-serif" font-size="13" font-weight="bold" lengthAdjust="spacing" textLength="69" x="265.75" y="160.2705">Basic Flow</text><text fill="#000000" font-family="sans-serif" font-size="13" font-weight="bold" lengthAdjust="spacing" textLength="43" x="124.75" y="177.5615">Yellow</text><text fill="#000000" font-family="sans-serif" font-size="13" lengthAdjust="spacing" textLength="77" x="167.75" y="177.5615">: Life cycle of</text><text fill="#000000" font-family="sans-serif" font-size="13" font-weight="bold" lengthAdjust="spacing" textLength="117" x="248.75" y="177.5615">Exception Flow 2a</text><text fill="#000000" font-family="sans-serif" font-size="13" font-weight="bold" lengthAdjust="spacing" textLength="28" x="124.75" y="194.8525">Pink</text><text fill="#000000" font-family="sans-serif" font-size="13" lengthAdjust="spacing" textLength="77" x="152.75" y="194.8525">: Life cycle of</text><text fill="#000000" font-family="sans-serif" font-size="13" font-weight="bold" lengthAdjust="spacing" textLength="117" x="233.75" y="194.8525">Exception Flow 4a</text><polygon fill="#181818" points="346.5,227.4063,356.5,231.4063,346.5,235.4063,350.5,231.4063" style="stroke:#181818;stroke-width:1.0;"/><line style="stroke:#181818;stroke-width:1.0;" x1="137.5" x2="352.5" y1="231.4063" y2="231.4063"/><text fill="#000000" font-family="sans-serif" font-size="13" font-weight="bold" lengthAdjust="spacing" textLength="7" x="144.5" y="226.1436">1</text><text fill="#000000" font-family="sans-serif" font-size="13" lengthAdjust="spacing" textLength="154" x="155.5" y="226.1436">Request sensor calibration</text><path d="M9,246.4063 L70,246.4063 L70,255.6973 L60,265.6973 L9,265.6973 L9,246.4063 " fill="#EEEEEE" style="stroke:#000000;stroke-width:1.5;"/><rect fill="none" height="556.3359" style="stroke:#000000;stroke-width:1.5;" width="517" x="9" y="246.4063"/><text fill="#000000" font-family="sans-serif" font-size="13" font-weight="bold" lengthAdjust="spacing" textLength="16" x="24" y="261.4346">alt</text><text fill="#000000" font-family="sans-serif" font-size="11" font-weight="bold" lengthAdjust="spacing" textLength="66" x="85" y="260.2764">[Basic Flow]</text><line style="stroke:#181818;stroke-width:1.0;" x1="368.5" x2="410.5" y1="288.9883" y2="288.9883"/><line style="stroke:#181818;stroke-width:1.0;" x1="410.5" x2="410.5" y1="288.9883" y2="301.9883"/><line style="stroke:#181818;stroke-width:1.0;" x1="369.5" x2="410.5" y1="301.9883" y2="301.9883"/><polygon fill="#181818" points="379.5,297.9883,369.5,301.9883,379.5,305.9883,375.5,301.9883" style="stroke:#181818;stroke-width:1.0;"/><text fill="#000000" font-family="sans-serif" font-size="13" font-weight="bold" lengthAdjust="spacing" textLength="18" x="375.5" y="283.7256">2.1</text><text fill="#000000" font-family="sans-serif" font-size="13" lengthAdjust="spacing" textLength="114" x="397.5" y="283.7256">Receive the request</text><line style="stroke:#181818;stroke-width:1.0;" x1="138.5" x2="148.5" y1="333.2793" y2="329.2793"/><line style="stroke:#181818;stroke-width:1.0;" x1="138.5" x2="148.5" y1="333.2793" y2="337.2793"/><line style="stroke:#181818;stroke-width:1.0;stroke-dasharray:2.0,2.0;" x1="137.5" x2="362.5" y1="333.2793" y2="333.2793"/><text fill="#000000" font-family="sans-serif" font-size="13" font-weight="bold" lengthAdjust="spacing" textLength="18" x="154.5" y="328.0166">2.2</text><text fill="#000000" font-family="sans-serif" font-size="13" lengthAdjust="spacing" textLength="58" x="176.5" y="328.0166">Response</text><line style="stroke:#181818;stroke-width:1.0;" x1="368.5" x2="410.5" y1="364.5703" y2="364.5703"/><line style="stroke:#181818;stroke-width:1.0;" x1="410.5" x2="410.5" y1="364.5703" y2="377.5703"/><line style="stroke:#181818;stroke-width:1.0;" x1="369.5" x2="410.5" y1="377.5703" y2="377.5703"/><polygon fill="#181818" points="379.5,373.5703,369.5,377.5703,379.5,381.5703,375.5,377.5703" style="stroke:#181818;stroke-width:1.0;"/><text fill="#000000" font-family="sans-serif" font-size="13" font-weight="bold" lengthAdjust="spacing" textLength="18" x="375.5" y="359.3076">2.3</text><text fill="#000000" font-family="sans-serif" font-size="13" lengthAdjust="spacing" textLength="108" x="397.5" y="359.3076">Perform calibration</text><line style="stroke:#181818;stroke-width:1.0;" x1="138.5" x2="148.5" y1="438.8613" y2="434.8613"/><line style="stroke:#181818;stroke-width:1.0;" x1="138.5" x2="148.5" y1="438.8613" y2="442.8613"/><line style="stroke:#181818;stroke-width:1.0;stroke-dasharray:2.0,2.0;" x1="137.5" x2="362.5" y1="438.8613" y2="438.8613"/><text fill="#000000" font-family="sans-serif" font-size="13" font-weight="bold" lengthAdjust="spacing" textLength="7" x="154.5" y="433.5986">3</text><text fill="#000000" font-family="sans-serif" font-size="13" lengthAdjust="spacing" textLength="133" x="165.5" y="433.5986">Response to the server</text><line style="stroke:#181818;stroke-width:1.0;" x1="137.5" x2="179.5" y1="470.1523" y2="470.1523"/><line style="stroke:#181818;stroke-width:1.0;" x1="179.5" x2="179.5" y1="470.1523" y2="483.1523"/><line style="stroke:#181818;stroke-width:1.0;" x1="138.5" x2="179.5" y1="483.1523" y2="483.1523"/><polygon fill="#181818" points="148.5,479.1523,138.5,483.1523,148.5,487.1523,144.5,483.1523" style="stroke:#181818;stroke-width:1.0;"/><text fill="#000000" font-family="sans-serif" font-size="13" font-weight="bold" lengthAdjust="spacing" textLength="7" x="144.5" y="464.8896">4</text><text fill="#000000" font-family="sans-serif" font-size="13" lengthAdjust="spacing" textLength="131" x="155.5" y="464.8896">Receives the response</text><line style="stroke:#000000;stroke-width:1.0;stroke-dasharray:2.0,2.0;" x1="9" x2="526" y1="492.1523" y2="492.1523"/><text fill="#000000" font-family="sans-serif" font-size="11" font-weight="bold" lengthAdjust="spacing" textLength="53" x="14" y="504.0225">[2a: When</text><text fill="#000000" font-family="sans-serif" font-size="11" font-weight="bold" lengthAdjust="spacing" textLength="46" x="70" y="504.0225">Request</text><text fill="#000000" font-family="sans-serif" font-size="11" font-weight="bold" lengthAdjust="spacing" textLength="407" x="119" y="504.0225">received, if the sensors have been calibrated in the recently ten seconds]</text><path d="M368,512.7832 L368,539.7832 L497,539.7832 L497,522.7832 L487,512.7832 L368,512.7832 " fill="#FEFFDD" style="stroke:#181818;stroke-width:0.5;"/><path d="M487,512.7832 L487,522.7832 L497,522.7832 L487,512.7832 " fill="#FEFFDD" style="stroke:#181818;stroke-width:0.5;"/><text fill="#000000" font-family="sans-serif" font-size="13" lengthAdjust="spacing" textLength="108" x="374" y="531.8115">Refuse to calibrate</text><line style="stroke:#181818;stroke-width:1.0;" x1="138.5" x2="148.5" y1="568.3652" y2="564.3652"/><line style="stroke:#181818;stroke-width:1.0;" x1="138.5" x2="148.5" y1="568.3652" y2="572.3652"/><line style="stroke:#181818;stroke-width:1.0;stroke-dasharray:2.0,2.0;" x1="137.5" x2="362.5" y1="568.3652" y2="568.3652"/><text fill="#000000" font-family="sans-serif" font-size="13" font-weight="bold" lengthAdjust="spacing" textLength="26" x="154.5" y="563.1025">2a.1</text><text fill="#000000" font-family="sans-serif" font-size="13" lengthAdjust="spacing" textLength="172" x="184.5" y="563.1025">Response with error message</text><path d="M110,581.3652 L110,608.3652 L389,608.3652 L389,591.3652 L379,581.3652 L110,581.3652 " fill="#FEFFDD" style="stroke:#181818;stroke-width:0.5;"/><path d="M379,581.3652 L379,591.3652 L389,591.3652 L379,581.3652 " fill="#FEFFDD" style="stroke:#181818;stroke-width:0.5;"/><text fill="#000000" font-family="sans-serif" font-size="13" font-weight="bold" lengthAdjust="spacing" textLength="90" x="198.25" y="600.3936">Use case ends</text><text fill="#000000" font-family="sans-serif" font-size="13" lengthAdjust="spacing" textLength="4" x="288.25" y="600.3936">.</text><line style="stroke:#000000;stroke-width:1.0;stroke-dasharray:2.0,2.0;" x1="9" x2="526" y1="614.6563" y2="614.6563"/><text fill="#000000" font-family="sans-serif" font-size="11" font-weight="bold" lengthAdjust="spacing" textLength="269" x="14" y="626.5264">[4a: The server failed to receive the information.]</text><polygon fill="#181818" points="351.5,649.5781,361.5,653.5781,351.5,657.5781,355.5,653.5781" style="stroke:#181818;stroke-width:1.0;"/><line style="stroke:#181818;stroke-width:1.0;" x1="137.5" x2="357.5" y1="653.5781" y2="653.5781"/><text fill="#000000" font-family="sans-serif" font-size="13" font-weight="bold" lengthAdjust="spacing" textLength="26" x="144.5" y="648.3154">4a.1</text><text fill="#000000" font-family="sans-serif" font-size="13" lengthAdjust="spacing" textLength="113" x="174.5" y="648.3154">Check accessibility</text><path d="M19,666.5781 L19,693.5781 L132,693.5781 L132,676.5781 L122,666.5781 L19,666.5781 " fill="#FFC0CB" style="stroke:#181818;stroke-width:0.5;"/><path d="M122,666.5781 L122,676.5781 L132,676.5781 L122,666.5781 " fill="#FFC0CB" style="stroke:#181818;stroke-width:0.5;"/><text fill="#000000" font-family="sans-serif" font-size="13" lengthAdjust="spacing" textLength="92" x="25" y="685.6064">By Use Case 2.</text><path d="M99,705.8691 L160,705.8691 L160,715.1602 L150,725.1602 L99,725.1602 L99,705.8691 " fill="#EEEEEE" style="stroke:#000000;stroke-width:1.5;"/><rect fill="none" height="89.873" style="stroke:#000000;stroke-width:1.5;" width="304.5" x="99" y="705.8691"/><text fill="#000000" font-family="sans-serif" font-size="13" font-weight="bold" lengthAdjust="spacing" textLength="16" x="114" y="720.8975">alt</text><text fill="#000000" font-family="sans-serif" font-size="11" font-weight="bold" lengthAdjust="spacing" textLength="152" x="175" y="719.7393">[The System is accessible.]</text><polygon fill="#181818" points="351.5,744.4512,361.5,748.4512,351.5,752.4512,355.5,748.4512" style="stroke:#181818;stroke-width:1.0;"/><line style="stroke:#181818;stroke-width:1.0;" x1="137.5" x2="357.5" y1="748.4512" y2="748.4512"/><text fill="#000000" font-family="sans-serif" font-size="13" font-weight="bold" lengthAdjust="spacing" textLength="7" x="144.5" y="743.1885">1</text><text fill="#000000" font-family="sans-serif" font-size="13" lengthAdjust="spacing" textLength="154" x="155.5" y="743.1885">Request sensor calibration</text><line style="stroke:#000000;stroke-width:1.0;stroke-dasharray:2.0,2.0;" x1="99" x2="403.5" y1="757.4512" y2="757.4512"/><path d="M110,763.4512 L110,790.4512 L389,790.4512 L389,773.4512 L379,763.4512 L110,763.4512 " fill="#FFC0CB" style="stroke:#181818;stroke-width:0.5;"/><path d="M379,763.4512 L379,773.4512 L389,773.4512 L379,763.4512 " fill="#FFC0CB" style="stroke:#181818;stroke-width:0.5;"/><text fill="#000000" font-family="sans-serif" font-size="13" font-weight="bold" lengthAdjust="spacing" textLength="90" x="198.25" y="782.4795">Use case ends</text><text fill="#000000" font-family="sans-serif" font-size="13" lengthAdjust="spacing" textLength="4" x="288.25" y="782.4795">.</text><!--SRC=[dLHDYzim4BtxLmpieI0IXsO3XHm2kw4ffQM4JKlfKP77iOWikPAIDF- -euyu7qlJKXyCikRDU_DcncyQxpit7OqwnRNVjQeKfXqv_Bb3BN1OIRwnl2syz0fXXNQF5bx2hVEEpjeP2tEkvDfoBuqkt5RgZXC4kF36hloHSFo0phHOn4yvIq5HNWhP4IsiZivZMnJQU0GJE5BGu7G3z33smI9gngRmjK5GiaOGHq7vJKsNpzn90Gjb3epb-1-eud4Ads-2t_yIs0N14G1ZtcEMKc__0J492DGL1Cb5aPqPphBWAI7UCdQo2bnoIbmuHMR8FQTw4m8UtYqMYwUdWYiFvrgYgXnnbNrSflm2vHx1ao4sSLqXXhDPjZ9XnX7ZEgCTni0ARtJS8Nmay19jRMnxLKb0_AcQltDSItoy40ZUnC9S6fY4EXlTOoPd8rns8bTOeA8qOpw5xmrg2itz881DW6e0iiuieKKE6av-hcdG-Xgn0gbpOe7QgoDukdOeZAvSb1K7ryfDuyEqN5GPdXUiTwcQFcEywyVdJiTuRdDsv21z0sWjpLABpl4DdkdJtiGqWzEIdIGmzetGWjEBM1rZvRM2wDE4fyrAVaFDfQBIIRQzc3AfG_zZuylRZlIpCacovmsABOs68AboBPNqnxDSXNKoA-4VbX-_VEhrFXyX29u7mUFojLjXIOBKx9fqFOl2ii_o7riPcLHUZdlMtWY-O_8hyNG8luxV]--></g></svg>