<?xml version="1.0" encoding="us-ascii" standalone="no"?><svg xmlns="http://www.w3.org/2000/svg" xmlns:xlink="http://www.w3.org/1999/xlink" contentStyleType="text/css" height="961px" preserveAspectRatio="none" style="width:485px;height:961px;background:#FFFFFF;" version="1.1" viewBox="0 0 485 961" width="485px" zoomAndPan="magnify"><defs/><g><text fill="#000000" font-family="sans-serif" font-size="14" font-weight="bold" lengthAdjust="spacing" textLength="165" x="161" y="30.1074">Request Sensor Details</text><rect fill="none" height="377.541" style="stroke:#000000;stroke-width:1.5;" width="400.5" x="77.5" y="246.4063"/><rect fill="none" height="111.5039" style="stroke:#000000;stroke-width:1.5;" width="380.5" x="87.5" y="316.9883"/><rect fill="none" height="141.1641" style="stroke:#000000;stroke-width:1.5;" width="380.5" x="87.5" y="475.7832"/><rect fill="none" height="220.7461" style="stroke:#000000;stroke-width:1.5;" width="400.5" x="77.5" y="637.9473"/><rect fill="none" height="96.873" style="stroke:#000000;stroke-width:1.5;" width="380.5" x="87.5" y="708.5293"/><line style="stroke:#181818;stroke-width:0.5;stroke-dasharray:5.0,5.0;" x1="125.5" x2="125.5" y1="126.2422" y2="875.6934"/><line style="stroke:#181818;stroke-width:0.5;stroke-dasharray:5.0,5.0;" x1="394" x2="394" y1="126.2422" y2="875.6934"/><text fill="#000000" font-family="sans-serif" font-size="14" lengthAdjust="spacing" textLength="42" x="102" y="122.7285">Server</text><ellipse cx="126" cy="62.1211" fill="#E2E2F0" rx="16" ry="16" style="stroke:#181818;stroke-width:1.5;"/><path d="M126,82.1211 C130,82.1211 133,82.1211 137,78.1211 C145,78.1211 153,86.1211 153,94.1211 L153,98.1211 C153,102.1211 149,106.1211 145,106.1211 L107,106.1211 C103,106.1211 99,102.1211 99,98.1211 L99,94.1211 C99,86.1211 107,78.1211 115,78.1211 C119,82.1211 122,82.1211 126,82.1211 " fill="#E2E2F0" style="stroke:#181818;stroke-width:1.5;"/><text fill="#000000" font-family="sans-serif" font-size="14" lengthAdjust="spacing" textLength="42" x="102" y="889.8008">Server</text><ellipse cx="126" cy="910.8145" fill="#E2E2F0" rx="16" ry="16" style="stroke:#181818;stroke-width:1.5;"/><path d="M126,930.8145 C130,930.8145 133,930.8145 137,926.8145 C145,926.8145 153,934.8145 153,942.8145 L153,946.8145 C153,950.8145 149,954.8145 145,954.8145 L107,954.8145 C103,954.8145 99,950.8145 99,946.8145 L99,942.8145 C99,934.8145 107,926.8145 115,926.8145 C119,930.8145 122,930.8145 126,930.8145 " fill="#E2E2F0" style="stroke:#181818;stroke-width:1.5;"/><rect fill="#E2E2F0" height="32.6211" rx="2.5" ry="2.5" style="stroke:#181818;stroke-width:0.5;" width="128" x="330" y="92.6211"/><text fill="#000000" font-family="sans-serif" font-size="14" lengthAdjust="spacing" textLength="114" x="337" y="114.7285">EmbeddedSystem</text><rect fill="#E2E2F0" height="32.6211" rx="2.5" ry="2.5" style="stroke:#181818;stroke-width:0.5;" width="128" x="330" y="874.6934"/><text fill="#000000" font-family="sans-serif" font-size="14" lengthAdjust="spacing" textLength="114" x="337" y="896.8008">EmbeddedSystem</text><path d="M260,141.2422 L260,202.2422 L389,202.2422 L389,151.2422 L379,141.2422 L260,141.2422 " fill="#FEFFDD" style="stroke:#181818;stroke-width:0.5;"/><path d="M379,141.2422 L379,151.2422 L389,151.2422 L379,141.2422 " fill="#FEFFDD" style="stroke:#181818;stroke-width:0.5;"/><text fill="#000000" font-family="sans-serif" font-size="13" lengthAdjust="spacing" textLength="85" x="266" y="160.2705">Pre-Conditions</text><text fill="#000000" font-family="sans-serif" font-size="13" lengthAdjust="spacing" textLength="62" x="266" y="177.5615">- Power on</text><text fill="#000000" font-family="sans-serif" font-size="13" lengthAdjust="spacing" textLength="108" x="266" y="194.8525">- Network available</text><polygon fill="#181818" points="382,227.4063,392,231.4063,382,235.4063,386,231.4063" style="stroke:#181818;stroke-width:1.0;"/><line style="stroke:#181818;stroke-width:1.0;" x1="126" x2="388" y1="231.4063" y2="231.4063"/><text fill="#000000" font-family="sans-serif" font-size="13" lengthAdjust="spacing" textLength="165" x="133" y="226.1436">REQUEST for sensor details</text><path d="M77.5,246.4063 L138.5,246.4063 L138.5,255.6973 L128.5,265.6973 L77.5,265.6973 L77.5,246.4063 " fill="#EEEEEE" style="stroke:#000000;stroke-width:1.5;"/><rect fill="none" height="377.541" style="stroke:#000000;stroke-width:1.5;" width="400.5" x="77.5" y="246.4063"/><text fill="#000000" font-family="sans-serif" font-size="13" font-weight="bold" lengthAdjust="spacing" textLength="16" x="92.5" y="261.4346">alt</text><text fill="#000000" font-family="sans-serif" font-size="11" font-weight="bold" lengthAdjust="spacing" textLength="261" x="153.5" y="260.2764">[Network error occurs when sending REQUEST]</text><line style="stroke:#181818;stroke-width:1.0;" x1="126" x2="168" y1="288.9883" y2="288.9883"/><line style="stroke:#181818;stroke-width:1.0;" x1="168" x2="168" y1="288.9883" y2="301.9883"/><line style="stroke:#181818;stroke-width:1.0;" x1="127" x2="168" y1="301.9883" y2="301.9883"/><polygon fill="#181818" points="137,297.9883,127,301.9883,137,305.9883,133,301.9883" style="stroke:#181818;stroke-width:1.0;"/><text fill="#000000" font-family="sans-serif" font-size="13" lengthAdjust="spacing" textLength="217" x="133" y="283.7256">Retry 3 times with 0.5-second interval</text><path d="M87.5,316.9883 L148.5,316.9883 L148.5,326.2793 L138.5,336.2793 L87.5,336.2793 L87.5,316.9883 " fill="#EEEEEE" style="stroke:#000000;stroke-width:1.5;"/><rect fill="none" height="111.5039" style="stroke:#000000;stroke-width:1.5;" width="380.5" x="87.5" y="316.9883"/><text fill="#000000" font-family="sans-serif" font-size="13" font-weight="bold" lengthAdjust="spacing" textLength="16" x="102.5" y="332.0166">alt</text><text fill="#000000" font-family="sans-serif" font-size="11" font-weight="bold" lengthAdjust="spacing" textLength="121" x="163.5" y="330.8584">[Retry limit exceeded]</text><line style="stroke:#181818;stroke-width:1.0;" x1="126" x2="168" y1="359.5703" y2="359.5703"/><line style="stroke:#181818;stroke-width:1.0;" x1="168" x2="168" y1="359.5703" y2="372.5703"/><line style="stroke:#181818;stroke-width:1.0;" x1="127" x2="168" y1="372.5703" y2="372.5703"/><polygon fill="#181818" points="137,368.5703,127,372.5703,137,376.5703,133,372.5703" style="stroke:#181818;stroke-width:1.0;"/><text fill="#000000" font-family="sans-serif" font-size="13" lengthAdjust="spacing" textLength="87" x="133" y="354.3076">Use case ends</text><line style="stroke:#000000;stroke-width:1.0;stroke-dasharray:2.0,2.0;" x1="87.5" x2="468" y1="381.5703" y2="381.5703"/><text fill="#000000" font-family="sans-serif" font-size="11" font-weight="bold" lengthAdjust="spacing" textLength="166" x="92.5" y="393.4404">[Server sends REQUEST again]</text><polygon fill="#181818" points="382,416.4922,392,420.4922,382,424.4922,386,420.4922" style="stroke:#181818;stroke-width:1.0;"/><line style="stroke:#181818;stroke-width:1.0;" x1="126" x2="388" y1="420.4922" y2="420.4922"/><text fill="#000000" font-family="sans-serif" font-size="13" lengthAdjust="spacing" textLength="165" x="133" y="415.2295">REQUEST for sensor details</text><line style="stroke:#000000;stroke-width:1.0;stroke-dasharray:2.0,2.0;" x1="77.5" x2="478" y1="436.4922" y2="436.4922"/><polygon fill="#181818" points="137,456.7832,127,460.7832,137,464.7832,133,460.7832" style="stroke:#181818;stroke-width:1.0;"/><line style="stroke:#181818;stroke-width:1.0;" x1="131" x2="393" y1="460.7832" y2="460.7832"/><text fill="#000000" font-family="sans-serif" font-size="13" lengthAdjust="spacing" textLength="185" x="143" y="455.5205">RESPONSE with sensor details</text><path d="M87.5,475.7832 L148.5,475.7832 L148.5,485.0742 L138.5,495.0742 L87.5,495.0742 L87.5,475.7832 " fill="#EEEEEE" style="stroke:#000000;stroke-width:1.5;"/><rect fill="none" height="141.1641" style="stroke:#000000;stroke-width:1.5;" width="380.5" x="87.5" y="475.7832"/><text fill="#000000" font-family="sans-serif" font-size="13" font-weight="bold" lengthAdjust="spacing" textLength="16" x="102.5" y="490.8115">alt</text><text fill="#000000" font-family="sans-serif" font-size="11" font-weight="bold" lengthAdjust="spacing" textLength="268" x="163.5" y="489.6533">[Network error occurs when sending RESPONSE]</text><line style="stroke:#181818;stroke-width:1.0;" x1="126" x2="168" y1="518.3652" y2="518.3652"/><line style="stroke:#181818;stroke-width:1.0;" x1="168" x2="168" y1="518.3652" y2="531.3652"/><line style="stroke:#181818;stroke-width:1.0;" x1="127" x2="168" y1="531.3652" y2="531.3652"/><polygon fill="#181818" points="137,527.3652,127,531.3652,137,535.3652,133,531.3652" style="stroke:#181818;stroke-width:1.0;"/><text fill="#000000" font-family="sans-serif" font-size="13" lengthAdjust="spacing" textLength="254" x="133" y="513.1025">Check reachability of the embedded system</text><polygon fill="#181818" points="382,558.6563,392,562.6563,382,566.6563,386,562.6563" style="stroke:#181818;stroke-width:1.0;"/><line style="stroke:#181818;stroke-width:1.0;" x1="126" x2="388" y1="562.6563" y2="562.6563"/><text fill="#000000" font-family="sans-serif" font-size="13" lengthAdjust="spacing" textLength="165" x="133" y="557.3936">REQUEST for sensor details</text><line style="stroke:#000000;stroke-width:1.0;stroke-dasharray:2.0,2.0;" x1="87.5" x2="468" y1="571.6563" y2="571.6563"/><line style="stroke:#181818;stroke-width:1.0;" x1="84" x2="126" y1="595.9473" y2="595.9473"/><line style="stroke:#181818;stroke-width:1.0;" x1="84" x2="84" y1="595.9473" y2="608.9473"/><line style="stroke:#181818;stroke-width:1.0;" x1="84" x2="125" y1="608.9473" y2="608.9473"/><polygon fill="#181818" points="117,604.9473,127,608.9473,117,612.9473,121,608.9473" style="stroke:#181818;stroke-width:1.0;"/><text fill="#000000" font-family="sans-serif" font-size="13" lengthAdjust="spacing" textLength="112" x="14" y="590.6846">Receive information</text><path d="M77.5,637.9473 L138.5,637.9473 L138.5,647.2383 L128.5,657.2383 L77.5,657.2383 L77.5,637.9473 " fill="#EEEEEE" style="stroke:#000000;stroke-width:1.5;"/><rect fill="none" height="220.7461" style="stroke:#000000;stroke-width:1.5;" width="400.5" x="77.5" y="637.9473"/><text fill="#000000" font-family="sans-serif" font-size="13" font-weight="bold" lengthAdjust="spacing" textLength="16" x="92.5" y="652.9756">alt</text><text fill="#000000" font-family="sans-serif" font-size="11" font-weight="bold" lengthAdjust="spacing" textLength="188" x="153.5" y="651.8174">[Server did not receive RESPONSE]</text><line style="stroke:#181818;stroke-width:1.0;" x1="126" x2="168" y1="680.5293" y2="680.5293"/><line style="stroke:#181818;stroke-width:1.0;" x1="168" x2="168" y1="680.5293" y2="693.5293"/><line style="stroke:#181818;stroke-width:1.0;" x1="127" x2="168" y1="693.5293" y2="693.5293"/><polygon fill="#181818" points="137,689.5293,127,693.5293,137,697.5293,133,693.5293" style="stroke:#181818;stroke-width:1.0;"/><text fill="#000000" font-family="sans-serif" font-size="13" lengthAdjust="spacing" textLength="254" x="133" y="675.2666">Check reachability of the embedded system</text><path d="M87.5,708.5293 L148.5,708.5293 L148.5,717.8203 L138.5,727.8203 L87.5,727.8203 L87.5,708.5293 " fill="#EEEEEE" style="stroke:#000000;stroke-width:1.5;"/><rect fill="none" height="96.873" style="stroke:#000000;stroke-width:1.5;" width="380.5" x="87.5" y="708.5293"/><text fill="#000000" font-family="sans-serif" font-size="13" font-weight="bold" lengthAdjust="spacing" textLength="16" x="102.5" y="723.5576">alt</text><text fill="#000000" font-family="sans-serif" font-size="11" font-weight="bold" lengthAdjust="spacing" textLength="182" x="163.5" y="722.3994">[Embedded system is reachable]</text><polygon fill="#181818" points="382,747.1113,392,751.1113,382,755.1113,386,751.1113" style="stroke:#181818;stroke-width:1.0;"/><line style="stroke:#181818;stroke-width:1.0;" x1="126" x2="388" y1="751.1113" y2="751.1113"/><text fill="#000000" font-family="sans-serif" font-size="13" lengthAdjust="spacing" textLength="165" x="133" y="745.8486">REQUEST for sensor details</text><line style="stroke:#000000;stroke-width:1.0;stroke-dasharray:2.0,2.0;" x1="87.5" x2="468" y1="760.1113" y2="760.1113"/><line style="stroke:#181818;stroke-width:1.0;" x1="126" x2="168" y1="784.4023" y2="784.4023"/><line style="stroke:#181818;stroke-width:1.0;" x1="168" x2="168" y1="784.4023" y2="797.4023"/><line style="stroke:#181818;stroke-width:1.0;" x1="127" x2="168" y1="797.4023" y2="797.4023"/><polygon fill="#181818" points="137,793.4023,127,797.4023,137,801.4023,133,797.4023" style="stroke:#181818;stroke-width:1.0;"/><text fill="#000000" font-family="sans-serif" font-size="13" lengthAdjust="spacing" textLength="87" x="133" y="779.1396">Use case ends</text><line style="stroke:#000000;stroke-width:1.0;stroke-dasharray:2.0,2.0;" x1="77.5" x2="478" y1="813.4023" y2="813.4023"/><line style="stroke:#181818;stroke-width:1.0;" x1="84" x2="126" y1="837.6934" y2="837.6934"/><line style="stroke:#181818;stroke-width:1.0;" x1="84" x2="84" y1="837.6934" y2="850.6934"/><line style="stroke:#181818;stroke-width:1.0;" x1="84" x2="125" y1="850.6934" y2="850.6934"/><polygon fill="#181818" points="117,846.6934,127,850.6934,117,854.6934,121,850.6934" style="stroke:#181818;stroke-width:1.0;"/><text fill="#000000" font-family="sans-serif" font-size="13" lengthAdjust="spacing" textLength="87" x="39" y="832.4307">Use case ends</text><!--SRC=[jL9DJyCm3BtdL_WF524XBWXn6RsEiR8RbopnLcjfCX9lfVyUjzrNsOH04vKQ9R7VytkEcTWXJF5ZWucXG9z2X6TaJIwfj2A_rb5Ne0s7M70ZkRh652fKtPKWuXQZaYmcGslj6V9gZjQYBPh4M2db0oCuN324nRVW0qmYPgFWBJ45dzvz1fDGOuJWs_qOkGvn1NehUlJSeL9zGSYUpgYc-UiiBzvW8R9IRyJkZ2Zj-426CKee6BE92UeIVPjjoI_t30haEzRfTyAF71ku0wOA1KXSmktDVPRGY7uWpvAdNGTko_NfZYfYm4-3A5Axu6NsMK8mMXRHaheyT7BQ9ROAqy6XNcho5xZ-q96kWBUgBT8TXjY1xxoOl8oBlBTyWUUtpUrfVkZ1g4IpWeZQb7fEZhXfHuPBQSfE7QH-gAxtllTzmlAOdRorGTgYlAhWAzqEvx5bydS3jODPiY0pBhfxpC3ejIRREldm7YZjuGx_fnC_p-Nfs9otRWYGvGi0]--></g></svg>