<?xml version="1.0" encoding="us-ascii" standalone="no"?><svg xmlns="http://www.w3.org/2000/svg" xmlns:xlink="http://www.w3.org/1999/xlink" contentStyleType="text/css" height="957px" preserveAspectRatio="none" style="width:709px;height:957px;background:#FFFFFF;" version="1.1" viewBox="0 0 709 957" width="709px" zoomAndPan="magnify"><defs/><g><text fill="#000000" font-family="sans-serif" font-size="14" font-weight="bold" lengthAdjust="spacing" textLength="161" x="275.25" y="30.1074">Request Sensor Status</text><rect fill="none" height="244.3281" style="stroke:#000000;stroke-width:1.5;" width="615" x="77.5" y="246.4063"/><rect fill="none" height="115.1641" style="stroke:#000000;stroke-width:1.5;" width="595" x="87.5" y="303.9883"/><rect fill="none" height="349.9102" style="stroke:#000000;stroke-width:1.5;" width="635" x="67.5" y="504.7344"/><rect fill="none" height="239.0371" style="stroke:#000000;stroke-width:1.5;" width="615" x="77.5" y="562.3164"/><rect fill="none" height="128.1641" style="stroke:#000000;stroke-width:1.5;" width="595" x="87.5" y="666.1895"/><line style="stroke:#181818;stroke-width:0.5;stroke-dasharray:5.0,5.0;" x1="125.5" x2="125.5" y1="126.2422" y2="871.6445"/><line style="stroke:#181818;stroke-width:0.5;stroke-dasharray:5.0,5.0;" x1="373" x2="373" y1="126.2422" y2="871.6445"/><line style="stroke:#181818;stroke-width:0.5;stroke-dasharray:5.0,5.0;" x1="642.5" x2="642.5" y1="126.2422" y2="871.6445"/><text fill="#000000" font-family="sans-serif" font-size="14" lengthAdjust="spacing" textLength="42" x="102" y="122.7285">Server</text><ellipse cx="126" cy="62.1211" fill="#E2E2F0" rx="16" ry="16" style="stroke:#181818;stroke-width:1.5;"/><path d="M126,82.1211 C130,82.1211 133,82.1211 137,78.1211 C145,78.1211 153,86.1211 153,94.1211 L153,98.1211 C153,102.1211 149,106.1211 145,106.1211 L107,106.1211 C103,106.1211 99,102.1211 99,98.1211 L99,94.1211 C99,86.1211 107,78.1211 115,78.1211 C119,82.1211 122,82.1211 126,82.1211 " fill="#E2E2F0" style="stroke:#181818;stroke-width:1.5;"/><text fill="#000000" font-family="sans-serif" font-size="14" lengthAdjust="spacing" textLength="42" x="102" y="885.752">Server</text><ellipse cx="126" cy="906.7656" fill="#E2E2F0" rx="16" ry="16" style="stroke:#181818;stroke-width:1.5;"/><path d="M126,926.7656 C130,926.7656 133,926.7656 137,922.7656 C145,922.7656 153,930.7656 153,938.7656 L153,942.7656 C153,946.7656 149,950.7656 145,950.7656 L107,950.7656 C103,950.7656 99,946.7656 99,942.7656 L99,938.7656 C99,930.7656 107,922.7656 115,922.7656 C119,926.7656 122,926.7656 126,926.7656 " fill="#E2E2F0" style="stroke:#181818;stroke-width:1.5;"/><rect fill="#E2E2F0" height="32.6211" rx="2.5" ry="2.5" style="stroke:#181818;stroke-width:0.5;" width="128" x="309" y="92.6211"/><text fill="#000000" font-family="sans-serif" font-size="14" lengthAdjust="spacing" textLength="114" x="316" y="114.7285">EmbeddedSystem</text><rect fill="#E2E2F0" height="32.6211" rx="2.5" ry="2.5" style="stroke:#181818;stroke-width:0.5;" width="128" x="309" y="870.6445"/><text fill="#000000" font-family="sans-serif" font-size="14" lengthAdjust="spacing" textLength="114" x="316" y="892.752">EmbeddedSystem</text><rect fill="#E2E2F0" height="32.6211" rx="2.5" ry="2.5" style="stroke:#181818;stroke-width:0.5;" width="59" x="613.5" y="92.6211"/><text fill="#000000" font-family="sans-serif" font-size="14" lengthAdjust="spacing" textLength="45" x="620.5" y="114.7285">Sensor</text><rect fill="#E2E2F0" height="32.6211" rx="2.5" ry="2.5" style="stroke:#181818;stroke-width:0.5;" width="59" x="613.5" y="870.6445"/><text fill="#000000" font-family="sans-serif" font-size="14" lengthAdjust="spacing" textLength="45" x="620.5" y="892.752">Sensor</text><path d="M239,141.2422 L239,202.2422 L368,202.2422 L368,151.2422 L358,141.2422 L239,141.2422 " fill="#FEFFDD" style="stroke:#181818;stroke-width:0.5;"/><path d="M358,141.2422 L358,151.2422 L368,151.2422 L358,141.2422 " fill="#FEFFDD" style="stroke:#181818;stroke-width:0.5;"/><text fill="#000000" font-family="sans-serif" font-size="13" lengthAdjust="spacing" textLength="85" x="245" y="160.2705">Pre-Conditions</text><text fill="#000000" font-family="sans-serif" font-size="13" lengthAdjust="spacing" textLength="62" x="245" y="177.5615">- Power on</text><text fill="#000000" font-family="sans-serif" font-size="13" lengthAdjust="spacing" textLength="108" x="245" y="194.8525">- Network available</text><polygon fill="#181818" points="361,227.4063,371,231.4063,361,235.4063,365,231.4063" style="stroke:#181818;stroke-width:1.0;"/><line style="stroke:#181818;stroke-width:1.0;" x1="126" x2="367" y1="231.4063" y2="231.4063"/><text fill="#000000" font-family="sans-serif" font-size="13" lengthAdjust="spacing" textLength="163" x="133" y="226.1436">REQUEST for sensor status</text><path d="M77.5,246.4063 L138.5,246.4063 L138.5,255.6973 L128.5,265.6973 L77.5,265.6973 L77.5,246.4063 " fill="#EEEEEE" style="stroke:#000000;stroke-width:1.5;"/><rect fill="none" height="244.3281" style="stroke:#000000;stroke-width:1.5;" width="615" x="77.5" y="246.4063"/><text fill="#000000" font-family="sans-serif" font-size="13" font-weight="bold" lengthAdjust="spacing" textLength="16" x="92.5" y="261.4346">alt</text><text fill="#000000" font-family="sans-serif" font-size="11" font-weight="bold" lengthAdjust="spacing" textLength="150" x="153.5" y="260.2764">[Sensor does not respond]</text><polygon fill="#181818" points="631,284.9883,641,288.9883,631,292.9883,635,288.9883" style="stroke:#181818;stroke-width:1.0;"/><line style="stroke:#181818;stroke-width:1.0;" x1="373" x2="637" y1="288.9883" y2="288.9883"/><text fill="#000000" font-family="sans-serif" font-size="13" lengthAdjust="spacing" textLength="163" x="380" y="283.7256">REQUEST for sensor status</text><path d="M87.5,303.9883 L148.5,303.9883 L148.5,313.2793 L138.5,323.2793 L87.5,323.2793 L87.5,303.9883 " fill="#EEEEEE" style="stroke:#000000;stroke-width:1.5;"/><rect fill="none" height="115.1641" style="stroke:#000000;stroke-width:1.5;" width="595" x="87.5" y="303.9883"/><text fill="#000000" font-family="sans-serif" font-size="13" font-weight="bold" lengthAdjust="spacing" textLength="16" x="102.5" y="319.0166">alt</text><text fill="#000000" font-family="sans-serif" font-size="11" font-weight="bold" lengthAdjust="spacing" textLength="252" x="163.5" y="317.8584">[Sensor still does not respond after 2 retries]</text><polygon fill="#181818" points="137,342.5703,127,346.5703,137,350.5703,133,346.5703" style="stroke:#181818;stroke-width:1.0;"/><line style="stroke:#181818;stroke-width:1.0;" x1="131" x2="372" y1="346.5703" y2="346.5703"/><text fill="#000000" font-family="sans-serif" font-size="13" lengthAdjust="spacing" textLength="223" x="143" y="341.3076">RESPONSE with sensor status "OFF"</text><line style="stroke:#000000;stroke-width:1.0;stroke-dasharray:2.0,2.0;" x1="87.5" x2="682.5" y1="355.5703" y2="355.5703"/><polygon fill="#181818" points="384,375.8613,374,379.8613,384,383.8613,380,379.8613" style="stroke:#181818;stroke-width:1.0;"/><line style="stroke:#181818;stroke-width:1.0;" x1="378" x2="642" y1="379.8613" y2="379.8613"/><text fill="#000000" font-family="sans-serif" font-size="13" lengthAdjust="spacing" textLength="246" x="390" y="374.5986">RESPONSE with sensor status and power</text><polygon fill="#181818" points="137,407.1523,127,411.1523,137,415.1523,133,411.1523" style="stroke:#181818;stroke-width:1.0;"/><line style="stroke:#181818;stroke-width:1.0;" x1="131" x2="372" y1="411.1523" y2="411.1523"/><text fill="#000000" font-family="sans-serif" font-size="13" lengthAdjust="spacing" textLength="183" x="143" y="405.8896">RESPONSE with sensor status</text><line style="stroke:#000000;stroke-width:1.0;stroke-dasharray:2.0,2.0;" x1="77.5" x2="692.5" y1="427.1523" y2="427.1523"/><polygon fill="#181818" points="384,447.4434,374,451.4434,384,455.4434,380,451.4434" style="stroke:#181818;stroke-width:1.0;"/><line style="stroke:#181818;stroke-width:1.0;" x1="378" x2="642" y1="451.4434" y2="451.4434"/><text fill="#000000" font-family="sans-serif" font-size="13" lengthAdjust="spacing" textLength="246" x="390" y="446.1807">RESPONSE with sensor status and power</text><polygon fill="#181818" points="137,478.7344,127,482.7344,137,486.7344,133,482.7344" style="stroke:#181818;stroke-width:1.0;"/><line style="stroke:#181818;stroke-width:1.0;" x1="131" x2="372" y1="482.7344" y2="482.7344"/><text fill="#000000" font-family="sans-serif" font-size="13" lengthAdjust="spacing" textLength="183" x="143" y="477.4717">RESPONSE with sensor status</text><path d="M67.5,504.7344 L128.5,504.7344 L128.5,514.0254 L118.5,524.0254 L67.5,524.0254 L67.5,504.7344 " fill="#EEEEEE" style="stroke:#000000;stroke-width:1.5;"/><rect fill="none" height="349.9102" style="stroke:#000000;stroke-width:1.5;" width="635" x="67.5" y="504.7344"/><text fill="#000000" font-family="sans-serif" font-size="13" font-weight="bold" lengthAdjust="spacing" textLength="16" x="82.5" y="519.7627">alt</text><text fill="#000000" font-family="sans-serif" font-size="11" font-weight="bold" lengthAdjust="spacing" textLength="199" x="143.5" y="518.6045">[Server does not receive RESPONSE]</text><polygon fill="#181818" points="361,543.3164,371,547.3164,361,551.3164,365,547.3164" style="stroke:#181818;stroke-width:1.0;"/><line style="stroke:#181818;stroke-width:1.0;" x1="126" x2="367" y1="547.3164" y2="547.3164"/><text fill="#000000" font-family="sans-serif" font-size="13" lengthAdjust="spacing" textLength="163" x="133" y="542.0537">REQUEST for sensor status</text><path d="M77.5,562.3164 L138.5,562.3164 L138.5,571.6074 L128.5,581.6074 L77.5,581.6074 L77.5,562.3164 " fill="#EEEEEE" style="stroke:#000000;stroke-width:1.5;"/><rect fill="none" height="239.0371" style="stroke:#000000;stroke-width:1.5;" width="615" x="77.5" y="562.3164"/><text fill="#000000" font-family="sans-serif" font-size="13" font-weight="bold" lengthAdjust="spacing" textLength="16" x="92.5" y="577.3447">alt</text><text fill="#000000" font-family="sans-serif" font-size="11" font-weight="bold" lengthAdjust="spacing" textLength="293" x="153.5" y="576.1865">[Embedded system does not respond after 2 retries]</text><line style="stroke:#181818;stroke-width:1.0;" x1="126" x2="168" y1="604.8984" y2="604.8984"/><line style="stroke:#181818;stroke-width:1.0;" x1="168" x2="168" y1="604.8984" y2="617.8984"/><line style="stroke:#181818;stroke-width:1.0;" x1="127" x2="168" y1="617.8984" y2="617.8984"/><polygon fill="#181818" points="137,613.8984,127,617.8984,137,621.8984,133,617.8984" style="stroke:#181818;stroke-width:1.0;"/><text fill="#000000" font-family="sans-serif" font-size="13" lengthAdjust="spacing" textLength="174" x="133" y="599.6357">Use case ends with exception</text><line style="stroke:#000000;stroke-width:1.0;stroke-dasharray:2.0,2.0;" x1="77.5" x2="692.5" y1="626.8984" y2="626.8984"/><polygon fill="#181818" points="631,647.1895,641,651.1895,631,655.1895,635,651.1895" style="stroke:#181818;stroke-width:1.0;"/><line style="stroke:#181818;stroke-width:1.0;" x1="373" x2="637" y1="651.1895" y2="651.1895"/><text fill="#000000" font-family="sans-serif" font-size="13" lengthAdjust="spacing" textLength="163" x="380" y="645.9268">REQUEST for sensor status</text><path d="M87.5,666.1895 L148.5,666.1895 L148.5,675.4805 L138.5,685.4805 L87.5,685.4805 L87.5,666.1895 " fill="#EEEEEE" style="stroke:#000000;stroke-width:1.5;"/><rect fill="none" height="128.1641" style="stroke:#000000;stroke-width:1.5;" width="595" x="87.5" y="666.1895"/><text fill="#000000" font-family="sans-serif" font-size="13" font-weight="bold" lengthAdjust="spacing" textLength="16" x="102.5" y="681.2178">alt</text><text fill="#000000" font-family="sans-serif" font-size="11" font-weight="bold" lengthAdjust="spacing" textLength="252" x="163.5" y="680.0596">[Sensor still does not respond after 2 retries]</text><line style="stroke:#181818;stroke-width:1.0;" x1="126" x2="168" y1="708.7715" y2="708.7715"/><line style="stroke:#181818;stroke-width:1.0;" x1="168" x2="168" y1="708.7715" y2="721.7715"/><line style="stroke:#181818;stroke-width:1.0;" x1="127" x2="168" y1="721.7715" y2="721.7715"/><polygon fill="#181818" points="137,717.7715,127,721.7715,137,725.7715,133,721.7715" style="stroke:#181818;stroke-width:1.0;"/><text fill="#000000" font-family="sans-serif" font-size="13" lengthAdjust="spacing" textLength="174" x="133" y="703.5088">Use case ends with exception</text><line style="stroke:#000000;stroke-width:1.0;stroke-dasharray:2.0,2.0;" x1="87.5" x2="682.5" y1="730.7715" y2="730.7715"/><polygon fill="#181818" points="384,751.0625,374,755.0625,384,759.0625,380,755.0625" style="stroke:#181818;stroke-width:1.0;"/><line style="stroke:#181818;stroke-width:1.0;" x1="378" x2="642" y1="755.0625" y2="755.0625"/><text fill="#000000" font-family="sans-serif" font-size="13" lengthAdjust="spacing" textLength="246" x="390" y="749.7998">RESPONSE with sensor status and power</text><polygon fill="#181818" points="137,782.3535,127,786.3535,137,790.3535,133,786.3535" style="stroke:#181818;stroke-width:1.0;"/><line style="stroke:#181818;stroke-width:1.0;" x1="131" x2="372" y1="786.3535" y2="786.3535"/><text fill="#000000" font-family="sans-serif" font-size="13" lengthAdjust="spacing" textLength="183" x="143" y="781.0908">RESPONSE with sensor status</text><line style="stroke:#000000;stroke-width:1.0;stroke-dasharray:2.0,2.0;" x1="67.5" x2="702.5" y1="809.3535" y2="809.3535"/><line style="stroke:#181818;stroke-width:1.0;" x1="84" x2="126" y1="833.6445" y2="833.6445"/><line style="stroke:#181818;stroke-width:1.0;" x1="84" x2="84" y1="833.6445" y2="846.6445"/><line style="stroke:#181818;stroke-width:1.0;" x1="84" x2="125" y1="846.6445" y2="846.6445"/><polygon fill="#181818" points="117,842.6445,127,846.6445,117,850.6445,121,846.6445" style="stroke:#181818;stroke-width:1.0;"/><text fill="#000000" font-family="sans-serif" font-size="13" lengthAdjust="spacing" textLength="112" x="14" y="828.3818">Receive information</text><!--SRC=[hPD1Su8m48Nl-HKxthdqsEdqqi6ZMgctNY8iqumXeTbLwhzlGW2rQATLFJ02sRVVstsmOesmnCyj4aE6Xgo3Z2LlIT16cLewMO7CsRgCz_weR91iXQ9zv0lS3ftmfrZbgfQ68QtMM1HOP7jYh4vUHNaXZ6K4ZIM3BN-SVuI5m-J5caAnieRUJG8Bsw03QyB_6N9ZtGRaJYejrng5Y0oGF8-abkdhAitUeFIa5ArHj2Qa7jmM5Way4ZYasZSMu7-dKa4ydlvDDDGTwH8hhKVg84lsj0_-dft2M7MfOp0MEcQB-InBeL7ySTeJ9lFfTD9ge2OSn3g4ipEvB2OzNXs6VHjKnF63793kWNCTIi3ebjscv6WTEQeT3iKTv_-Zr6-zhm2AW7zU_A5fRsX52Bdq5qzFqHL-vLY7BsAywskZUbjShoGVqTyphRSbja_jcVIsDf-IWrGN7cNyQ2lPklCbtm00]--></g></svg>