<?xml version="1.0" encoding="us-ascii" standalone="no"?><svg xmlns="http://www.w3.org/2000/svg" xmlns:xlink="http://www.w3.org/1999/xlink" contentStyleType="text/css" height="577px" preserveAspectRatio="none" style="width:756px;height:577px;background:#FFFFFF;" version="1.1" viewBox="0 0 756 577" width="756px" zoomAndPan="magnify"><defs/><g><text fill="#000000" font-family="sans-serif" font-size="14" font-weight="bold" lengthAdjust="spacing" textLength="224" x="268.25" y="30.1074">Server Requests Real-time Data</text><rect fill="#7FFFAA" height="75.582" style="stroke:#181818;stroke-width:1.0;" width="10" x="541.5" y="214.1152"/><rect fill="none" height="169.377" style="stroke:#000000;stroke-width:1.5;" width="455.5" x="9" y="304.6973"/><line style="stroke:#181818;stroke-width:0.5;stroke-dasharray:5.0,5.0;" x1="338" x2="338" y1="126.2422" y2="491.0742"/><line style="stroke:#181818;stroke-width:0.5;stroke-dasharray:5.0,5.0;" x1="546.5" x2="546.5" y1="126.2422" y2="491.0742"/><text fill="#000000" font-family="sans-serif" font-size="14" lengthAdjust="spacing" textLength="42" x="314.5" y="122.7285">Server</text><ellipse cx="338.5" cy="62.1211" fill="#E2E2F0" rx="16" ry="16" style="stroke:#181818;stroke-width:1.5;"/><path d="M338.5,82.1211 C342.5,82.1211 345.5,82.1211 349.5,78.1211 C357.5,78.1211 365.5,86.1211 365.5,94.1211 L365.5,98.1211 C365.5,102.1211 361.5,106.1211 357.5,106.1211 L319.5,106.1211 C315.5,106.1211 311.5,102.1211 311.5,98.1211 L311.5,94.1211 C311.5,86.1211 319.5,78.1211 327.5,78.1211 C331.5,82.1211 334.5,82.1211 338.5,82.1211 " fill="#E2E2F0" style="stroke:#181818;stroke-width:1.5;"/><text fill="#000000" font-family="sans-serif" font-size="14" lengthAdjust="spacing" textLength="42" x="314.5" y="505.1816">Server</text><ellipse cx="338.5" cy="526.1953" fill="#E2E2F0" rx="16" ry="16" style="stroke:#181818;stroke-width:1.5;"/><path d="M338.5,546.1953 C342.5,546.1953 345.5,546.1953 349.5,542.1953 C357.5,542.1953 365.5,550.1953 365.5,558.1953 L365.5,562.1953 C365.5,566.1953 361.5,570.1953 357.5,570.1953 L319.5,570.1953 C315.5,570.1953 311.5,566.1953 311.5,562.1953 L311.5,558.1953 C311.5,550.1953 319.5,542.1953 327.5,542.1953 C331.5,546.1953 334.5,546.1953 338.5,546.1953 " fill="#E2E2F0" style="stroke:#181818;stroke-width:1.5;"/><rect fill="#E2E2F0" height="32.6211" rx="2.5" ry="2.5" style="stroke:#181818;stroke-width:0.5;" width="60" x="516.5" y="92.6211"/><text fill="#000000" font-family="sans-serif" font-size="14" lengthAdjust="spacing" textLength="46" x="523.5" y="114.7285">System</text><rect fill="#E2E2F0" height="32.6211" rx="2.5" ry="2.5" style="stroke:#181818;stroke-width:0.5;" width="60" x="516.5" y="490.0742"/><text fill="#000000" font-family="sans-serif" font-size="14" lengthAdjust="spacing" textLength="46" x="523.5" y="512.1816">System</text><rect fill="#7FFFAA" height="75.582" style="stroke:#181818;stroke-width:1.0;" width="10" x="541.5" y="214.1152"/><path d="M311,141.2422 L311,185.2422 L572,185.2422 L572,151.2422 L562,141.2422 L311,141.2422 " fill="#FEFFDD" style="stroke:#181818;stroke-width:0.5;"/><path d="M562,141.2422 L562,151.2422 L572,151.2422 L562,141.2422 " fill="#FEFFDD" style="stroke:#181818;stroke-width:0.5;"/><text fill="#000000" font-family="sans-serif" font-size="13" font-weight="bold" lengthAdjust="spacing" textLength="39" x="332.25" y="160.2705">Green</text><text fill="#000000" font-family="sans-serif" font-size="13" lengthAdjust="spacing" textLength="98" x="371.25" y="160.2705">: The life cycle of</text><text fill="#000000" font-family="sans-serif" font-size="13" font-weight="bold" lengthAdjust="spacing" textLength="69" x="473.25" y="160.2705">Basic Flow</text><text fill="#000000" font-family="sans-serif" font-size="13" lengthAdjust="spacing" textLength="21" x="332.25" y="177.5615">and</text><text fill="#000000" font-family="sans-serif" font-size="13" font-weight="bold" lengthAdjust="spacing" textLength="117" x="357.25" y="177.5615">Exception Flow 4a</text><polygon fill="#181818" points="529.5,210.1152,539.5,214.1152,529.5,218.1152,533.5,214.1152" style="stroke:#181818;stroke-width:1.0;"/><line style="stroke:#181818;stroke-width:1.0;" x1="338.5" x2="535.5" y1="214.1152" y2="214.1152"/><text fill="#000000" font-family="sans-serif" font-size="13" font-weight="bold" lengthAdjust="spacing" textLength="7" x="345.5" y="208.8525">1</text><text fill="#000000" font-family="sans-serif" font-size="13" lengthAdjust="spacing" textLength="131" x="356.5" y="208.8525">Request real-time data</text><line style="stroke:#181818;stroke-width:1.0;" x1="551.5" x2="593.5" y1="245.4063" y2="245.4063"/><line style="stroke:#181818;stroke-width:1.0;" x1="593.5" x2="593.5" y1="245.4063" y2="258.4063"/><line style="stroke:#181818;stroke-width:1.0;" x1="552.5" x2="593.5" y1="258.4063" y2="258.4063"/><polygon fill="#181818" points="562.5,254.4063,552.5,258.4063,562.5,262.4063,558.5,258.4063" style="stroke:#181818;stroke-width:1.0;"/><text fill="#000000" font-family="sans-serif" font-size="13" font-weight="bold" lengthAdjust="spacing" textLength="7" x="558.5" y="240.1436">2</text><text fill="#000000" font-family="sans-serif" font-size="13" lengthAdjust="spacing" textLength="180" x="569.5" y="240.1436">Get real-time data from sersors</text><line style="stroke:#181818;stroke-width:1.0;" x1="339.5" x2="349.5" y1="289.6973" y2="285.6973"/><line style="stroke:#181818;stroke-width:1.0;" x1="339.5" x2="349.5" y1="289.6973" y2="293.6973"/><line style="stroke:#181818;stroke-width:1.0;stroke-dasharray:2.0,2.0;" x1="338.5" x2="545.5" y1="289.6973" y2="289.6973"/><text fill="#000000" font-family="sans-serif" font-size="13" font-weight="bold" lengthAdjust="spacing" textLength="7" x="355.5" y="284.4346">3</text><text fill="#000000" font-family="sans-serif" font-size="13" lengthAdjust="spacing" textLength="168" x="366.5" y="284.4346">Response with real-time data</text><path d="M9,304.6973 L70,304.6973 L70,313.9883 L60,323.9883 L9,323.9883 L9,304.6973 " fill="#EEEEEE" style="stroke:#000000;stroke-width:1.5;"/><rect fill="none" height="169.377" style="stroke:#000000;stroke-width:1.5;" width="455.5" x="9" y="304.6973"/><text fill="#000000" font-family="sans-serif" font-size="13" font-weight="bold" lengthAdjust="spacing" textLength="16" x="24" y="319.7256">alt</text><text fill="#000000" font-family="sans-serif" font-size="11" font-weight="bold" lengthAdjust="spacing" textLength="66" x="85" y="318.5674">[Basic Flow]</text><line style="stroke:#181818;stroke-width:1.0;" x1="338.5" x2="380.5" y1="347.2793" y2="347.2793"/><line style="stroke:#181818;stroke-width:1.0;" x1="380.5" x2="380.5" y1="347.2793" y2="360.2793"/><line style="stroke:#181818;stroke-width:1.0;" x1="339.5" x2="380.5" y1="360.2793" y2="360.2793"/><polygon fill="#181818" points="349.5,356.2793,339.5,360.2793,349.5,364.2793,345.5,360.2793" style="stroke:#181818;stroke-width:1.0;"/><text fill="#000000" font-family="sans-serif" font-size="13" font-weight="bold" lengthAdjust="spacing" textLength="7" x="345.5" y="342.0166">4</text><text fill="#000000" font-family="sans-serif" font-size="13" lengthAdjust="spacing" textLength="96" x="356.5" y="342.0166">Receive the data</text><line style="stroke:#000000;stroke-width:1.0;stroke-dasharray:2.0,2.0;" x1="9" x2="464.5" y1="369.2793" y2="369.2793"/><text fill="#000000" font-family="sans-serif" font-size="11" font-weight="bold" lengthAdjust="spacing" textLength="221" x="14" y="381.1494">[4a: The server fails to receive the data.]</text><path d="M19,389.9102 L19,468.9102 L333,468.9102 L333,399.9102 L323,389.9102 L19,389.9102 " fill="#FEFFDD" style="stroke:#181818;stroke-width:0.5;"/><path d="M323,389.9102 L323,399.9102 L333,399.9102 L323,389.9102 " fill="#FEFFDD" style="stroke:#181818;stroke-width:0.5;"/><text fill="#000000" font-family="sans-serif" font-size="13" font-weight="bold" lengthAdjust="spacing" textLength="26" x="25" y="408.9385">4a.1</text><text fill="#000000" font-family="sans-serif" font-size="13" lengthAdjust="spacing" textLength="56" x="59" y="408.9385">the server</text><text fill="#000000" font-family="sans-serif" font-size="13" font-weight="bold" lengthAdjust="spacing" textLength="64" x="119" y="408.9385">WILL NOT</text><text fill="#000000" font-family="sans-serif" font-size="13" lengthAdjust="spacing" textLength="127" x="187" y="408.9385">retry to request again;</text><text fill="#000000" font-family="sans-serif" font-size="13" lengthAdjust="spacing" textLength="293" x="25" y="426.2295">the data it should have received will be regarded as</text><text fill="#000000" font-family="sans-serif" font-size="13" lengthAdjust="spacing" textLength="244" x="25" y="443.5205">the latest cached data or an INVALID data</text><text fill="#000000" font-family="sans-serif" font-size="13" lengthAdjust="spacing" textLength="170" x="25" y="460.8115">(if there are no value cached).</text><!--SRC=[TPBRYjim48RlzHG3lKXhweIsWK9Q0bcsMG9X2ytINi_AurXKbbn9IPgtx-YGR9FTDHXipVz_Sz2CkX06FvjC1eqcx7ezbhQVUFgp8oEfRXHk7VOYgA09DkJsvE17ZFhW-GDr7LHFS8i1XV-jp80i1vJ1kaquiWSFv6rF8XqLWc1LK58Dd18sHn-e5yO60XlnMVF-501-gkhE4Pcgci53Hw1LIo2Fal6svU0DUYLXgUsXgf8UJSF7t_vA6eAo9eLWYXmbZiHKGeZIJJqlcMPi-L1Lf_R0dRjhOdVSWDeZ5vdLyERpShbSB4JvlS1yPCmTNIEWTRO7JyvRvsC1nLdFvwNfwFsKIl23DPxWe49tNKX3LwK8r06UPf0cy5zpP_8qaIMfFK7e2asGvZnJp9FrsTQYqXw2vTINyd62fxlIr8Ou_dAbK1vEW-CunkGflAhwjLgluVxx0mSS1NVCy3netA8oNyw4KovG0NndTxg13hc6Kal3Gz4Q7kF15bt31-Wlp9f7mrY9ikDWGl7geO7L_S_5UdMR6pyvtgeskXolAh_6mXxrZehxNMxuQMluYszkjD1AKfpkZNsSmMB70CCRZMdRoWA94GVZxK9Ilo3Bbon6ptYSYoi2V8MRrL_hEilnDNdc_mC0]--></g></svg>