<?xml version="1.0" encoding="us-ascii" standalone="no"?><svg xmlns="http://www.w3.org/2000/svg" xmlns:xlink="http://www.w3.org/1999/xlink" contentStyleType="text/css" height="606px" preserveAspectRatio="none" style="width:417px;height:606px;background:#FFFFFF;" version="1.1" viewBox="0 0 417 606" width="417px" zoomAndPan="magnify"><defs/><g><text fill="#000000" font-family="sans-serif" font-size="14" font-weight="bold" lengthAdjust="spacing" textLength="193" x="113.25" y="30.1074">Request Sensor Calibration</text><rect fill="none" height="257.3281" style="stroke:#000000;stroke-width:1.5;" width="400.5" x="10" y="246.4063"/><rect fill="none" height="128.1641" style="stroke:#000000;stroke-width:1.5;" width="380.5" x="20" y="368.5703"/><line style="stroke:#181818;stroke-width:0.5;stroke-dasharray:5.0,5.0;" x1="58" x2="58" y1="126.2422" y2="520.7344"/><line style="stroke:#181818;stroke-width:0.5;stroke-dasharray:5.0,5.0;" x1="326.5" x2="326.5" y1="126.2422" y2="520.7344"/><text fill="#000000" font-family="sans-serif" font-size="14" lengthAdjust="spacing" textLength="42" x="34.5" y="122.7285">Server</text><ellipse cx="58.5" cy="62.1211" fill="#E2E2F0" rx="16" ry="16" style="stroke:#181818;stroke-width:1.5;"/><path d="M58.5,82.1211 C62.5,82.1211 65.5,82.1211 69.5,78.1211 C77.5,78.1211 85.5,86.1211 85.5,94.1211 L85.5,98.1211 C85.5,102.1211 81.5,106.1211 77.5,106.1211 L39.5,106.1211 C35.5,106.1211 31.5,102.1211 31.5,98.1211 L31.5,94.1211 C31.5,86.1211 39.5,78.1211 47.5,78.1211 C51.5,82.1211 54.5,82.1211 58.5,82.1211 " fill="#E2E2F0" style="stroke:#181818;stroke-width:1.5;"/><text fill="#000000" font-family="sans-serif" font-size="14" lengthAdjust="spacing" textLength="42" x="34.5" y="534.8418">Server</text><ellipse cx="58.5" cy="555.8555" fill="#E2E2F0" rx="16" ry="16" style="stroke:#181818;stroke-width:1.5;"/><path d="M58.5,575.8555 C62.5,575.8555 65.5,575.8555 69.5,571.8555 C77.5,571.8555 85.5,579.8555 85.5,587.8555 L85.5,591.8555 C85.5,595.8555 81.5,599.8555 77.5,599.8555 L39.5,599.8555 C35.5,599.8555 31.5,595.8555 31.5,591.8555 L31.5,587.8555 C31.5,579.8555 39.5,571.8555 47.5,571.8555 C51.5,575.8555 54.5,575.8555 58.5,575.8555 " fill="#E2E2F0" style="stroke:#181818;stroke-width:1.5;"/><rect fill="#E2E2F0" height="32.6211" rx="2.5" ry="2.5" style="stroke:#181818;stroke-width:0.5;" width="128" x="262.5" y="92.6211"/><text fill="#000000" font-family="sans-serif" font-size="14" lengthAdjust="spacing" textLength="114" x="269.5" y="114.7285">EmbeddedSystem</text><rect fill="#E2E2F0" height="32.6211" rx="2.5" ry="2.5" style="stroke:#181818;stroke-width:0.5;" width="128" x="262.5" y="519.7344"/><text fill="#000000" font-family="sans-serif" font-size="14" lengthAdjust="spacing" textLength="114" x="269.5" y="541.8418">EmbeddedSystem</text><path d="M192,141.2422 L192,202.2422 L321,202.2422 L321,151.2422 L311,141.2422 L192,141.2422 " fill="#FEFFDD" style="stroke:#181818;stroke-width:0.5;"/><path d="M311,141.2422 L311,151.2422 L321,151.2422 L311,141.2422 " fill="#FEFFDD" style="stroke:#181818;stroke-width:0.5;"/><text fill="#000000" font-family="sans-serif" font-size="13" lengthAdjust="spacing" textLength="85" x="198" y="160.2705">Pre-Conditions</text><text fill="#000000" font-family="sans-serif" font-size="13" lengthAdjust="spacing" textLength="62" x="198" y="177.5615">- Power on</text><text fill="#000000" font-family="sans-serif" font-size="13" lengthAdjust="spacing" textLength="108" x="198" y="194.8525">- Network available</text><polygon fill="#181818" points="314.5,227.4063,324.5,231.4063,314.5,235.4063,318.5,231.4063" style="stroke:#181818;stroke-width:1.0;"/><line style="stroke:#181818;stroke-width:1.0;" x1="58.5" x2="320.5" y1="231.4063" y2="231.4063"/><text fill="#000000" font-family="sans-serif" font-size="13" lengthAdjust="spacing" textLength="186" x="65.5" y="226.1436">REQUEST for sensor calibration</text><path d="M10,246.4063 L71,246.4063 L71,255.6973 L61,265.6973 L10,265.6973 L10,246.4063 " fill="#EEEEEE" style="stroke:#000000;stroke-width:1.5;"/><rect fill="none" height="257.3281" style="stroke:#000000;stroke-width:1.5;" width="400.5" x="10" y="246.4063"/><text fill="#000000" font-family="sans-serif" font-size="13" font-weight="bold" lengthAdjust="spacing" textLength="16" x="25" y="261.4346">alt</text><text fill="#000000" font-family="sans-serif" font-size="11" font-weight="bold" lengthAdjust="spacing" textLength="266" x="86" y="260.2764">[Sensors calibrated in the recently ten seconds]</text><polygon fill="#181818" points="69.5,284.9883,59.5,288.9883,69.5,292.9883,65.5,288.9883" style="stroke:#181818;stroke-width:1.0;"/><line style="stroke:#181818;stroke-width:1.0;" x1="63.5" x2="325.5" y1="288.9883" y2="288.9883"/><text fill="#000000" font-family="sans-serif" font-size="13" lengthAdjust="spacing" textLength="160" x="75.5" y="283.7256">RESPONSE error message</text><polygon fill="#181818" points="69.5,316.2793,59.5,320.2793,69.5,324.2793,65.5,320.2793" style="stroke:#181818;stroke-width:1.0;"/><line style="stroke:#181818;stroke-width:1.0;" x1="63.5" x2="325.5" y1="320.2793" y2="320.2793"/><text fill="#000000" font-family="sans-serif" font-size="13" lengthAdjust="spacing" textLength="87" x="75.5" y="315.0166">Use case ends</text><line style="stroke:#000000;stroke-width:1.0;stroke-dasharray:2.0,2.0;" x1="10" x2="410.5" y1="329.2793" y2="329.2793"/><polygon fill="#181818" points="69.5,349.5703,59.5,353.5703,69.5,357.5703,65.5,353.5703" style="stroke:#181818;stroke-width:1.0;"/><line style="stroke:#181818;stroke-width:1.0;" x1="63.5" x2="325.5" y1="353.5703" y2="353.5703"/><text fill="#000000" font-family="sans-serif" font-size="13" lengthAdjust="spacing" textLength="208" x="75.5" y="348.3076">RESPONSE and perform calibration</text><path d="M20,368.5703 L81,368.5703 L81,377.8613 L71,387.8613 L20,387.8613 L20,368.5703 " fill="#EEEEEE" style="stroke:#000000;stroke-width:1.5;"/><rect fill="none" height="128.1641" style="stroke:#000000;stroke-width:1.5;" width="380.5" x="20" y="368.5703"/><text fill="#000000" font-family="sans-serif" font-size="13" font-weight="bold" lengthAdjust="spacing" textLength="16" x="35" y="383.5986">alt</text><text fill="#000000" font-family="sans-serif" font-size="11" font-weight="bold" lengthAdjust="spacing" textLength="268" x="96" y="382.4404">[Network error occurs when sending RESPONSE]</text><line style="stroke:#181818;stroke-width:1.0;" x1="58.5" x2="100.5" y1="411.1523" y2="411.1523"/><line style="stroke:#181818;stroke-width:1.0;" x1="100.5" x2="100.5" y1="411.1523" y2="424.1523"/><line style="stroke:#181818;stroke-width:1.0;" x1="59.5" x2="100.5" y1="424.1523" y2="424.1523"/><polygon fill="#181818" points="69.5,420.1523,59.5,424.1523,69.5,428.1523,65.5,424.1523" style="stroke:#181818;stroke-width:1.0;"/><text fill="#000000" font-family="sans-serif" font-size="13" lengthAdjust="spacing" textLength="254" x="65.5" y="405.8896">Check reachability of the embedded system</text><polygon fill="#181818" points="314.5,451.4434,324.5,455.4434,314.5,459.4434,318.5,455.4434" style="stroke:#181818;stroke-width:1.0;"/><line style="stroke:#181818;stroke-width:1.0;" x1="58.5" x2="320.5" y1="455.4434" y2="455.4434"/><text fill="#000000" font-family="sans-serif" font-size="13" lengthAdjust="spacing" textLength="186" x="65.5" y="450.1807">REQUEST for sensor calibration</text><line style="stroke:#000000;stroke-width:1.0;stroke-dasharray:2.0,2.0;" x1="20" x2="400.5" y1="464.4434" y2="464.4434"/><polygon fill="#181818" points="69.5,484.7344,59.5,488.7344,69.5,492.7344,65.5,488.7344" style="stroke:#181818;stroke-width:1.0;"/><line style="stroke:#181818;stroke-width:1.0;" x1="63.5" x2="325.5" y1="488.7344" y2="488.7344"/><text fill="#000000" font-family="sans-serif" font-size="13" lengthAdjust="spacing" textLength="202" x="75.5" y="483.4717">RESPONSE successful calibration</text><!--SRC=[bLEnSjim3Dtv5TWygPUxNfTUhujFQ-f4pPO5fc0BPufqITYk_ZwWQTbHeY7Mm2D5uBs71r1O7C4p_JjG4cZ8fn1XYOxN4OM3Dsd7VeyHUq0h8JOoQ3oUA8MUpFcNPiKZHQDHmfRtw0NgVarjIsqp9A7U61-4mD5686m-NFw4LQHg6NpBcJ2z-WfMuKGHWi_xHv9JY3l08xB3jIDZ2Y5Klpz1FTTFBtNp5pOgAvLYxBjYp0ATN14fHhqFrXvYWbD7FgUqxBSZZ5c0VZUsibCMaZZ0Tn3kIJDPEdZuzgDAPBKAO2yQXwvaPy8IxxXd0VflYLHnkPt7VqcaidLHEQa4ajFZ9JAhJDTISOlivz3kzARGU1MMkSoelOn4kePIBX2a8uXaoOiRGCxEvTgJ6MLCoIVcrStgpsDJN-nN1nDkoNpG_wlwf7_gocZAFOoetTbJL0FwIUaZn5U7ey1Tq-QRkEp8xjGaj1sksR4CUVQpSNHH2gcyZdcSEzit0amy-Q8lwM2jjc5pSFEGEXItuT35B6vTkhq9Itma7OvixndW3G00]--></g></svg>