<?xml version="1.0" encoding="us-ascii" standalone="no"?><svg xmlns="http://www.w3.org/2000/svg" xmlns:xlink="http://www.w3.org/1999/xlink" contentStyleType="text/css" height="1008px" preserveAspectRatio="none" style="width:515px;height:1007px;background:#FFFFFF;" version="1.1" viewBox="0 0 515 1007" width="515.9px" zoomAndPan="magnify"><defs/><g><text fill="#000000" font-family="sans-serif" font-size="9.8" font-weight="bold" lengthAdjust="spacing" textLength="154.7" x="181.3" y="21.0752">Server Requests Sensor Status</text><rect fill="#FFC0CB" height="456.75" style="stroke:#181818;stroke-width:0.6999999999999998;" width="7" x="236.95" y="161.9844"/><rect fill="#FFFFBB" height="392.201" style="stroke:#181818;stroke-width:0.6999999999999998;" width="7" x="236.95" y="161.9844"/><rect fill="#7FFFAA" height="114.4186" style="stroke:#181818;stroke-width:0.6999999999999998;" width="7" x="236.95" y="161.9844"/><rect fill="#FFC0CB" height="48.7074" style="stroke:#FFC0CB;stroke-width:0.6999999999999998;" width="7" x="229.95" y="688.8834"/><line style="stroke:#181818;stroke-width:0.6999999999999998;" x1="229.95" x2="229.95" y1="688.8834" y2="737.5908"/><line style="stroke:#181818;stroke-width:0.6999999999999998;" x1="236.95" x2="236.95" y1="688.8834" y2="737.5908"/><line style="stroke:#181818;stroke-width:0.6999999999999998;" x1="229.95" x2="236.95" y1="688.8834" y2="688.8834"/><rect fill="#FFC0CB" height="34.7074" style="stroke:#FFC0CB;stroke-width:0.6999999999999998;" width="7" x="229.95" y="767.4324"/><line style="stroke:#181818;stroke-width:0.6999999999999998;" x1="229.95" x2="229.95" y1="767.4324" y2="802.1398"/><line style="stroke:#181818;stroke-width:0.6999999999999998;" x1="236.95" x2="236.95" y1="767.4324" y2="802.1398"/><line style="stroke:#181818;stroke-width:0.6999999999999998;" x1="229.95" x2="236.95" y1="802.1398" y2="802.1398"/><rect fill="none" height="763.674" style="stroke:#000000;stroke-width:1.0499999999999998;" width="504" x="7" y="172.4844"/><rect fill="none" height="110.9186" style="stroke:#000000;stroke-width:1.0499999999999998;" width="275.8" x="198.45" y="372.6557"/><rect fill="none" height="44.5074" style="stroke:#000000;stroke-width:1.0499999999999998;" width="261.8" x="205.45" y="434.1668"/><rect fill="none" height="39.6074" style="stroke:#000000;stroke-width:1.0499999999999998;" width="267.4" x="236.6" y="493.3742"/><rect fill="none" height="240.5129" style="stroke:#000000;stroke-width:1.0499999999999998;" width="361.55" x="14" y="629.2344"/><rect fill="none" height="92.5148" style="stroke:#000000;stroke-width:1.0499999999999998;" width="267.4" x="21" y="772.3324"/><rect fill="none" height="51.7111" style="stroke:#000000;stroke-width:1.0499999999999998;" width="290.5" x="21.7" y="879.5473"/><line style="stroke:#181818;stroke-width:0.3499999999999999;stroke-dasharray:5.0,5.0;" x1="47.6" x2="47.6" y1="88.3695" y2="642.7381"/><line style="stroke:#A80036;stroke-width:0.6999999999999998;stroke-dasharray:1.0,4.0;" x1="47.6" x2="47.6" y1="642.7381" y2="672.5797"/><line style="stroke:#181818;stroke-width:0.3499999999999999;stroke-dasharray:5.0,5.0;" x1="47.6" x2="47.6" y1="672.5797" y2="737.5908"/><line style="stroke:#A80036;stroke-width:0.6999999999999998;stroke-dasharray:1.0,4.0;" x1="47.6" x2="47.6" y1="737.5908" y2="767.4324"/><line style="stroke:#181818;stroke-width:0.3499999999999999;stroke-dasharray:5.0,5.0;" x1="47.6" x2="47.6" y1="767.4324" y2="948.0584"/><line style="stroke:#181818;stroke-width:0.3499999999999999;stroke-dasharray:5.0,5.0;" x1="233.45" x2="233.45" y1="88.3695" y2="642.7381"/><line style="stroke:#A80036;stroke-width:0.6999999999999998;stroke-dasharray:1.0,4.0;" x1="233.45" x2="233.45" y1="642.7381" y2="672.5797"/><line style="stroke:#181818;stroke-width:0.3499999999999999;stroke-dasharray:5.0,5.0;" x1="233.45" x2="233.45" y1="672.5797" y2="737.5908"/><line style="stroke:#A80036;stroke-width:0.6999999999999998;stroke-dasharray:1.0,4.0;" x1="233.45" x2="233.45" y1="737.5908" y2="767.4324"/><line style="stroke:#181818;stroke-width:0.3499999999999999;stroke-dasharray:5.0,5.0;" x1="233.45" x2="233.45" y1="767.4324" y2="948.0584"/><text fill="#000000" font-family="sans-serif" font-size="9.8" lengthAdjust="spacing" textLength="29.4" x="31.15" y="85.91">Server</text><ellipse cx="47.95" cy="43.4848" fill="#E2E2F0" rx="11.2" ry="11.2" style="stroke:#181818;stroke-width:1.0499999999999998;"/><path d="M47.95,57.4848 C50.75,57.4848 52.85,57.4848 55.65,54.6848 C61.25,54.6848 66.85,60.2848 66.85,65.8848 L66.85,68.6848 C66.85,71.4848 64.05,74.2848 61.25,74.2848 L34.65,74.2848 C31.85,74.2848 29.05,71.4848 29.05,68.6848 L29.05,65.8848 C29.05,60.2848 34.65,54.6848 40.25,54.6848 C43.05,57.4848 45.15,57.4848 47.95,57.4848 " fill="#E2E2F0" style="stroke:#181818;stroke-width:1.0499999999999998;"/><text fill="#000000" font-family="sans-serif" font-size="9.8" lengthAdjust="spacing" textLength="29.4" x="31.15" y="957.9336">Server</text><ellipse cx="47.95" cy="972.6432" fill="#E2E2F0" rx="11.2" ry="11.2" style="stroke:#181818;stroke-width:1.0499999999999998;"/><path d="M47.95,986.6432 C50.75,986.6432 52.85,986.6432 55.65,983.8432 C61.25,983.8432 66.85,989.4432 66.85,995.0432 L66.85,997.8432 C66.85,1000.6432 64.05,1003.4432 61.25,1003.4432 L34.65,1003.4432 C31.85,1003.4432 29.05,1000.6432 29.05,997.8432 L29.05,995.0432 C29.05,989.4432 34.65,983.8432 40.25,983.8432 C43.05,986.6432 45.15,986.6432 47.95,986.6432 " fill="#E2E2F0" style="stroke:#181818;stroke-width:1.0499999999999998;"/><rect fill="#E2E2F0" height="22.8348" rx="1.75" ry="1.75" style="stroke:#181818;stroke-width:0.3499999999999999;" width="42" x="212.45" y="64.8348"/><text fill="#000000" font-family="sans-serif" font-size="9.8" lengthAdjust="spacing" textLength="32.2" x="217.35" y="80.31">System</text><rect fill="#E2E2F0" height="22.8348" rx="1.75" ry="1.75" style="stroke:#181818;stroke-width:0.3499999999999999;" width="42" x="212.45" y="947.3584"/><text fill="#000000" font-family="sans-serif" font-size="9.8" lengthAdjust="spacing" textLength="32.2" x="217.35" y="962.8336">System</text><rect fill="#FFC0CB" height="456.75" style="stroke:#181818;stroke-width:0.6999999999999998;" width="7" x="236.95" y="161.9844"/><rect fill="#FFFFBB" height="392.201" style="stroke:#181818;stroke-width:0.6999999999999998;" width="7" x="236.95" y="161.9844"/><rect fill="#7FFFAA" height="114.4186" style="stroke:#181818;stroke-width:0.6999999999999998;" width="7" x="236.95" y="161.9844"/><rect fill="#FFC0CB" height="48.7074" style="stroke:#FFC0CB;stroke-width:0.6999999999999998;" width="7" x="229.95" y="688.8834"/><line style="stroke:#181818;stroke-width:0.6999999999999998;" x1="229.95" x2="229.95" y1="688.8834" y2="737.5908"/><line style="stroke:#181818;stroke-width:0.6999999999999998;" x1="236.95" x2="236.95" y1="688.8834" y2="737.5908"/><line style="stroke:#181818;stroke-width:0.6999999999999998;" x1="229.95" x2="236.95" y1="688.8834" y2="688.8834"/><rect fill="#FFC0CB" height="34.7074" style="stroke:#FFC0CB;stroke-width:0.6999999999999998;" width="7" x="229.95" y="767.4324"/><line style="stroke:#181818;stroke-width:0.6999999999999998;" x1="229.95" x2="229.95" y1="767.4324" y2="802.1398"/><line style="stroke:#181818;stroke-width:0.6999999999999998;" x1="236.95" x2="236.95" y1="767.4324" y2="802.1398"/><line style="stroke:#181818;stroke-width:0.6999999999999998;" x1="229.95" x2="236.95" y1="802.1398" y2="802.1398"/><path d="M28.7,98.8695 L28.7,141.5695 L251.3,141.5695 L251.3,105.8695 L244.3,98.8695 L28.7,98.8695 " fill="#FEFFDD" style="stroke:#181818;stroke-width:0.3499999999999999;"/><path d="M244.3,98.8695 L244.3,105.8695 L251.3,105.8695 L244.3,98.8695 " fill="#FEFFDD" style="stroke:#181818;stroke-width:0.3499999999999999;"/><text fill="#000000" font-family="sans-serif" font-size="9.1" font-weight="bold" lengthAdjust="spacing" textLength="27.3" x="52.675" y="112.1894">Green</text><text fill="#000000" font-family="sans-serif" font-size="9.1" lengthAdjust="spacing" textLength="68.6" x="79.975" y="112.1894">: The life cycle of</text><text fill="#000000" font-family="sans-serif" font-size="9.1" font-weight="bold" lengthAdjust="spacing" textLength="48.3" x="151.375" y="112.1894">Basic Flow</text><text fill="#000000" font-family="sans-serif" font-size="9.1" font-weight="bold" lengthAdjust="spacing" textLength="30.1" x="52.675" y="124.2931">Yellow</text><text fill="#000000" font-family="sans-serif" font-size="9.1" lengthAdjust="spacing" textLength="53.9" x="82.775" y="124.2931">: Life cycle of</text><text fill="#000000" font-family="sans-serif" font-size="9.1" font-weight="bold" lengthAdjust="spacing" textLength="81.9" x="139.475" y="124.2931">Exception Flow 2a</text><text fill="#000000" font-family="sans-serif" font-size="9.1" font-weight="bold" lengthAdjust="spacing" textLength="19.6" x="52.675" y="136.3968">Pink</text><text fill="#000000" font-family="sans-serif" font-size="9.1" lengthAdjust="spacing" textLength="53.9" x="72.275" y="136.3968">: Life cycle of</text><text fill="#000000" font-family="sans-serif" font-size="9.1" font-weight="bold" lengthAdjust="spacing" textLength="81.9" x="128.975" y="136.3968">Exception Flow 5a</text><polygon fill="#181818" points="228.55,159.1844,235.55,161.9844,228.55,164.7844,231.35,161.9844" style="stroke:#181818;stroke-width:0.6999999999999998;"/><line style="stroke:#181818;stroke-width:0.6999999999999998;" x1="47.95" x2="232.75" y1="161.9844" y2="161.9844"/><text fill="#000000" font-family="sans-serif" font-size="9.1" font-weight="bold" lengthAdjust="spacing" textLength="4.9" x="52.85" y="158.3005">1</text><text fill="#000000" font-family="sans-serif" font-size="9.1" lengthAdjust="spacing" textLength="91.7" x="60.55" y="158.3005">Request sensor status</text><path d="M7,172.4844 L49.7,172.4844 L49.7,178.9881 L42.7,185.9881 L7,185.9881 L7,172.4844 " fill="#EEEEEE" style="stroke:#000000;stroke-width:1.0499999999999998;"/><rect fill="none" height="763.674" style="stroke:#000000;stroke-width:1.0499999999999998;" width="504" x="7" y="172.4844"/><text fill="#000000" font-family="sans-serif" font-size="9.1" font-weight="bold" lengthAdjust="spacing" textLength="11.2" x="17.5" y="183.0042">alt</text><text fill="#000000" font-family="sans-serif" font-size="7.7" font-weight="bold" lengthAdjust="spacing" textLength="46.2" x="60.2" y="182.1935">[Basic Flow]</text><line style="stroke:#181818;stroke-width:0.6999999999999998;" x1="243.95" x2="273.35" y1="214.3955" y2="214.3955"/><line style="stroke:#181818;stroke-width:0.6999999999999998;" x1="273.35" x2="273.35" y1="214.3955" y2="223.4955"/><line style="stroke:#181818;stroke-width:0.6999999999999998;" x1="244.65" x2="273.35" y1="223.4955" y2="223.4955"/><polygon fill="#181818" points="251.65,220.6955,244.65,223.4955,251.65,226.2955,248.85,223.4955" style="stroke:#181818;stroke-width:0.6999999999999998;"/><text fill="#000000" font-family="sans-serif" font-size="9.1" font-weight="bold" lengthAdjust="spacing" textLength="4.9" x="248.85" y="198.6079">2</text><text fill="#000000" font-family="sans-serif" font-size="9.1" lengthAdjust="spacing" textLength="97.3" x="256.55" y="198.6079">Receive the request and</text><text fill="#000000" font-family="sans-serif" font-size="9.1" lengthAdjust="spacing" textLength="125.3" x="248.85" y="210.7116">try to connect with the sensors</text><line style="stroke:#181818;stroke-width:0.6999999999999998;" x1="243.95" x2="273.35" y1="245.3992" y2="245.3992"/><line style="stroke:#181818;stroke-width:0.6999999999999998;" x1="273.35" x2="273.35" y1="245.3992" y2="254.4992"/><line style="stroke:#181818;stroke-width:0.6999999999999998;" x1="244.65" x2="273.35" y1="254.4992" y2="254.4992"/><polygon fill="#181818" points="251.65,251.6992,244.65,254.4992,251.65,257.2992,248.85,254.4992" style="stroke:#181818;stroke-width:0.6999999999999998;"/><text fill="#000000" font-family="sans-serif" font-size="9.1" font-weight="bold" lengthAdjust="spacing" textLength="4.9" x="248.85" y="241.7153">3</text><text fill="#000000" font-family="sans-serif" font-size="9.1" lengthAdjust="spacing" textLength="147" x="256.55" y="241.7153">Get the status and power of sensors</text><line style="stroke:#181818;stroke-width:0.6999999999999998;" x1="48.65" x2="55.65" y1="276.4029" y2="273.6029"/><line style="stroke:#181818;stroke-width:0.6999999999999998;" x1="48.65" x2="55.65" y1="276.4029" y2="279.2029"/><line style="stroke:#181818;stroke-width:0.6999999999999998;stroke-dasharray:2.0,2.0;" x1="47.95" x2="232.75" y1="276.4029" y2="276.4029"/><text fill="#000000" font-family="sans-serif" font-size="9.1" font-weight="bold" lengthAdjust="spacing" textLength="4.9" x="59.85" y="272.719">4</text><text fill="#000000" font-family="sans-serif" font-size="9.1" lengthAdjust="spacing" textLength="117.6" x="67.55" y="272.719">Response with sensor status</text><line style="stroke:#181818;stroke-width:0.6999999999999998;" x1="47.95" x2="77.35" y1="298.3066" y2="298.3066"/><line style="stroke:#181818;stroke-width:0.6999999999999998;" x1="77.35" x2="77.35" y1="298.3066" y2="307.4066"/><line style="stroke:#181818;stroke-width:0.6999999999999998;" x1="48.65" x2="77.35" y1="307.4066" y2="307.4066"/><polygon fill="#181818" points="55.65,304.6066,48.65,307.4066,55.65,310.2066,52.85,307.4066" style="stroke:#181818;stroke-width:0.6999999999999998;"/><text fill="#000000" font-family="sans-serif" font-size="9.1" font-weight="bold" lengthAdjust="spacing" textLength="4.9" x="52.85" y="294.6228">5</text><text fill="#000000" font-family="sans-serif" font-size="9.1" lengthAdjust="spacing" textLength="93.8" x="60.55" y="294.6228">Receive the information</text><line style="stroke:#000000;stroke-width:0.6999999999999998;stroke-dasharray:2.0,2.0;" x1="7" x2="511" y1="313.7066" y2="313.7066"/><text fill="#000000" font-family="sans-serif" font-size="7.7" font-weight="bold" lengthAdjust="spacing" textLength="235.9" x="10.5" y="322.0157">[2a: The system fails to receive the response from sensors.]</text><line style="stroke:#181818;stroke-width:0.6999999999999998;" x1="240.45" x2="269.85" y1="353.0557" y2="353.0557"/><line style="stroke:#181818;stroke-width:0.6999999999999998;" x1="269.85" x2="269.85" y1="353.0557" y2="362.1557"/><line style="stroke:#181818;stroke-width:0.6999999999999998;" x1="249.55" x2="269.85" y1="362.1557" y2="362.1557"/><line style="stroke:#181818;stroke-width:1.3999999999999997;" x1="244.65" x2="251.65" y1="358.6557" y2="365.6557"/><line style="stroke:#181818;stroke-width:1.3999999999999997;" x1="244.65" x2="251.65" y1="365.6557" y2="358.6557"/><text fill="#000000" font-family="sans-serif" font-size="9.1" font-weight="bold" lengthAdjust="spacing" textLength="4.9" x="245.35" y="337.2681">2</text><text fill="#000000" font-family="sans-serif" font-size="9.1" lengthAdjust="spacing" textLength="97.3" x="253.05" y="337.2681">Receive the request and</text><text fill="#000000" font-family="sans-serif" font-size="9.1" lengthAdjust="spacing" textLength="125.3" x="245.35" y="349.3718">try to connect with the sensors</text><path d="M198.45,372.6557 L249.55,372.6557 L249.55,379.1594 L242.55,386.1594 L198.45,386.1594 L198.45,372.6557 " fill="#EEEEEE" style="stroke:#000000;stroke-width:1.0499999999999998;"/><rect fill="none" height="110.9186" style="stroke:#000000;stroke-width:1.0499999999999998;" width="275.8" x="198.45" y="372.6557"/><text fill="#000000" font-family="sans-serif" font-size="9.1" font-weight="bold" lengthAdjust="spacing" textLength="19.6" x="208.95" y="383.1755">loop</text><text fill="#000000" font-family="sans-serif" font-size="7.7" font-weight="bold" lengthAdjust="spacing" textLength="79.1" x="260.05" y="382.3647">[for at most 3 times]</text><line style="stroke:#181818;stroke-width:0.6999999999999998;" x1="240.45" x2="269.85" y1="414.5668" y2="414.5668"/><line style="stroke:#181818;stroke-width:0.6999999999999998;" x1="269.85" x2="269.85" y1="414.5668" y2="423.6668"/><line style="stroke:#181818;stroke-width:0.6999999999999998;" x1="241.15" x2="269.85" y1="423.6668" y2="423.6668"/><polygon fill="#181818" points="248.15,420.8668,241.15,423.6668,248.15,426.4668,245.35,423.6668" style="stroke:#181818;stroke-width:0.6999999999999998;"/><text fill="#000000" font-family="sans-serif" font-size="9.1" font-weight="bold" lengthAdjust="spacing" textLength="4.9" x="245.35" y="398.7792">2</text><text fill="#000000" font-family="sans-serif" font-size="9.1" lengthAdjust="spacing" textLength="97.3" x="253.05" y="398.7792">Receive the request and</text><text fill="#000000" font-family="sans-serif" font-size="9.1" lengthAdjust="spacing" textLength="125.3" x="245.35" y="410.8829">try to connect with the sensors</text><path d="M205.45,434.1668 L250.95,434.1668 L250.95,440.6705 L243.95,447.6705 L205.45,447.6705 L205.45,434.1668 " fill="#EEEEEE" style="stroke:#000000;stroke-width:1.0499999999999998;"/><rect fill="none" height="44.5074" style="stroke:#000000;stroke-width:1.0499999999999998;" width="261.8" x="205.45" y="434.1668"/><text fill="#000000" font-family="sans-serif" font-size="9.1" font-weight="bold" lengthAdjust="spacing" textLength="14" x="215.95" y="444.6866">opt</text><text fill="#000000" font-family="sans-serif" font-size="7.7" font-weight="bold" lengthAdjust="spacing" textLength="202.3" x="261.45" y="443.8759">[Every sensor succeeds to response to the system]</text><line style="stroke:#181818;stroke-width:0.6999999999999998;" x1="240.45" x2="269.85" y1="463.9742" y2="463.9742"/><line style="stroke:#181818;stroke-width:0.6999999999999998;" x1="269.85" x2="269.85" y1="463.9742" y2="473.0742"/><line style="stroke:#181818;stroke-width:0.6999999999999998;" x1="241.15" x2="269.85" y1="473.0742" y2="473.0742"/><polygon fill="#181818" points="248.15,470.2742,241.15,473.0742,248.15,475.8742,245.35,473.0742" style="stroke:#181818;stroke-width:0.6999999999999998;"/><text fill="#000000" font-family="sans-serif" font-size="9.1" font-weight="bold" lengthAdjust="spacing" textLength="4.9" x="245.35" y="460.2903">3</text><text fill="#000000" font-family="sans-serif" font-size="9.1" lengthAdjust="spacing" textLength="147" x="253.05" y="460.2903">Get the status and power of sensors</text><path d="M236.6,493.3742 L282.1,493.3742 L282.1,499.8779 L275.1,506.8779 L236.6,506.8779 L236.6,493.3742 " fill="#EEEEEE" style="stroke:#000000;stroke-width:1.0499999999999998;"/><rect fill="none" height="39.6074" style="stroke:#000000;stroke-width:1.0499999999999998;" width="267.4" x="236.6" y="493.3742"/><text fill="#000000" font-family="sans-serif" font-size="9.1" font-weight="bold" lengthAdjust="spacing" textLength="14" x="247.1" y="503.894">opt</text><text fill="#000000" font-family="sans-serif" font-size="7.7" font-weight="bold" lengthAdjust="spacing" textLength="207.9" x="292.6" y="503.0833">[2a.2: Some sensor fails to response for three times.]</text><path d="M243.6,510.3779 L243.6,529.2779 L387.1,529.2779 L387.1,517.3779 L380.1,510.3779 L243.6,510.3779 " fill="#FEFFDD" style="stroke:#181818;stroke-width:0.3499999999999999;"/><path d="M380.1,510.3779 L380.1,517.3779 L387.1,517.3779 L380.1,510.3779 " fill="#FEFFDD" style="stroke:#181818;stroke-width:0.3499999999999999;"/><text fill="#000000" font-family="sans-serif" font-size="9.1" lengthAdjust="spacing" textLength="105" x="247.8" y="523.6978">The sensor is regarded as</text><text fill="#000000" font-family="sans-serif" font-size="9.1" font-weight="bold" lengthAdjust="spacing" textLength="18.2" x="355.6" y="523.6978">OFF</text><text fill="#000000" font-family="sans-serif" font-size="9.1" lengthAdjust="spacing" textLength="2.8" x="373.8" y="523.6978">.</text><line style="stroke:#181818;stroke-width:0.6999999999999998;" x1="48.65" x2="55.65" y1="554.1854" y2="551.3854"/><line style="stroke:#181818;stroke-width:0.6999999999999998;" x1="48.65" x2="55.65" y1="554.1854" y2="556.9854"/><line style="stroke:#181818;stroke-width:0.6999999999999998;stroke-dasharray:2.0,2.0;" x1="47.95" x2="229.25" y1="554.1854" y2="554.1854"/><text fill="#000000" font-family="sans-serif" font-size="9.1" font-weight="bold" lengthAdjust="spacing" textLength="4.9" x="59.85" y="550.5015">4</text><text fill="#000000" font-family="sans-serif" font-size="9.1" lengthAdjust="spacing" textLength="117.6" x="67.55" y="550.5015">Response with sensor status</text><line style="stroke:#181818;stroke-width:0.6999999999999998;" x1="47.95" x2="77.35" y1="576.0891" y2="576.0891"/><line style="stroke:#181818;stroke-width:0.6999999999999998;" x1="77.35" x2="77.35" y1="576.0891" y2="585.1891"/><line style="stroke:#181818;stroke-width:0.6999999999999998;" x1="48.65" x2="77.35" y1="585.1891" y2="585.1891"/><polygon fill="#181818" points="55.65,582.3891,48.65,585.1891,55.65,587.9891,52.85,585.1891" style="stroke:#181818;stroke-width:0.6999999999999998;"/><text fill="#000000" font-family="sans-serif" font-size="9.1" font-weight="bold" lengthAdjust="spacing" textLength="4.9" x="52.85" y="572.4052">5</text><text fill="#000000" font-family="sans-serif" font-size="9.1" lengthAdjust="spacing" textLength="93.8" x="60.55" y="572.4052">Receive the information</text><line style="stroke:#000000;stroke-width:0.6999999999999998;stroke-dasharray:2.0,2.0;" x1="7" x2="511" y1="591.4891" y2="591.4891"/><text fill="#000000" font-family="sans-serif" font-size="7.7" font-weight="bold" lengthAdjust="spacing" textLength="245.7" x="10.5" y="599.7981">[5a: The server can not receive the response from the system.]</text><polygon fill="#181818" points="55.65,615.9344,48.65,618.7344,55.65,621.5344,52.85,618.7344" style="stroke:#181818;stroke-width:0.6999999999999998;"/><line style="stroke:#181818;stroke-width:1.3999999999999997;" x1="220.85" x2="227.85" y1="615.2344" y2="622.2344"/><line style="stroke:#181818;stroke-width:1.3999999999999997;" x1="220.85" x2="227.85" y1="622.2344" y2="615.2344"/><line style="stroke:#181818;stroke-width:0.6999999999999998;" x1="51.45" x2="224.35" y1="618.7344" y2="618.7344"/><text fill="#000000" font-family="sans-serif" font-size="9.1" font-weight="bold" lengthAdjust="spacing" textLength="18.2" x="59.85" y="615.0505">5a.1</text><text fill="#000000" font-family="sans-serif" font-size="9.1" lengthAdjust="spacing" textLength="144.2" x="80.85" y="615.0505">Server can not receive the response</text><path d="M14,629.2344 L65.1,629.2344 L65.1,635.7381 L58.1,642.7381 L14,642.7381 L14,629.2344 " fill="#EEEEEE" style="stroke:#000000;stroke-width:1.0499999999999998;"/><rect fill="none" height="240.5129" style="stroke:#000000;stroke-width:1.0499999999999998;" width="361.55" x="14" y="629.2344"/><text fill="#000000" font-family="sans-serif" font-size="9.1" font-weight="bold" lengthAdjust="spacing" textLength="19.6" x="24.5" y="639.7542">loop</text><text fill="#000000" font-family="sans-serif" font-size="7.7" font-weight="bold" lengthAdjust="spacing" textLength="79.1" x="75.6" y="638.9435">[for at most 3 times]</text><text fill="#000000" font-family="sans-serif" font-size="7.7" lengthAdjust="spacing" textLength="37.8" x="121.8" y="660.8472">0.5 second</text><polygon fill="#181818" points="221.55,686.0834,228.55,688.8834,221.55,691.6834,224.35,688.8834" style="stroke:#181818;stroke-width:0.6999999999999998;"/><line style="stroke:#181818;stroke-width:0.6999999999999998;" x1="47.95" x2="225.75" y1="688.8834" y2="688.8834"/><text fill="#000000" font-family="sans-serif" font-size="9.1" font-weight="bold" lengthAdjust="spacing" textLength="4.9" x="52.85" y="685.1995">1</text><text fill="#000000" font-family="sans-serif" font-size="9.1" lengthAdjust="spacing" textLength="91.7" x="60.55" y="685.1995">Request sensor status</text><line style="stroke:#181818;stroke-width:0.6999999999999998;" x1="236.95" x2="266.35" y1="722.8908" y2="722.8908"/><line style="stroke:#181818;stroke-width:0.6999999999999998;" x1="266.35" x2="266.35" y1="722.8908" y2="731.9908"/><line style="stroke:#181818;stroke-width:0.6999999999999998;" x1="237.65" x2="266.35" y1="731.9908" y2="731.9908"/><polygon fill="#181818" points="244.65,729.1908,237.65,731.9908,244.65,734.7908,241.85,731.9908" style="stroke:#181818;stroke-width:0.6999999999999998;"/><text fill="#000000" font-family="sans-serif" font-size="9.1" font-weight="bold" lengthAdjust="spacing" textLength="4.9" x="241.85" y="707.1032">2</text><text fill="#000000" font-family="sans-serif" font-size="9.1" lengthAdjust="spacing" textLength="97.3" x="249.55" y="707.1032">Receive the request and</text><text fill="#000000" font-family="sans-serif" font-size="9.1" lengthAdjust="spacing" textLength="125.3" x="241.85" y="719.2069">try to connect with the sensors</text><text fill="#000000" font-family="sans-serif" font-size="7.7" lengthAdjust="spacing" textLength="33.6" x="123.9" y="755.6999">some time</text><path d="M21,772.3324 L66.5,772.3324 L66.5,778.8361 L59.5,785.8361 L21,785.8361 L21,772.3324 " fill="#EEEEEE" style="stroke:#000000;stroke-width:1.0499999999999998;"/><rect fill="none" height="92.5148" style="stroke:#000000;stroke-width:1.0499999999999998;" width="267.4" x="21" y="772.3324"/><text fill="#000000" font-family="sans-serif" font-size="9.1" font-weight="bold" lengthAdjust="spacing" textLength="14" x="31.5" y="782.8522">opt</text><text fill="#000000" font-family="sans-serif" font-size="7.7" font-weight="bold" lengthAdjust="spacing" textLength="207.9" x="77" y="782.0415">[The server receives the response from the system.]</text><line style="stroke:#181818;stroke-width:0.6999999999999998;" x1="48.65" x2="55.65" y1="802.1398" y2="799.3398"/><line style="stroke:#181818;stroke-width:0.6999999999999998;" x1="48.65" x2="55.65" y1="802.1398" y2="804.9398"/><line style="stroke:#181818;stroke-width:0.6999999999999998;stroke-dasharray:2.0,2.0;" x1="47.95" x2="232.75" y1="802.1398" y2="802.1398"/><text fill="#000000" font-family="sans-serif" font-size="9.1" font-weight="bold" lengthAdjust="spacing" textLength="4.9" x="59.85" y="798.456">4</text><text fill="#000000" font-family="sans-serif" font-size="9.1" lengthAdjust="spacing" textLength="87.5" x="67.55" y="798.456">Response with status</text><line style="stroke:#181818;stroke-width:0.6999999999999998;" x1="47.95" x2="77.35" y1="824.0436" y2="824.0436"/><line style="stroke:#181818;stroke-width:0.6999999999999998;" x1="77.35" x2="77.35" y1="824.0436" y2="833.1436"/><line style="stroke:#181818;stroke-width:0.6999999999999998;" x1="48.65" x2="77.35" y1="833.1436" y2="833.1436"/><polygon fill="#181818" points="55.65,830.3436,48.65,833.1436,55.65,835.9436,52.85,833.1436" style="stroke:#181818;stroke-width:0.6999999999999998;"/><text fill="#000000" font-family="sans-serif" font-size="9.1" font-weight="bold" lengthAdjust="spacing" textLength="4.9" x="52.85" y="820.3597">5</text><text fill="#000000" font-family="sans-serif" font-size="9.1" lengthAdjust="spacing" textLength="93.8" x="60.55" y="820.3597">Receive the information</text><path d="M28.7,842.2436 L28.7,861.1436 L251.3,861.1436 L251.3,849.2436 L244.3,842.2436 L28.7,842.2436 " fill="#FFC0CB" style="stroke:#181818;stroke-width:0.3499999999999999;"/><path d="M244.3,842.2436 L244.3,849.2436 L251.3,849.2436 L244.3,842.2436 " fill="#FFC0CB" style="stroke:#181818;stroke-width:0.3499999999999999;"/><text fill="#000000" font-family="sans-serif" font-size="9.1" font-weight="bold" lengthAdjust="spacing" textLength="107.8" x="83.125" y="855.5634">Use case ends normally.</text><path d="M21.7,879.5473 L67.2,879.5473 L67.2,886.051 L60.2,893.051 L21.7,893.051 L21.7,879.5473 " fill="#EEEEEE" style="stroke:#000000;stroke-width:1.0499999999999998;"/><rect fill="none" height="51.7111" style="stroke:#000000;stroke-width:1.0499999999999998;" width="290.5" x="21.7" y="879.5473"/><text fill="#000000" font-family="sans-serif" font-size="9.1" font-weight="bold" lengthAdjust="spacing" textLength="14" x="32.2" y="890.0671">opt</text><text fill="#000000" font-family="sans-serif" font-size="7.7" font-weight="bold" lengthAdjust="spacing" textLength="231" x="77.7" y="889.2563">[The server fails to receive the response from the system.]</text><path d="M28.7,896.551 L28.7,927.351 L251.3,927.351 L251.3,903.551 L244.3,896.551 L28.7,896.551 " fill="#FFC0CB" style="stroke:#181818;stroke-width:0.3499999999999999;"/><path d="M244.3,896.551 L244.3,903.551 L251.3,903.551 L244.3,896.551 " fill="#FFC0CB" style="stroke:#181818;stroke-width:0.3499999999999999;"/><text fill="#000000" font-family="sans-serif" font-size="9.1" lengthAdjust="spacing" textLength="112" x="69.825" y="909.8708">The system is unreachable.</text><text fill="#000000" font-family="sans-serif" font-size="9.1" font-weight="bold" lengthAdjust="spacing" textLength="134.4" x="69.825" y="921.9745">Use case ends with exception.</text><!--SRC=[nLPHQzim47xthxYnXu9ftIrT68HHQA4kOsChS_Sms8icNn9HM_AaIzDizB_lPDckdQHjobPcI1n9Tv- - - -vqojwSg7AJmyEg49eMPP58Knuw_Bb0BV4WLs9cHHdjlQYic9K22Cql8Bl0Y1GL21dQQxJmnJiuSZpMpbZ8ID32HUvAwKem00X9ncQqOXUnH6TAZEgf1Y1YAr9ILKm2ifKZB2Dj2C5uz62ptou0Ft5yRX5r74_WSevGg2c2N4c6DrDUF1LEIKWBiupZnluR5lLm0X_NZCzk95QaZAuTO2GwdmkbhtRm67iFr3buob4ZoS5nmtV23g_ZkDK8N9381ObO1NKjED9W32yltd_wi3cRfgURas_JD3qvYQ9850Ht8TVa6vi1Yr7DGgAwHY1MpJQC15F_hickW0n8epLAWgMYUMqL-BheNjWZXZr72iPrL3LYPPOi0-kr5U3W-BZ9guTuKpDpbT4Emyv3bRndZci21BmxjJkqyLgSIa-DBOLFM8G5xp0IeMnS83CLgd0-TZiGfw4pjQPiOqY68jpyCt4zR65C1SmK145fsFK8I9KO5fynf_un5S4PoxVgX5z8YPWtiZHIy6_gPEjy_xOkMWm-GL7_xJcDH3AQGCRzeYNMIrQR89wbERU385VI0TOTnAhPdFnssIRhoquAK8u1PyBcc8DmpFvpciPnqYSNZdUVuVykvb3DuxQQWxSKsZDze9ZlSZYevvlXlYBnNIjx7FI1W1ujwIH9NYLZfiubclEWM_ZDObcwXQTrqzPxUrTzldFK2yVVRNMG_MXyAVTIrAZeTiXDfmVNtEtk1HVas1iWD8g-uxW3sWGwieEzjkUoK- -9HThtxTtfDV1-YpPCKFl4yLUEI0h-OiAEtHcqA5P9SqDlFPptjPAU_Ziq_6rvU0Bxtkt2dMMXBKiw5pyA76PrFS0wUTZ-k-Y7kT5_-FC7]--></g></svg>